<svg width="10" height="10" viewBox="0 0 10 10" fill="none" xmlns="http://www.w3.org/2000/svg">
<path d="M8.34937 7.02375C9.4125 6.075 10 5 10 5C10 5 8.125 1.5625 5 1.5625C4.39975 1.56456 3.80628 1.68964 3.25625 1.93L3.7375 2.41187C4.14215 2.26447 4.56934 2.18855 5 2.1875C6.325 2.1875 7.42438 2.9175 8.23 3.72312C8.61772 4.11293 8.9653 4.5407 9.2675 5C9.23125 5.05437 9.19125 5.11437 9.14563 5.18C8.93625 5.48 8.62687 5.88 8.23 6.27687C8.12687 6.38 8.01937 6.48187 7.90688 6.58062L8.34937 7.02375Z" fill="black"/>
<path d="M7.06063 5.735C7.2001 5.3449 7.22593 4.92321 7.13511 4.51901C7.04429 4.11481 6.84055 3.7447 6.54761 3.45176C6.25467 3.15882 5.88457 2.95509 5.48036 2.86427C5.07616 2.77345 4.65447 2.79928 4.26437 2.93875L4.77875 3.45312C5.01894 3.41874 5.26384 3.44078 5.49404 3.51747C5.72425 3.59417 5.93342 3.72343 6.10499 3.895C6.27657 4.06658 6.40582 4.27575 6.48252 4.50595C6.55922 4.73615 6.58125 4.98105 6.54688 5.22125L7.06063 5.735ZM5.22125 6.54687L5.735 7.06062C5.3449 7.20009 4.92322 7.22592 4.51901 7.1351C4.11481 7.04428 3.7447 6.84055 3.45176 6.54761C3.15882 6.25467 2.95509 5.88456 2.86427 5.48036C2.77345 5.07616 2.79928 4.65447 2.93875 4.26437L3.45312 4.77875C3.41875 5.01894 3.44078 5.26384 3.51748 5.49404C3.59418 5.72424 3.72343 5.93342 3.89501 6.10499C4.06658 6.27656 4.27575 6.40582 4.50596 6.48252C4.73616 6.55922 4.98106 6.58125 5.22125 6.54687Z" fill="black"/>
<path d="M2.09375 3.41875C1.98125 3.51875 1.87312 3.62 1.77 3.72312C1.38228 4.11293 1.0347 4.5407 0.7325 5L0.854375 5.18C1.06375 5.48 1.37313 5.88 1.77 6.27687C2.57563 7.0825 3.67563 7.8125 5 7.8125C5.4475 7.8125 5.86875 7.72937 6.2625 7.5875L6.74375 8.07C6.19371 8.31034 5.60025 8.43541 5 8.4375C1.875 8.4375 0 5 0 5C0 5 0.586875 3.92437 1.65062 2.97625L2.09312 3.41937L2.09375 3.41875ZM8.52875 8.97125L1.02875 1.47125L1.47125 1.02875L8.97125 8.52875L8.52875 8.97125Z" fill="black"/>
</svg>
