<svg width="15" height="16" viewBox="0 0 15 16" fill="none" xmlns="http://www.w3.org/2000/svg">
<path d="M9.44886 11.2284L13.7314 8.1534C13.8322 8.0938 13.9158 8.00893 13.9739 7.90716C14.032 7.8054 14.0625 7.69026 14.0625 7.57309C14.0625 7.45593 14.032 7.34078 13.9739 7.23902C13.9158 7.13726 13.8322 7.05239 13.7314 6.99278L9.44886 3.91591C9.34678 3.85586 9.23062 3.82389 9.11219 3.82325C8.99375 3.82261 8.87726 3.85331 8.77453 3.91225C8.6718 3.97118 8.58649 4.05625 8.52726 4.15881C8.46803 4.26138 8.437 4.37778 8.4373 4.49622V5.69716C7.03105 5.69716 2.8123 5.69716 1.8748 13.1972C4.21855 8.97841 8.4373 9.44715 8.4373 9.44715V10.6481C8.4373 11.1731 9.00542 11.49 9.44886 11.2293V11.2284Z" fill="#7B7B7B"/>
</svg>
