<svg width="14" height="15" viewBox="0 0 14 15" fill="none" xmlns="http://www.w3.org/2000/svg">
<path d="M11.7337 3.94238V6.66532H9.01074" stroke="#7B7B7B" stroke-width="1.2" stroke-linecap="round" stroke-linejoin="round"/>
<path d="M1.75 11.2034V8.48047H4.47294" stroke="#7B7B7B" stroke-width="1.2" stroke-linecap="round" stroke-linejoin="round"/>
<path d="M2.8891 6.21112C3.11926 5.5607 3.51044 4.97918 4.02613 4.52082C4.54183 4.06247 5.16523 3.74222 5.83817 3.58996C6.51111 3.4377 7.21165 3.45839 7.87443 3.6501C8.53721 3.84181 9.14062 4.19829 9.62837 4.68628L11.7341 6.66494M1.75 8.48024L3.85574 10.4589C4.34348 10.9469 4.9469 11.3034 5.60968 11.4951C6.27246 11.6868 6.973 11.7075 7.64594 11.5552C8.31888 11.403 8.94228 11.0827 9.45797 10.6244C9.97367 10.166 10.3648 9.58449 10.595 8.93406" stroke="#7B7B7B" stroke-width="1.2" stroke-linecap="round" stroke-linejoin="round"/>
</svg>
