<svg width="11" height="12" viewBox="0 0 11 12" fill="none" xmlns="http://www.w3.org/2000/svg">
<path d="M5.47063 0.458008C2.54675 0.458008 0.176514 2.82827 0.176514 5.75213C0.176514 8.67598 2.54675 11.0462 5.47063 11.0462C8.39449 11.0462 10.7647 8.67598 10.7647 5.75213C10.7647 2.82827 8.39449 0.458008 5.47063 0.458008ZM4.92216 10.2572C3.9177 10.1369 2.98833 9.68726 2.26189 8.96084C1.4048 8.10376 0.932809 6.96422 0.932809 5.75213C0.932809 4.66098 1.31551 3.62878 2.01711 2.80832C2.03518 3.02509 2.0798 3.2575 2.06837 3.42363C2.02663 4.02927 1.96687 4.40831 2.32137 4.91927C2.45947 5.11828 2.4934 5.40358 2.56062 5.63392C2.62637 5.85928 2.88901 5.97748 3.07016 6.11632C3.43563 6.39653 3.78527 6.72222 4.17281 6.96883C4.42858 7.1316 4.58835 7.21256 4.51344 7.52469C4.45319 7.7757 4.43637 7.93032 4.30651 8.15395C4.26688 8.22219 4.45609 8.66091 4.51906 8.72388C4.70991 8.9147 4.89927 9.08976 5.1073 9.26156C5.42981 9.52803 5.07596 9.87426 4.92216 10.2572ZM8.67935 8.96084C8.02693 9.61327 7.21077 10.0422 6.32357 10.2101C6.4493 9.89915 6.67318 9.62289 6.88085 9.46274C7.06149 9.32336 7.28773 9.05527 7.38209 8.84292C7.47636 8.63085 7.60126 8.44701 7.72766 8.25199C7.90748 7.97459 7.2843 7.55622 7.08236 7.46854C6.62793 7.27126 6.28585 7.00505 5.88199 6.72087C5.59425 6.51842 5.01007 6.8266 4.68522 6.68481C4.24028 6.49053 3.87372 6.15295 3.48697 5.8617C3.08787 5.56113 3.10716 5.21073 3.10716 4.76732C3.41977 4.77885 3.86448 4.6808 4.07202 4.9322C4.13751 5.01153 4.36268 5.36596 4.51341 5.24002C4.63655 5.13712 4.42217 4.72463 4.38076 4.62766C4.25337 4.32948 4.67102 4.21319 4.88479 4.011C5.16375 3.74721 5.76214 3.3335 5.71485 3.14442C5.66756 2.95533 5.1161 2.41961 4.79222 2.50319C4.74368 2.51571 4.31634 2.96381 4.23377 3.03411C4.23596 2.88786 4.23814 2.74163 4.24039 2.59538C4.24178 2.50304 4.06812 2.40825 4.07619 2.34869C4.09655 2.19817 4.51555 1.92499 4.61978 1.80511C4.54676 1.75947 4.29758 1.54544 4.22216 1.57685C4.03957 1.65295 3.83335 1.70538 3.65075 1.78146C3.65075 1.71813 3.64307 1.65865 3.6339 1.59991C4.00162 1.43724 4.38949 1.32465 4.78716 1.26516L5.14563 1.40922L5.39873 1.70958L5.65132 1.97004L5.87212 2.04118L6.22283 1.71042L6.1324 1.4743V1.26205C6.82598 1.36279 7.48097 1.62154 8.05462 2.02054C7.95199 2.02972 7.83921 2.04482 7.71198 2.06101C7.65942 2.02995 7.59199 2.01585 7.5347 1.99424C7.70093 2.35165 7.87431 2.70411 8.05047 3.05678C8.23864 3.43351 8.65606 3.83759 8.72936 4.23526C8.81575 4.70399 8.75581 5.12976 8.80307 5.68124C8.84858 6.21231 9.40182 6.81571 9.40182 6.81571C9.40182 6.81571 9.65728 6.90273 9.86974 6.87242C9.67169 7.65592 9.26567 8.37447 8.67935 8.96084Z" fill="url(#paint0_linear_692_2303)"/>
<defs>
<linearGradient id="paint0_linear_692_2303" x1="1.62036" y1="3.18968" x2="4.62189" y2="9.57791" gradientUnits="userSpaceOnUse">
<stop stop-color="#2BC2F7"/>
<stop offset="1" stop-color="#5A81FD"/>
</linearGradient>
</defs>
</svg>
