<svg width="21" height="21" viewBox="0 0 21 21" fill="none" xmlns="http://www.w3.org/2000/svg">
<g opacity="0.8" clip-path="url(#clip0_2143_8686)">
<path d="M10.5 13.3002C12.0463 13.3002 13.3 12.0466 13.3 10.5002C13.3 8.9538 12.0463 7.7002 10.5 7.7002C8.95355 7.7002 7.69995 8.9538 7.69995 10.5002C7.69995 12.0466 8.95355 13.3002 10.5 13.3002Z" fill="#2F4050"/>
<path d="M7.875 1.75L6.27375 3.5H3.5C2.5375 3.5 1.75 4.2875 1.75 5.25V15.75C1.75 16.7125 2.5375 17.5 3.5 17.5H17.5C18.4625 17.5 19.25 16.7125 19.25 15.75V5.25C19.25 4.2875 18.4625 3.5 17.5 3.5H14.7262L13.125 1.75H7.875ZM10.5 14.875C8.085 14.875 6.125 12.915 6.125 10.5C6.125 8.085 8.085 6.125 10.5 6.125C12.915 6.125 14.875 8.085 14.875 10.5C14.875 12.915 12.915 14.875 10.5 14.875Z" fill="#2F4050"/>
</g>
<defs>
<clipPath id="clip0_2143_8686">
<rect width="21" height="21" fill="white"/>
</clipPath>
</defs>
</svg>
