<svg width="8" height="8" viewBox="0 0 8 8" fill="none" xmlns="http://www.w3.org/2000/svg">
<g clip-path="url(#clip0_476_2310)">
<path d="M4 0.474998L7.305 2H7.75C7.8163 2 7.87989 2.02634 7.92678 2.07322C7.97366 2.12011 8 2.18369 8 2.25V3.25C8 3.3163 7.97366 3.37989 7.92678 3.42678C7.87989 3.47366 7.8163 3.5 7.75 3.5H7.5V7C7.55577 7.00001 7.60993 7.01867 7.65387 7.05301C7.69781 7.08735 7.729 7.13539 7.7425 7.1895L7.9925 8.1895C8.00169 8.22634 8.00237 8.2648 7.99447 8.30195C7.98658 8.33909 7.97034 8.37395 7.94696 8.40388C7.92359 8.43381 7.8937 8.45802 7.85957 8.47467C7.82545 8.49133 7.78797 8.49999 7.75 8.5H0.25C0.212026 8.49999 0.174553 8.49133 0.140425 8.47467C0.106298 8.45802 0.076413 8.43381 0.0530389 8.40388C0.0296649 8.37395 0.0134159 8.33909 0.00552543 8.30195C-0.00236508 8.2648 -0.00168981 8.22634 0.0075 8.1895L0.2575 7.1895C0.270995 7.13539 0.302194 7.08735 0.346134 7.05301C0.390075 7.01867 0.444234 7.00001 0.5 7V3.5H0.25C0.183696 3.5 0.120107 3.47366 0.0732233 3.42678C0.0263392 3.37989 0 3.3163 0 3.25V2.25C0 2.18369 0.0263392 2.12011 0.0732233 2.07322C0.120107 2.02634 0.183696 2 0.25 2H0.695L4 0.474998ZM1.888 2H6.1115L4 1.025L1.888 2ZM1 3.5V7H1.5V3.5H1ZM2 3.5V7H3.25V3.5H2ZM3.75 3.5V7H4.25V3.5H3.75ZM4.75 3.5V7H6V3.5H4.75ZM6.5 3.5V7H7V3.5H6.5ZM7.5 3V2.5H0.5V3H7.5ZM7.305 7.5H0.695L0.57 8H7.43L7.305 7.5Z" fill="black"/>
</g>
<defs>
<clipPath id="clip0_476_2310">
<rect width="8" height="8" fill="white"/>
</clipPath>
</defs>
</svg>
