<svg width="10" height="9" viewBox="0 0 10 9" fill="none" xmlns="http://www.w3.org/2000/svg">
<path opacity="0.7" d="M4.16634 6.23893V5.82227H1.25384L1.24967 7.48893C1.24967 7.95143 1.62051 8.32227 2.08301 8.32227H7.91634C8.37884 8.32227 8.74967 7.95143 8.74967 7.48893V5.82227H5.83301V6.23893H4.16634ZM8.33301 2.48893H6.66217V1.6556L5.82884 0.822266H4.16217L3.32884 1.6556V2.48893H1.66634C1.20801 2.48893 0.833008 2.86393 0.833008 3.32227V4.57227C0.833008 5.03477 1.20384 5.4056 1.66634 5.4056H4.16634V4.57227H5.83301V5.4056H8.33301C8.79134 5.4056 9.16634 5.0306 9.16634 4.57227V3.32227C9.16634 2.86393 8.79134 2.48893 8.33301 2.48893ZM5.83301 2.48893H4.16634V1.6556H5.83301V2.48893Z" fill="#434343"/>
</svg>
