<svg width="10" height="10" viewBox="0 0 10 10" fill="none" xmlns="http://www.w3.org/2000/svg">
<g clip-path="url(#clip0_476_2189)">
<path d="M4.16659 6.66667V6.25H1.25409L1.24992 7.91667C1.24992 8.37917 1.62075 8.75 2.08325 8.75H7.91659C8.37909 8.75 8.74992 8.37917 8.74992 7.91667V6.25H5.83325V6.66667H4.16659ZM8.33325 2.91667H6.66242V2.08333L5.82909 1.25H4.16242L3.32909 2.08333V2.91667H1.66659C1.20825 2.91667 0.833252 3.29167 0.833252 3.75V5C0.833252 5.4625 1.20409 5.83333 1.66659 5.83333H4.16659V5H5.83325V5.83333H8.33325C8.79159 5.83333 9.16659 5.45833 9.16659 5V3.75C9.16659 3.29167 8.79159 2.91667 8.33325 2.91667ZM5.83325 2.91667H4.16659V2.08333H5.83325V2.91667Z" fill="black"/>
</g>
<defs>
<clipPath id="clip0_476_2189">
<rect width="10" height="10" fill="white"/>
</clipPath>
</defs>
</svg>
