<svg width="9" height="9" viewBox="0 0 9 9" fill="none" xmlns="http://www.w3.org/2000/svg">
<path d="M8.15625 1.6875C8.23084 1.6875 8.30238 1.71713 8.35512 1.76988C8.40787 1.82262 8.4375 1.89416 8.4375 1.96875V7.03125C8.4375 7.10584 8.40787 7.17738 8.35512 7.23012C8.30238 7.28287 8.23084 7.3125 8.15625 7.3125H0.84375C0.769158 7.3125 0.697621 7.28287 0.644876 7.23012C0.592132 7.17738 0.5625 7.10584 0.5625 7.03125V1.96875C0.5625 1.89416 0.592132 1.82262 0.644876 1.76988C0.697621 1.71713 0.769158 1.6875 0.84375 1.6875H8.15625ZM0.84375 1.125C0.619974 1.125 0.405362 1.21389 0.247129 1.37213C0.0888948 1.53036 0 1.74497 0 1.96875V7.03125C0 7.25503 0.0888948 7.46964 0.247129 7.62787C0.405362 7.78611 0.619974 7.875 0.84375 7.875H8.15625C8.38003 7.875 8.59464 7.78611 8.75287 7.62787C8.91111 7.46964 9 7.25503 9 7.03125V1.96875C9 1.74497 8.91111 1.53036 8.75287 1.37213C8.59464 1.21389 8.38003 1.125 8.15625 1.125H0.84375Z" fill="black"/>
<path d="M1.6875 4.78125C1.6875 4.70666 1.71713 4.63512 1.76988 4.58238C1.82262 4.52963 1.89416 4.5 1.96875 4.5H7.03125C7.10584 4.5 7.17738 4.52963 7.23012 4.58238C7.28287 4.63512 7.3125 4.70666 7.3125 4.78125C7.3125 4.85584 7.28287 4.92738 7.23012 4.98012C7.17738 5.03287 7.10584 5.0625 7.03125 5.0625H1.96875C1.89416 5.0625 1.82262 5.03287 1.76988 4.98012C1.71713 4.92738 1.6875 4.85584 1.6875 4.78125ZM1.6875 5.90625C1.6875 5.83166 1.71713 5.76012 1.76988 5.70738C1.82262 5.65463 1.89416 5.625 1.96875 5.625H5.34375C5.41834 5.625 5.48988 5.65463 5.54262 5.70738C5.59537 5.76012 5.625 5.83166 5.625 5.90625C5.625 5.98084 5.59537 6.05238 5.54262 6.10512C5.48988 6.15787 5.41834 6.1875 5.34375 6.1875H1.96875C1.89416 6.1875 1.82262 6.15787 1.76988 6.10512C1.71713 6.05238 1.6875 5.98084 1.6875 5.90625ZM1.6875 3.09375C1.6875 3.01916 1.71713 2.94762 1.76988 2.89488C1.82262 2.84213 1.89416 2.8125 1.96875 2.8125H7.03125C7.10584 2.8125 7.17738 2.84213 7.23012 2.89488C7.28287 2.94762 7.3125 3.01916 7.3125 3.09375V3.65625C7.3125 3.73084 7.28287 3.80238 7.23012 3.85512C7.17738 3.90787 7.10584 3.9375 7.03125 3.9375H1.96875C1.89416 3.9375 1.82262 3.90787 1.76988 3.85512C1.71713 3.80238 1.6875 3.73084 1.6875 3.65625V3.09375Z" fill="black"/>
</svg>
