<svg width="11" height="11" viewBox="0 0 11 11" fill="none" xmlns="http://www.w3.org/2000/svg">
<g opacity="0.7" clip-path="url(#clip0_3202_78532)">
<path d="M8.70833 1.83329H8.25V1.37496C8.25 1.12288 8.04375 0.916626 7.79167 0.916626C7.53958 0.916626 7.33333 1.12288 7.33333 1.37496V1.83329H3.66667V1.37496C3.66667 1.12288 3.46042 0.916626 3.20833 0.916626C2.95625 0.916626 2.75 1.12288 2.75 1.37496V1.83329H2.29167C1.78292 1.83329 1.37958 2.24579 1.37958 2.74996L1.375 9.16663C1.375 9.67079 1.78292 10.0833 2.29167 10.0833H8.70833C9.2125 10.0833 9.625 9.67079 9.625 9.16663V2.74996C9.625 2.24579 9.2125 1.83329 8.70833 1.83329ZM8.70833 8.70829C8.70833 8.96038 8.50208 9.16663 8.25 9.16663H2.75C2.49792 9.16663 2.29167 8.96038 2.29167 8.70829V4.12496H8.70833V8.70829ZM3.20833 5.04163H4.125V5.95829H3.20833V5.04163ZM5.04167 5.04163H5.95833V5.95829H5.04167V5.04163ZM6.875 5.04163H7.79167V5.95829H6.875V5.04163Z" fill="#2F4050"/>
</g>
<defs>
<clipPath id="clip0_3202_78532">
<rect width="11" height="11" fill="white"/>
</clipPath>
</defs>
</svg>
