<svg width="10" height="10" viewBox="0 0 10 10" fill="none" xmlns="http://www.w3.org/2000/svg">
<path opacity="0.7" d="M7.91682 0.416016H2.0835C1.91779 0.416197 1.75893 0.482103 1.64175 0.599274C1.52458 0.716445 1.45868 0.875311 1.4585 1.04102V9.24268C1.45849 9.29595 1.4721 9.34834 1.49804 9.39487C1.52398 9.44139 1.56138 9.48052 1.6067 9.50853C1.65201 9.53654 1.70373 9.55249 1.75695 9.55489C1.81017 9.55728 1.86312 9.54603 1.91076 9.52221L2.45357 9.25072C2.46804 9.2435 2.48399 9.23973 2.50017 9.23973C2.51634 9.23973 2.53229 9.2435 2.54676 9.25072L3.10055 9.52762C3.17293 9.56359 3.25267 9.58231 3.3335 9.58231C3.41433 9.58231 3.49406 9.56359 3.56645 9.52762L4.12023 9.25072C4.1347 9.2435 4.15065 9.23973 4.16683 9.23973C4.183 9.23973 4.19895 9.2435 4.21342 9.25072L4.76721 9.52762C4.83959 9.56359 4.91933 9.58231 5.00016 9.58231C5.08099 9.58231 5.16072 9.56359 5.23311 9.52762L5.78689 9.25072C5.80134 9.24347 5.81728 9.2397 5.83344 9.2397C5.8496 9.2397 5.86554 9.24347 5.87998 9.25072L6.43387 9.52762C6.50626 9.56358 6.58599 9.58229 6.66682 9.58229C6.74765 9.58229 6.82738 9.56358 6.89977 9.52762L7.45356 9.25072C7.46802 9.2435 7.48397 9.23973 7.50015 9.23973C7.51632 9.23973 7.53227 9.2435 7.54674 9.25072L8.08955 9.52221C8.1372 9.54603 8.19014 9.55728 8.24336 9.55489C8.29658 9.55249 8.3483 9.53654 8.39361 9.50853C8.43893 9.48052 8.47633 9.44139 8.50227 9.39487C8.52821 9.34834 8.54182 9.29595 8.54182 9.24268V1.04102C8.54164 0.875311 8.47573 0.716445 8.35856 0.599274C8.24139 0.482103 8.08252 0.416197 7.91682 0.416016ZM4.47068 2.28256C4.57212 2.23153 4.68023 2.19503 4.79184 2.17412V1.87436C4.79157 1.84683 4.79676 1.81952 4.80711 1.79401C4.81746 1.7685 4.83276 1.74529 4.85214 1.72573C4.87151 1.70617 4.89456 1.69065 4.91997 1.68005C4.94538 1.66945 4.97264 1.664 5.00017 1.664C5.0277 1.664 5.05495 1.66945 5.08036 1.68005C5.10577 1.69065 5.12882 1.70617 5.1482 1.72573C5.16757 1.74529 5.18287 1.7685 5.19322 1.79401C5.20357 1.81952 5.20876 1.84683 5.2085 1.87436V2.16359C5.4623 2.19789 5.71916 2.30375 5.95689 2.47855C5.97913 2.49468 5.99795 2.51505 6.01228 2.53848C6.02661 2.56192 6.03617 2.58795 6.0404 2.61509C6.04463 2.64223 6.04345 2.66994 6.03693 2.69662C6.03041 2.7233 6.01868 2.74843 6.00241 2.77056C5.98614 2.7927 5.96565 2.81139 5.94213 2.82557C5.91861 2.83976 5.89251 2.84915 5.86535 2.85321C5.83818 2.85727 5.81048 2.85591 5.78384 2.84922C5.7572 2.84254 5.73215 2.83065 5.71012 2.81424C5.361 2.55754 4.96813 2.49783 4.65879 2.65434C4.48922 2.74014 4.37518 2.8848 4.37518 3.01408C4.37518 3.26641 4.63213 3.38447 4.9426 3.50236C4.9958 3.52256 5.04416 3.54102 5.0843 3.55877C5.12443 3.57652 5.17066 3.59393 5.2202 3.61293C5.5275 3.73031 6.04184 3.9268 6.04184 4.48461C6.04184 4.776 5.84561 5.05631 5.52965 5.21617C5.42816 5.26682 5.32005 5.30295 5.2085 5.3235V5.62436C5.20796 5.67926 5.18578 5.73173 5.14677 5.77037C5.10776 5.809 5.05507 5.83068 5.00017 5.83068C4.94526 5.83068 4.89257 5.809 4.85356 5.77037C4.81455 5.73173 4.79237 5.67926 4.79184 5.62436V5.33402C4.53793 5.29973 4.28117 5.195 4.04344 5.02016C4.02121 5.00403 4.00238 4.98366 3.98805 4.96023C3.97372 4.93679 3.96416 4.91076 3.95993 4.88362C3.9557 4.85648 3.95688 4.82877 3.9634 4.80209C3.96992 4.77541 3.98166 4.75028 3.99792 4.72815C4.01419 4.70602 4.03468 4.68732 4.0582 4.67314C4.08172 4.65895 4.10782 4.64956 4.13498 4.6455C4.16215 4.64145 4.18985 4.6428 4.21649 4.64949C4.24313 4.65617 4.26819 4.66806 4.29022 4.68447C4.63934 4.94107 5.03209 5.00088 5.34154 4.84439C5.51111 4.75859 5.62516 4.61393 5.62516 4.48465C5.62516 4.23312 5.39566 4.12602 5.07147 4.00223C5.01482 3.98057 4.96191 3.96027 4.91613 3.94008C4.88164 3.92486 4.84025 3.90926 4.79467 3.89195C4.5024 3.78102 3.9585 3.57447 3.9585 3.01416C3.9585 2.7227 4.15473 2.44238 4.47068 2.28256ZM6.66682 7.7077H3.3335C3.30597 7.70796 3.27866 7.70277 3.25315 7.69242C3.22764 7.68207 3.20444 7.66677 3.18488 7.64739C3.16532 7.62802 3.14979 7.60497 3.13919 7.57956C3.1286 7.55415 3.12314 7.52689 3.12314 7.49936C3.12314 7.47184 3.1286 7.44458 3.13919 7.41917C3.14979 7.39376 3.16532 7.37071 3.18488 7.35134C3.20444 7.33196 3.22764 7.31666 3.25315 7.30631C3.27866 7.29596 3.30597 7.29077 3.3335 7.29104H6.66682C6.72172 7.29157 6.77419 7.31375 6.81283 7.35276C6.85147 7.39177 6.87314 7.44446 6.87314 7.49936C6.87314 7.55427 6.85147 7.60696 6.81283 7.64597C6.77419 7.68498 6.72172 7.70716 6.66682 7.7077ZM6.66682 6.87436H3.3335C3.27859 6.87382 3.22612 6.85164 3.18748 6.81263C3.14885 6.77362 3.12717 6.72093 3.12717 6.66603C3.12717 6.61112 3.14885 6.55843 3.18748 6.51942C3.22612 6.48041 3.27859 6.45823 3.3335 6.4577H6.66682C6.72172 6.45823 6.77419 6.48041 6.81283 6.51942C6.85147 6.55843 6.87314 6.61112 6.87314 6.66603C6.87314 6.72093 6.85147 6.77362 6.81283 6.81263C6.77419 6.85164 6.72172 6.87382 6.66682 6.87436Z" fill="#434343"/>
</svg>
