<svg xmlns="http://www.w3.org/2000/svg"  viewBox="0 0 50 50" width="50px" height="50px" baseProfile="basic"><polygon fill="#61ff7b" points="39,16.917 29,6.525 19,5.37 12,9.411 8,18.649 12,32.34 22,42.898 32,44.053 39,40.011 43,30.773"/><polygon fill="#57e66f" points="12,9.412 19,5.37 29,6.525 22,10.566"/><polygon fill="#4ecc62" points="32,20.959 39,16.917 29,6.525 22,10.566"/><polygon fill="#44b356" points="32,44.053 39,40.011 43,30.774 36,34.815"/><polygon fill="#49bf5c" points="32,20.959 39,16.917 43,30.774 36,34.815"/><polygon fill="#44b356" points="19.921,29.087 14.921,20.427 12.921,21.581 20,33.66 30.921,27.355 28.921,23.891"/></svg>