<svg width="14" height="11" viewBox="0 0 14 11" fill="none" xmlns="http://www.w3.org/2000/svg">
<path d="M8.44886 8.08387L12.7314 5.00887C12.8322 4.94927 12.9158 4.8644 12.9739 4.76263C13.032 4.66087 13.0625 4.54573 13.0625 4.42856C13.0625 4.3114 13.032 4.19625 12.9739 4.09449C12.9158 3.99273 12.8322 3.90786 12.7314 3.84825L8.44886 0.771374C8.34678 0.711329 8.23062 0.679363 8.11219 0.678721C7.99375 0.678079 7.87726 0.708783 7.77453 0.767718C7.6718 0.826653 7.58649 0.911719 7.52726 1.01428C7.46803 1.11684 7.437 1.23325 7.4373 1.35169V2.55262C6.03105 2.55262 1.8123 2.55262 0.8748 10.0526C3.21855 5.83387 7.4373 6.30262 7.4373 6.30262V7.50356C7.4373 8.02856 8.00542 8.34544 8.44886 8.08481V8.08387Z" fill="#7B7B7B"/>
</svg>
