<svg width="11" height="11" viewBox="0 0 11 11" fill="none" xmlns="http://www.w3.org/2000/svg">
<g clip-path="url(#clip0_3202_44394)">
<path opacity="0.7" d="M5.50033 0.916016C3.72658 0.916016 2.29199 2.3506 2.29199 4.12435C2.29199 4.92185 2.52116 5.66893 2.93824 6.34268C3.37366 7.04852 3.94658 7.65352 4.38658 8.35935C4.60199 8.7031 4.75783 9.02393 4.92283 9.39518C5.04199 9.64727 5.13824 10.0827 5.50033 10.0827C5.86241 10.0827 5.95866 9.64727 6.07324 9.39518C6.24283 9.02393 6.39408 8.7031 6.60949 8.35935C7.04949 7.6581 7.62241 7.0531 8.05783 6.34268C8.47949 5.66893 8.70866 4.92185 8.70866 4.12435C8.70866 2.3506 7.27408 0.916016 5.50033 0.916016ZM5.50033 5.38477C4.86783 5.38477 4.35449 4.87143 4.35449 4.23893C4.35449 3.60643 4.86783 3.0931 5.50033 3.0931C6.13283 3.0931 6.64616 3.60643 6.64616 4.23893C6.64616 4.87143 6.13283 5.38477 5.50033 5.38477Z" fill="#434343"/>
</g>
<defs>
<clipPath id="clip0_3202_44394">
<rect width="11" height="11" fill="white"/>
</clipPath>
</defs>
</svg>
