<svg width="4" height="17" viewBox="0 0 4 17" fill="none" xmlns="http://www.w3.org/2000/svg">
<path d="M2 12.0977C2.53043 12.0977 3.03914 12.3084 3.41421 12.6834C3.78929 13.0585 4 13.5672 4 14.0977C4 14.6281 3.78929 15.1368 3.41421 15.5119C3.03914 15.8869 2.53043 16.0977 2 16.0977C1.46957 16.0977 0.960859 15.8869 0.585786 15.5119C0.210713 15.1368 -6.35145e-07 14.6281 -6.11959e-07 14.0977C-5.88773e-07 13.5672 0.210714 13.0585 0.585786 12.6834C0.960859 12.3084 1.46957 12.0977 2 12.0977ZM2 6.09766C2.53043 6.09766 3.03914 6.30837 3.41421 6.68344C3.78929 7.05852 4 7.56722 4 8.09766C4 8.62809 3.78929 9.1368 3.41421 9.51187C3.03914 9.88694 2.53043 10.0977 2 10.0977C1.46957 10.0977 0.960859 9.88694 0.585786 9.51187C0.210714 9.1368 -3.72877e-07 8.62809 -3.49691e-07 8.09766C-3.26505e-07 7.56722 0.210714 7.05852 0.585787 6.68344C0.960859 6.30837 1.46957 6.09766 2 6.09766ZM2 0.0976562C2.53043 0.0976562 3.03914 0.30837 3.41421 0.683443C3.78929 1.05852 4 1.56722 4 2.09766C4 2.62809 3.78929 3.1368 3.41421 3.51187C3.03914 3.88694 2.53043 4.09766 2 4.09766C1.46957 4.09766 0.960859 3.88694 0.585787 3.51187C0.210714 3.1368 -1.10609e-07 2.62809 -8.74228e-08 2.09766C-6.42368e-08 1.56722 0.210714 1.05852 0.585787 0.683442C0.96086 0.30837 1.46957 0.0976561 2 0.0976562Z" fill="#7B7B7B"/>
</svg>
