<svg width="10" height="10" viewBox="0 0 10 10" fill="none" xmlns="http://www.w3.org/2000/svg">
<g clip-path="url(#clip0_2709_8728)">
<path d="M8.02344 4.1875H5.5625C5.33872 4.1875 5.12411 4.0986 4.96588 3.94037C4.80764 3.78214 4.71875 3.56753 4.71875 3.34375V0.882812C4.71875 0.864164 4.71134 0.84628 4.69816 0.833094C4.68497 0.819908 4.66709 0.8125 4.64844 0.8125H3.03125C2.73288 0.8125 2.44673 0.931026 2.23575 1.142C2.02478 1.35298 1.90625 1.63913 1.90625 1.9375V7.5625C1.90625 7.86087 2.02478 8.14701 2.23575 8.35799C2.44673 8.56897 2.73288 8.6875 3.03125 8.6875H6.96875C7.26712 8.6875 7.55327 8.56897 7.76424 8.35799C7.97522 8.14701 8.09375 7.86087 8.09375 7.5625V4.25781C8.09375 4.23916 8.08634 4.22128 8.07316 4.20809C8.05997 4.19491 8.04208 4.1875 8.02344 4.1875ZM6.40625 7H3.59375C3.51916 7 3.44762 6.97037 3.39488 6.91762C3.34213 6.86488 3.3125 6.79334 3.3125 6.71875C3.3125 6.64416 3.34213 6.57262 3.39488 6.51987C3.44762 6.46713 3.51916 6.4375 3.59375 6.4375H6.40625C6.48084 6.4375 6.55238 6.46713 6.60512 6.51987C6.65787 6.57262 6.6875 6.64416 6.6875 6.71875C6.6875 6.79334 6.65787 6.86488 6.60512 6.91762C6.55238 6.97037 6.48084 7 6.40625 7ZM6.40625 5.59375H3.59375C3.51916 5.59375 3.44762 5.56412 3.39488 5.51137C3.34213 5.45863 3.3125 5.38709 3.3125 5.3125C3.3125 5.23791 3.34213 5.16637 3.39488 5.11362C3.44762 5.06088 3.51916 5.03125 3.59375 5.03125H6.40625C6.48084 5.03125 6.55238 5.06088 6.60512 5.11362C6.65787 5.16637 6.6875 5.23791 6.6875 5.3125C6.6875 5.38709 6.65787 5.45863 6.60512 5.51137C6.55238 5.56412 6.48084 5.59375 6.40625 5.59375Z" fill="#ED5565"/>
<path d="M7.8691 3.56548L5.34119 1.03757C5.33628 1.03268 5.33002 1.02936 5.32322 1.02801C5.31642 1.02667 5.30938 1.02736 5.30297 1.03001C5.29657 1.03266 5.29109 1.03714 5.28722 1.0429C5.28336 1.04865 5.28128 1.05542 5.28125 1.06235V3.34417C5.28125 3.41876 5.31088 3.4903 5.36363 3.54304C5.41637 3.59579 5.48791 3.62542 5.5625 3.62542H7.84432C7.85125 3.62539 7.85802 3.62331 7.86377 3.61945C7.86952 3.61558 7.87401 3.6101 7.87666 3.6037C7.87931 3.59729 7.88 3.59025 7.87866 3.58345C7.87731 3.57664 7.87399 3.57039 7.8691 3.56548Z" fill="#ED5565"/>
</g>
<defs>
<clipPath id="clip0_2709_8728">
<rect width="9" height="9" fill="white" transform="translate(0.5 0.25)"/>
</clipPath>
</defs>
</svg>
