<svg width="8" height="8" viewBox="0 0 8 8" fill="none" xmlns="http://www.w3.org/2000/svg">
<path d="M4 4C4.39782 4 4.77936 3.84196 5.06066 3.56066C5.34196 3.27936 5.5 2.89782 5.5 2.5C5.5 2.10218 5.34196 1.72064 5.06066 1.43934C4.77936 1.15804 4.39782 1 4 1C3.60218 1 3.22064 1.15804 2.93934 1.43934C2.65804 1.72064 2.5 2.10218 2.5 2.5C2.5 2.89782 2.65804 3.27936 2.93934 3.56066C3.22064 3.84196 3.60218 4 4 4ZM5 2.5C5 2.76522 4.89464 3.01957 4.70711 3.20711C4.51957 3.39464 4.26522 3.5 4 3.5C3.73478 3.5 3.48043 3.39464 3.29289 3.20711C3.10536 3.01957 3 2.76522 3 2.5C3 2.23478 3.10536 1.98043 3.29289 1.79289C3.48043 1.60536 3.73478 1.5 4 1.5C4.26522 1.5 4.51957 1.60536 4.70711 1.79289C4.89464 1.98043 5 2.23478 5 2.5ZM7 6.5C7 7 6.5 7 6.5 7H1.5C1.5 7 1 7 1 6.5C1 6 1.5 4.5 4 4.5C6.5 4.5 7 6 7 6.5ZM6.5 6.498C6.4995 6.375 6.423 6.005 6.084 5.666C5.758 5.34 5.1445 5 4 5C2.855 5 2.242 5.34 1.916 5.666C1.577 6.005 1.501 6.375 1.5 6.498H6.5Z" fill="black"/>
</svg>
