<svg width="9" height="9" viewBox="0 0 9 9" fill="none" xmlns="http://www.w3.org/2000/svg">
<path opacity="0.7" d="M4.5 4.5C5.04701 4.5 5.57161 4.2827 5.95841 3.89591C6.3452 3.50911 6.5625 2.98451 6.5625 2.4375C6.5625 1.89049 6.3452 1.36589 5.95841 0.979092C5.57161 0.592299 5.04701 0.375 4.5 0.375C3.95299 0.375 3.42839 0.592299 3.04159 0.979092C2.6548 1.36589 2.4375 1.89049 2.4375 2.4375C2.4375 2.98451 2.6548 3.50911 3.04159 3.89591C3.42839 4.2827 3.95299 4.5 4.5 4.5ZM5.875 2.4375C5.875 2.80217 5.73013 3.15191 5.47227 3.40977C5.21441 3.66763 4.86467 3.8125 4.5 3.8125C4.13533 3.8125 3.78559 3.66763 3.52773 3.40977C3.26987 3.15191 3.125 2.80217 3.125 2.4375C3.125 2.07283 3.26987 1.72309 3.52773 1.46523C3.78559 1.20737 4.13533 1.0625 4.5 1.0625C4.86467 1.0625 5.21441 1.20737 5.47227 1.46523C5.73013 1.72309 5.875 2.07283 5.875 2.4375ZM8.625 7.9375C8.625 8.625 7.9375 8.625 7.9375 8.625H1.0625C1.0625 8.625 0.375 8.625 0.375 7.9375C0.375 7.25 1.0625 5.1875 4.5 5.1875C7.9375 5.1875 8.625 7.25 8.625 7.9375ZM7.9375 7.93475C7.93681 7.76562 7.83162 7.25688 7.3655 6.79075C6.91725 6.3425 6.07369 5.875 4.5 5.875C2.92563 5.875 2.08275 6.3425 1.6345 6.79075C1.16838 7.25688 1.06388 7.76562 1.0625 7.93475H7.9375Z" fill="#434343"/>
</svg>
