<svg width="9" height="9" viewBox="0 0 9 9" fill="none" xmlns="http://www.w3.org/2000/svg">
<g clip-path="url(#clip0_476_2175)">
<path d="M2.05515 0.746868C2.02195 0.704153 1.98003 0.668991 1.93219 0.64372C1.88435 0.618448 1.83168 0.603645 1.77768 0.600293C1.72368 0.596942 1.66958 0.605118 1.61899 0.62428C1.56839 0.643441 1.52245 0.673149 1.48421 0.711431L0.902589 1.29362C0.630902 1.56587 0.530777 1.95118 0.649464 2.28924C1.14207 3.68851 1.94338 4.95892 2.99396 6.00624C4.0413 7.05681 5.3117 7.85812 6.71096 8.35074C7.04903 8.46943 7.43434 8.36931 7.70659 8.09762L8.28821 7.51599C8.3265 7.47776 8.3562 7.43182 8.37537 7.38122C8.39453 7.33062 8.4027 7.27653 8.39935 7.22253C8.396 7.16853 8.3812 7.11586 8.35593 7.06802C8.33065 7.02018 8.29549 6.97826 8.25278 6.94506L6.95509 5.93593C6.90945 5.90054 6.85638 5.87597 6.79986 5.86408C6.74334 5.85219 6.68487 5.8533 6.62884 5.86731L5.39696 6.17499C5.23253 6.21609 5.06026 6.21391 4.89693 6.16866C4.73359 6.12342 4.58475 6.03665 4.4649 5.91681L3.0834 4.53474C2.96346 4.41495 2.87659 4.26614 2.83124 4.1028C2.7859 3.93946 2.78363 3.76716 2.82465 3.60268L3.1329 2.37081C3.14691 2.31478 3.14802 2.2563 3.13613 2.19978C3.12424 2.14327 3.09967 2.09019 3.06428 2.04456L2.05515 0.746868ZM1.05953 0.287306C1.15796 0.18884 1.27622 0.112442 1.40644 0.0631841C1.53667 0.0139264 1.67588 -0.00706344 1.81484 0.00160822C1.9538 0.0102799 2.08933 0.0484146 2.21242 0.11348C2.33551 0.178546 2.44335 0.269054 2.52878 0.378993L3.5379 1.67612C3.72296 1.91406 3.78821 2.22399 3.71509 2.51649L3.4074 3.74837C3.39149 3.81217 3.39235 3.87901 3.4099 3.94238C3.42744 4.00575 3.46107 4.06352 3.50753 4.11006L4.88959 5.49212C4.93618 5.53867 4.99404 5.57235 5.05752 5.5899C5.12101 5.60745 5.18795 5.60825 5.25184 5.59224L6.48315 5.28456C6.6275 5.24847 6.77816 5.24566 6.92375 5.27636C7.06933 5.30705 7.20604 5.37045 7.32353 5.46174L8.62065 6.47087C9.08696 6.83368 9.12971 7.52274 8.71234 7.93956L8.13071 8.52118C7.71446 8.93743 7.09234 9.12024 6.5124 8.91606C5.02807 8.39379 3.68037 7.54403 2.56928 6.42981C1.45513 5.31888 0.605369 3.97138 0.0830266 2.48724C-0.120598 1.90787 0.0622141 1.28518 0.478464 0.868931L1.06009 0.287306H1.05953Z" fill="black"/>
</g>
<defs>
<clipPath id="clip0_476_2175">
<rect width="9" height="9" fill="white"/>
</clipPath>
</defs>
</svg>
