<svg width="10" height="10" viewBox="0 0 10 10" fill="none" xmlns="http://www.w3.org/2000/svg">
<g clip-path="url(#clip0_3202_44404)">
<path d="M4.24777 6.00584L4.43842 5.81516L4.08887 5.65625L4.24777 6.00584Z" fill="#434343"/>
<path opacity="0.7" d="M8.75449 0.83418C8.75135 0.834023 8.74863 0.833984 8.74482 0.833984L5.82969 0.841914C5.55092 0.842355 5.28277 0.948867 5.07969 1.13982L0.392185 5.54656C0.331211 5.60389 0.282372 5.67289 0.248566 5.74945C0.214761 5.82601 0.196676 5.90858 0.195387 5.99227C0.194097 6.07595 0.209628 6.15904 0.241058 6.23661C0.272489 6.31418 0.319178 6.38464 0.378357 6.44383L3.55713 9.62264C3.61495 9.68085 3.68376 9.72701 3.75957 9.75842C3.83537 9.78983 3.91665 9.80589 3.99871 9.80564C4.00207 9.80564 4.00543 9.80564 4.00867 9.80564C4.09241 9.80464 4.17508 9.78668 4.2517 9.75285C4.32831 9.71902 4.39727 9.67002 4.45443 9.60881L8.86127 4.92115C9.05219 4.71805 9.15865 4.4499 9.15902 4.17115L9.16683 1.24654C9.16273 1.13849 9.11797 1.03598 9.04151 0.959517C8.96505 0.883057 8.86254 0.838291 8.75449 0.83418ZM3.77146 7.59281L3.50941 7.74887C3.46195 7.7766 3.40546 7.78447 3.35223 7.77074C3.299 7.75701 3.25335 7.72281 3.22523 7.67558C3.1971 7.62835 3.18878 7.57192 3.20207 7.51858C3.21536 7.46524 3.24919 7.41931 3.29619 7.3908L3.55824 7.2348C3.6142 7.20148 3.65019 7.14549 3.6498 7.09223C3.64941 7.04311 3.62959 6.99616 3.59467 6.96162C3.55386 6.92061 3.5025 6.92601 3.30627 6.99162L3.2076 7.02432C3.00353 7.09248 2.72439 7.18611 2.49217 6.95383C2.39609 6.85764 2.33511 6.73197 2.31902 6.59697C2.29277 6.37227 2.40793 6.14836 2.6123 6.02666L2.87207 5.87203C2.91954 5.84376 2.9763 5.8355 3.02985 5.84907C3.08341 5.86264 3.12939 5.89693 3.15766 5.9444C3.18594 5.99187 3.1942 6.04863 3.18063 6.10219C3.16705 6.15575 3.13276 6.20172 3.08529 6.23L2.82553 6.38463C2.76303 6.42185 2.72574 6.48783 2.73285 6.54869C2.73774 6.59061 2.75675 6.62963 2.78676 6.65932C2.82765 6.70012 2.87871 6.69502 3.07545 6.62932L3.17402 6.59656C3.37808 6.5284 3.65711 6.43502 3.88935 6.66711C4.0019 6.77893 4.06558 6.93077 4.06646 7.08941C4.06779 7.29068 3.95478 7.48365 3.77146 7.59281ZM5.36459 6.00707C5.34172 6.05737 5.29981 6.09653 5.24808 6.11594C5.19635 6.13535 5.13902 6.13343 5.08871 6.11059L4.84388 5.99926L4.43224 6.4108L4.54357 6.6557C4.55508 6.68063 4.56155 6.70759 4.5626 6.73502C4.56366 6.76246 4.55928 6.78983 4.54971 6.81557C4.54015 6.84131 4.52559 6.8649 4.50688 6.88499C4.48816 6.90508 4.46566 6.92128 4.44067 6.93264C4.41567 6.944 4.38868 6.95031 4.36124 6.95121C4.33379 6.9521 4.30645 6.94756 4.28077 6.93785C4.25508 6.92814 4.23158 6.91344 4.2116 6.89461C4.19161 6.87578 4.17555 6.85318 4.16433 6.82812L3.48013 5.32279C3.46258 5.28418 3.45723 5.24114 3.4648 5.19941C3.47237 5.15768 3.49249 5.11925 3.52248 5.08926C3.55247 5.05927 3.5909 5.03915 3.63263 5.03158C3.67436 5.02401 3.7174 5.02936 3.75601 5.04691L5.26123 5.73111C5.31153 5.754 5.35067 5.79594 5.37006 5.84769C5.38944 5.89944 5.38747 5.95677 5.36459 6.00707ZM6.21176 5.17861L5.73283 5.65758C5.71349 5.67693 5.69053 5.69227 5.66525 5.70275C5.63998 5.71322 5.61289 5.71861 5.58554 5.71861C5.55818 5.71861 5.53109 5.71322 5.50582 5.70275C5.48054 5.69227 5.45758 5.67693 5.43824 5.65758L4.34347 4.56281C4.30515 4.52359 4.28383 4.47085 4.28415 4.41601C4.28447 4.36118 4.30639 4.30868 4.34516 4.26991C4.38394 4.23114 4.43643 4.20921 4.49127 4.2089C4.5461 4.20858 4.59885 4.2299 4.63806 4.26822L5.58553 5.21564L5.91715 4.88402C5.95636 4.8457 6.00911 4.82438 6.06394 4.8247C6.11878 4.82502 6.17127 4.84694 6.21005 4.88571C6.24882 4.92448 6.27074 4.97698 6.27106 5.03182C6.27138 5.08665 6.25006 5.1394 6.21174 5.17861H6.21176ZM7.10135 4.28912L6.62232 4.76809C6.60298 4.78743 6.58002 4.80278 6.55475 4.81325C6.52947 4.82373 6.50238 4.82912 6.47503 4.82912C6.44767 4.82912 6.42058 4.82373 6.39531 4.81325C6.37004 4.80278 6.34707 4.78743 6.32773 4.76809L5.23297 3.67332C5.21362 3.65398 5.19827 3.63102 5.1878 3.60574C5.17733 3.58047 5.17194 3.55338 5.17194 3.52602C5.17194 3.49867 5.17733 3.47158 5.1878 3.44631C5.19827 3.42103 5.21362 3.39807 5.23297 3.37873L5.71199 2.89977C5.75121 2.86144 5.80395 2.84013 5.85879 2.84044C5.91362 2.84076 5.96612 2.86268 6.00489 2.90145C6.04367 2.94023 6.06559 2.99272 6.0659 3.04756C6.06622 3.10239 6.0449 3.15514 6.00658 3.19436L5.67484 3.52604L5.92758 3.77877L6.1909 3.51551C6.22998 3.47644 6.28298 3.4545 6.33823 3.45451C6.39349 3.45452 6.44648 3.47649 6.48555 3.51557C6.52461 3.55465 6.54655 3.60764 6.54654 3.6629C6.54653 3.71816 6.52457 3.77115 6.48549 3.81021L6.22222 4.07344L6.47502 4.32623L6.80674 3.99455C6.84595 3.95623 6.8987 3.93491 6.95353 3.93523C7.00837 3.93554 7.06086 3.95746 7.09964 3.99624C7.13841 4.03501 7.16033 4.08751 7.16065 4.14234C7.16097 4.19718 7.13965 4.24992 7.10133 4.28914L7.10135 4.28912ZM7.9207 2.81686C7.84786 2.8897 7.75505 2.93931 7.65401 2.95941C7.55298 2.9795 7.44825 2.96919 7.35307 2.92977C7.2579 2.89034 7.17655 2.82358 7.11932 2.73793C7.06208 2.65227 7.03154 2.55157 7.03154 2.44855C7.03154 2.34554 7.06208 2.24483 7.11932 2.15918C7.17655 2.07352 7.2579 2.00677 7.35307 1.96734C7.44825 1.92792 7.55298 1.91761 7.65401 1.9377C7.75505 1.9578 7.84786 2.00741 7.9207 2.08025C8.01838 2.17794 8.07325 2.31042 8.07325 2.44856C8.07324 2.5867 8.01838 2.71918 7.9207 2.81686Z" fill="#434343"/>
</g>
<defs>
<clipPath id="clip0_3202_44404">
<rect width="10" height="10" fill="white"/>
</clipPath>
</defs>
</svg>
