<svg width="14" height="15" viewBox="0 0 14 15" fill="none" xmlns="http://www.w3.org/2000/svg">
<path d="M11.7337 3.79785V6.52079H9.01074" stroke="#7B7B7B" stroke-width="1.2" stroke-linecap="round" stroke-linejoin="round"/>
<path d="M1.75 11.0589V8.33594H4.47294" stroke="#7B7B7B" stroke-width="1.2" stroke-linecap="round" stroke-linejoin="round"/>
<path d="M2.8891 6.06659C3.11926 5.41616 3.51044 4.83464 4.02613 4.37629C4.54183 3.91794 5.16523 3.59769 5.83817 3.44543C6.51111 3.29317 7.21165 3.31386 7.87443 3.50557C8.53721 3.69727 9.14062 4.05376 9.62837 4.54175L11.7341 6.52041M1.75 8.33571L3.85574 10.3144C4.34348 10.8024 4.9469 11.1588 5.60968 11.3506C6.27246 11.5423 6.973 11.563 7.64594 11.4107C8.31888 11.2584 8.94228 10.9382 9.45797 10.4798C9.97367 10.0215 10.3648 9.43995 10.595 8.78953" stroke="#7B7B7B" stroke-width="1.2" stroke-linecap="round" stroke-linejoin="round"/>
</svg>
