<svg width="11" height="11" viewBox="0 0 11 11" fill="none" xmlns="http://www.w3.org/2000/svg">
<g clip-path="url(#clip0_3202_79035)">
<path d="M8.07251 7.11169C8.73821 6.20329 9.03638 5.07703 8.90734 3.95823C8.77831 2.83943 8.23161 1.81061 7.3766 1.07759C6.52159 0.344574 5.42134 -0.0385814 4.29596 0.0047814C3.17058 0.0481442 2.10307 0.514828 1.30701 1.31147C0.510939 2.1081 0.0450196 3.17594 0.00246207 4.30135C-0.0400954 5.42676 0.343847 6.52674 1.07748 7.38122C1.81111 8.23571 2.84032 8.78168 3.95921 8.90991C5.0781 9.03814 6.20415 8.73917 7.11207 8.07282H7.11138C7.13201 8.10032 7.15401 8.12644 7.17876 8.15188L9.82563 10.7988C9.95455 10.9278 10.1294 11.0003 10.3118 11.0003C10.4942 11.0004 10.6691 10.928 10.7981 10.7991C10.9271 10.6702 10.9996 10.4953 10.9997 10.3129C10.9997 10.1306 10.9274 9.95563 10.7984 9.82663L8.15157 7.17975C8.12699 7.15487 8.10056 7.13189 8.07251 7.111V7.11169ZM8.24988 4.46894C8.24988 4.9655 8.15208 5.4572 7.96205 5.91596C7.77203 6.37473 7.4935 6.79157 7.14238 7.14269C6.79126 7.49381 6.37442 7.77234 5.91566 7.96236C5.45689 8.15239 4.9652 8.25019 4.46864 8.25019C3.97207 8.25019 3.48038 8.15239 3.02161 7.96236C2.56285 7.77234 2.14601 7.49381 1.79489 7.14269C1.44377 6.79157 1.16524 6.37473 0.975215 5.91596C0.78519 5.4572 0.687385 4.9655 0.687385 4.46894C0.687385 3.46609 1.08577 2.50432 1.79489 1.79519C2.50401 1.08607 3.46579 0.687691 4.46864 0.687691C5.47148 0.687691 6.43326 1.08607 7.14238 1.79519C7.8515 2.50432 8.24988 3.46609 8.24988 4.46894Z" fill="#7B7B7B"/>
</g>
<defs>
<clipPath id="clip0_3202_79035">
<rect width="11" height="11" fill="white"/>
</clipPath>
</defs>
</svg>
