<svg width="11" height="11" viewBox="0 0 11 11" fill="none" xmlns="http://www.w3.org/2000/svg">
<g clip-path="url(#clip0_386_1398)">
<path d="M10.8996 0.100379C10.9472 0.148045 10.9798 0.208642 10.9932 0.274644C11.0066 0.340647 11.0004 0.409144 10.9752 0.471629L6.97469 10.4727C6.93943 10.5608 6.88056 10.6374 6.80455 10.6942C6.72854 10.751 6.63835 10.7857 6.54389 10.7945C6.44943 10.8033 6.35437 10.7859 6.26917 10.7441C6.18397 10.7024 6.11194 10.638 6.061 10.5579L3.87612 7.12388L0.442061 4.939C0.361842 4.88812 0.29724 4.81606 0.255384 4.73078C0.213528 4.6455 0.196045 4.55031 0.204863 4.45573C0.213682 4.36114 0.24846 4.27083 0.305359 4.19476C0.362259 4.11868 0.439068 4.05981 0.527311 4.02463L10.5284 0.0254413C10.5909 0.000287212 10.6594 -0.0059551 10.7254 0.00748977C10.7914 0.0209346 10.852 0.0534742 10.8996 0.101066V0.100379ZM4.56225 6.92313L6.46044 9.9055L9.71437 1.771L4.56225 6.92313ZM9.22831 1.28494L1.09381 4.53888L4.07687 6.43638L9.229 1.28494H9.22831Z" fill="black"/>
</g>
<defs>
<clipPath id="clip0_386_1398">
<rect width="11" height="11" fill="white"/>
</clipPath>
</defs>
</svg>
