<svg width="10" height="10" viewBox="0 0 10 10" fill="none" xmlns="http://www.w3.org/2000/svg">
<path d="M4.5 3.375V5.215C4.5 5.39 4.595 5.555 4.745 5.645L6.305 6.57C6.485 6.675 6.715 6.615 6.82 6.44C6.925 6.26 6.87 6.03 6.69 5.925L5.255 5.07V3.37C5.25 3.17 5.08 3 4.875 3C4.67 3 4.5 3.17 4.5 3.375ZM9.5 3.75V1.105C9.5 0.879999 9.23 0.769999 9.075 0.929999L8.185 1.82C7.28 0.914999 5.99 0.394999 4.58 0.519999C2.485 0.709999 0.760004 2.395 0.530004 4.49C0.230004 7.2 2.345 9.5 5 9.5C7.295 9.5 9.19 7.78 9.465 5.56C9.5 5.26 9.265 5 8.965 5C8.715 5 8.505 5.185 8.475 5.43C8.26 7.175 6.755 8.525 4.95 8.5C3.095 8.475 1.53 6.91 1.5 5.05C1.47 3.1 3.055 1.5 5 1.5C5.965 1.5 6.84 1.895 7.475 2.525L6.43 3.57C6.27 3.73 6.38 4 6.605 4H9.25C9.39 4 9.5 3.89 9.5 3.75Z" fill="#2F4050"/>
</svg>
