<svg width="8" height="8" viewBox="0 0 8 8" fill="none" xmlns="http://www.w3.org/2000/svg">
<g clip-path="url(#clip0_3202_44399)">
<path opacity="0.7" fill-rule="evenodd" clip-rule="evenodd" d="M2 0C1.73478 0 1.48043 0.105357 1.29289 0.292893C1.10536 0.48043 1 0.734784 1 1V7.75C0.999968 7.79341 1.01124 7.83609 1.03271 7.87382C1.05418 7.91155 1.08511 7.94304 1.12245 7.96519C1.15978 7.98734 1.20225 7.99939 1.24565 8.00014C1.28906 8.0009 1.33191 7.99034 1.37 7.9695L4 6.5345L6.63 7.9695C6.66809 7.99034 6.71094 8.0009 6.75435 8.00014C6.79775 7.99939 6.84022 7.98734 6.87755 7.96519C6.91489 7.94304 6.94582 7.91155 6.96729 7.87382C6.98876 7.83609 7.00003 7.79341 7 7.75V1C7 0.734784 6.89464 0.48043 6.70711 0.292893C6.51957 0.105357 6.26522 0 6 0L2 0ZM4.25 2.25C4.25 2.1837 4.22366 2.12011 4.17678 2.07322C4.12989 2.02634 4.0663 2 4 2C3.9337 2 3.87011 2.02634 3.82322 2.07322C3.77634 2.12011 3.75 2.1837 3.75 2.25V3H3C2.9337 3 2.87011 3.02634 2.82322 3.07322C2.77634 3.12011 2.75 3.1837 2.75 3.25C2.75 3.3163 2.77634 3.37989 2.82322 3.42678C2.87011 3.47366 2.9337 3.5 3 3.5H3.75V4.25C3.75 4.3163 3.77634 4.37989 3.82322 4.42678C3.87011 4.47366 3.9337 4.5 4 4.5C4.0663 4.5 4.12989 4.47366 4.17678 4.42678C4.22366 4.37989 4.25 4.3163 4.25 4.25V3.5H5C5.0663 3.5 5.12989 3.47366 5.17678 3.42678C5.22366 3.37989 5.25 3.3163 5.25 3.25C5.25 3.1837 5.22366 3.12011 5.17678 3.07322C5.12989 3.02634 5.0663 3 5 3H4.25V2.25Z" fill="#434343"/>
</g>
<defs>
<clipPath id="clip0_3202_44399">
<rect width="8" height="8" fill="white"/>
</clipPath>
</defs>
</svg>
