<svg width="10" height="10" viewBox="0 0 10 10" fill="none" xmlns="http://www.w3.org/2000/svg">
<path d="M5 5C5.59674 5 6.16903 4.76295 6.59099 4.34099C7.01295 3.91903 7.25 3.34674 7.25 2.75C7.25 2.15326 7.01295 1.58097 6.59099 1.15901C6.16903 0.737053 5.59674 0.5 5 0.5C4.40326 0.5 3.83097 0.737053 3.40901 1.15901C2.98705 1.58097 2.75 2.15326 2.75 2.75C2.75 3.34674 2.98705 3.91903 3.40901 4.34099C3.83097 4.76295 4.40326 5 5 5ZM6.5 2.75C6.5 3.14782 6.34196 3.52936 6.06066 3.81066C5.77936 4.09196 5.39782 4.25 5 4.25C4.60218 4.25 4.22064 4.09196 3.93934 3.81066C3.65804 3.52936 3.5 3.14782 3.5 2.75C3.5 2.35218 3.65804 1.97064 3.93934 1.68934C4.22064 1.40804 4.60218 1.25 5 1.25C5.39782 1.25 5.77936 1.40804 6.06066 1.68934C6.34196 1.97064 6.5 2.35218 6.5 2.75ZM9.5 8.75C9.5 9.5 8.75 9.5 8.75 9.5H1.25C1.25 9.5 0.5 9.5 0.5 8.75C0.5 8 1.25 5.75 5 5.75C8.75 5.75 9.5 8 9.5 8.75ZM8.75 8.747C8.74925 8.5625 8.6345 8.0075 8.126 7.499C7.637 7.01 6.71675 6.5 5 6.5C3.2825 6.5 2.363 7.01 1.874 7.499C1.3655 8.0075 1.2515 8.5625 1.25 8.747H8.75Z" fill="#2F4050"/>
</svg>
