<svg width="17" height="17" viewBox="0 0 17 17" fill="none" xmlns="http://www.w3.org/2000/svg">
<path d="M8 3C5.23856 3 3 5.23858 3 8C3 10.7614 5.23856 13 8 13C10.7614 13 13 10.7614 13 8C13 5.23858 10.7614 3 8 3ZM7.482 12.2548C6.53334 12.1412 5.6556 11.7165 4.96952 11.0305C4.16005 10.221 3.71428 9.14476 3.71428 8C3.71428 6.96947 4.07572 5.99462 4.73834 5.21974C4.75541 5.42447 4.79755 5.64397 4.78675 5.80087C4.74733 6.37286 4.69089 6.73084 5.0257 7.21341C5.15613 7.40137 5.18817 7.67082 5.25166 7.88837C5.31375 8.1012 5.5618 8.21284 5.73288 8.34397C6.07805 8.60861 6.40827 8.9162 6.77428 9.14911C7.01584 9.30284 7.16673 9.3793 7.09599 9.67409C7.03909 9.91115 7.0232 10.0572 6.90055 10.2684C6.86313 10.3328 7.04183 10.7472 7.1013 10.8067C7.28154 10.9869 7.46038 11.1522 7.65685 11.3145C7.96144 11.5661 7.62726 11.8931 7.482 12.2548ZM11.0305 11.0305C10.4143 11.6466 9.64346 12.0518 8.80555 12.2103C8.9243 11.9166 9.13575 11.6557 9.33188 11.5045C9.50248 11.3728 9.71615 11.1196 9.80526 10.9191C9.8943 10.7188 10.0123 10.5452 10.1316 10.361C10.3015 10.099 9.71291 9.70387 9.52219 9.62106C9.093 9.43474 8.76993 9.18332 8.38851 8.91493C8.11675 8.72373 7.56502 9.01478 7.25822 8.88087C6.838 8.69738 6.4918 8.37856 6.12654 8.10349C5.74962 7.81962 5.76784 7.48868 5.76784 7.0699C6.06308 7.08079 6.48308 6.9882 6.67909 7.22563C6.74094 7.30055 6.95361 7.63529 7.09596 7.51635C7.21226 7.41916 7.00978 7.02959 6.97067 6.938C6.85036 6.65639 7.24481 6.54656 7.44671 6.3556C7.71017 6.10647 8.27531 5.71575 8.23065 5.53716C8.18599 5.35858 7.66517 4.85262 7.35928 4.93156C7.31344 4.94339 6.90983 5.36659 6.83185 5.43298C6.83392 5.29486 6.83599 5.15675 6.8381 5.01863C6.83942 4.93142 6.67541 4.8419 6.68303 4.78565C6.70226 4.64349 7.09798 4.38548 7.19642 4.27226C7.12745 4.22916 6.89212 4.02702 6.82089 4.05668C6.64844 4.12856 6.45368 4.17808 6.28123 4.24993C6.28123 4.19012 6.27397 4.13394 6.26531 4.07846C6.6126 3.92483 6.97893 3.8185 7.3545 3.76231L7.69305 3.89837L7.93209 4.18204L8.17065 4.42803L8.37918 4.49522L8.71041 4.18284L8.625 3.95983V3.75937C9.28005 3.85452 9.89865 4.09889 10.4404 4.47572C10.3435 4.4844 10.237 4.49865 10.1168 4.51394C10.0672 4.48462 10.0035 4.4713 9.9494 4.45089C10.1064 4.78844 10.2701 5.12132 10.4365 5.4544C10.6142 5.81019 11.0085 6.19183 11.0777 6.5674C11.1593 7.0101 11.1027 7.41221 11.1473 7.93305C11.1903 8.43462 11.7128 9.0045 11.7128 9.0045C11.7128 9.0045 11.9541 9.08668 12.1547 9.05805C11.9677 9.79803 11.5842 10.4767 11.0305 11.0305Z" fill="black"/>
</svg>
