<svg width="9" height="9" viewBox="0 0 9 9" fill="none" xmlns="http://www.w3.org/2000/svg">
<g opacity="0.7" clip-path="url(#clip0_2271_9838)">
<path fill-rule="evenodd" clip-rule="evenodd" d="M7.49962 4.84312C7.18462 4.98431 6.83587 5.0625 6.46856 5.0625C6.16265 5.0628 5.85922 5.00753 5.57306 4.89937L2.70656 8.33962C2.57729 8.49466 2.41714 8.62106 2.2363 8.71076C2.05547 8.80047 1.85793 8.85151 1.65628 8.86063C1.45462 8.86975 1.25328 8.83675 1.06509 8.76374C0.8769 8.69072 0.705987 8.57929 0.563251 8.43656C0.420515 8.29382 0.309087 8.12291 0.236073 7.93472C0.163058 7.74652 0.130059 7.54518 0.139179 7.34353C0.148299 7.14188 0.199339 6.94434 0.289043 6.7635C0.378748 6.58267 0.505149 6.42251 0.660187 6.29325L4.10044 3.42675C3.89206 2.87583 3.88233 2.26949 4.07293 1.71218C4.26352 1.15486 4.64251 0.681457 5.1446 0.373511C5.64669 0.0655661 6.24046 -0.0576412 6.82362 0.0251119C7.40679 0.107865 7.94284 0.391398 8.33944 0.826871L6.18731 1.6875L6.74981 3.09375L7.49962 4.84312ZM5.40656 3.11175L5.74181 2.60943C5.75809 2.58505 5.76635 2.5562 5.76542 2.52689C5.7645 2.49759 5.75444 2.46931 5.73665 2.44601C5.71886 2.42271 5.69424 2.40555 5.66622 2.39693C5.6382 2.38831 5.60818 2.38866 5.58037 2.39793L4.73662 2.67918L4.8255 2.94637L5.28056 2.7945L4.94531 3.29681C4.92881 3.32118 4.92038 3.35012 4.9212 3.37955C4.92202 3.40897 4.93205 3.43739 4.94988 3.46081C4.96771 3.48423 4.99243 3.50147 5.02058 3.51009C5.04872 3.51871 5.07886 3.51829 5.10675 3.50887L5.56181 3.357L5.22656 3.85931C5.21028 3.88369 5.20203 3.91255 5.20295 3.94185C5.20388 3.97115 5.21394 3.99943 5.23172 4.02273C5.24951 4.04603 5.27414 4.0632 5.30216 4.07182C5.33018 4.08044 5.36019 4.08008 5.388 4.07081L6.23175 3.78956L6.14287 3.52237L5.68781 3.67425L6.02306 3.17193C6.03956 3.14756 6.048 3.11862 6.04718 3.0892C6.04636 3.05977 6.03633 3.03135 6.0185 3.00793C6.00067 2.98451 5.97594 2.96727 5.9478 2.95865C5.91965 2.95003 5.88951 2.95046 5.86162 2.95987L5.40656 3.11175ZM1.28956 7.71024C1.39505 7.81573 1.53813 7.875 1.68731 7.875C1.8365 7.875 1.97957 7.81573 2.08506 7.71024C2.19055 7.60475 2.24981 7.46168 2.24981 7.3125C2.24981 7.16331 2.19055 7.02024 2.08506 6.91475C1.97957 6.80926 1.8365 6.75 1.68731 6.75C1.53813 6.75 1.39505 6.80926 1.28956 6.91475C1.18408 7.02024 1.12481 7.16331 1.12481 7.3125C1.12481 7.46168 1.18408 7.60475 1.28956 7.71024Z" fill="#2F4050"/>
<path d="M8.74834 3.63289C8.91424 3.28939 9.00022 2.91279 8.99982 2.53133C8.99982 2.41489 8.99194 2.3007 8.97675 2.1882L7.31232 2.81258L8.04188 4.5147C8.34091 4.27786 8.58243 3.97638 8.74834 3.63289Z" fill="#2F4050"/>
</g>
<defs>
<clipPath id="clip0_2271_9838">
<rect width="9" height="9" fill="white"/>
</clipPath>
</defs>
</svg>
