<svg width="344" height="344" viewBox="0 0 344 344" fill="none" xmlns="http://www.w3.org/2000/svg">
<path d="M344 263.091H0V263.263H344V263.091Z" fill="#EEEEEE"/>
<path d="M309.531 274.161H286.745V274.333H309.531V274.161Z" fill="#EEEEEE"/>
<path d="M278.083 274.161H229.365V274.333H278.083V274.161Z" fill="#EEEEEE"/>
<path d="M202.499 267.776H189.296V267.948H202.499V267.776Z" fill="#EEEEEE"/>
<path d="M59.684 268.932H36.0925V269.104H59.684V268.932Z" fill="#EEEEEE"/>
<path d="M108.704 268.932H65.8071V269.104H108.704V268.932Z" fill="#EEEEEE"/>
<path d="M154.896 271.836H129.571V272.008H154.896V271.836Z" fill="#EEEEEE"/>
<path d="M163.056 232.406H30.2102C29.1695 232.405 28.172 231.99 27.4368 231.253C26.7015 230.517 26.2886 229.519 26.2886 228.478V41.734C26.2976 40.6993 26.7146 39.7099 27.4488 38.9808C28.1831 38.2517 29.1754 37.8417 30.2102 37.84H163.056C164.098 37.84 165.097 38.2539 165.834 38.9906C166.571 39.7273 166.985 40.7265 166.985 41.7684V228.478C166.985 229.52 166.571 230.519 165.834 231.256C165.097 231.992 164.098 232.406 163.056 232.406ZM30.2102 37.9776C29.2151 37.9794 28.2614 38.376 27.5584 39.0802C26.8554 39.7845 26.4606 40.739 26.4606 41.734V228.478C26.4606 229.473 26.8554 230.427 27.5584 231.132C28.2614 231.836 29.2151 232.233 30.2102 232.234H163.056C164.052 232.233 165.006 231.836 165.71 231.132C166.414 230.428 166.811 229.474 166.813 228.478V41.734C166.811 40.7383 166.414 39.7839 165.71 39.0798C165.006 38.3757 164.052 37.9794 163.056 37.9776H30.2102Z" fill="#EEEEEE"/>
<path d="M311.877 232.406H179.024C177.983 232.405 176.985 231.99 176.249 231.254C175.512 230.517 175.098 229.519 175.096 228.478V41.734C175.107 40.6987 175.525 39.7093 176.261 38.9804C176.996 38.2515 177.989 37.8417 179.024 37.84H311.877C312.911 37.8435 313.901 38.2543 314.634 38.9832C315.367 39.7122 315.783 40.7005 315.792 41.734V228.478C315.792 229.517 315.38 230.515 314.646 231.251C313.912 231.987 312.917 232.403 311.877 232.406ZM179.024 37.9776C178.029 37.9794 177.074 38.3757 176.37 39.0798C175.666 39.7839 175.27 40.7383 175.268 41.734V228.478C175.27 229.474 175.666 230.428 176.37 231.132C177.074 231.836 178.029 232.233 179.024 232.234H311.877C312.873 232.233 313.827 231.836 314.531 231.132C315.236 230.428 315.632 229.474 315.634 228.478V41.734C315.632 40.7383 315.236 39.7839 314.531 39.0798C313.827 38.3757 312.873 37.9794 311.877 37.9776H179.024Z" fill="#EEEEEE"/>
<path d="M52.178 132.935H145.54V52.0471L52.178 52.0471L52.178 132.935Z" fill="#E6E6E6"/>
<path d="M50.0932 132.935H143.455V52.0471L50.0932 52.0471L50.0932 132.935Z" fill="#F8FAFB"/>
<path d="M139.733 130.046V54.9368L53.8224 54.9368V130.046H139.733Z" fill="#FAFAFA"/>
<path d="M105.278 130.046L120.847 54.9368H88.2774L72.7148 130.046H105.278Z" fill="white"/>
<path d="M55.3909 130.053L55.3909 54.9436H53.8222L53.8222 130.053H55.3909Z" fill="#E6E6E6"/>
<path d="M51.6345 116.582L141.914 116.582V112.701L51.6345 112.701V116.582Z" fill="#F8FAFB"/>
<path d="M141.205 258.998H156.114V194.346H141.205V258.998Z" fill="#F8FAFB"/>
<path d="M43.8462 263.091H153.259V258.997H43.8462V263.091Z" fill="#F8FAFB"/>
<path d="M141.205 194.339H40.9773V258.991H141.205V194.339Z" fill="#F8FAFB"/>
<path d="M135.35 202.299H46.8391V223.504H135.35V202.299Z" fill="#F8FAFB"/>
<path d="M135.35 229.833H46.8391V251.037H135.35V229.833Z" fill="#F8FAFB"/>
<path d="M67.2383 214.353H114.951C115.336 214.351 115.704 214.198 115.976 213.926C116.247 213.654 116.401 213.286 116.403 212.902C116.401 212.516 116.248 212.148 115.976 211.875C115.704 211.602 115.336 211.447 114.951 211.443H67.2383C66.8532 211.447 66.485 211.602 66.2134 211.875C65.9417 212.148 65.7884 212.516 65.7866 212.902C65.7884 213.286 65.942 213.654 66.2138 213.926C66.4857 214.198 66.8538 214.351 67.2383 214.353Z" fill="#F8FAFB"/>
<path d="M67.2383 241.887H114.951C115.336 241.885 115.704 241.732 115.976 241.46C116.247 241.188 116.401 240.82 116.403 240.435C116.403 240.05 116.25 239.68 115.978 239.406C115.706 239.133 115.337 238.979 114.951 238.977H67.2383C66.8527 238.979 66.4834 239.133 66.2114 239.406C65.9393 239.68 65.7866 240.05 65.7866 240.435C65.7884 240.82 65.942 241.188 66.2138 241.46C66.4857 241.732 66.8538 241.885 67.2383 241.887Z" fill="#F8FAFB"/>
<path d="M296.955 94.3248C305.444 91.9856 308.348 76.5813 286.896 70.293C291.629 85.7867 282.156 98.384 296.955 94.3248Z" fill="#EEEEEE"/>
<path d="M298.833 101.012C305.527 93.7812 299.197 77.4206 275.09 84.1079C288.726 96.0379 287.171 113.623 298.833 101.012Z" fill="#E0E0E0"/>
<path d="M292.228 102.87C286.628 97.3245 294.65 78.0261 313.143 86.9701C302.665 97.008 302.032 112.536 292.228 102.87Z" fill="#FAFAFA"/>
<path d="M286.641 113.671H302.94L304.172 102.643H285.417L286.641 113.671Z" fill="#E6E6E6"/>
<path d="M285.231 104.617H304.357C304.68 104.617 304.99 104.489 305.218 104.261C305.447 104.032 305.575 103.722 305.575 103.4C305.575 103.077 305.447 102.767 305.218 102.538C304.99 102.31 304.68 102.182 304.357 102.182H285.231C284.908 102.182 284.598 102.31 284.37 102.538C284.141 102.767 284.013 103.077 284.013 103.4C284.013 103.722 284.141 104.032 284.37 104.261C284.598 104.489 284.908 104.617 285.231 104.617Z" fill="#E6E6E6"/>
<path d="M149.509 244.412V225.733H165.065V207.06H180.628V188.381H196.183V169.702H211.746V151.03H227.301V132.351H242.864V113.671H258.427H344V263.091H149.509H133.947V244.412H149.509Z" fill="#FAFAFA"/>
<path d="M235.083 244.412V225.733H250.645V207.06H266.201V188.381H281.764V169.702H297.319V151.03H312.882V132.351H328.438V113.671H344V132.351V263.091H235.083H219.527V244.412H235.083Z" fill="#E0E0E0"/>
<path d="M219.527 244.412H133.032V250.012H219.527V244.412Z" fill="#EEEEEE"/>
<path d="M235.09 225.733H148.594V231.333H235.09V225.733Z" fill="#EEEEEE"/>
<path d="M250.645 207.06H164.15V212.661H250.645V207.06Z" fill="#EEEEEE"/>
<path d="M266.208 188.381H179.712V193.982H266.208V188.381Z" fill="#EEEEEE"/>
<path d="M281.763 169.702H195.268V175.302H281.763V169.702Z" fill="#EEEEEE"/>
<path d="M297.326 151.03H210.831V156.63H297.326V151.03Z" fill="#EEEEEE"/>
<path d="M312.882 132.351H226.386V137.951H312.882V132.351Z" fill="#EEEEEE"/>
<path d="M328.444 113.671H241.949V119.272H328.444V113.671Z" fill="#EEEEEE"/>
<path d="M172 294.161C245.673 294.161 305.396 290.674 305.396 286.373C305.396 282.072 245.673 278.585 172 278.585C98.3273 278.585 38.6038 282.072 38.6038 286.373C38.6038 290.674 98.3273 294.161 172 294.161Z" fill="#F8FAFB"/>
<path d="M230.274 109.137C230.15 111.201 229.909 113.093 229.641 115.054C229.372 117.015 229.008 118.934 228.595 120.861C227.79 124.76 226.627 128.576 225.12 132.261L224.494 133.637L224.343 133.981L224.288 134.16L224.178 134.38C223.968 134.812 223.702 135.214 223.387 135.577C223.012 135.999 222.564 136.351 222.066 136.616C221.576 136.873 221.045 137.041 220.497 137.111C219.656 137.201 218.804 137.112 218 136.85C216.86 136.461 215.784 135.904 214.807 135.199C213.953 134.597 213.138 133.942 212.365 133.238C209.469 130.553 206.864 127.571 204.591 124.342L206.868 122.409C208.244 123.682 209.62 124.968 210.996 126.186C212.364 127.403 213.792 128.552 215.275 129.626C215.973 130.125 216.699 130.585 217.449 131.002C218.054 131.369 218.707 131.649 219.389 131.834C219.623 131.883 219.789 131.834 219.713 131.834C219.551 131.852 219.399 131.922 219.279 132.034C219.238 132.034 219.238 132.034 219.279 132.034L219.5 131.463L219.981 130.211C221.175 126.763 222.106 123.231 222.768 119.643C223.132 117.841 223.387 116.004 223.662 114.18C223.937 112.357 224.13 110.479 224.288 108.738L230.274 109.137Z" fill="#FFC3BD"/>
<path d="M226.104 101.563C223.538 102.216 221.742 112.77 221.742 112.77L228.808 117.586C228.808 117.586 235.585 106.943 233.624 104.122C231.56 101.17 229.847 100.613 226.104 101.563Z" fill="url(#paint0_linear_3202_79037)"/>
<path d="M226.104 101.563C223.538 102.216 221.742 112.77 221.742 112.77L228.808 117.586C228.808 117.586 235.585 106.943 233.624 104.122C231.56 101.17 229.847 100.613 226.104 101.563Z" fill="url(#paint1_linear_3202_79037)"/>
<path opacity="0.4" d="M226.104 101.563C223.538 102.216 221.742 112.77 221.742 112.77L228.808 117.586C228.808 117.586 235.585 106.943 233.624 104.122C231.56 101.17 229.847 100.613 226.104 101.563Z" fill="#434343"/>
<path opacity="0.3" d="M226.331 103.922L224.364 114.552L228.334 117.249L226.331 103.922Z" fill="#434343"/>
<path d="M206.985 121.975L203.648 116.664L201.742 122.698C201.742 122.698 204.494 125.587 206.992 124.899L206.985 121.975Z" fill="#FFC3BD"/>
<path d="M198.694 114.91L197.374 120.042L201.715 122.698L203.621 116.664L198.694 114.91Z" fill="#FFC3BD"/>
<path d="M239.974 279.156H233.755L233.335 264.749H239.562L239.974 279.156Z" fill="#FFC3BD"/>
<path d="M294.87 250.26L290.13 254.292L279.28 244.605L284.02 240.58L294.87 250.26Z" fill="#FFC3BD"/>
<path d="M288.829 253.81L293.432 248.54C293.511 248.449 293.62 248.39 293.738 248.374C293.857 248.357 293.978 248.384 294.079 248.45L298.764 251.485C298.88 251.565 298.977 251.669 299.049 251.789C299.122 251.91 299.168 252.044 299.185 252.184C299.202 252.324 299.189 252.465 299.147 252.6C299.106 252.734 299.036 252.858 298.943 252.964C297.305 254.773 296.425 255.564 294.402 257.876C293.164 259.3 291.492 261.516 289.772 263.476C288.052 265.437 286.015 263.855 286.559 262.878C288.974 258.516 288.396 256.989 288.437 254.842C288.443 254.463 288.582 254.098 288.829 253.81Z" fill="#2F4050"/>
<path d="M233.542 278.44H240.532C240.652 278.439 240.769 278.482 240.86 278.56C240.951 278.639 241.01 278.748 241.027 278.867L241.825 284.371C241.848 284.516 241.838 284.665 241.796 284.806C241.754 284.947 241.682 285.077 241.584 285.187C241.486 285.297 241.365 285.384 241.229 285.441C241.094 285.499 240.947 285.526 240.8 285.52C238.365 285.479 237.188 285.334 234.113 285.334C232.221 285.334 228.313 285.534 225.699 285.534C223.084 285.534 222.947 282.947 224.04 282.72C228.912 281.667 230.831 280.222 232.475 278.84C232.771 278.582 233.15 278.44 233.542 278.44Z" fill="#2F4050"/>
<path opacity="0.2" d="M233.342 264.756L233.555 272.18H239.775L239.562 264.756H233.342Z" fill="#434343"/>
<path opacity="0.2" d="M284.027 240.58L279.28 244.605L284.88 249.6L289.62 245.568L284.027 240.58Z" fill="#434343"/>
<path d="M226.104 101.563C226.104 101.563 223.139 102.608 229.077 139.114H254.34C253.92 128.828 253.907 122.485 258.819 101.384C255.282 100.654 251.698 100.181 248.093 99.9664C244.273 99.6942 240.438 99.6942 236.617 99.9664C231.691 100.448 226.104 101.563 226.104 101.563Z" fill="url(#paint2_linear_3202_79037)"/>
<path opacity="0.4" d="M226.104 101.563C226.104 101.563 223.139 102.608 229.077 139.114H254.34C253.92 128.828 253.907 122.485 258.819 101.384C255.282 100.654 251.698 100.181 248.093 99.9664C244.273 99.6942 240.438 99.6942 236.617 99.9664C231.691 100.448 226.104 101.563 226.104 101.563Z" fill="#434343"/>
<path d="M248.093 99.9664C244.272 99.6942 240.437 99.6942 236.617 99.9664C235.998 100.021 235.365 100.09 234.739 100.166C234.48 100.557 234.314 101.002 234.254 101.467C234.195 101.933 234.243 102.405 234.395 102.849C235.2 104.851 238.103 105.085 240.222 105.085C248.045 105.085 249.366 100.517 249.421 100.324L249.496 100.049C249.056 100.021 248.561 99.987 248.093 99.9664Z" fill="white"/>
<path d="M246.992 87.0526C246.263 90.7403 245.547 97.5033 248.127 99.9664C248.127 99.9664 247.116 103.716 240.257 103.716C232.689 103.716 236.652 99.9733 236.652 99.9733C240.78 98.9894 240.663 95.9347 239.947 93.0933L246.992 87.0526Z" fill="#FFC3BD"/>
<path opacity="0.2" d="M244.082 89.5018L239.913 93.0588C240.092 93.735 240.212 94.4256 240.27 95.1228C241.839 94.8958 243.999 93.1689 244.171 91.5246C244.268 90.8506 244.237 90.1646 244.082 89.5018Z" fill="#434343"/>
<path d="M242.665 66.9768C242.025 64.8096 241.488 61.3971 245.341 59.856C243.834 58.0121 243.47 54.5446 245.341 52.4875C247.212 50.4304 250.019 51.1872 250.019 51.1872C250.019 51.1872 250.845 46.1579 256.961 47.0592C263.078 47.9605 260.353 51.9853 260.353 51.9853C260.353 51.9853 268.699 50.3341 269.256 58.1773C269.813 66.0205 265.025 65.0573 265.025 65.0573C265.025 65.0573 268.747 68.1808 266.683 71.6139C264.619 75.047 259.851 73.8637 259.851 73.8637C259.851 73.8637 257.608 79.9318 252.324 76.4781C247.04 73.0243 242.665 66.9768 242.665 66.9768Z" fill="#2F4050"/>
<path d="M230.274 71.552C228.21 74.2214 229.118 77.2417 230.962 78.432C235.399 81.2665 241.818 69.3779 240.147 67.9537C238.475 66.5296 232.338 68.8756 230.274 71.552Z" fill="#2F4050"/>
<path d="M248.912 65.1949C245.995 64.0184 243.036 65.2499 242.114 67.025C239.865 71.3525 250.081 79.1475 253.04 73.7398C254.794 70.5269 251.918 66.4058 248.912 65.1949Z" fill="url(#paint3_linear_3202_79037)"/>
<path d="M247.68 78.4319C247.893 84.6239 248.114 87.2108 245.313 90.6577C241.11 95.8383 233.48 94.7513 231.43 88.7657C229.586 83.3786 229.551 74.1938 235.324 71.1804C236.593 70.5092 238.012 70.1735 239.447 70.2052C240.882 70.2369 242.285 70.6349 243.523 71.3614C244.761 72.088 245.793 73.1189 246.521 74.3564C247.248 75.5939 247.647 76.9968 247.68 78.4319Z" fill="#FFC3BD"/>
<path d="M246.751 81.6725C243.999 80.6474 243.311 77.4344 243.752 76.1685C242.376 76.1134 239.369 75.6181 238.248 73.9118C236.101 75.2878 231.567 76.6638 231.079 74.3728C230.59 72.0818 237.429 66.1925 242.603 65.7384C248.753 65.2018 254.822 71.2424 253.26 77.0285C251.698 82.8146 246.751 81.6725 246.751 81.6725Z" fill="#2F4050"/>
<path d="M229.104 139.114C229.104 139.114 224.199 187.033 224.604 206.008C225.031 225.74 232.262 270.742 232.262 270.742H240.669C240.669 270.742 239.341 226.889 240.084 207.514C240.896 186.386 247.604 139.114 247.604 139.114H229.104Z" fill="#2F4050"/>
<path d="M241.371 271.044H231.505L230.776 267.9L241.832 267.515L241.371 271.044Z" fill="url(#paint4_linear_3202_79037)"/>
<path opacity="0.2" d="M239.975 151.037C233.783 163.517 238.729 186.29 240.924 194.766C242.045 182.038 243.944 166.482 245.423 155.061C244.488 148.608 242.864 145.278 239.975 151.037Z" fill="#434343"/>
<path d="M235.75 139.113C235.75 139.113 241.474 188.932 245.795 204.928C250.928 223.916 282.803 249.476 282.803 249.476L289.27 243.972C289.27 243.972 266.167 216.204 262.238 206.2C253.865 184.872 261.034 153.032 254.34 139.1L235.75 139.113Z" fill="#2F4050"/>
<path d="M290.302 243.689L282.279 250.501L279.28 248.705L288.355 240.263L290.302 243.689Z" fill="url(#paint5_linear_3202_79037)"/>
<path d="M238.523 81.0188C238.571 81.521 238.344 81.9476 238.021 81.982C237.697 82.0164 237.388 81.6311 237.333 81.1357C237.277 80.6404 237.511 80.2001 237.842 80.1725C238.172 80.145 238.475 80.4959 238.523 81.0188Z" fill="#2F4050"/>
<path d="M232.881 81.5624C232.929 82.0578 232.702 82.4912 232.372 82.5256C232.042 82.56 231.746 82.1747 231.684 81.6725C231.622 81.1702 231.863 80.7437 232.186 80.7162C232.51 80.6886 232.833 81.0602 232.881 81.5624Z" fill="#2F4050"/>
<path d="M232.345 80.7299L231.113 80.496C231.113 80.496 231.856 81.3766 232.345 80.7299Z" fill="#2F4050"/>
<path d="M234.45 82.2778C234.115 83.459 233.62 84.5887 232.978 85.6353C233.25 85.7923 233.554 85.8883 233.868 85.9168C234.181 85.9453 234.497 85.9056 234.794 85.8004L234.45 82.2778Z" fill="#ED5565"/>
<path d="M237.566 87.4448C237.294 87.5194 237.015 87.57 236.734 87.5961C236.715 87.598 236.696 87.5962 236.678 87.5906C236.659 87.585 236.642 87.5759 236.628 87.5638C236.613 87.5516 236.601 87.5367 236.592 87.5198C236.583 87.5029 236.577 87.4844 236.576 87.4654C236.572 87.4263 236.583 87.3872 236.608 87.3564C236.632 87.3256 236.667 87.3055 236.706 87.3003C237.329 87.2545 237.932 87.0632 238.468 86.7417C239.003 86.4203 239.456 85.9777 239.789 85.4496C239.797 85.4314 239.808 85.4151 239.823 85.4018C239.838 85.3886 239.855 85.3786 239.874 85.3728C239.893 85.3669 239.913 85.3652 239.933 85.3677C239.953 85.3703 239.971 85.3771 239.988 85.3877C240.022 85.4066 240.048 85.4379 240.059 85.475C240.071 85.5122 240.067 85.5523 240.05 85.5872C239.495 86.5057 238.604 87.172 237.566 87.4448Z" fill="#2F4050"/>
<path d="M249.125 82.7044C248.974 83.8884 248.361 84.9645 247.419 85.6972C246.16 86.6604 244.949 85.6972 244.804 84.1905C244.681 82.8145 245.176 80.7505 246.676 80.3515C247.003 80.2848 247.342 80.2986 247.662 80.3916C247.983 80.4846 248.277 80.6541 248.518 80.8855C248.758 81.1169 248.94 81.4033 249.045 81.7201C249.151 82.0369 249.178 82.3747 249.125 82.7044Z" fill="#FFC3BD"/>
<path d="M239.128 77.4825C239.09 77.4922 239.05 77.4941 239.011 77.4882C238.972 77.4823 238.935 77.4686 238.901 77.4481C238.589 77.249 238.235 77.1265 237.866 77.0907C237.498 77.0548 237.127 77.1065 236.782 77.2417C236.711 77.2735 236.63 77.2769 236.556 77.2514C236.481 77.2259 236.42 77.1732 236.383 77.1041C236.35 77.0337 236.346 76.9532 236.371 76.8798C236.397 76.8064 236.451 76.7461 236.521 76.7119C236.954 76.533 237.424 76.4608 237.891 76.5015C238.358 76.5422 238.808 76.6946 239.204 76.9458C239.237 76.9656 239.265 76.9916 239.288 77.0224C239.31 77.0532 239.326 77.0882 239.335 77.1253C239.344 77.1624 239.346 77.2009 239.34 77.2386C239.334 77.2763 239.32 77.3124 239.3 77.3449C239.262 77.4107 239.201 77.4598 239.128 77.4825Z" fill="#2F4050"/>
<path d="M230.115 79.1957C230.044 79.2226 229.966 79.2226 229.895 79.1957C229.828 79.1567 229.779 79.0936 229.757 79.0194C229.736 78.9452 229.743 78.8655 229.778 78.7966C229.988 78.3779 230.296 78.016 230.676 77.7417C231.055 77.4674 231.496 77.2888 231.959 77.2211C231.998 77.2173 232.037 77.2213 232.074 77.2329C232.11 77.2444 232.145 77.2633 232.174 77.2883C232.204 77.3133 232.228 77.344 232.245 77.3786C232.263 77.4131 232.273 77.4508 232.276 77.4894C232.281 77.5668 232.256 77.6434 232.206 77.7026C232.156 77.7618 232.085 77.7989 232.007 77.8059C231.642 77.8673 231.297 78.0139 230.999 78.2339C230.702 78.4539 230.46 78.7409 230.294 79.0718C230.275 79.1038 230.249 79.1314 230.218 79.1527C230.187 79.174 230.152 79.1887 230.115 79.1957Z" fill="#2F4050"/>
<path d="M261.399 108.092C262.802 111.524 264.012 115.031 265.025 118.597C266.098 122.195 266.862 125.878 267.309 129.605C267.426 130.555 267.46 131.552 267.501 132.536V133.094C267.501 133.293 267.467 133.5 267.44 133.678C267.382 134.022 267.304 134.362 267.206 134.697C267.026 135.269 266.796 135.824 266.518 136.355C265.564 138.119 264.394 139.757 263.036 141.233C260.525 143.991 257.761 146.509 254.78 148.752L252.792 146.544C255.083 143.868 257.395 141.123 259.356 138.288C260.303 137.002 261.11 135.618 261.764 134.16C261.876 133.878 261.968 133.588 262.039 133.293C262.057 133.193 262.069 133.092 262.073 132.99C262.077 132.961 262.077 132.931 262.073 132.901V132.805C261.984 131.993 261.922 131.181 261.77 130.348C261.178 126.95 260.353 123.596 259.3 120.311C258.248 116.981 257.071 113.603 255.86 110.383L261.399 108.092Z" fill="#FFC3BD"/>
<path d="M258.819 101.384C261.351 102.154 264.392 110.871 264.392 110.871L254.56 117.889C254.56 117.889 250.976 110.617 252.042 107.342C253.184 103.936 255.936 100.503 258.819 101.384Z" fill="url(#paint6_linear_3202_79037)"/>
<path opacity="0.4" d="M258.819 101.384C261.351 102.154 264.392 110.871 264.392 110.871L254.56 117.889C254.56 117.889 250.976 110.617 252.042 107.342C253.184 103.936 255.936 100.503 258.819 101.384Z" fill="#434343"/>
<path d="M287.13 256.81C287.003 256.806 286.878 256.774 286.765 256.716C286.652 256.657 286.553 256.574 286.476 256.473C286.414 256.408 286.37 256.328 286.348 256.241C286.326 256.154 286.328 256.063 286.353 255.977C286.587 255.22 288.747 254.601 288.995 254.532C289.022 254.523 289.051 254.522 289.078 254.531C289.106 254.54 289.129 254.557 289.146 254.581C289.161 254.604 289.17 254.632 289.17 254.66C289.17 254.688 289.161 254.715 289.146 254.739C288.761 255.475 287.997 256.713 287.213 256.803L287.13 256.81ZM288.726 254.918C287.873 255.193 286.759 255.668 286.662 256.067C286.652 256.104 286.652 256.144 286.663 256.182C286.674 256.22 286.695 256.253 286.724 256.28C286.779 256.359 286.854 256.422 286.941 256.463C287.028 256.504 287.124 256.521 287.22 256.514C287.619 256.466 288.176 255.874 288.726 254.918Z" fill="url(#paint7_linear_3202_79037)"/>
<path d="M288.045 254.945C287.401 255.011 286.757 254.829 286.242 254.436C286.17 254.345 286.131 254.232 286.131 254.116C286.131 254 286.17 253.887 286.242 253.796C286.304 253.701 286.386 253.621 286.482 253.561C286.578 253.501 286.687 253.464 286.8 253.452C287.694 253.342 289.05 254.512 289.105 254.56C289.125 254.576 289.14 254.598 289.148 254.622C289.157 254.646 289.158 254.673 289.153 254.698C289.15 254.724 289.139 254.75 289.122 254.771C289.105 254.791 289.082 254.807 289.056 254.815C288.728 254.908 288.387 254.952 288.045 254.945ZM286.951 253.741H286.855C286.784 253.749 286.716 253.772 286.656 253.809C286.595 253.846 286.543 253.896 286.504 253.955C286.401 254.113 286.435 254.195 286.504 254.25C286.772 254.601 287.997 254.732 288.74 254.594C288.231 254.154 287.613 253.859 286.951 253.741Z" fill="url(#paint8_linear_3202_79037)"/>
<path d="M231.203 279.528C230.671 279.576 230.139 279.44 229.696 279.142C229.601 279.056 229.528 278.949 229.481 278.83C229.435 278.71 229.416 278.582 229.428 278.454C229.433 278.373 229.459 278.294 229.504 278.225C229.549 278.157 229.61 278.101 229.682 278.062C230.446 277.642 232.923 278.908 233.205 279.06C233.231 279.075 233.252 279.097 233.266 279.124C233.279 279.151 233.284 279.181 233.28 279.211C233.276 279.241 233.263 279.27 233.242 279.292C233.221 279.314 233.193 279.329 233.163 279.335C232.517 279.459 231.861 279.523 231.203 279.528ZM230.095 278.241C230 278.235 229.905 278.254 229.82 278.296C229.79 278.31 229.765 278.333 229.748 278.361C229.731 278.389 229.723 278.421 229.723 278.454C229.712 278.54 229.722 278.628 229.752 278.709C229.782 278.791 229.831 278.864 229.895 278.922C230.274 279.266 231.271 279.321 232.647 279.094C231.851 278.666 230.988 278.378 230.095 278.241Z" fill="url(#paint9_linear_3202_79037)"/>
<path d="M233.136 279.328H233.074C232.331 278.991 230.865 277.649 231.01 276.948C231.01 276.782 231.154 276.569 231.56 276.528C231.707 276.513 231.855 276.527 231.996 276.571C232.137 276.615 232.267 276.687 232.379 276.782C233.157 277.436 233.301 279.108 233.308 279.184C233.31 279.209 233.305 279.234 233.294 279.257C233.284 279.28 233.267 279.3 233.246 279.314C233.23 279.324 233.211 279.331 233.192 279.333C233.173 279.336 233.154 279.334 233.136 279.328ZM231.65 276.803H231.567C231.292 276.803 231.278 276.941 231.271 276.975C231.203 277.395 232.2 278.454 232.957 278.908C232.895 278.202 232.617 277.531 232.159 276.989C232.02 276.861 231.839 276.788 231.65 276.782V276.803Z" fill="url(#paint10_linear_3202_79037)"/>
<path d="M254.718 137.6L255.365 139.864C255.454 140.036 255.248 140.214 254.952 140.214H228.953C228.726 140.214 228.533 140.104 228.519 139.96L228.292 137.703C228.292 137.545 228.471 137.414 228.726 137.414H254.312C254.39 137.408 254.469 137.421 254.54 137.454C254.611 137.486 254.672 137.537 254.718 137.6Z" fill="url(#paint11_linear_3202_79037)"/>
<path opacity="0.3" d="M254.718 137.6L255.365 139.864C255.454 140.036 255.248 140.214 254.952 140.214H228.953C228.726 140.214 228.533 140.104 228.519 139.96L228.292 137.703C228.292 137.545 228.471 137.414 228.726 137.414H254.312C254.39 137.408 254.469 137.421 254.54 137.454C254.611 137.486 254.672 137.537 254.718 137.6Z" fill="white"/>
<path d="M251.285 140.49H251.973C252.104 140.49 252.207 140.421 252.2 140.331L251.877 137.394C251.877 137.311 251.753 137.235 251.615 137.235H250.927C250.79 137.235 250.687 137.311 250.7 137.394L251.017 140.331C251.031 140.421 251.12 140.49 251.285 140.49Z" fill="#2F4050"/>
<path d="M230.879 140.49H231.567C231.705 140.49 231.808 140.421 231.801 140.331L231.478 137.394C231.478 137.311 231.347 137.235 231.216 137.235H230.528C230.391 137.235 230.287 137.311 230.294 137.394L230.618 140.331C230.625 140.421 230.741 140.49 230.879 140.49Z" fill="#2F4050"/>
<path d="M241.082 140.49H241.77C241.908 140.49 242.011 140.421 242.004 140.331L241.681 137.394C241.681 137.311 241.557 137.235 241.419 137.235H240.731C240.594 137.235 240.49 137.311 240.504 137.394L240.8 140.352C240.8 140.421 240.944 140.49 241.082 140.49Z" fill="#2F4050"/>
<path d="M237.993 80.1863L236.761 79.9524C236.761 79.9524 237.463 80.833 237.993 80.1863Z" fill="#2F4050"/>
<path opacity="0.2" d="M215.22 167.796C203.564 172.325 190.827 173.295 178.619 170.584C166.412 167.874 155.282 161.604 146.637 152.569C137.993 143.533 132.222 132.137 130.054 119.821C127.886 107.506 129.419 94.8237 134.459 83.3792C139.498 71.9348 147.818 62.2417 158.367 55.5257C168.915 48.8098 181.218 45.3725 193.72 45.6486C206.222 45.9247 218.361 49.9017 228.603 57.0769C238.844 64.252 246.728 74.3029 251.258 85.9587C254.266 93.6983 255.721 101.955 255.538 110.257C255.355 118.559 253.538 126.743 250.192 134.343C246.845 141.942 242.034 148.808 236.034 154.548C230.033 160.288 222.961 164.79 215.22 167.796Z" fill="url(#paint12_linear_3202_79037)"/>
<path opacity="0.1" d="M203.779 46.6808L154.188 159.306C153.424 158.728 152.667 158.13 151.924 157.524C147.131 153.559 142.957 148.901 139.54 143.703L182.375 46.4194C189.472 45.2764 196.712 45.3648 203.779 46.6808Z" fill="white"/>
<path opacity="0.1" d="M239.032 66.22L192.406 172.11C182.721 172.12 173.164 169.903 164.473 165.629L215.385 49.9969C224.405 53.5244 232.495 59.0745 239.032 66.22Z" fill="white"/>
<path d="M140.27 66.2681C148.694 55.9736 159.983 48.4086 172.707 44.5297C185.432 40.6508 199.021 40.6322 211.756 44.4763C224.491 48.3204 235.8 55.8545 244.253 66.1259C252.706 76.3973 257.923 88.9447 259.245 102.181C260.567 115.418 257.935 128.749 251.68 140.49C245.425 152.23 235.83 161.852 224.107 168.139C212.384 174.426 199.059 177.095 185.819 175.81C172.579 174.524 160.017 169.341 149.723 160.916C135.919 149.618 127.169 133.299 125.396 115.55C123.624 97.8003 128.974 80.0735 140.27 66.2681ZM240.112 147.975C247.846 138.522 252.602 126.988 253.781 114.831C254.959 102.674 252.506 90.4415 246.733 79.6788C240.959 68.9162 232.123 60.1073 221.343 54.366C210.563 48.6247 198.323 46.2089 186.17 47.424C174.017 48.6391 162.497 53.4306 153.067 61.1925C143.638 68.9545 136.721 79.3383 133.192 91.031C129.664 102.724 129.682 115.2 133.244 126.883C136.806 138.565 143.752 148.929 153.204 156.664C159.481 161.801 166.708 165.651 174.473 167.994C182.237 170.337 190.387 171.128 198.458 170.321C206.528 169.514 214.361 167.125 221.508 163.291C228.655 159.457 234.977 154.253 240.112 147.975Z" fill="url(#paint13_linear_3202_79037)"/>
<path d="M246.05 147.741C252.675 151.697 258.977 156.045 265.169 160.531C271.361 165.017 277.395 169.688 283.332 174.484C289.27 179.279 295.097 184.212 300.718 189.393C303.534 191.979 306.286 194.635 308.974 197.36C311.671 200.112 314.32 202.864 316.817 205.85C317.394 206.541 317.712 207.412 317.717 208.312C317.721 209.213 317.412 210.086 316.842 210.784C316.272 211.481 315.477 211.957 314.593 212.132C313.71 212.306 312.793 212.167 312.001 211.739C308.561 209.881 305.341 207.831 302.128 205.733C298.915 203.634 295.778 201.446 292.682 199.197C286.49 194.711 280.498 189.984 274.629 185.106C268.76 180.228 262.981 175.24 257.36 170.053C251.739 164.865 246.228 159.554 241.041 153.844C240.393 153.137 240.022 152.221 239.995 151.263C239.968 150.305 240.287 149.37 240.894 148.628C241.501 147.886 242.355 147.389 243.299 147.226C244.244 147.063 245.215 147.246 246.036 147.741H246.05Z" fill="url(#paint14_linear_3202_79037)"/>
<path d="M253.452 145.856L246.806 146.867L251.56 151.037C251.56 151.037 255.317 149.661 255.688 147.115L253.452 145.856Z" fill="#FFC3BD"/>
<path d="M243.215 150.686L247.391 153.961L252.489 150.631L246.806 146.881L243.215 150.686Z" fill="#FFC3BD"/>
<path d="M211.794 157.93C212.401 156.273 213.496 154.839 214.934 153.816C216.372 152.793 218.086 152.229 219.85 152.199H274.925C275.876 152.164 276.824 152.337 277.702 152.708C278.579 153.079 279.364 153.638 280.002 154.345C280.639 155.052 281.114 155.891 281.392 156.802C281.671 157.712 281.746 158.673 281.612 159.616L267.384 278.991C267.082 281.023 266.067 282.882 264.521 284.234C262.974 285.587 260.997 286.345 258.943 286.373H84.1905C83.2421 286.409 82.2973 286.237 81.4225 285.869C80.5478 285.5 79.7644 284.945 79.1276 284.241C78.4907 283.537 78.0158 282.702 77.7364 281.795C77.4569 280.888 77.3797 279.931 77.5101 278.991L89.44 178.694C89.7419 176.662 90.757 174.803 92.3035 173.451C93.8501 172.099 95.8274 171.34 97.8817 171.312H192.977C197.098 171.242 201.101 169.926 204.459 167.537C207.818 165.149 210.375 161.8 211.794 157.93Z" fill="url(#paint15_linear_3202_79037)"/>
<path d="M80.6541 280.876H263.256L273.659 158.013H91.0635L80.6541 280.876Z" fill="#F8FAFB"/>
<path d="M80.6541 280.876H263.256L270.783 158.013H91.0635L80.6541 280.876Z" fill="#E0E0E0"/>
<path d="M80.6541 280.876H263.256L269.531 154.112H86.9355L80.6541 280.876Z" fill="#F8FAFB"/>
<path d="M80.6541 280.876H263.256L265.74 154.112H86.9355L80.6541 280.876Z" fill="#E0E0E0"/>
<path d="M80.6541 280.876H263.256L264.343 150.672H81.748L80.6541 280.876Z" fill="#F8FAFB"/>
<path d="M80.6541 280.876H263.256L259.507 153.135H78.0879L80.6541 280.876Z" fill="#E0E0E0"/>
<path d="M80.6541 280.876H263.256L257.835 154.112H75.2395L80.6541 280.876Z" fill="#F8FAFB"/>
<path d="M80.6541 280.876H263.256L254.622 156.025H72.0266L80.6541 280.876Z" fill="#E0E0E0"/>
<path d="M80.6542 280.876H263.256L253.246 157.091H70.6506L80.6542 280.876Z" fill="#F8FAFB"/>
<path d="M172.096 165.684C172.106 164.886 172.277 164.098 172.598 163.367C172.919 162.636 173.384 161.977 173.965 161.43C174.546 160.882 175.231 160.457 175.98 160.18C176.728 159.902 177.525 159.778 178.323 159.815H233.397C235.529 159.897 237.574 160.685 239.21 162.055C240.847 163.424 241.982 165.299 242.437 167.383L264.199 278.839C265.011 283.016 262.286 286.407 258.11 286.407H83.358C79.175 286.407 75.102 283.016 74.3108 278.839L56.3609 186.957C55.549 182.781 58.2735 179.389 62.4497 179.389H157.552C165.808 179.389 171.814 173.706 172.096 165.684Z" fill="url(#paint16_linear_3202_79037)"/>
<path opacity="0.2" d="M172.096 165.684C172.106 164.886 172.277 164.098 172.598 163.367C172.919 162.636 173.384 161.977 173.965 161.43C174.546 160.882 175.231 160.457 175.98 160.18C176.728 159.902 177.525 159.778 178.323 159.815H233.397C235.529 159.897 237.574 160.685 239.21 162.055C240.847 163.424 241.982 165.299 242.437 167.383L264.199 278.839C265.011 283.016 262.286 286.407 258.11 286.407H83.358C79.175 286.407 75.102 283.016 74.3108 278.839L56.3609 186.957C55.549 182.781 58.2735 179.389 62.4497 179.389H157.552C165.808 179.389 171.814 173.706 172.096 165.684Z" fill="#434343"/>
<defs>
<linearGradient id="paint0_linear_3202_79037" x1="223.411" y1="105.382" x2="228.88" y2="114.042" gradientUnits="userSpaceOnUse">
<stop stop-color="#2BC2F7"/>
<stop offset="1" stop-color="#5A81FD"/>
</linearGradient>
<linearGradient id="paint1_linear_3202_79037" x1="223.411" y1="105.382" x2="228.88" y2="114.042" gradientUnits="userSpaceOnUse">
<stop stop-color="#2BC2F7"/>
<stop offset="1" stop-color="#5A81FD"/>
</linearGradient>
<linearGradient id="paint2_linear_3202_79037" x1="229.926" y1="109.914" x2="242.196" y2="132.116" gradientUnits="userSpaceOnUse">
<stop stop-color="#2BC2F7"/>
<stop offset="1" stop-color="#5A81FD"/>
</linearGradient>
<linearGradient id="paint3_linear_3202_79037" x1="243.4" y1="67.5312" x2="246.313" y2="74.2623" gradientUnits="userSpaceOnUse">
<stop stop-color="#2BC2F7"/>
<stop offset="1" stop-color="#5A81FD"/>
</linearGradient>
<linearGradient id="paint4_linear_3202_79037" x1="232.284" y1="268.425" x2="232.665" y2="270.968" gradientUnits="userSpaceOnUse">
<stop stop-color="#2BC2F7"/>
<stop offset="1" stop-color="#5A81FD"/>
</linearGradient>
<linearGradient id="paint5_linear_3202_79037" x1="280.783" y1="242.904" x2="283.547" y2="249.238" gradientUnits="userSpaceOnUse">
<stop stop-color="#2BC2F7"/>
<stop offset="1" stop-color="#5A81FD"/>
</linearGradient>
<linearGradient id="paint6_linear_3202_79037" x1="253.555" y1="105.538" x2="259.058" y2="114.368" gradientUnits="userSpaceOnUse">
<stop stop-color="#2BC2F7"/>
<stop offset="1" stop-color="#5A81FD"/>
</linearGradient>
<linearGradient id="paint7_linear_3202_79037" x1="286.72" y1="255.114" x2="287.277" y2="256.586" gradientUnits="userSpaceOnUse">
<stop stop-color="#2BC2F7"/>
<stop offset="1" stop-color="#5A81FD"/>
</linearGradient>
<linearGradient id="paint8_linear_3202_79037" x1="286.544" y1="253.836" x2="286.792" y2="254.892" gradientUnits="userSpaceOnUse">
<stop stop-color="#2BC2F7"/>
<stop offset="1" stop-color="#5A81FD"/>
</linearGradient>
<linearGradient id="paint9_linear_3202_79037" x1="229.95" y1="278.38" x2="230.161" y2="279.489" gradientUnits="userSpaceOnUse">
<stop stop-color="#2BC2F7"/>
<stop offset="1" stop-color="#5A81FD"/>
</linearGradient>
<linearGradient id="paint10_linear_3202_79037" x1="231.315" y1="277.248" x2="232.208" y2="278.808" gradientUnits="userSpaceOnUse">
<stop stop-color="#2BC2F7"/>
<stop offset="1" stop-color="#5A81FD"/>
</linearGradient>
<linearGradient id="paint11_linear_3202_79037" x1="231.987" y1="138.135" x2="232.087" y2="140.194" gradientUnits="userSpaceOnUse">
<stop stop-color="#2BC2F7"/>
<stop offset="1" stop-color="#5A81FD"/>
</linearGradient>
<linearGradient id="paint12_linear_3202_79037" x1="146.341" y1="78.2573" x2="182.187" y2="154.552" gradientUnits="userSpaceOnUse">
<stop stop-color="#2BC2F7"/>
<stop offset="1" stop-color="#5A81FD"/>
</linearGradient>
<linearGradient id="paint13_linear_3202_79037" x1="143.406" y1="76.3112" x2="181.539" y2="157.47" gradientUnits="userSpaceOnUse">
<stop stop-color="#2BC2F7"/>
<stop offset="1" stop-color="#5A81FD"/>
</linearGradient>
<linearGradient id="paint14_linear_3202_79037" x1="250.592" y1="163.947" x2="266.904" y2="205.435" gradientUnits="userSpaceOnUse">
<stop stop-color="#2BC2F7"/>
<stop offset="1" stop-color="#5A81FD"/>
</linearGradient>
<linearGradient id="paint15_linear_3202_79037" x1="105.298" y1="186.813" x2="133.152" y2="277.043" gradientUnits="userSpaceOnUse">
<stop stop-color="#2BC2F7"/>
<stop offset="1" stop-color="#5A81FD"/>
</linearGradient>
<linearGradient id="paint16_linear_3202_79037" x1="84.5983" y1="192.47" x2="109.235" y2="278.672" gradientUnits="userSpaceOnUse">
<stop stop-color="#2BC2F7"/>
<stop offset="1" stop-color="#5A81FD"/>
</linearGradient>
</defs>
</svg>
