<?xml version="1.0" standalone="no"?>
<!DOCTYPE svg PUBLIC "-//W3C//DTD SVG 20010904//EN"
 "http://www.w3.org/TR/2001/REC-SVG-20010904/DTD/svg10.dtd">
<svg version="1.0" xmlns="http://www.w3.org/2000/svg"
 width="363.000000pt" height="599.000000pt" viewBox="0 0 363.000000 599.000000"
 preserveAspectRatio="xMidYMid meet">

<g transform="translate(0.000000,599.000000) scale(0.100000,-0.100000)"
fill="#000000" stroke="none">
<path d="M1705 5582 c-86 -4 -159 -42 -253 -131 -23 -23 -44 -41 -47 -41 -6 0
-89 -85 -140 -142 -32 -37 -40 -48 -82 -120 -16 -27 -31 -48 -35 -48 -5 0 -8
-9 -8 -19 0 -11 -3 -21 -7 -23 -12 -5 -43 -64 -43 -82 0 -9 -4 -16 -10 -16 -5
0 -10 -11 -10 -25 0 -14 -4 -25 -10 -25 -5 0 -10 -9 -10 -19 0 -11 -4 -23 -10
-26 -5 -3 -10 -16 -10 -29 0 -12 -4 -26 -8 -31 -30 -34 -79 -341 -102 -630 -6
-77 -13 -156 -16 -175 -3 -19 -10 -114 -15 -210 -12 -227 -25 -383 -40 -445
-6 -27 -15 -99 -19 -160 -5 -60 -12 -146 -15 -190 -4 -44 -12 -83 -17 -86 -6
-4 -1 -10 12 -14 13 -4 25 -3 29 3 4 6 12 7 19 3 10 -6 10 -11 -3 -21 -8 -7
-15 -19 -15 -26 0 -8 -4 -14 -8 -14 -14 0 -50 -73 -63 -130 -16 -66 -14 -297
2 -316 6 -7 8 -18 5 -23 -9 -14 14 -25 27 -12 14 14 144 14 188 0 66 -21 99
-40 134 -76 19 -20 35 -42 35 -50 0 -7 4 -13 10 -13 5 0 12 -11 16 -25 3 -14
9 -25 13 -25 7 0 31 -95 31 -123 0 -9 -4 -17 -10 -17 -5 0 -10 12 -10 28 0 53
-13 101 -31 121 -11 11 -19 24 -19 28 0 4 -17 26 -38 49 -62 68 -130 94 -241
94 -64 0 -72 -2 -69 -18 3 -14 13 -16 65 -14 100 6 157 -14 225 -78 32 -31 58
-63 58 -72 0 -9 4 -18 10 -20 5 -1 12 -30 15 -63 4 -33 11 -79 18 -102 9 -33
14 -40 24 -31 10 8 20 8 39 -1 l25 -11 -6 62 c-4 35 -9 70 -12 78 -2 8 -7 26
-9 39 -14 74 -137 214 -215 245 -24 10 -78 20 -120 23 -74 5 -76 6 -88 37 -17
44 -27 241 -12 250 6 4 11 19 11 34 1 30 21 62 39 62 6 0 11 3 11 8 0 4 11 20
25 36 14 16 25 32 25 36 0 17 66 70 87 70 24 0 185 153 267 253 20 25 49 53
63 62 25 17 26 17 18 -1 -4 -11 -13 -44 -18 -75 -9 -47 -8 -63 6 -92 9 -19 17
-42 17 -51 0 -9 4 -24 9 -34 13 -26 26 -62 46 -124 10 -31 24 -59 31 -62 18
-7 18 7 1 47 -40 94 -78 225 -78 267 0 19 11 61 25 92 21 48 26 78 32 195 7
155 -2 210 -43 251 -32 32 -93 127 -93 145 0 7 -4 17 -9 23 -11 13 -32 89 -40
149 -6 47 -8 50 -37 53 -38 4 -54 33 -54 102 0 45 13 75 22 49 2 -7 9 -10 16
-8 9 3 8 12 -4 34 -11 22 -13 35 -5 53 6 12 11 44 11 71 0 26 3 50 6 53 3 4
19 2 35 -2 31 -9 33 -8 43 33 7 28 6 28 -18 12 -23 -15 -25 -15 -40 7 -9 12
-16 34 -16 48 0 36 36 230 49 263 11 28 211 237 228 237 5 0 18 8 29 18 40 36
123 56 244 58 72 2 116 6 118 13 2 6 12 11 21 11 10 0 33 8 52 17 59 29 175
12 238 -35 46 -35 110 -104 111 -118 0 -7 11 -19 25 -28 14 -9 25 -25 25 -35
0 -12 9 -21 25 -25 16 -4 25 -13 25 -26 0 -22 35 -28 43 -7 3 6 6 4 6 -7 1
-10 -6 -24 -14 -30 -17 -13 -27 -132 -14 -158 8 -15 5 -15 -24 -6 -91 28 -138
28 -257 -1 -115 -29 -170 -79 -170 -155 0 -27 -29 -36 -121 -36 -67 0 -74 7
-74 70 0 40 -3 46 -30 59 -55 27 -214 49 -225 31 -3 -5 -23 -11 -45 -13 -22
-3 -32 -2 -22 0 29 8 19 23 -15 22 -26 -1 -42 -11 -72 -45 -38 -44 -44 -73 -8
-41 10 10 24 17 30 17 7 0 12 5 12 10 0 6 26 10 58 10 59 0 94 -12 73 -24 -6
-4 -9 -11 -7 -15 3 -4 -11 -13 -31 -20 -53 -19 -92 -58 -89 -88 3 -25 52 -63
81 -63 8 0 15 -4 15 -10 0 -13 36 -13 60 0 13 7 21 6 30 -5 7 -9 10 -18 6 -22
-3 -3 -6 -1 -6 5 0 7 -10 12 -22 12 -34 0 -9 -18 42 -29 28 -6 49 -6 54 0 6 5
20 9 32 9 13 0 26 5 29 10 10 16 23 12 30 -10 11 -35 22 -22 36 48 l14 67 52
3 c55 3 95 -11 91 -31 -1 -7 4 -36 10 -65 7 -29 12 -70 12 -92 0 -21 4 -41 9
-44 5 -4 12 -24 16 -46 4 -22 11 -40 16 -40 5 0 9 -7 9 -15 0 -8 -4 -15 -8
-15 -5 0 -14 -10 -19 -22 -18 -37 -65 -88 -82 -88 -9 -1 0 -8 19 -17 55 -24
315 -17 332 10 4 6 11 8 15 3 4 -5 2 -11 -4 -13 -21 -7 -15 -23 8 -23 30 0 20
31 -18 55 -18 11 -32 25 -33 30 0 6 -16 25 -35 42 -19 18 -35 37 -35 43 0 13
27 13 35 0 10 -15 144 -13 160 3 11 12 2 13 -58 10 -51 -3 -83 0 -109 11 -51
22 -90 60 -82 80 3 9 1 16 -5 16 -6 0 -11 14 -11 30 0 17 4 30 9 30 5 0 13 9
16 20 5 16 14 20 43 19 20 -1 44 -6 53 -10 9 -5 20 -5 23 -1 4 4 13 7 19 7 32
2 87 18 87 26 0 5 9 9 19 9 10 0 21 7 25 15 3 8 16 15 30 15 14 0 36 4 50 10
29 11 29 11 26 -60 0 -26 -13 -70 -30 -105 -15 -33 -26 -62 -24 -65 3 -2 16 9
29 24 14 16 25 24 25 17 0 -6 14 -25 31 -42 17 -17 28 -33 25 -36 -3 -4 -17 7
-31 22 -13 16 -26 27 -29 24 -8 -8 5 -49 15 -49 5 0 9 -6 9 -13 0 -8 11 -20
25 -27 22 -12 25 -20 25 -72 0 -32 -4 -58 -10 -58 -5 0 -10 -15 -10 -34 0 -19
-4 -38 -10 -41 -5 -3 -10 -15 -10 -26 0 -11 -10 -36 -23 -57 -12 -20 -29 -49
-36 -64 -8 -15 -24 -38 -35 -50 -12 -12 -35 -42 -52 -66 -38 -53 -133 -152
-145 -152 -5 0 -9 -7 -9 -15 0 -8 -3 -15 -7 -15 -5 0 -21 -11 -38 -25 -16 -13
-34 -28 -40 -33 -14 -11 -126 -42 -153 -42 -12 0 -22 -4 -22 -10 0 -5 9 -10
19 -10 11 0 23 -5 26 -10 3 -5 19 -10 36 -10 16 0 38 -9 49 -20 14 -14 35 -20
73 -21 28 -1 68 -2 87 -3 l35 -1 1 -62 c0 -35 3 -66 7 -69 4 -4 7 2 7 14 0 12
5 22 10 22 6 0 10 -9 10 -21 0 -31 18 -59 35 -53 8 4 15 12 15 19 0 7 3 15 8
17 4 2 24 29 45 61 20 31 42 57 48 57 16 0 38 -31 39 -52 0 -10 5 -18 10 -18
6 0 10 -6 10 -14 0 -17 48 -76 62 -76 9 0 60 -36 105 -74 13 -11 23 -26 23
-33 0 -7 5 -13 10 -13 6 0 10 -12 11 -27 l0 -28 10 24 c5 14 7 31 5 38 -3 7 3
22 14 33 11 11 20 28 20 38 0 24 28 62 46 62 11 0 13 -6 9 -20 -4 -11 -2 -20
4 -20 6 0 11 7 11 15 0 25 21 17 59 -24 110 -118 131 -142 131 -154 0 -19 20
-36 36 -30 8 3 14 0 14 -6 0 -6 6 -11 14 -11 15 0 39 -57 30 -71 -3 -5 -9 -39
-14 -77 -15 -114 -53 -334 -70 -402 -5 -19 -11 -89 -15 -155 -3 -66 -13 -152
-23 -191 -10 -39 -16 -76 -14 -82 2 -7 15 -9 33 -5 18 3 29 1 29 -6 0 -6 6
-11 14 -11 16 0 23 37 30 168 3 52 9 99 13 105 3 6 10 43 14 81 4 39 13 94 19
121 6 28 13 79 14 115 2 61 14 128 38 212 7 22 8 61 3 95 -4 32 -8 69 -9 83
-5 44 -6 47 -23 67 -22 24 -64 46 -123 64 -41 13 -45 17 -42 44 2 17 3 86 2
155 -1 129 10 153 22 47 5 -46 6 -36 3 39 -1 56 -8 110 -13 120 -12 23 -42
180 -42 223 0 17 -4 31 -9 31 -4 0 -11 30 -15 66 -4 37 -14 94 -22 128 -8 33
-19 77 -24 96 -5 19 -11 73 -14 120 -3 47 -10 117 -15 155 -6 39 -10 98 -11
132 0 34 -4 64 -9 67 -5 3 -12 49 -16 101 -4 52 -11 97 -16 101 -5 3 -9 21 -9
41 0 34 -22 131 -40 178 -4 11 -15 47 -25 80 -9 33 -28 83 -41 110 -13 28 -24
55 -24 62 0 6 -3 13 -7 15 -5 2 -28 42 -53 91 -25 48 -55 100 -67 115 -13 15
-26 32 -30 37 -85 111 -195 218 -260 251 -21 10 -40 22 -43 25 -13 16 -83 22
-275 23 -115 1 -237 0 -270 -2z m762 -924 c-3 -8 -6 -5 -6 6 -1 11 2 17 5 13
3 -3 4 -12 1 -19z m-857 -198 c11 -7 4 -10 -25 -10 -23 0 -45 -4 -50 -9 -13
-11 -75 -32 -75 -25 0 9 24 29 50 41 31 14 80 16 100 3z m570 3 c-8 -3 -23
-14 -34 -24 -10 -10 -23 -16 -28 -12 -12 7 41 43 62 42 13 0 13 -1 0 -6z m15
-54 c-4 -6 -13 -8 -21 -5 -19 7 -18 -28 1 -47 11 -11 11 -16 2 -20 -18 -6 -37
3 -37 19 0 8 -4 14 -10 14 -14 0 -13 18 3 35 14 17 72 21 62 4z m-615 -14 c0
-8 -2 -15 -4 -15 -2 0 -6 7 -10 15 -3 8 -1 15 4 15 6 0 10 -7 10 -15z m-39
-17 c24 -30 24 -38 -2 -38 -31 0 -54 27 -39 45 16 19 18 19 41 -7z m229 -38
c0 -24 -6 -25 -25 -6 -15 15 -10 26 12 26 7 0 13 -9 13 -20z m747 -142 c-3 -8
-6 -5 -6 6 -1 11 2 17 5 13 3 -3 4 -12 1 -19z m-434 -108 c17 -21 23 -65 9
-73 -11 -8 -62 4 -62 14 0 5 9 9 21 9 20 0 21 7 2 58 -8 19 11 14 30 -8z m154
-136 c-3 -3 -12 -4 -19 -1 -8 3 -5 6 6 6 11 1 17 -2 13 -5z m790 -656 c-3 -7
-5 -2 -5 12 0 14 2 19 5 13 2 -7 2 -19 0 -25z m-1790 -1310 c-3 -7 -5 -2 -5
12 0 14 2 19 5 13 2 -7 2 -19 0 -25z m1819 -104 c-4 -9 -9 -15 -11 -12 -3 3
-3 13 1 22 4 9 9 15 11 12 3 -3 3 -13 -1 -22z"/>
<path d="M1678 4152 c-10 -2 -18 -7 -18 -12 0 -5 -6 -10 -12 -13 -7 -2 -2 -2
12 0 25 4 48 20 39 26 -2 2 -12 2 -21 -1z"/>
<path d="M1560 4110 l-35 -7 43 -2 c23 0 42 4 42 9 0 6 -3 9 -7 9 -5 -1 -24
-5 -43 -9z"/>
<path d="M1648 4039 c-53 -66 -112 -125 -130 -132 -19 -7 -23 -33 -9 -56 11
-18 31 -5 31 20 0 10 7 19 15 19 8 0 15 5 15 10 0 6 6 10 14 10 16 0 76 71 76
89 0 6 5 11 10 11 6 0 10 9 10 19 0 11 5 23 10 26 6 3 10 10 10 16 0 20 -20 7
-52 -32z"/>
<path d="M1800 4000 c0 -5 5 -10 10 -10 6 0 10 5 10 10 0 6 -4 10 -10 10 -5 0
-10 -4 -10 -10z"/>
<path d="M2320 3906 c0 -14 5 -28 10 -31 6 -4 10 7 10 24 0 17 -4 31 -10 31
-5 0 -10 -11 -10 -24z"/>
<path d="M2150 3910 c0 -5 5 -10 10 -10 6 0 10 5 10 10 0 6 -4 10 -10 10 -5 0
-10 -4 -10 -10z"/>
<path d="M2095 3869 c-154 -8 -189 -15 -180 -37 3 -8 0 -19 -7 -24 -8 -4 11
-8 45 -8 35 0 57 -4 57 -11 0 -8 4 -8 14 0 15 12 87 11 86 -2 0 -4 0 -11 0
-17 0 -5 -5 -10 -11 -10 -6 0 -17 -7 -25 -15 -9 -8 -24 -15 -34 -15 -10 0 -22
-4 -25 -10 -3 -5 -29 -10 -56 -10 -31 0 -48 -4 -44 -10 3 -5 28 -10 54 -10 55
0 76 -17 66 -52 -6 -19 -5 -21 6 -10 7 6 25 12 39 12 17 0 36 13 60 41 19 22
54 62 78 87 36 39 72 94 72 109 0 1 -15 2 -32 1 -18 -1 -91 -5 -163 -9z"/>
<path d="M1570 3850 c0 -12 6 -27 13 -35 18 -18 89 -24 95 -7 2 6 10 12 18 12
34 0 9 17 -42 29 -31 7 -63 15 -70 18 -9 3 -14 -2 -14 -17z"/>
<path d="M2280 3075 c0 -19 15 -31 38 -31 24 0 26 4 12 26 -9 13 -11 13 -20 0
-9 -13 -11 -13 -20 0 -5 8 -10 11 -10 5z"/>
<path d="M3038 2287 c-5 -10 -8 -36 -8 -58 0 -21 -4 -39 -10 -39 -5 0 -10 -11
-10 -25 0 -14 5 -25 10 -25 6 0 10 6 10 14 0 8 5 16 11 18 6 2 9 29 7 68 -2
41 -6 58 -10 47z"/>
<path d="M2526 2151 c-4 -7 -5 -15 -2 -18 9 -9 19 4 14 18 -4 11 -6 11 -12 0z"/>
<path d="M415 2050 c3 -5 10 -10 16 -10 5 0 9 5 9 10 0 6 -7 10 -16 10 -8 0
-12 -4 -9 -10z"/>
<path d="M3138 1793 c7 -3 16 -2 19 1 4 3 -2 6 -13 5 -11 0 -14 -3 -6 -6z"/>
<path d="M2840 1479 c0 -6 8 -18 17 -27 16 -16 16 -16 10 1 -4 10 -7 23 -7 28
0 5 -4 9 -10 9 -5 0 -10 -5 -10 -11z"/>
<path d="M2938 1403 c6 -2 13 -21 13 -41 1 -22 3 -29 6 -17 3 11 10 23 17 27
12 8 -20 38 -39 37 -5 0 -4 -3 3 -6z"/>
<path d="M2574 1056 c-12 -31 0 -51 31 -51 21 0 33 7 42 24 6 14 10 29 7 33
-9 14 -74 9 -80 -6z"/>
</g>
</svg>
