<svg width="13" height="14" viewBox="0 0 13 14" fill="none" xmlns="http://www.w3.org/2000/svg">
<path d="M11.7399 10.5494C11.3917 10.2389 11.0868 9.88307 10.8335 9.49132C10.557 8.95057 10.3912 8.36004 10.346 7.75437V5.97049C10.3484 5.01918 10.0033 4.09974 9.37561 3.38492C8.7479 2.6701 7.88076 2.2091 6.93712 2.08854V1.62271C6.93712 1.49485 6.88633 1.37223 6.79592 1.28182C6.70551 1.19142 6.58289 1.14062 6.45504 1.14062C6.32718 1.14062 6.20456 1.19142 6.11415 1.28182C6.02374 1.37223 5.97295 1.49485 5.97295 1.62271V2.09576C5.03777 2.22502 4.18111 2.6888 3.56164 3.40122C2.94218 4.11364 2.60188 5.02641 2.60378 5.97049V7.75437C2.55856 8.36004 2.39282 8.95057 2.11628 9.49132C1.86744 9.88217 1.56747 10.238 1.22434 10.5494C1.18582 10.5832 1.15495 10.6249 1.13378 10.6716C1.11261 10.7183 1.10163 10.7689 1.10156 10.8202V11.3113C1.10156 11.4071 1.13961 11.4989 1.20733 11.5667C1.27505 11.6344 1.3669 11.6724 1.46267 11.6724H11.5016C11.5973 11.6724 11.6892 11.6344 11.7569 11.5667C11.8246 11.4989 11.8627 11.4071 11.8627 11.3113V10.8202C11.8626 10.7689 11.8516 10.7183 11.8305 10.6716C11.8093 10.6249 11.7784 10.5832 11.7399 10.5494ZM1.85267 10.9502C2.18865 10.6256 2.48447 10.2619 2.73379 9.86687C3.08212 9.2138 3.28536 8.49322 3.32962 7.75437V5.97049C3.3153 5.54728 3.38629 5.12551 3.53836 4.73031C3.69043 4.33511 3.92047 3.97455 4.21479 3.6701C4.50911 3.36565 4.86168 3.12355 5.25152 2.9582C5.64135 2.79285 6.06047 2.70763 6.48392 2.70763C6.90738 2.70763 7.3265 2.79285 7.71633 2.9582C8.10616 3.12355 8.45874 3.36565 8.75306 3.6701C9.04738 3.97455 9.27742 4.33511 9.42949 4.73031C9.58156 5.12551 9.65255 5.54728 9.63823 5.97049V7.75437C9.68249 8.49322 9.88573 9.2138 10.2341 9.86687C10.4834 10.2619 10.7792 10.6256 11.1152 10.9502H1.85267Z" fill="#434343"/>
<path d="M6.5 12.879C6.72748 12.8738 6.94578 12.7882 7.11628 12.6376C7.28678 12.4869 7.3985 12.2808 7.43167 12.0557H5.53223C5.56634 12.2869 5.68329 12.4978 5.86131 12.6493C6.03933 12.8007 6.2663 12.8824 6.5 12.879Z" fill="#434343"/>
</svg>
