<svg width="11" height="12" viewBox="0 0 11 12" fill="none" xmlns="http://www.w3.org/2000/svg">
<g clip-path="url(#clip0_1179_2142)">
<path d="M8.07227 7.6112C8.73797 6.7028 9.03613 5.57654 8.9071 4.45774C8.77807 3.33895 8.23136 2.31012 7.37635 1.5771C6.52135 0.844086 5.42109 0.46093 4.29572 0.504293C3.17034 0.547656 2.10283 1.01434 1.30676 1.81098C0.510695 2.60761 0.0447754 3.67546 0.00221793 4.80086C-0.0403396 5.92627 0.343603 7.02625 1.07723 7.88073C1.81086 8.73522 2.84008 9.28119 3.95897 9.40942C5.07786 9.53765 6.2039 9.23868 7.11183 8.57233H7.11114C7.13177 8.59983 7.15377 8.62595 7.17852 8.65139L9.82539 11.2983C9.9543 11.4273 10.1292 11.4998 10.3116 11.4998C10.4939 11.4999 10.6689 11.4275 10.7979 11.2986C10.9269 11.1697 10.9994 10.9948 10.9994 10.8124C10.9995 10.6301 10.9271 10.4551 10.7982 10.3261L8.15133 7.67927C8.12675 7.65438 8.10032 7.6314 8.07227 7.61052V7.6112ZM8.24964 4.96845C8.24964 5.46501 8.15184 5.95671 7.96181 6.41547C7.77178 6.87424 7.49326 7.29108 7.14214 7.6422C6.79102 7.99332 6.37417 8.27185 5.91541 8.46187C5.45665 8.6519 4.96495 8.7497 4.46839 8.7497C3.97183 8.7497 3.48013 8.6519 3.02137 8.46187C2.56261 8.27185 2.14576 7.99332 1.79464 7.6422C1.44352 7.29108 1.165 6.87424 0.974971 6.41547C0.784946 5.95671 0.687141 5.46501 0.687141 4.96845C0.687141 3.9656 1.08552 3.00383 1.79464 2.29471C2.50377 1.58558 3.46554 1.1872 4.46839 1.1872C5.47124 1.1872 6.43302 1.58558 7.14214 2.29471C7.85126 3.00383 8.24964 3.9656 8.24964 4.96845Z" fill="#7B7B7B"/>
</g>
<defs>
<clipPath id="clip0_1179_2142">
<rect width="11" height="11" fill="white" transform="translate(0 0.5)"/>
</clipPath>
</defs>
</svg>
