<svg width="13" height="14" viewBox="0 0 13 14" fill="none" xmlns="http://www.w3.org/2000/svg">
<g clip-path="url(#clip0_1418_4120)">
<path d="M6.50057 4.3632C6.15423 4.3632 5.81127 4.43141 5.49129 4.56395C5.17131 4.69649 4.88057 4.89076 4.63566 5.13566C4.39076 5.38057 4.19649 5.67131 4.06395 5.99129C3.93141 6.31127 3.8632 6.65423 3.8632 7.00057C3.8632 7.34692 3.93141 7.68987 4.06395 8.00985C4.19649 8.32983 4.39076 8.62057 4.63566 8.86548C4.88057 9.11038 5.17131 9.30465 5.49129 9.43719C5.81127 9.56973 6.15423 9.63795 6.50057 9.63795C7.20005 9.63795 7.87087 9.36008 8.36548 8.86548C8.86008 8.37087 9.13795 7.70005 9.13795 7.00057C9.13795 6.3011 8.86008 5.63027 8.36548 5.13566C7.87087 4.64106 7.20005 4.3632 6.50057 4.3632ZM4.6757 7.00057C4.6757 6.51658 4.86796 6.05242 5.21019 5.71019C5.55242 5.36796 6.01658 5.1757 6.50057 5.1757C6.98456 5.1757 7.44872 5.36796 7.79095 5.71019C8.13318 6.05242 8.32545 6.51658 8.32545 7.00057C8.32545 7.48456 8.13318 7.94872 7.79095 8.29095C7.44872 8.63318 6.98456 8.82545 6.50057 8.82545C6.01658 8.82545 5.55242 8.63318 5.21019 8.29095C4.86796 7.94872 4.6757 7.48456 4.6757 7.00057Z" fill="#434343"/>
<path d="M7.95982 1.59176C7.53163 0.137383 5.46951 0.137383 5.04132 1.59176L4.96495 1.85095C4.93504 1.95247 4.8828 2.04601 4.81205 2.12472C4.74129 2.20343 4.65382 2.26531 4.55605 2.30583C4.45827 2.34634 4.35267 2.36446 4.24698 2.35885C4.1413 2.35325 4.0382 2.32407 3.94526 2.27345L3.70801 2.14345C2.37551 1.4187 0.918695 2.87632 1.64426 4.20801L1.77345 4.44526C1.82407 4.5382 1.85325 4.6413 1.85885 4.74698C1.86446 4.85267 1.84634 4.95827 1.80583 5.05605C1.76531 5.15382 1.70343 5.24129 1.62472 5.31205C1.54601 5.3828 1.45247 5.43504 1.35095 5.46495L1.09176 5.54132C-0.362617 5.96951 -0.362617 8.03163 1.09176 8.45982L1.35095 8.5362C1.45247 8.5661 1.54601 8.61834 1.62472 8.68909C1.70343 8.75985 1.76531 8.84732 1.80583 8.94509C1.84634 9.04287 1.86446 9.14847 1.85885 9.25416C1.85325 9.35985 1.82407 9.46294 1.77345 9.55588L1.64345 9.79313C0.918696 11.1256 2.37551 12.5833 3.70801 11.8569L3.94526 11.7277C4.0382 11.6771 4.1413 11.6479 4.24698 11.6423C4.35267 11.6367 4.45827 11.6548 4.55605 11.6953C4.65382 11.7358 4.74129 11.7977 4.81205 11.8764C4.8828 11.9551 4.93504 12.0487 4.96495 12.1502L5.04132 12.4094C5.46951 13.8638 7.53163 13.8638 7.95982 12.4094L8.0362 12.1502C8.0661 12.0487 8.11834 11.9551 8.18909 11.8764C8.25985 11.7977 8.34732 11.7358 8.44509 11.6953C8.54287 11.6548 8.64847 11.6367 8.75416 11.6423C8.85985 11.6479 8.96294 11.6771 9.05588 11.7277L9.29313 11.8577C10.6256 12.5833 12.0833 11.1248 11.3569 9.79313L11.2277 9.55588C11.1771 9.46294 11.1479 9.35985 11.1423 9.25416C11.1367 9.14847 11.1548 9.04287 11.1953 8.94509C11.2358 8.84732 11.2977 8.75985 11.3764 8.68909C11.4551 8.61834 11.5487 8.5661 11.6502 8.5362L11.9094 8.45982C13.3638 8.03163 13.3638 5.96951 11.9094 5.54132L11.6502 5.46495C11.5487 5.43504 11.4551 5.3828 11.3764 5.31205C11.2977 5.24129 11.2358 5.15382 11.1953 5.05605C11.1548 4.95827 11.1367 4.85267 11.1423 4.74698C11.1479 4.6413 11.1771 4.5382 11.2277 4.44526L11.3577 4.20801C12.0833 2.87551 10.6248 1.4187 9.29313 2.14426L9.05588 2.27345C8.96294 2.32407 8.85985 2.35325 8.75416 2.35885C8.64847 2.36446 8.54287 2.34634 8.44509 2.30583C8.34732 2.26531 8.25985 2.20343 8.18909 2.12472C8.11834 2.04601 8.0661 1.95247 8.0362 1.85095L7.95982 1.59176ZM5.82051 1.8217C6.02038 1.14326 6.98076 1.14326 7.18063 1.8217L7.25701 2.08088C7.32121 2.2987 7.43335 2.49939 7.5852 2.66824C7.73705 2.83709 7.92476 2.96981 8.13457 3.05668C8.34438 3.14355 8.57098 3.18236 8.79774 3.17027C9.0245 3.15819 9.24568 3.0955 9.44507 2.98682L9.68151 2.85682C10.3023 2.51963 10.9815 3.19807 10.6435 3.81963L10.5143 4.05688C10.4058 4.25629 10.3433 4.47746 10.3313 4.70417C10.3194 4.93088 10.3583 5.15739 10.4452 5.36711C10.5322 5.57683 10.6649 5.76444 10.8338 5.91619C11.0026 6.06794 11.2033 6.17999 11.4211 6.24413L11.6794 6.32051C12.3579 6.52038 12.3579 7.48076 11.6794 7.68063L11.4203 7.75701C11.2024 7.82121 11.0017 7.93335 10.8329 8.0852C10.6641 8.23705 10.5313 8.42476 10.4445 8.63457C10.3576 8.84438 10.3188 9.07098 10.3309 9.29774C10.343 9.5245 10.4056 9.74568 10.5143 9.94507L10.6443 10.1815C10.9815 10.8023 10.3031 11.4815 9.68151 11.1435L9.44507 11.0143C9.24563 10.9056 9.02439 10.843 8.79759 10.831C8.57078 10.8189 8.34415 10.8578 8.13433 10.9448C7.92451 11.0317 7.73681 11.1645 7.585 11.3335C7.43319 11.5024 7.32112 11.7032 7.25701 11.9211L7.18063 12.1794C6.98076 12.8579 6.02038 12.8579 5.82051 12.1794L5.74413 11.9203C5.6799 11.7026 5.56778 11.502 5.41599 11.3332C5.2642 11.1644 5.07658 11.0318 4.86687 10.9449C4.65716 10.8581 4.43068 10.8192 4.20401 10.8312C3.97735 10.8432 3.75624 10.9058 3.55688 11.0143L3.31963 11.1443C2.69888 11.4815 2.01963 10.8031 2.35763 10.1815L2.48682 9.94507C2.59566 9.74565 2.65846 9.52439 2.67063 9.29754C2.6828 9.07068 2.64402 8.84397 2.55714 8.63406C2.47026 8.42414 2.33748 8.23634 2.16855 8.08443C1.99961 7.93253 1.79882 7.82037 1.58088 7.7562L1.3217 7.67982C0.643258 7.47995 0.643258 6.51957 1.3217 6.3197L1.58088 6.24332C1.79848 6.17906 1.99895 6.06696 2.16762 5.91522C2.3363 5.76349 2.46892 5.57596 2.55576 5.36635C2.64261 5.15675 2.68149 4.93038 2.66956 4.70381C2.65764 4.47724 2.5952 4.25621 2.48682 4.05688L2.35682 3.81963C2.01963 3.19888 2.69807 2.51963 3.31963 2.85763L3.55688 2.98682C3.75624 3.09535 3.97735 3.15791 4.20401 3.16992C4.43068 3.18193 4.65716 3.14308 4.86687 3.05622C5.07658 2.96936 5.2642 2.83669 5.41599 2.66793C5.56778 2.49917 5.6799 2.29859 5.74413 2.08088L5.82051 1.8217Z" fill="#434343"/>
</g>
<defs>
<clipPath id="clip0_1418_4120">
<rect width="13" height="13" fill="white" transform="translate(0 0.5)"/>
</clipPath>
</defs>
</svg>
