<svg width="8" height="8" viewBox="0 0 8 8" fill="none" xmlns="http://www.w3.org/2000/svg">
<g clip-path="url(#clip0_476_2314)">
<g opacity="0.7">
<path d="M0 0.25C0 0.183696 0.0263392 0.120107 0.0732233 0.0732233C0.120107 0.0263392 0.183696 0 0.25 0H1.75C1.8163 0 1.87989 0.0263392 1.92678 0.0732233C1.97366 0.120107 2 0.183696 2 0.25C2 0.316304 1.97366 0.379893 1.92678 0.426777C1.87989 0.473661 1.8163 0.5 1.75 0.5H0.5V1.75C0.5 1.8163 0.473661 1.87989 0.426777 1.92678C0.379893 1.97366 0.316304 2 0.25 2C0.183696 2 0.120107 1.97366 0.0732233 1.92678C0.0263392 1.87989 0 1.8163 0 1.75V0.25Z" fill="#434343"/>
<path d="M6 0.25C6 0.183696 6.02634 0.120107 6.07322 0.0732233C6.12011 0.0263392 6.1837 0 6.25 0H7.75C7.8163 0 7.87989 0.0263392 7.92678 0.0732233C7.97366 0.120107 8 0.183696 8 0.25V1.75C8 1.8163 7.97366 1.87989 7.92678 1.92678C7.87989 1.97366 7.8163 2 7.75 2C7.6837 2 7.62011 1.97366 7.57322 1.92678C7.52634 1.87989 7.5 1.8163 7.5 1.75V0.5H6.25C6.1837 0.5 6.12011 0.473661 6.07322 0.426777C6.02634 0.379893 6 0.316304 6 0.25Z" fill="#434343"/>
<path d="M0.25 6C0.316304 6 0.379893 6.02634 0.426777 6.07322C0.473661 6.12011 0.5 6.1837 0.5 6.25V7.5H1.75C1.8163 7.5 1.87989 7.52634 1.92678 7.57322C1.97366 7.62011 2 7.6837 2 7.75C2 7.8163 1.97366 7.87989 1.92678 7.92678C1.87989 7.97366 1.8163 8 1.75 8H0.25C0.183696 8 0.120107 7.97366 0.0732233 7.92678C0.0263392 7.87989 0 7.8163 0 7.75V6.25C0 6.1837 0.0263392 6.12011 0.0732233 6.07322C0.120107 6.02634 0.183696 6 0.25 6Z" fill="#434343"/>
<path d="M7.75 6C7.8163 6 7.87989 6.02634 7.92678 6.07322C7.97366 6.12011 8 6.1837 8 6.25V7.75C8 7.8163 7.97366 7.87989 7.92678 7.92678C7.87989 7.97366 7.8163 8 7.75 8H6.25C6.1837 8 6.12011 7.97366 6.07322 7.92678C6.02634 7.87989 6 7.8163 6 7.75C6 7.6837 6.02634 7.62011 6.07322 7.57322C6.12011 7.52634 6.1837 7.5 6.25 7.5H7.5V6.25C7.5 6.1837 7.52634 6.12011 7.57322 6.07322C7.62011 6.02634 7.6837 6 7.75 6Z" fill="#434343"/>
<path d="M2 2H2.5V2.5H2V2Z" fill="#434343"/>
<path fill-rule="evenodd" clip-rule="evenodd" d="M3.5 1H1V3.5H3.5V1ZM1.5 1.5H3V3H1.5V1.5Z" fill="#434343"/>
<path d="M2.5 5.5H2V6H2.5V5.5Z" fill="#434343"/>
<path fill-rule="evenodd" clip-rule="evenodd" d="M1 4.5H3.5V7H1V4.5ZM3 5H1.5V6.5H3V5Z" fill="#434343"/>
<path d="M6 2H5.5V2.5H6V2Z" fill="#434343"/>
<path fill-rule="evenodd" clip-rule="evenodd" d="M4.5 1H7V3.5H4.5V1ZM5 1.5V3H6.5V1.5H5Z" fill="#434343"/>
<path fill-rule="evenodd" clip-rule="evenodd" d="M4 5H4.5V5.5H4V6H5V5H5.5V6H6V5.5H7V5H5.5V4H4V5ZM5 5H4.5V4.5H5V5Z" fill="#434343"/>
<path d="M7 6H6.5V6.5H5.5V7H7V6Z" fill="#434343"/>
<path d="M5 7V6.5H4V7H5Z" fill="#434343"/>
<path d="M7 4.5H6V4H7V4.5Z" fill="#434343"/>
</g>
</g>
<defs>
<clipPath id="clip0_476_2314">
<rect width="8" height="8" fill="white"/>
</clipPath>
</defs>
</svg>
