<svg width="9" height="9" viewBox="0 0 9 9" fill="none" xmlns="http://www.w3.org/2000/svg">
<g clip-path="url(#clip0_476_2181)">
<path opacity="0.7" d="M2.05564 0.746922C2.02243 0.704206 1.98052 0.669045 1.93268 0.643773C1.88484 0.618502 1.83217 0.603698 1.77817 0.600347C1.72417 0.596995 1.67007 0.605171 1.61948 0.624333C1.56888 0.643495 1.52294 0.673203 1.4847 0.711484L0.903077 1.29367C0.63139 1.56592 0.531265 1.95123 0.649952 2.2893C1.14256 3.68857 1.94387 4.95898 2.99445 6.0063C4.04179 7.05687 5.31219 7.85818 6.71145 8.3508C7.04951 8.46948 7.43483 8.36936 7.70708 8.09767L8.2887 7.51605C8.32698 7.47781 8.35669 7.43187 8.37585 7.38127C8.39502 7.33068 8.40319 7.27658 8.39984 7.22258C8.39649 7.16858 8.38169 7.11591 8.35641 7.06807C8.33114 7.02023 8.29598 6.97832 8.25327 6.94511L6.95558 5.93598C6.90994 5.90059 6.85686 5.87602 6.80035 5.86413C6.74383 5.85225 6.68535 5.85335 6.62933 5.86736L5.39745 6.17505C5.23302 6.21614 5.06075 6.21396 4.89741 6.16872C4.73408 6.12347 4.58524 6.0367 4.46539 5.91686L3.08389 4.5348C2.96395 4.41501 2.87707 4.26619 2.83173 4.10285C2.78638 3.93951 2.78411 3.76721 2.82514 3.60273L3.13339 2.37086C3.1474 2.31483 3.1485 2.25635 3.13662 2.19984C3.12473 2.14332 3.10016 2.09024 3.06476 2.04461L2.05564 0.746922ZM1.06001 0.287359C1.15845 0.188893 1.27671 0.112495 1.40693 0.0632375C1.53716 0.0139798 1.67637 -0.00701003 1.81533 0.00166163C1.95429 0.0103333 2.08981 0.0484681 2.2129 0.113534C2.336 0.178599 2.44384 0.269107 2.52926 0.379047L3.53839 1.67617C3.72345 1.91411 3.7887 2.22405 3.71558 2.51655L3.40789 3.74842C3.39198 3.81223 3.39284 3.87906 3.41038 3.94243C3.42793 4.00581 3.46156 4.06357 3.50802 4.11011L4.89008 5.49217C4.93667 5.53872 4.99453 5.57241 5.05801 5.58995C5.1215 5.6075 5.18844 5.60831 5.25233 5.5923L6.48364 5.28461C6.62799 5.24852 6.77865 5.24572 6.92424 5.27641C7.06982 5.30711 7.20653 5.3705 7.32402 5.4618L8.62114 6.47092C9.08745 6.83373 9.1302 7.5228 8.71283 7.93961L8.1312 8.52123C7.71495 8.93748 7.09283 9.1203 6.51289 8.91611C5.02856 8.39384 3.68086 7.54408 2.56976 6.42986C1.45561 5.31893 0.605857 3.97143 0.0835149 2.4873C-0.12011 1.90792 0.0627024 1.28523 0.478952 0.868984L1.06058 0.287359H1.06001Z" fill="#434343"/>
</g>
<defs>
<clipPath id="clip0_476_2181">
<rect width="9" height="9" fill="white"/>
</clipPath>
</defs>
</svg>
