<svg width="10" height="8" viewBox="0 0 10 8" fill="none" xmlns="http://www.w3.org/2000/svg">
<g opacity="0.7">
<path d="M8.34937 6.02381C9.4125 5.07506 10 4.00006 10 4.00006C10 4.00006 8.125 0.562559 5 0.562559C4.39975 0.564626 3.80628 0.689699 3.25625 0.930059L3.7375 1.41193C4.14215 1.26453 4.56934 1.18861 5 1.18756C6.325 1.18756 7.42438 1.91756 8.23 2.72318C8.61772 3.11299 8.9653 3.54076 9.2675 4.00006C9.23125 4.05443 9.19125 4.11443 9.14563 4.18006C8.93625 4.48006 8.62687 4.88006 8.23 5.27693C8.12687 5.38006 8.01937 5.48193 7.90688 5.58068L8.34937 6.02381Z" fill="#434343"/>
<path d="M7.06063 4.73506C7.2001 4.34496 7.22593 3.92328 7.13511 3.51907C7.04429 3.11487 6.84055 2.74476 6.54761 2.45182C6.25467 2.15888 5.88457 1.95515 5.48036 1.86433C5.07616 1.77351 4.65447 1.79934 4.26437 1.93881L4.77875 2.45318C5.01894 2.4188 5.26384 2.44084 5.49404 2.51754C5.72425 2.59423 5.93342 2.72349 6.10499 2.89507C6.27657 3.06664 6.40582 3.27581 6.48252 3.50601C6.55922 3.73621 6.58125 3.98111 6.54688 4.22131L7.06063 4.73506ZM5.22125 5.54693L5.735 6.06068C5.3449 6.20016 4.92322 6.22598 4.51901 6.13517C4.11481 6.04435 3.7447 5.84061 3.45176 5.54767C3.15882 5.25473 2.95509 4.88463 2.86427 4.48042C2.77345 4.07622 2.79928 3.65453 2.93875 3.26443L3.45312 3.77881C3.41875 4.019 3.44078 4.2639 3.51748 4.4941C3.59418 4.7243 3.72343 4.93348 3.89501 5.10505C4.06658 5.27663 4.27575 5.40588 4.50596 5.48258C4.73616 5.55928 4.98106 5.58131 5.22125 5.54693Z" fill="#434343"/>
<path d="M2.09375 2.41881C1.98125 2.51881 1.87312 2.62006 1.77 2.72318C1.38228 3.11299 1.0347 3.54076 0.7325 4.00006L0.854375 4.18006C1.06375 4.48006 1.37313 4.88006 1.77 5.27693C2.57563 6.08256 3.67563 6.81256 5 6.81256C5.4475 6.81256 5.86875 6.72943 6.2625 6.58756L6.74375 7.07006C6.19371 7.3104 5.60025 7.43547 5 7.43756C1.875 7.43756 0 4.00006 0 4.00006C0 4.00006 0.586875 2.92443 1.65062 1.97631L2.09312 2.41943L2.09375 2.41881ZM8.52875 7.97131L1.02875 0.471309L1.47125 0.0288086L8.97125 7.52881L8.52875 7.97131Z" fill="#434343"/>
</g>
</svg>
