<svg width="343" height="280" viewBox="0 0 343 280" fill="none" xmlns="http://www.w3.org/2000/svg">
<g opacity="0.6">
<path d="M342.417 232.063H0.58252V232.234H342.417V232.063Z" fill="#EEEEEE"/>
<path d="M308.166 238.585H246.02V238.756H308.166V238.585Z" fill="#EEEEEE"/>
<path d="M227.027 236.729H210.011V236.899H227.027V236.729Z" fill="#EEEEEE"/>
<path d="M265.921 244.949H239.539V245.12H265.921V244.949Z" fill="#EEEEEE"/>
<path d="M51.926 243.799H36.4478V243.97H51.926V243.799Z" fill="#EEEEEE"/>
<path d="M76.3946 243.799H58.0107V243.97H76.3946V243.799Z" fill="#EEEEEE"/>
<path d="M154.511 240.907H122.488V241.078H154.511V240.907Z" fill="#EEEEEE"/>
<path d="M162.612 201.511H30.6025C29.5683 201.509 28.5772 201.096 27.8465 200.363C27.1159 199.63 26.7056 198.636 26.7056 197.6V11.6605C26.7146 10.6302 27.1289 9.64511 27.8585 8.91914C28.5882 8.19317 29.5742 7.78497 30.6025 7.7832H162.612C163.648 7.7832 164.641 8.19531 165.373 8.92887C166.105 9.66243 166.516 10.6573 166.516 11.6948V197.6C166.516 198.637 166.105 199.632 165.373 200.366C164.641 201.099 163.648 201.511 162.612 201.511ZM30.6025 7.92021C29.6137 7.92203 28.666 8.31689 27.9674 9.01813C27.2688 9.71938 26.8765 10.6697 26.8765 11.6605V197.6C26.8765 198.59 27.2688 199.541 27.9674 200.242C28.666 200.943 29.6137 201.338 30.6025 201.34H162.612C163.602 201.338 164.55 200.943 165.25 200.242C165.949 199.541 166.343 198.591 166.345 197.6V11.6605C166.343 10.6691 165.949 9.71877 165.25 9.01772C164.55 8.31667 163.602 7.92202 162.612 7.92021H30.6025Z" fill="#EEEEEE"/>
<path d="M310.497 201.511H178.48C177.446 201.509 176.454 201.097 175.722 200.364C174.99 199.63 174.578 198.636 174.577 197.6V11.6605C174.587 10.6296 175.003 9.6445 175.734 8.91871C176.465 8.19293 177.452 7.78495 178.48 7.7832H310.497C311.524 7.78677 312.508 8.19577 313.237 8.92155C313.965 9.64733 314.378 10.6314 314.387 11.6605V197.6C314.387 198.635 313.978 199.628 313.249 200.361C312.519 201.094 311.53 201.508 310.497 201.511ZM178.48 7.92021C177.491 7.92202 176.543 8.31667 175.843 9.01772C175.143 9.71877 174.749 10.6691 174.748 11.6605V197.6C174.749 198.591 175.143 199.541 175.843 200.242C176.543 200.943 177.491 201.338 178.48 201.34H310.497C311.487 201.338 312.435 200.943 313.135 200.242C313.834 199.541 314.228 198.591 314.23 197.6V11.6605C314.228 10.6691 313.834 9.71877 313.135 9.01772C312.435 8.31667 311.487 7.92202 310.497 7.92021H178.48Z" fill="#EEEEEE"/>
<path d="M293.993 149.661C292.98 149.664 291.972 149.796 290.992 150.051C290.022 148.729 288.793 147.62 287.381 146.79C285.969 145.96 284.402 145.427 282.778 145.225C281.153 145.022 279.504 145.154 277.932 145.611C276.359 146.069 274.897 146.843 273.633 147.887C271.56 144.377 268.43 141.615 264.693 139.997C260.956 138.38 256.803 137.99 252.832 138.884C248.86 139.778 245.273 141.91 242.585 144.973C239.897 148.037 238.247 151.874 237.871 155.936C235.718 155.456 233.481 155.506 231.351 156.08C229.221 156.654 227.262 157.736 225.64 159.233C224.017 160.73 222.781 162.598 222.035 164.678C221.289 166.758 221.057 168.988 221.358 171.177C221.658 173.366 222.483 175.45 223.761 177.251C225.039 179.052 226.733 180.516 228.699 181.519C230.664 182.522 232.843 183.033 235.048 183.01C237.253 182.987 239.42 182.429 241.364 181.385C242.234 184.533 244.027 187.347 246.511 189.463C248.996 191.578 252.057 192.897 255.298 193.249C258.539 193.601 261.811 192.97 264.69 191.437C267.569 189.905 269.923 187.541 271.446 184.653C274.055 186.884 277.241 188.329 280.636 188.822C284.03 189.314 287.495 188.834 290.628 187.435C293.762 186.037 296.436 183.779 298.342 180.921C300.248 178.063 301.307 174.723 301.397 171.287C303.389 169.748 304.85 167.621 305.574 165.207C306.299 162.794 306.251 160.213 305.437 157.828C304.623 155.442 303.085 153.372 301.037 151.907C298.99 150.443 296.536 149.657 294.02 149.661H293.993Z" fill="#F8FAFB"/>
<path d="M50.2648 77.1916C48.7298 76.521 46.9919 76.4885 45.433 77.1012C43.8742 77.7139 42.6218 78.9218 41.9513 80.4592C41.1847 80.0741 40.3478 79.8493 39.4916 79.7988C38.6355 79.7482 37.778 79.8728 36.9715 80.1651C36.165 80.4573 35.4263 80.9111 34.8005 81.4987C34.1747 82.0862 33.6748 82.7953 33.3314 83.5828C32.9879 84.3702 32.8081 85.2195 32.8029 86.0788C32.7976 86.9381 32.9671 87.7895 33.3009 88.5811C33.6347 89.3727 34.1258 90.0879 34.7444 90.6831C35.363 91.2783 36.0961 91.7411 36.899 92.0432L48.4735 97.1056L53.5259 85.508C54.1927 83.9717 54.2239 82.233 53.6124 80.6738C53.001 79.1145 51.797 77.8621 50.2648 77.1916Z" fill="#F8FAFB"/>
<path d="M104.234 21.9366C103.976 21.4446 103.624 21.0084 103.198 20.6529C102.772 20.2974 102.28 20.0296 101.75 19.8649C101.22 19.7001 100.664 19.6415 100.111 19.6926C99.5592 19.7436 99.0225 19.9033 98.532 20.1624C97.9915 19.203 97.0992 18.4925 96.0444 18.1817C94.9896 17.8709 93.8554 17.9844 92.8827 18.498C91.9101 19.0116 91.1755 19.8849 90.8351 20.9324C90.4947 21.9799 90.5751 23.1192 91.0595 24.1082L94.9974 31.5956L102.449 27.6498C102.942 27.3927 103.378 27.0408 103.734 26.6143C104.091 26.1878 104.359 25.695 104.525 25.1643C104.691 24.6335 104.75 24.0752 104.7 23.5214C104.65 22.9675 104.492 22.429 104.234 21.9366Z" fill="#C4C4C4"/>
<path d="M276.101 4.93354C275.843 4.44216 275.491 4.00663 275.064 3.65183C274.638 3.29703 274.146 3.02993 273.616 2.86579C273.087 2.70165 272.53 2.64369 271.978 2.69523C271.426 2.74676 270.89 2.90679 270.4 3.16615C270.142 2.67317 269.79 2.23586 269.364 1.87921C268.937 1.52256 268.445 1.25354 267.915 1.08752C267.385 0.921491 266.827 0.861709 266.274 0.911586C265.721 0.961462 265.183 1.12002 264.691 1.37821C264.199 1.63639 263.762 1.98915 263.407 2.41634C263.051 2.84353 262.782 3.33678 262.616 3.86793C262.451 4.39909 262.391 4.95774 262.441 5.512C262.491 6.06626 262.649 6.60527 262.907 7.09825L266.844 14.5788L274.31 10.6399C275.301 10.1191 276.045 9.22646 276.381 8.15713C276.717 7.08779 276.616 5.92878 276.101 4.93354Z" fill="#F8FAFB"/>
<path d="M303.448 128.74C303.318 127.921 302.87 127.186 302.201 126.697C301.533 126.208 300.698 126.004 299.879 126.131C299.718 125.344 299.261 124.65 298.602 124.193C297.944 123.735 297.135 123.549 296.343 123.673C295.551 123.798 294.838 124.223 294.351 124.86C293.863 125.497 293.64 126.298 293.726 127.096L294.69 133.262L300.843 132.296C301.658 132.168 302.389 131.722 302.877 131.056C303.364 130.39 303.57 129.558 303.448 128.74Z" fill="#EEEEEE"/>
<path d="M240.229 75.7797C239.909 75.6789 239.572 75.6424 239.238 75.6722C238.904 75.702 238.579 75.7976 238.282 75.9536C237.985 76.1095 237.721 76.3226 237.506 76.5808C237.291 76.8389 237.129 77.1371 237.03 77.458C236.709 77.3577 236.372 77.3217 236.038 77.3519C235.703 77.3821 235.378 77.4781 235.081 77.6342C234.783 77.7904 234.519 78.0037 234.304 78.2621C234.089 78.5204 233.927 78.8186 233.827 79.1398C233.727 79.4609 233.691 79.7987 233.721 80.1338C233.751 80.4689 233.847 80.7948 234.003 81.0928C234.158 81.3908 234.371 81.6551 234.629 81.8707C234.887 82.0863 235.185 82.2489 235.505 82.3492L240.387 83.8768L241.911 78.9857C242.112 78.3371 242.048 77.635 241.732 77.0338C241.417 76.4327 240.876 75.9816 240.229 75.7797Z" fill="#F8FAFB"/>
<path d="M50.7572 13.2639C50.109 13.0623 49.4075 13.1265 48.8064 13.4424C48.2053 13.7583 47.7538 14.3001 47.5508 14.9491C47.2308 14.8492 46.8942 14.8135 46.5604 14.844C46.2265 14.8745 45.9019 14.9705 45.6051 15.1267C45.3083 15.2829 45.0452 15.4961 44.8306 15.7542C44.616 16.0122 44.4543 16.3101 44.3547 16.6309C44.255 16.9516 44.2194 17.2888 44.2498 17.6233C44.2802 17.9578 44.3761 18.283 44.5319 18.5804C44.6878 18.8778 44.9006 19.1415 45.1581 19.3565C45.4157 19.5715 45.713 19.7335 46.0331 19.8334L50.9076 21.361L52.4322 16.4699C52.5328 16.1492 52.5693 15.8117 52.5395 15.4769C52.5097 15.1421 52.4143 14.8164 52.2587 14.5186C52.1031 14.2208 51.8904 13.9566 51.6327 13.7413C51.3751 13.526 51.0776 13.3638 50.7572 13.2639Z" fill="#F8FAFB"/>
<path d="M127 127.61C126.995 123.53 125.477 119.597 122.741 116.577C120.004 113.556 116.244 111.663 112.192 111.265C110.168 106.708 106.981 102.766 102.952 99.8377C98.9229 96.9092 94.194 95.0975 89.2427 94.5854C84.2914 94.0733 79.2929 94.8789 74.7516 96.921C70.2103 98.963 66.287 102.169 63.3775 106.216C60.9657 104.454 58.0683 103.485 55.084 103.441C52.0997 103.397 49.1751 104.281 46.7127 105.971C44.2503 107.661 42.3711 110.074 41.3336 112.878C40.296 115.682 40.1512 118.739 40.919 121.629C38.6378 123.554 36.7748 125.927 35.4448 128.602C34.1149 131.276 33.3463 134.195 33.1866 137.179C33.0269 140.163 33.4794 143.148 34.5162 145.95C35.553 148.752 37.1521 151.311 39.2147 153.469C41.2772 155.627 43.7595 157.339 46.5081 158.498C49.2568 159.657 52.2134 160.239 55.1955 160.208C58.1775 160.178 61.1216 159.535 63.8458 158.319C66.5701 157.104 69.0168 155.341 71.0346 153.141C73.7198 156.637 77.3451 159.293 81.4847 160.796C85.6242 162.299 90.1059 162.587 94.4031 161.626C98.7003 160.665 102.634 158.494 105.743 155.37C108.852 152.246 111.006 148.298 111.952 143.989C116.053 143.647 119.877 141.773 122.664 138.74C125.451 135.706 126.999 131.733 127 127.61Z" fill="#EEEEEE"/>
<path d="M237.679 50.5435C237.681 47.7782 238.71 45.1127 240.565 43.0653C242.42 41.0179 244.969 39.7352 247.716 39.4665C249.079 36.3711 251.235 33.6921 253.965 31.7013C256.695 29.7105 259.902 28.4787 263.261 28.1309C266.62 27.7831 270.01 28.3317 273.089 29.7209C276.168 31.1102 278.825 33.2907 280.791 36.0413C282.427 34.8561 284.388 34.2063 286.406 34.1809C288.424 34.1556 290.401 34.7558 292.065 35.8995C293.73 37.0432 295.001 38.6744 295.705 40.5699C296.408 42.4653 296.51 44.5324 295.996 46.4881C297.548 47.7904 298.817 49.3983 299.723 51.212C300.629 53.0257 301.154 55.0066 301.265 57.0319C301.375 59.0572 301.07 61.0837 300.367 62.9858C299.664 64.8879 298.578 66.625 297.178 68.0895C295.777 69.5539 294.091 70.7145 292.225 71.4993C290.358 72.2841 288.351 72.6764 286.326 72.6518C284.302 72.6271 282.305 72.1862 280.458 71.3562C278.611 70.5263 276.953 69.325 275.589 67.8269C273.773 70.198 271.319 72.0004 268.515 73.0222C265.712 74.0441 262.676 74.2429 259.764 73.5955C256.852 72.948 254.184 71.481 252.076 69.3671C249.967 67.2531 248.504 64.5799 247.859 61.6616C245.079 61.4276 242.489 60.1542 240.602 58.0943C238.716 56.0344 237.673 53.3389 237.679 50.5435Z" fill="#EEEEEE"/>
<path d="M171.5 263C244.709 263 304.057 259.529 304.057 255.246C304.057 250.963 244.709 247.491 171.5 247.491C98.291 247.491 38.9434 250.963 38.9434 255.246C38.9434 259.529 98.291 263 171.5 263Z" fill="#F8FAFB"/>
<path d="M219 165.2C227.133 162.533 235.2 161.2 243.2 161.2C251.333 161.2 258.067 163.267 263.4 167.4C268.867 171.4 271.6 176.533 271.6 182.8C271.6 191.067 267.8 197.4 260.2 201.8C270.6 206.6 275.8 213.6 275.8 222.8C275.8 232 272.333 239.4 265.4 245C258.6 250.467 250 253.2 239.6 253.2C234.667 253.2 229.867 252.533 225.2 251.2C220.533 249.867 215.933 247.933 211.4 245.4L210.6 243.8L216.8 227L218.8 226.4L219.6 226.6C226.667 232.733 233.733 235.8 240.8 235.8C245.067 235.8 248.467 234.933 251 233.2C253.667 231.467 255 229.267 255 226.6C255 218.333 249 214.2 237 214.2H222.8L226 197.6H235.2C244.933 197.6 249.8 194 249.8 186.8C249.8 184.133 248.733 182.067 246.6 180.6C244.6 179 242.067 178.2 239 178.2C233 178.2 226.867 179.8 220.6 183L217.6 184.6H216.6L215 183.4L217.8 166.4L218.6 165.4L219 165.2Z" fill="#2F4050"/>
<path d="M93.6368 237.784H56.493C55.6232 237.775 54.792 237.423 54.1802 236.803C53.5683 236.183 53.2251 235.347 53.2251 234.475V219.206C53.2267 218.426 53.5027 217.672 54.0045 217.075L95.9818 167.068C96.2924 166.699 96.6797 166.402 97.1166 166.199C97.5536 165.995 98.0296 165.89 98.5114 165.89H114.598C115.474 165.89 116.314 166.238 116.933 166.859C117.552 167.479 117.9 168.321 117.9 169.198V215.781C117.9 216.658 118.248 217.5 118.867 218.12C119.487 218.741 120.327 219.089 121.202 219.089H125.448C126.324 219.089 127.164 219.438 127.783 220.059C128.402 220.679 128.75 221.521 128.75 222.398V234.448C128.75 235.326 128.402 236.167 127.783 236.788C127.164 237.408 126.324 237.757 125.448 237.757H121.202C120.327 237.757 119.487 238.105 118.867 238.726C118.248 239.346 117.9 240.188 117.9 241.065V250.656C117.9 251.533 117.552 252.375 116.933 252.996C116.314 253.616 115.474 253.965 114.598 253.965H100.241C99.3653 253.965 98.5254 253.616 97.9061 252.996C97.2868 252.375 96.9389 251.533 96.9389 250.656V241.065C96.9317 240.193 96.5807 239.358 95.9622 238.744C95.3437 238.129 94.5079 237.784 93.6368 237.784ZM96.9389 216.801V198.169C96.9468 197.687 96.8048 197.216 96.5327 196.819C96.2606 196.422 95.8719 196.121 95.4208 195.956C94.9696 195.791 94.4783 195.771 94.0152 195.898C93.5521 196.026 93.1403 196.295 92.8369 196.668L77.0373 215.301C76.7516 215.638 76.568 216.049 76.5081 216.487C76.4482 216.925 76.5145 217.37 76.6992 217.772C76.884 218.173 77.1794 218.513 77.5506 218.751C77.9219 218.989 78.3534 219.116 78.7944 219.117H94.6008C94.9066 219.121 95.21 219.063 95.4935 218.949C95.777 218.834 96.035 218.664 96.2525 218.448C96.47 218.233 96.6426 217.977 96.7605 217.694C96.8783 217.411 96.939 217.108 96.9389 216.801Z" fill="#2F4050"/>
<path d="M136.202 210.321C136.202 193.88 139.165 182.36 145.09 175.761C151.015 169.162 160.023 165.874 172.115 165.897C177.931 165.897 182.717 166.616 186.472 168.054C189.867 169.281 192.975 171.191 195.606 173.665C197.825 175.784 199.704 178.233 201.178 180.926C202.639 183.745 203.739 186.737 204.453 189.832C206.085 196.44 206.897 203.225 206.873 210.033C206.873 225.748 204.218 237.248 198.908 244.532C193.598 251.816 184.462 255.47 171.5 255.492C164.208 255.492 158.33 254.33 153.868 252.006C149.322 249.644 145.494 246.099 142.786 241.744C140.698 238.547 139.076 234.185 137.918 228.66C136.72 222.622 136.145 216.477 136.202 210.321ZM160.021 210.376C160.021 221.405 160.994 228.94 162.94 232.982C164.887 237.024 167.706 239.045 171.397 239.045C172.571 239.056 173.736 238.834 174.823 238.392C175.911 237.95 176.901 237.296 177.735 236.469C179.526 234.756 180.843 232.048 181.687 228.344C182.53 224.641 182.951 218.873 182.951 211.04C182.951 199.546 181.978 191.818 180.032 187.859C178.086 183.899 175.169 181.92 171.281 181.92C167.307 181.92 164.438 183.938 162.674 187.975C160.91 192.012 160.026 199.479 160.021 210.376Z" fill="#2F4050"/>
<path d="M108.479 174.85C107.844 176.22 107.174 177.453 106.524 178.727L104.61 182.529L102.696 186.344C102.053 187.626 101.39 188.907 100.604 190.167C100.721 188.699 101.003 187.249 101.444 185.844C101.864 184.43 102.406 183.054 103.065 181.734C103.721 180.413 104.499 179.156 105.389 177.98C106.269 176.798 107.309 175.744 108.479 174.85Z" fill="white"/>
<path d="M110.913 178.069C110.319 179.254 109.703 180.371 109.102 181.495L107.331 184.851L105.56 188.222C104.965 189.352 104.357 190.489 103.632 191.599C103.76 190.291 104.033 189.003 104.446 187.756C104.845 186.507 105.351 185.294 105.957 184.132C106.561 182.964 107.278 181.858 108.097 180.83C108.901 179.781 109.849 178.852 110.913 178.069Z" fill="white"/>
<path d="M104.268 173.5C103.741 174.733 103.181 175.891 102.634 177.055L101.027 180.542L99.4206 184.036C98.8737 185.207 98.3199 186.386 97.6499 187.543C97.7126 186.217 97.9259 184.903 98.2857 183.625C98.6283 182.342 99.086 181.092 99.6531 179.891C100.204 178.691 100.865 177.544 101.629 176.466C102.369 175.361 103.257 174.363 104.268 173.5Z" fill="white"/>
<path d="M259.061 221.562C260.231 222.465 261.27 223.526 262.151 224.714C263.059 225.89 263.856 227.149 264.53 228.475C265.185 229.796 265.725 231.171 266.143 232.585C266.584 233.99 266.868 235.44 266.991 236.907C266.198 235.647 265.542 234.366 264.892 233.085L262.978 229.269L261.064 225.467C260.387 224.166 259.744 222.905 259.061 221.562Z" fill="white"/>
<path d="M256.654 224.782C257.712 225.562 258.658 226.484 259.464 227.522C260.284 228.552 261.001 229.661 261.604 230.831C262.216 231.991 262.721 233.204 263.115 234.455C263.533 235.701 263.809 236.99 263.935 238.298C263.211 237.188 262.602 236.051 262.001 234.921L260.23 231.55L258.459 228.194C257.858 227.105 257.242 225.967 256.654 224.782Z" fill="white"/>
<path d="M263.293 220.213C264.316 221.068 265.218 222.059 265.973 223.159C266.737 224.235 267.396 225.382 267.942 226.584C268.506 227.786 268.963 229.035 269.309 230.317C269.666 231.596 269.879 232.91 269.945 234.236C269.261 233.071 268.714 231.9 268.174 230.728L266.568 227.228L264.961 223.748C264.387 222.604 263.847 221.446 263.293 220.213Z" fill="white"/>
<path d="M205.083 245.23H214.162V247.546H208.48V249.293H213.751V251.533H208.48V253.711H214.326V256.198H205.083V245.23Z" fill="#2BC2F7"/>
<path d="M214.325 257.54H205.082C204.732 257.54 204.397 257.401 204.149 257.153C203.902 256.905 203.763 256.569 203.763 256.218V245.258C203.762 245.084 203.795 244.911 203.861 244.751C203.927 244.59 204.024 244.444 204.147 244.321C204.27 244.198 204.416 244.1 204.576 244.034C204.737 243.968 204.909 243.935 205.082 243.936H214.161C214.335 243.935 214.507 243.968 214.667 244.034C214.828 244.1 214.974 244.198 215.096 244.321C215.219 244.444 215.316 244.59 215.382 244.751C215.448 244.911 215.482 245.084 215.481 245.258V247.546C215.206 247.732 215.011 248.015 214.935 248.339C214.859 248.662 214.907 249.003 215.071 249.293V251.533C214.918 251.697 214.81 251.897 214.756 252.115C214.702 252.332 214.704 252.56 214.761 252.777C214.818 252.994 214.929 253.192 215.084 253.354C215.238 253.517 215.431 253.637 215.645 253.704V256.191C215.649 256.367 215.617 256.542 215.552 256.705C215.488 256.869 215.391 257.018 215.268 257.143C215.145 257.269 214.999 257.369 214.837 257.437C214.675 257.505 214.501 257.54 214.325 257.54ZM206.402 254.896H207.858C207.649 254.783 207.475 254.614 207.354 254.409C207.234 254.204 207.172 253.97 207.174 253.732V251.56C207.362 251.44 207.516 251.274 207.624 251.079C207.731 250.883 207.787 250.663 207.787 250.44C207.787 250.217 207.731 249.997 207.624 249.801C207.516 249.606 207.362 249.44 207.174 249.32V247.546C207.174 247.35 207.218 247.157 207.302 246.98C207.386 246.804 207.508 246.648 207.66 246.525H206.415L206.402 254.896Z" fill="#2BC2F7"/>
<path d="M216.198 256.218V245.257H221.845C222.654 245.228 223.462 245.318 224.245 245.524C224.802 245.691 225.284 246.044 225.612 246.525C225.855 246.873 226.024 247.268 226.108 247.685C226.192 248.102 226.189 248.532 226.1 248.948C226.011 249.364 225.837 249.757 225.59 250.102C225.342 250.448 225.027 250.739 224.662 250.957C224.291 251.165 223.89 251.313 223.472 251.395C223.784 251.487 224.081 251.623 224.354 251.799C224.557 251.969 224.738 252.162 224.895 252.375C225.073 252.589 225.234 252.818 225.373 253.06L227.014 256.245H223.185L221.374 252.889C221.228 252.566 221.019 252.277 220.758 252.039C220.516 251.87 220.227 251.781 219.931 251.786H219.63V256.245L216.198 256.218ZM219.617 249.683H221.045C221.348 249.657 221.647 249.606 221.941 249.532C222.163 249.49 222.361 249.365 222.495 249.182C222.651 248.966 222.725 248.7 222.702 248.433C222.68 248.167 222.562 247.917 222.372 247.73C221.992 247.502 221.548 247.404 221.107 247.449H219.617V249.683Z" fill="#2BC2F7"/>
<path d="M226.987 257.541H223.158C222.921 257.541 222.688 257.478 222.484 257.357C222.279 257.237 222.111 257.064 221.996 256.856L220.923 254.856V256.226C220.921 256.576 220.781 256.911 220.534 257.158C220.287 257.406 219.952 257.546 219.603 257.548H216.185C216.011 257.548 215.84 257.513 215.68 257.447C215.52 257.381 215.374 257.283 215.252 257.16C215.129 257.038 215.032 256.892 214.966 256.732C214.899 256.571 214.865 256.399 214.865 256.226V245.265C214.864 245.091 214.898 244.919 214.964 244.758C215.03 244.597 215.127 244.451 215.25 244.328C215.372 244.205 215.518 244.108 215.679 244.042C215.839 243.976 216.011 243.942 216.185 243.943H221.832C222.78 243.911 223.728 244.024 224.642 244.279C225.46 244.54 226.168 245.068 226.652 245.779C227.159 246.525 227.42 247.411 227.397 248.313C227.412 249.1 227.216 249.876 226.829 250.56C226.595 250.964 226.294 251.325 225.941 251.629C226.157 251.893 226.347 252.177 226.508 252.478L228.142 255.643C228.247 255.845 228.298 256.07 228.29 256.296C228.283 256.523 228.217 256.744 228.1 256.939C227.982 257.133 227.817 257.293 227.619 257.405C227.422 257.516 227.2 257.575 226.973 257.575L226.987 257.541ZM223.944 254.897H224.826L224.143 253.643C224.052 253.475 223.942 253.319 223.814 253.177C223.719 253.055 223.616 252.938 223.507 252.828C223.346 252.742 223.176 252.673 223.001 252.622C222.832 252.564 222.677 252.473 222.543 252.355L223.944 254.897ZM217.518 254.897H218.284V251.759C218.284 251.558 218.329 251.36 218.417 251.18C218.504 251 218.632 250.842 218.79 250.718C218.632 250.596 218.505 250.439 218.417 250.259C218.329 250.08 218.284 249.883 218.284 249.683V247.45C218.284 247.118 218.408 246.798 218.632 246.553H217.518V254.897ZM221.524 250.958C221.772 251.15 221.987 251.381 222.16 251.643C222.135 251.528 222.123 251.411 222.126 251.293C222.138 251.125 222.18 250.961 222.249 250.807H222.187C221.928 250.889 221.709 250.93 221.524 250.971V250.958ZM223.049 246.608L223.206 246.724C223.469 246.947 223.679 247.227 223.819 247.542C223.958 247.858 224.025 248.201 224.013 248.546C224.016 249.064 223.848 249.567 223.534 249.978C223.681 249.938 223.821 249.878 223.951 249.8C224.206 249.652 224.42 249.442 224.573 249.19C224.721 248.91 224.792 248.596 224.778 248.279C224.797 247.919 224.701 247.561 224.505 247.258C224.344 247.014 224.102 246.835 223.821 246.752C223.569 246.681 223.31 246.633 223.049 246.608Z" fill="#2BC2F7"/>
<path d="M228.115 256.218V245.257H233.762C234.573 245.228 235.384 245.318 236.169 245.525C236.726 245.69 237.209 246.043 237.536 246.525C237.779 246.873 237.948 247.269 238.032 247.685C238.116 248.102 238.113 248.532 238.024 248.948C237.935 249.364 237.761 249.757 237.514 250.103C237.266 250.448 236.95 250.739 236.586 250.957C236.215 251.165 235.814 251.313 235.396 251.395C235.708 251.487 236.005 251.623 236.278 251.799C236.483 251.968 236.667 252.161 236.825 252.375C237 252.59 237.158 252.819 237.297 253.06L238.938 256.245H235.082L233.27 252.889C233.127 252.565 232.917 252.276 232.655 252.039C232.414 251.867 232.123 251.778 231.828 251.786H231.527V256.245L228.115 256.218ZM231.534 249.683H232.962C233.265 249.657 233.564 249.607 233.858 249.532C234.08 249.49 234.278 249.365 234.412 249.183C234.554 249.001 234.629 248.776 234.624 248.546C234.633 248.393 234.607 248.241 234.549 248.1C234.491 247.958 234.402 247.832 234.289 247.73C233.909 247.502 233.465 247.404 233.024 247.449H231.534V249.683Z" fill="#2BC2F7"/>
<path d="M238.903 257.541H235.081C234.844 257.541 234.611 257.478 234.407 257.357C234.203 257.237 234.034 257.064 233.919 256.856L232.846 254.856V256.226C232.846 256.576 232.707 256.913 232.459 257.161C232.212 257.409 231.876 257.548 231.526 257.548H228.108C227.759 257.546 227.424 257.406 227.177 257.159C226.93 256.911 226.79 256.576 226.789 256.226V245.265C226.789 244.915 226.928 244.578 227.175 244.33C227.422 244.082 227.758 243.943 228.108 243.943H233.755C234.703 243.91 235.651 244.023 236.565 244.279C237.386 244.538 238.097 245.066 238.582 245.779C239.04 246.488 239.299 247.308 239.329 248.153C239.359 248.997 239.16 249.834 238.753 250.574C238.518 250.976 238.221 251.337 237.871 251.643C238.085 251.908 238.275 252.193 238.438 252.492L240.065 255.657C240.17 255.859 240.221 256.083 240.213 256.31C240.206 256.537 240.14 256.758 240.023 256.952C239.905 257.146 239.74 257.307 239.543 257.418C239.346 257.53 239.123 257.589 238.896 257.589L238.903 257.541ZM235.861 254.897H236.743L236.093 253.643C235.995 253.479 235.883 253.323 235.758 253.177C235.668 253.05 235.565 252.933 235.451 252.828C235.29 252.742 235.12 252.673 234.945 252.622C234.779 252.563 234.625 252.473 234.494 252.355L235.861 254.897ZM229.434 254.897H230.2V251.759C230.2 251.559 230.246 251.361 230.333 251.18C230.421 251 230.548 250.842 230.706 250.718C230.549 250.596 230.421 250.439 230.333 250.26C230.246 250.08 230.2 249.883 230.2 249.684V247.45C230.2 247.117 230.327 246.796 230.556 246.553H229.434V254.897ZM233.441 250.971C233.689 251.163 233.903 251.395 234.076 251.657C234.059 251.541 234.059 251.423 234.076 251.307C234.083 251.139 234.123 250.974 234.193 250.821H234.138C233.844 250.889 233.625 250.93 233.441 250.971ZM234.972 246.622L235.123 246.738C235.386 246.961 235.595 247.24 235.735 247.556C235.875 247.872 235.941 248.215 235.929 248.56C235.933 249.077 235.764 249.581 235.451 249.992C235.599 249.952 235.742 249.892 235.875 249.814C236.127 249.665 236.339 249.456 236.49 249.204C236.637 248.924 236.708 248.61 236.695 248.293C236.713 247.932 236.618 247.575 236.421 247.272C236.26 247.028 236.018 246.849 235.738 246.765C235.488 246.69 235.231 246.638 234.972 246.608V246.622Z" fill="#2BC2F7"/>
<path d="M239.3 250.731C239.225 249.966 239.32 249.194 239.578 248.47C239.836 247.746 240.25 247.088 240.792 246.544C241.334 246 241.99 245.582 242.711 245.322C243.433 245.062 244.204 244.965 244.968 245.038C245.733 244.99 246.501 245.095 247.225 245.348C247.95 245.601 248.616 245.996 249.186 246.511C249.695 247.062 250.089 247.709 250.343 248.416C250.596 249.122 250.705 249.872 250.663 250.622C250.705 251.711 250.484 252.794 250.02 253.78C249.597 254.59 248.946 255.257 248.147 255.698C247.206 256.185 246.156 256.421 245.097 256.383C244.043 256.418 242.994 256.217 242.028 255.794C241.197 255.382 240.511 254.727 240.059 253.917C239.526 252.942 239.264 251.842 239.3 250.731ZM242.718 250.731C242.643 251.575 242.861 252.419 243.334 253.122C243.552 253.349 243.813 253.53 244.103 253.654C244.393 253.777 244.704 253.841 245.019 253.841C245.334 253.841 245.645 253.777 245.935 253.654C246.224 253.53 246.486 253.349 246.704 253.122C247.181 252.36 247.393 251.462 247.306 250.567C247.37 249.76 247.147 248.957 246.677 248.299C246.462 248.067 246.198 247.885 245.905 247.767C245.612 247.648 245.297 247.596 244.981 247.614C244.671 247.603 244.362 247.662 244.077 247.788C243.793 247.914 243.541 248.103 243.34 248.34C242.851 249.042 242.622 249.892 242.691 250.745L242.718 250.731Z" fill="#2BC2F7"/>
<path d="M245.097 257.725C243.844 257.761 242.598 257.513 241.453 256.999C240.388 256.477 239.506 255.644 238.924 254.609C238.264 253.426 237.938 252.086 237.98 250.731C238.03 249.345 238.473 248.001 239.259 246.858C240.044 245.715 241.138 244.821 242.414 244.28C243.689 243.739 245.091 243.574 246.457 243.804C247.822 244.034 249.094 244.65 250.122 245.58C250.76 246.252 251.256 247.048 251.578 247.918C251.9 248.788 252.042 249.715 251.996 250.642C252.038 251.947 251.763 253.242 251.196 254.417C250.658 255.453 249.825 256.307 248.803 256.869C247.662 257.47 246.386 257.765 245.097 257.725ZM246.02 246.429C246.652 246.603 247.219 246.96 247.647 247.457C248.341 248.349 248.679 249.467 248.598 250.594C248.598 252.163 248.304 253.273 247.695 254.019C247.305 254.483 246.794 254.829 246.219 255.02C246.671 254.953 247.109 254.807 247.511 254.588C248.092 254.278 248.568 253.801 248.878 253.218C249.245 252.423 249.416 251.551 249.377 250.676C249.42 250.098 249.345 249.517 249.157 248.968C248.969 248.419 248.672 247.914 248.283 247.484C247.667 246.89 246.871 246.519 246.02 246.429ZM243.908 246.429C243.089 246.528 242.325 246.894 241.734 247.47C241.339 247.91 241.038 248.424 240.847 248.984C240.657 249.543 240.582 250.135 240.626 250.724C240.588 251.606 240.786 252.481 241.2 253.259C241.518 253.85 242.01 254.328 242.609 254.629C242.958 254.794 243.329 254.912 243.709 254.978C243.165 254.78 242.682 254.442 242.308 253.999C241.698 253.023 241.375 251.896 241.375 250.745C241.375 249.594 241.698 248.466 242.308 247.491C242.724 246.99 243.278 246.623 243.901 246.436L243.908 246.429ZM244.961 248.93C244.84 248.918 244.719 248.935 244.607 248.98C244.495 249.026 244.396 249.098 244.318 249.19C244.056 249.661 243.951 250.203 244.017 250.738C243.951 251.269 244.056 251.807 244.318 252.273C244.402 252.369 244.508 252.443 244.627 252.488C244.747 252.533 244.875 252.549 245.002 252.533C245.48 252.533 245.617 252.375 245.685 252.293C245.754 252.211 245.972 251.91 245.972 250.587C246.027 250.11 245.921 249.628 245.672 249.217C245.585 249.112 245.475 249.03 245.35 248.978C245.225 248.925 245.089 248.904 244.954 248.916L244.961 248.93Z" fill="#2BC2F7"/>
<path d="M252.536 256.218V245.257H258.183C258.991 245.228 259.8 245.318 260.582 245.524C261.139 245.691 261.622 246.044 261.95 246.525C262.193 246.873 262.362 247.268 262.446 247.685C262.529 248.102 262.527 248.532 262.438 248.948C262.348 249.364 262.175 249.757 261.927 250.102C261.68 250.448 261.364 250.739 260.999 250.957C260.629 251.165 260.227 251.313 259.81 251.395C260.122 251.487 260.419 251.623 260.692 251.799C260.894 251.969 261.076 252.162 261.232 252.375C261.411 252.589 261.571 252.818 261.711 253.06L263.351 256.245H259.523L257.711 252.889C257.566 252.566 257.356 252.277 257.096 252.039C256.853 251.87 256.564 251.781 256.268 251.786H255.968V256.245L252.536 256.218ZM255.954 249.683H257.383C257.685 249.657 257.984 249.606 258.278 249.532C258.5 249.49 258.698 249.365 258.832 249.182C258.989 248.966 259.062 248.7 259.04 248.433C259.017 248.167 258.9 247.917 258.709 247.73C258.329 247.502 257.885 247.404 257.444 247.449H255.954V249.683Z" fill="#2BC2F7"/>
<path d="M263.324 257.541H259.496C259.258 257.541 259.026 257.478 258.821 257.357C258.617 257.237 258.448 257.064 258.333 256.856L257.26 254.856V256.226C257.258 256.576 257.119 256.911 256.872 257.158C256.624 257.406 256.29 257.546 255.941 257.548H252.522C252.172 257.548 251.837 257.408 251.589 257.16C251.342 256.913 251.203 256.576 251.203 256.226V245.265C251.202 245.091 251.235 244.919 251.301 244.758C251.367 244.597 251.464 244.451 251.587 244.328C251.71 244.205 251.856 244.108 252.016 244.042C252.177 243.976 252.349 243.942 252.522 243.943H258.169C259.117 243.911 260.065 244.024 260.979 244.279C261.797 244.54 262.505 245.068 262.989 245.779C263.499 246.524 263.762 247.41 263.741 248.313C263.755 249.1 263.556 249.877 263.167 250.56C262.932 250.964 262.632 251.325 262.278 251.629C262.495 251.893 262.685 252.177 262.846 252.478L264.48 255.643C264.584 255.845 264.635 256.07 264.627 256.296C264.62 256.523 264.554 256.744 264.437 256.939C264.32 257.133 264.154 257.293 263.957 257.405C263.76 257.516 263.537 257.575 263.31 257.575L263.324 257.541ZM260.282 254.897H261.157L260.514 253.643C260.416 253.479 260.304 253.323 260.179 253.177C260.084 253.055 259.981 252.938 259.872 252.828C259.711 252.742 259.541 252.673 259.366 252.622C259.197 252.564 259.041 252.473 258.908 252.355L260.282 254.897ZM253.855 254.897H254.621V251.759C254.621 251.558 254.666 251.36 254.754 251.18C254.842 251 254.969 250.842 255.127 250.718C254.969 250.596 254.842 250.439 254.754 250.259C254.667 250.08 254.621 249.883 254.621 249.683V247.45C254.618 247.117 254.743 246.796 254.97 246.553H253.855V254.897ZM257.862 250.958C258.11 251.15 258.324 251.381 258.497 251.643C258.48 251.527 258.48 251.409 258.497 251.293C258.504 251.125 258.544 250.96 258.614 250.807H258.552C258.265 250.889 258.046 250.93 257.862 250.971V250.958ZM259.393 246.608L259.543 246.724C259.807 246.947 260.016 247.227 260.156 247.542C260.296 247.858 260.362 248.201 260.35 248.546C260.354 249.064 260.185 249.567 259.872 249.978C260.303 249.856 260.672 249.575 260.904 249.19C261.053 248.888 261.125 248.554 261.114 248.217C261.103 247.88 261.01 247.551 260.842 247.258C260.681 247.014 260.439 246.835 260.159 246.752C259.908 246.681 259.652 246.633 259.393 246.608Z" fill="#2BC2F7"/>
<path d="M205.083 245.23H214.162V247.546H208.48V249.293H213.751V251.533H208.48V253.711H214.326V256.198H205.083V245.23Z" fill="white"/>
<path d="M216.198 256.218V245.257H221.845C222.654 245.228 223.462 245.318 224.245 245.524C224.802 245.691 225.284 246.044 225.612 246.525C225.855 246.873 226.024 247.268 226.108 247.685C226.192 248.102 226.189 248.532 226.1 248.948C226.011 249.364 225.837 249.757 225.59 250.102C225.342 250.448 225.027 250.739 224.662 250.957C224.291 251.165 223.89 251.313 223.472 251.395C223.784 251.487 224.081 251.623 224.354 251.799C224.557 251.969 224.738 252.162 224.895 252.375C225.073 252.589 225.234 252.818 225.373 253.06L227.014 256.245H223.185L221.374 252.889C221.228 252.566 221.019 252.277 220.758 252.039C220.516 251.87 220.227 251.781 219.931 251.786H219.63V256.245L216.198 256.218ZM219.617 249.683H221.045C221.348 249.657 221.647 249.606 221.941 249.532C222.163 249.49 222.361 249.365 222.495 249.182C222.651 248.966 222.725 248.7 222.702 248.433C222.68 248.167 222.562 247.917 222.372 247.73C221.992 247.502 221.548 247.404 221.107 247.449H219.617V249.683Z" fill="white"/>
<path d="M228.115 256.218V245.257H233.762C234.573 245.228 235.384 245.318 236.169 245.525C236.726 245.69 237.209 246.043 237.536 246.525C237.779 246.873 237.948 247.269 238.032 247.685C238.116 248.102 238.113 248.532 238.024 248.948C237.935 249.364 237.761 249.757 237.514 250.103C237.266 250.448 236.95 250.739 236.586 250.957C236.215 251.165 235.814 251.313 235.396 251.395C235.708 251.487 236.005 251.623 236.278 251.799C236.483 251.968 236.667 252.161 236.825 252.375C237 252.59 237.158 252.819 237.297 253.06L238.938 256.245H235.082L233.27 252.889C233.127 252.565 232.917 252.276 232.655 252.039C232.414 251.867 232.123 251.778 231.828 251.786H231.527V256.245L228.115 256.218ZM231.534 249.683H232.962C233.265 249.657 233.564 249.607 233.858 249.532C234.08 249.49 234.278 249.365 234.412 249.183C234.554 249.001 234.629 248.776 234.624 248.546C234.633 248.393 234.607 248.241 234.549 248.1C234.491 247.958 234.402 247.832 234.289 247.73C233.909 247.502 233.465 247.404 233.024 247.449H231.534V249.683Z" fill="white"/>
<path d="M239.3 250.731C239.225 249.966 239.32 249.194 239.578 248.47C239.836 247.746 240.25 247.088 240.792 246.544C241.334 246 241.99 245.582 242.711 245.322C243.433 245.062 244.204 244.965 244.968 245.038C245.733 244.99 246.501 245.095 247.225 245.348C247.95 245.601 248.616 245.996 249.186 246.511C249.695 247.062 250.089 247.709 250.343 248.416C250.596 249.122 250.705 249.872 250.663 250.622C250.705 251.711 250.484 252.794 250.02 253.78C249.597 254.59 248.946 255.257 248.147 255.698C247.206 256.185 246.156 256.421 245.097 256.383C244.043 256.418 242.994 256.217 242.028 255.794C241.197 255.382 240.511 254.727 240.059 253.917C239.526 252.942 239.264 251.842 239.3 250.731ZM242.718 250.731C242.643 251.575 242.861 252.419 243.334 253.122C243.552 253.349 243.813 253.53 244.103 253.654C244.393 253.777 244.704 253.841 245.019 253.841C245.334 253.841 245.645 253.777 245.935 253.654C246.224 253.53 246.486 253.349 246.704 253.122C247.181 252.36 247.393 251.462 247.306 250.567C247.37 249.76 247.147 248.957 246.677 248.299C246.462 248.067 246.198 247.885 245.905 247.767C245.612 247.648 245.297 247.596 244.981 247.614C244.671 247.603 244.362 247.662 244.077 247.788C243.793 247.914 243.541 248.103 243.34 248.34C242.851 249.042 242.622 249.892 242.691 250.745L242.718 250.731Z" fill="white"/>
<path d="M252.536 256.218V245.257H258.183C258.991 245.228 259.8 245.318 260.582 245.524C261.139 245.691 261.622 246.044 261.95 246.525C262.193 246.873 262.362 247.268 262.446 247.685C262.529 248.102 262.527 248.532 262.438 248.948C262.348 249.364 262.175 249.757 261.927 250.102C261.68 250.448 261.364 250.739 260.999 250.957C260.629 251.165 260.227 251.313 259.81 251.395C260.122 251.487 260.419 251.623 260.692 251.799C260.894 251.969 261.076 252.162 261.232 252.375C261.411 252.589 261.571 252.818 261.711 253.06L263.351 256.245H259.523L257.711 252.889C257.566 252.566 257.356 252.277 257.096 252.039C256.853 251.87 256.564 251.781 256.268 251.786H255.968V256.245L252.536 256.218ZM255.954 249.683H257.383C257.685 249.657 257.984 249.606 258.278 249.532C258.5 249.49 258.698 249.365 258.832 249.182C258.989 248.966 259.062 248.7 259.04 248.433C259.017 248.167 258.9 247.917 258.709 247.73C258.329 247.502 257.885 247.404 257.444 247.449H255.954V249.683Z" fill="white"/>
<path d="M292.168 77.1636C289.295 76.2489 286.294 75.807 283.28 75.8552C280.354 75.8723 277.457 76.432 274.734 77.5062C273.591 77.9562 272.516 78.565 271.542 79.3146C271.446 79.3968 271.336 79.4722 271.261 79.5476C271.186 79.6229 271.111 79.6777 270.988 79.8079C270.865 79.938 270.543 80.2668 270.304 80.4929C269.867 80.9892 269.463 81.5132 269.094 82.0616C267.566 84.3124 266.596 86.8955 266.264 89.597C266.101 90.8763 266.117 92.1721 266.311 93.4469C266.403 94.0463 266.542 94.6374 266.728 95.2143C266.914 95.7923 267.143 96.3555 267.412 96.8995C268.162 98.3069 269.009 99.6598 269.949 100.948C270.995 102.441 272.205 104.072 273.367 106.065C274.719 108.273 275.683 110.697 276.218 113.231C276.49 114.657 276.591 116.11 276.519 117.56C276.437 118.982 276.187 120.39 275.773 121.753C274.976 124.364 273.649 126.782 271.877 128.856C271.002 129.876 270.029 130.805 268.971 131.631C267.949 132.436 266.855 133.145 265.703 133.748C263.479 134.897 261.089 135.69 258.62 136.097C256.31 136.481 253.962 136.591 251.626 136.426C249.399 136.268 247.19 135.905 245.029 135.344C242.998 134.816 241.001 134.169 239.047 133.405C235.245 131.946 231.8 130.274 228.511 128.856C225.465 127.455 222.28 126.381 219.008 125.65C217.525 125.349 216.016 125.197 214.503 125.198C212.968 125.203 211.437 125.35 209.929 125.637C206.75 126.287 203.676 127.375 200.795 128.87C194.82 131.891 189.296 136.495 183.581 141.317C182.547 142.193 181.209 142.623 179.859 142.515C178.51 142.406 177.258 141.766 176.377 140.736C175.496 139.706 175.057 138.369 175.157 137.016C175.256 135.663 175.886 134.404 176.908 133.515C182.548 128.589 188.489 123.308 195.859 119.362C199.606 117.326 203.62 115.827 207.782 114.909C209.949 114.45 212.153 114.196 214.366 114.149C216.605 114.099 218.843 114.276 221.046 114.676C225.119 115.475 229.096 116.708 232.907 118.355C236.531 119.841 239.874 121.369 243.101 122.534C244.649 123.104 246.228 123.585 247.832 123.972C249.308 124.328 250.814 124.543 252.33 124.616C254.996 124.834 257.671 124.315 260.063 123.116C260.565 122.835 261.041 122.51 261.485 122.143C261.898 121.803 262.278 121.425 262.62 121.013C263.275 120.206 263.759 119.274 264.042 118.273C264.169 117.827 264.238 117.366 264.247 116.903C264.258 116.474 264.217 116.046 264.124 115.628C263.827 114.496 263.346 113.42 262.702 112.443C261.943 111.21 260.904 109.826 259.762 108.271C258.444 106.533 257.254 104.701 256.2 102.791C255.604 101.671 255.092 100.507 254.669 99.3108C254.255 98.109 253.935 96.8768 253.711 95.6253C253.278 93.1908 253.184 90.708 253.431 88.2475C253.908 83.4517 255.526 78.8403 258.148 74.8003C258.808 73.7778 259.532 72.7985 260.316 71.8683C260.719 71.4025 261.129 70.9435 261.56 70.4982C261.758 70.2859 262.045 70.0187 262.298 69.779C262.551 69.5392 262.818 69.32 263.078 69.0939C265.031 67.492 267.204 66.1814 269.532 65.2029C273.769 63.4259 278.299 62.4548 282.89 62.3395C287.376 62.1964 291.855 62.7816 296.154 64.0726C297.783 64.6754 299.122 65.8769 299.899 67.4332C300.677 68.9895 300.834 70.7838 300.339 72.4519C299.843 74.1199 298.733 75.5366 297.233 76.4143C295.734 77.2919 293.957 77.5648 292.264 77.1773L292.168 77.1636Z" fill="#2F4050"/>
<path d="M292.003 77.7182C288.329 76.4704 284.436 76.0038 280.572 76.3481C278.708 76.518 276.872 76.9137 275.103 77.5264C273.639 78.027 272.27 78.7728 271.056 79.7322L270.666 80.0679C269.378 81.2533 267.672 81.8775 265.925 81.803C264.177 81.7285 262.531 80.9614 261.347 79.6705C260.164 78.3797 259.541 76.6708 259.616 74.9197C259.69 73.1687 260.456 71.519 261.744 70.3335C264.139 67.9863 266.964 66.1254 270.064 64.8532C272.855 63.6877 275.778 62.8709 278.767 62.4214C284.633 61.558 290.615 61.9407 296.324 63.5448C298.219 64.0644 299.83 65.317 300.803 67.0269C301.776 68.7368 302.032 70.7641 301.513 72.6626C300.994 74.5612 299.744 76.1756 298.038 77.1507C296.331 78.1258 294.308 78.3817 292.413 77.8621L292.051 77.7524L292.003 77.7182Z" fill="#2BC2F7"/>
<path d="M164.526 162.498L167.063 166.458C164.513 167.793 161.846 167.595 159.125 167.595C157.97 162.238 164.526 162.498 164.526 162.498Z" fill="#2F4050"/>
<path d="M149.069 141.365C152.303 150.689 164.294 163.053 164.294 163.053C164.294 163.053 159.235 164.067 160.609 167.568H167.671L182.876 164.698C183.384 164.579 183.827 164.272 184.116 163.838C184.406 163.404 184.52 162.876 184.435 162.362L178.822 143.496L149.069 141.365Z" fill="#2BC2F7"/>
<path d="M208.049 146.701L209.416 152.257C212.096 151.195 214.359 150.469 215.521 147.975C214.175 144.509 208.049 146.701 208.049 146.701Z" fill="#2F4050"/>
<path d="M196.044 118.197C200.83 126.788 210.921 147.736 210.921 147.736C210.921 147.736 216.103 147.955 215.412 151.606L195.319 156.58C194.871 156.735 194.384 156.739 193.935 156.589C193.485 156.439 193.097 156.144 192.831 155.751L178.474 143.571C186.308 138.776 195.429 126.192 196.044 118.197Z" fill="#2BC2F7"/>
<path opacity="0.1" d="M186.732 136.221C184.379 139.075 181.614 141.562 178.528 143.599L182.63 146.948C187.054 142.982 188.312 138.735 186.732 136.221Z" fill="black"/>
<path d="M181.618 93.2548C187.197 94.207 210.366 91.0558 212.089 90.9736C212.274 89.6926 212.862 86.5209 214.25 87.0826C215.637 87.6443 216.349 90.042 216.068 91.1928C219.357 90.6037 223.677 97.3581 218.762 102.838C211.563 110.936 185.262 112.175 185.262 112.175C185.262 112.175 170.994 94.5975 181.618 93.2548Z" fill="#2BC2F7"/>
<path opacity="0.1" d="M183.355 104.031C182.243 103.907 181.118 104.031 180.06 104.394C181.586 107.123 183.328 109.725 185.269 112.176C185.269 112.176 190.574 111.922 197.069 110.922C193.494 108.36 187.826 104.75 183.355 104.031Z" fill="black"/>
<path d="M216.068 91.1728C219.391 89.8027 221.715 89.1177 222.481 90.2617C223.247 91.4057 222.221 93.8102 219.008 94.4336C216.062 92.584 216.068 91.1728 216.068 91.1728Z" fill="#2BC2F7"/>
<path d="M218.229 94.0223C221.729 93.9058 224.074 94.1113 224.382 95.3924C224.689 96.6734 222.926 98.5367 219.794 97.9955C217.737 95.3102 218.229 94.0223 218.229 94.0223Z" fill="#2BC2F7"/>
<path d="M220.437 97.6055C222.686 98.6536 224.067 99.5715 223.657 100.674C223.247 101.777 221.298 102.627 219.555 101.188C219.535 98.4344 220.437 97.6055 220.437 97.6055Z" fill="#2BC2F7"/>
<path d="M138.786 110.772C136.216 115.821 119.835 132.536 118.734 133.878C117.6 133.255 114.714 131.823 114.338 133.282C113.962 134.741 115.446 136.742 116.513 137.187C114.079 139.475 116.875 146.976 124.238 146.332C135.019 145.387 151.735 125.021 151.735 125.021C151.735 125.021 146.204 103.038 138.786 110.772Z" fill="#2BC2F7"/>
<path opacity="0.1" d="M146.362 118.609C146.933 117.645 147.705 116.815 148.625 116.177C149.898 119.036 150.938 121.993 151.735 125.021C151.735 125.021 148.365 129.131 143.675 133.741C143.764 129.343 144.263 122.63 146.362 118.609Z" fill="black"/>
<path d="M116.513 137.187C113.416 139.022 111.494 140.495 111.953 141.79C112.411 143.085 114.947 143.708 117.367 141.502C117.647 138.029 116.513 137.187 116.513 137.187Z" fill="#2BC2F7"/>
<path d="M117.49 140.632C115.302 143.372 114.072 145.372 114.933 146.393C115.795 147.414 118.31 147.078 119.753 144.256C118.857 141.002 117.49 140.632 117.49 140.632Z" fill="#2BC2F7"/>
<path d="M119.049 144.543C118.536 146.975 118.447 148.654 119.582 148.969C120.717 149.284 122.549 148.243 122.426 145.996C120.225 144.317 119.049 144.543 119.049 144.543Z" fill="#2BC2F7"/>
<path opacity="0.1" d="M178.836 143.564V143.523L169.743 142.838C169.558 146.763 174.118 149.25 180.244 148.195L178.836 143.564Z" fill="black"/>
<path d="M180.517 96.4062L161.757 104.455L143.004 112.505C143.004 112.505 145.001 136.796 151.154 145.119C157.307 153.442 169.189 150.88 179.683 146.373C190.178 141.865 200.193 135.022 198.457 124.815C196.72 114.608 180.517 96.4062 180.517 96.4062Z" fill="#2BC2F7"/>
<path opacity="0.2" d="M172.354 100.948L162.14 105.333L151.933 109.717C152.084 107.723 147.913 126.267 155.023 136.152C159.659 142.592 168.314 140.824 175.923 137.557C183.532 134.289 190.773 129.233 189.316 121.431C187.088 109.463 170.816 99.7016 172.354 100.948Z" fill="white"/>
<path opacity="0.2" d="M169.107 103.839L162.27 106.757L155.467 109.682C155.515 108.244 153.157 121.581 158.202 128.925C161.504 133.72 167.322 132.651 172.395 130.473C177.468 128.295 182.254 124.808 181.071 119.108C179.3 110.374 168.027 102.887 169.107 103.839Z" fill="white"/>
<path opacity="0.2" d="M121.269 143.657C122.562 143.138 123.067 141.358 122.396 139.683C121.726 138.009 120.134 137.072 118.841 137.592C117.548 138.112 117.043 139.891 117.714 141.566C118.384 143.241 119.976 144.177 121.269 143.657Z" fill="white"/>
<path opacity="0.2" d="M219.001 97.4133C219.131 99.215 218.112 100.756 216.724 100.838C215.336 100.921 214.099 99.5643 213.99 97.7695C213.88 95.9748 214.878 94.4266 216.266 94.3444C217.654 94.2622 218.871 95.6185 219.001 97.4133Z" fill="white"/>
<path d="M120.697 52.311C93.4386 32.9793 51.557 44.8373 48.2685 52.1398C44.775 59.9149 82.705 80.8565 92.0234 101.092C105.628 75.7666 120.697 52.311 120.697 52.311Z" fill="#2F4050"/>
<path opacity="0.5" d="M110.653 60.2364C89.0765 45.1656 58.6532 51.9475 56.6842 57.0852C54.5854 62.5655 84.2225 79.2461 92.5017 94.2484C100.945 76.5402 110.653 60.2364 110.653 60.2364Z" fill="#2BC2F7"/>
<path d="M113.34 56.5781C107.228 56.9891 102.053 59.0442 97.4927 63.8669C99.5475 63.2068 101.738 63.0902 103.851 63.5283C105.964 63.9664 107.928 64.9443 109.553 66.3673L113.34 56.5781Z" fill="#2F4050"/>
<path d="M153.314 38.3016C166.414 -3.11559 213.067 -3.28 222.365 2.98808C229.427 7.78332 199.353 26.9164 207.413 54.537C180.285 45.2342 153.314 38.3016 153.314 38.3016Z" fill="#2F4050"/>
<path opacity="0.5" d="M165.641 37.4039C176.579 13.4276 202.094 3.83714 214.01 5.9813C225.277 7.9953 191.613 34.3212 198.491 57.496C182.233 46.5354 165.641 37.4039 165.641 37.4039Z" fill="#2BC2F7"/>
<path d="M164.896 33.7054C167.004 32.5612 169.318 31.8467 171.703 31.6034C174.089 31.36 176.499 31.5924 178.795 32.2873C177.108 32.6661 175.548 33.4759 174.266 34.6379C172.984 35.8 172.024 37.2746 171.479 38.9185L164.896 33.7054Z" fill="#2F4050"/>
<path d="M165.463 31.7593C166.859 30.4513 168.5 29.433 170.29 28.7628C172.081 28.0927 173.986 27.784 175.896 27.8546C174.671 28.4886 173.631 29.4293 172.876 30.5852C172.121 31.7411 171.678 33.073 171.589 34.4515L165.463 31.7593Z" fill="#2F4050"/>
<path d="M215.48 56.6533C222.372 72.7653 197.513 92.2752 162.906 107.134C128.299 121.992 97.0549 126.568 90.143 110.449C83.2311 94.3303 99.8785 55.571 134.486 40.7126C169.093 25.8541 208.589 40.5344 215.48 56.6533Z" fill="#2BC2F7"/>
<path opacity="0.1" d="M201.821 58.1879C208.206 73.1285 188.735 90.2544 160.801 102.243C132.866 114.231 107.071 116.539 100.685 101.592C94.3 86.6443 109.737 60.0991 137.658 48.1179C165.579 36.1366 195.428 43.2404 201.821 58.1879Z" fill="black"/>
<path d="M145.637 79.9658C145.035 78.5546 146.874 76.9379 149.507 75.8008C152.139 74.6636 154.586 74.4307 155.188 75.8624C155.789 77.2941 154.867 81.0276 152.228 82.1647C149.589 83.3019 146.239 81.3769 145.637 79.9658Z" fill="#2F4050"/>
<path opacity="0.3" d="M151.222 92.5494C150.819 91.5903 152.754 90.1997 155.393 89.0694C158.032 87.9391 160.37 87.4938 160.773 88.446C161.176 89.3982 159.864 92.2342 157.232 93.3646C154.6 94.4949 151.632 93.5016 151.222 92.5494Z" fill="black"/>
<path opacity="0.4" d="M102.388 80.9244C106.155 70.1145 114.762 62.0927 123.541 60.0856C138.342 56.7015 142.683 75.2728 135.532 88.0761C127.547 102.407 109.908 100.222 108.186 93.666C105.704 98.0297 95.6128 100.311 102.388 80.9244Z" fill="white"/>
<path d="M135.539 68.7518C135.539 68.7518 134.534 81.9113 127.602 86.5627C120.669 91.2141 110.428 85.5146 110.428 85.5146C110.428 85.5146 111.433 72.3619 118.365 67.7037C125.298 63.0454 135.539 68.7518 135.539 68.7518Z" fill="white"/>
<path d="M110.428 85.4456C110.365 82.2228 110.827 79.0113 111.795 75.9373C112.271 74.3642 112.927 72.8516 113.751 71.4298C114.582 69.9553 115.673 68.644 116.971 67.5593C118.308 66.4662 119.889 65.712 121.579 65.3604C123.22 65.011 124.911 64.9645 126.569 65.2234C129.78 65.6959 132.841 66.8903 135.526 68.717C132.609 67.5958 129.547 66.9036 126.433 66.6619C124.939 66.5618 123.439 66.7005 121.989 67.073C120.573 67.4009 119.255 68.0633 118.147 69.0048C116.998 69.9411 116.019 71.0699 115.255 72.3409L114.94 72.8135L114.66 73.3136C114.482 73.6493 114.284 73.9987 114.113 74.3206C113.792 75.0057 113.429 75.6907 113.163 76.4237C111.997 79.3476 111.082 82.3658 110.428 85.4456Z" fill="#2F4050"/>
<path d="M154.032 60.7777C154.032 60.7777 164.233 69.1283 172.348 67.2855C180.463 65.4428 183.437 54.1054 183.437 54.1054C183.437 54.1054 173.243 45.7549 165.121 47.5976C156.999 49.4404 154.032 60.7777 154.032 60.7777Z" fill="white"/>
<path d="M183.437 54.1058C180.76 52.4626 177.949 51.0487 175.035 49.8791C174.351 49.5914 173.578 49.3722 172.854 49.1256C172.491 49.0091 172.115 48.9269 171.746 48.8241L171.199 48.6803L170.639 48.5844C169.193 48.2651 167.704 48.1956 166.236 48.3789C164.791 48.5396 163.404 49.0395 162.188 49.838C160.919 50.6305 159.786 51.6228 158.832 52.7768C156.857 55.1966 155.244 57.892 154.046 60.778C154.575 57.5709 155.823 54.5259 157.697 51.8726C158.654 50.4916 159.854 49.2963 161.238 48.3446C162.663 47.3596 164.305 46.7344 166.024 46.5224C167.701 46.3301 169.399 46.4439 171.035 46.8581C172.617 47.2422 174.149 47.8077 175.602 48.5433C178.497 49.9593 181.144 51.838 183.437 54.1058Z" fill="#2F4050"/>
<path d="M129.022 84.1857C132.996 83.2174 135.433 79.2049 134.467 75.2236C133.5 71.2423 129.496 68.7998 125.523 69.7682C121.549 70.7365 119.112 74.749 120.078 78.7303C121.044 82.7116 125.049 85.1541 129.022 84.1857Z" fill="#2F4050"/>
<path d="M121.326 77.4174C121.57 77.9842 121.976 78.4657 122.494 78.8011C123.011 79.1365 123.616 79.3108 124.232 79.3019C124.848 79.293 125.448 79.1014 125.956 78.7512C126.463 78.401 126.856 77.908 127.084 77.3344C127.312 76.7608 127.365 76.1324 127.237 75.5285C127.108 74.9246 126.805 74.3723 126.363 73.9414C125.922 73.5104 125.363 73.2202 124.757 73.1073C124.151 72.9945 123.526 73.064 122.959 73.3072C122.582 73.4691 122.241 73.7039 121.955 73.9982C121.668 74.2926 121.443 74.6407 121.291 75.0225C121.139 75.4043 121.064 75.8124 121.07 76.2234C121.076 76.6343 121.163 77.0401 121.326 77.4174Z" fill="white"/>
<path d="M172.29 63.3582C173.809 59.5541 171.963 55.2363 168.166 53.714C164.37 52.1917 160.061 54.0414 158.541 57.8455C157.022 61.6496 158.868 65.9675 162.665 67.4898C166.461 69.012 170.77 67.1623 172.29 63.3582Z" fill="#2F4050"/>
<path d="M159.467 61.0375C159.712 61.6043 160.118 62.0858 160.636 62.4212C161.153 62.7566 161.758 62.9309 162.374 62.922C162.99 62.9131 163.59 62.7215 164.097 62.3713C164.605 62.0211 164.997 61.5281 165.225 60.9545C165.453 60.3809 165.507 59.7525 165.378 59.1486C165.25 58.5447 164.946 57.9924 164.505 57.5615C164.064 57.1305 163.505 56.8403 162.899 56.7274C162.293 56.6146 161.668 56.6841 161.101 56.9273C160.724 57.0884 160.382 57.3229 160.095 57.6171C159.808 57.9113 159.582 58.2595 159.43 58.6415C159.278 59.0236 159.203 59.432 159.21 59.8432C159.216 60.2545 159.304 60.6603 159.467 61.0375Z" fill="white"/>
<path d="M128.36 77.4308C128.459 77.6566 128.622 77.8481 128.828 77.9812C129.035 78.1143 129.277 78.1831 129.522 78.1789C129.768 78.1747 130.007 78.0976 130.209 77.9574C130.411 77.8172 130.567 77.6202 130.658 77.3912C130.748 77.1622 130.769 76.9115 130.717 76.6707C130.666 76.4299 130.544 76.2098 130.368 76.0381C130.192 75.8665 129.969 75.751 129.727 75.7063C129.485 75.6616 129.236 75.6895 129.01 75.7867C128.707 75.9191 128.468 76.1664 128.347 76.4745C128.225 76.7826 128.23 77.1264 128.36 77.4308Z" fill="white"/>
<path d="M166.502 61.0516C166.597 61.2784 166.756 61.4722 166.96 61.6086C167.165 61.7449 167.405 61.8177 167.65 61.8177C167.895 61.8178 168.135 61.7452 168.34 61.609C168.544 61.4727 168.703 61.279 168.798 61.0522C168.893 60.8254 168.918 60.5756 168.872 60.3341C168.825 60.0927 168.708 59.8705 168.536 59.6955C168.364 59.5204 168.144 59.4003 167.903 59.3503C167.663 59.3003 167.413 59.3225 167.186 59.4143C167.032 59.4752 166.893 59.5662 166.775 59.682C166.657 59.7978 166.563 59.9361 166.5 60.0886C166.436 60.2412 166.403 60.405 166.404 60.5703C166.404 60.7357 166.438 60.8993 166.502 61.0516Z" fill="white"/>
<path d="M162.53 84.4179C162.154 84.6576 161.778 84.9042 161.388 85.1029C160.999 85.3016 160.568 85.4934 160.137 85.6509C159.258 85.9591 158.334 86.1234 157.403 86.1373C156.444 86.124 155.498 85.919 154.62 85.5345C153.717 85.1374 152.915 84.5401 152.275 83.7876L153.389 83.3081C153.489 84.293 153.367 85.2876 153.034 86.2195C152.706 87.121 152.202 87.9478 151.55 88.6514C150.9 89.3185 150.145 89.8739 149.315 90.2955C148.905 90.4928 148.485 90.6689 148.057 90.8229C147.619 90.9531 147.182 91.0627 146.751 91.1655C147.141 90.9325 147.53 90.7202 147.913 90.4804C148.296 90.2407 148.652 90.0214 148.993 89.7474C149.67 89.2435 150.279 88.654 150.805 87.9937C151.298 87.3402 151.673 86.6053 151.913 85.8222C152.031 85.4357 152.114 85.0389 152.159 84.6371C152.203 84.2547 152.203 83.8685 152.159 83.4862C152.143 83.3253 152.19 83.1644 152.289 83.0369C152.388 82.9094 152.532 82.825 152.692 82.8012C152.801 82.7872 152.911 82.8012 153.013 82.842C153.115 82.8827 153.204 82.9489 153.273 83.0341C153.522 83.3281 153.799 83.5966 154.1 83.8356C154.425 84.0728 154.768 84.2835 155.126 84.4658C155.858 84.8259 156.647 85.0575 157.457 85.1508C158.299 85.2268 159.148 85.19 159.98 85.0412C160.411 84.9864 160.828 84.8494 161.258 84.7672C161.689 84.685 162.099 84.5412 162.53 84.4179Z" fill="#2F4050"/>
<path d="M152.774 84.0617C152.652 84.0605 152.533 84.0244 152.432 83.9576C152.33 83.8908 152.249 83.7962 152.199 83.6849L150.306 79.2253C150.242 79.0736 150.241 78.9027 150.302 78.7499C150.363 78.5972 150.483 78.475 150.634 78.4101C150.709 78.3764 150.79 78.3582 150.873 78.3566C150.955 78.3549 151.037 78.3699 151.114 78.4005C151.19 78.4312 151.26 78.477 151.318 78.5351C151.377 78.5932 151.423 78.6626 151.454 78.739L153.362 83.1917C153.403 83.2868 153.419 83.3905 153.41 83.4936C153.401 83.5967 153.366 83.6959 153.309 83.7822C153.252 83.8685 153.175 83.9393 153.084 83.9881C152.993 84.0369 152.891 84.0622 152.787 84.0617H152.774Z" fill="#2F4050"/>
<path d="M90.6355 93.5703C85.0909 96.1803 81.0641 101.729 80.0591 108.299C84.9542 102.311 90.6628 104.072 90.6628 104.072L90.6355 93.5703Z" fill="#2BC2F7"/>
<path d="M91.2028 109.758C90.235 111.965 89.8195 114.375 89.9923 116.779C90.165 119.184 90.9208 121.509 92.1941 123.554C92.1394 117.663 96.3372 115.909 96.3372 115.909L91.2028 109.758Z" fill="#2BC2F7"/>
<path d="M90.8813 100.715C85.2957 104.894 82.0962 111.997 82.4312 119.56C86.5332 111.758 93.3015 112.422 93.3015 112.422L90.8813 100.715Z" fill="#2BC2F7"/>
<path d="M202.949 45.3504C208.657 43.1309 215.426 44.0625 220.888 47.837C213.183 47.2616 210.517 52.6323 210.517 52.6323L202.949 45.3504Z" fill="#2BC2F7"/>
<path d="M212.424 56.6533C217.025 55.9066 222.044 56.4889 225.12 59.4893C221.343 59.4871 217.687 60.8215 214.797 63.257L212.424 56.6533Z" fill="#2BC2F7"/>
<path d="M210.886 55.9824C215.063 58.0375 218.796 61.4627 219.548 65.7031C216.481 63.4913 212.732 62.4382 208.965 62.73L210.886 55.9824Z" fill="#2BC2F7"/>
<path d="M207.953 50.4612C214.824 49.2898 222.16 51.8724 227.397 57.3116C218.933 54.9071 214.742 60.2709 214.742 60.2709L207.953 50.4612Z" fill="#2BC2F7"/>
<path d="M130.48 43.7685C130.22 39.8912 132.086 36.5551 136.708 33.1094C135.737 38.6445 139.737 40.0282 139.737 40.0282L130.48 43.7685Z" fill="#2BC2F7"/>
<path d="M135.525 41.6106C136.441 37.1031 141.049 32.7052 147.756 29.876C142.97 35.0411 146.826 38.2471 146.826 38.2471L135.525 41.6106Z" fill="#2BC2F7"/>
<path d="M97.3832 122.561C97.3224 122.559 97.2633 122.54 97.2123 122.506C97.1784 122.484 97.1493 122.454 97.1268 122.42C97.1043 122.386 97.0888 122.348 97.0811 122.308C97.0735 122.268 97.0739 122.226 97.0823 122.186C97.0908 122.146 97.1071 122.108 97.1303 122.075C115.254 94.9337 148.235 84.2266 148.563 84.1239C148.643 84.0999 148.728 84.108 148.802 84.1463C148.876 84.1847 148.933 84.2503 148.959 84.3294C148.983 84.4084 148.975 84.4936 148.936 84.5666C148.898 84.6396 148.833 84.6946 148.754 84.7198C148.426 84.8226 115.651 95.468 97.643 122.397C97.6191 122.446 97.5821 122.487 97.5363 122.516C97.4904 122.545 97.4375 122.56 97.3832 122.561Z" fill="#2F4050"/>
<path d="M102.374 139.66C102.34 139.666 102.305 139.666 102.271 139.66C102.193 139.633 102.127 139.576 102.09 139.502C102.053 139.427 102.047 139.341 102.073 139.262C114.584 102.647 147.332 86.7817 147.66 86.631C147.734 86.5956 147.818 86.5909 147.895 86.6179C147.972 86.6449 148.035 86.7013 148.07 86.7748C148.089 86.8116 148.1 86.8517 148.103 86.8928C148.105 86.9339 148.1 86.9752 148.087 87.0141C148.073 87.0531 148.052 87.089 148.025 87.1196C147.997 87.1503 147.964 87.1751 147.927 87.1927C147.599 87.3502 115.111 103.106 102.668 139.468C102.643 139.525 102.601 139.573 102.549 139.607C102.497 139.641 102.436 139.66 102.374 139.66Z" fill="#2F4050"/>
<path d="M156.322 81.4446C156.268 81.4458 156.214 81.4317 156.167 81.4039C156.119 81.376 156.081 81.3356 156.056 81.2871C156.034 81.2523 156.019 81.2135 156.013 81.1729C156.007 81.1323 156.009 81.0908 156.019 81.0511C156.029 81.0113 156.047 80.974 156.072 80.9416C156.098 80.9091 156.129 80.8822 156.165 80.8624C156.466 80.6842 186.595 63.5104 218.823 68.4016C218.864 68.4066 218.903 68.4197 218.938 68.4401C218.973 68.4606 219.003 68.488 219.028 68.5206C219.052 68.5533 219.069 68.5905 219.079 68.6301C219.088 68.6697 219.09 68.7108 219.083 68.7509C219.068 68.832 219.023 68.9045 218.957 68.954C218.891 69.0035 218.809 69.0264 218.728 69.0181C186.725 64.1544 156.78 81.2254 156.514 81.4035C156.456 81.4373 156.389 81.4517 156.322 81.4446Z" fill="#2F4050"/>
<path d="M220.984 83.7469C220.952 83.754 220.92 83.754 220.888 83.7469C182.739 71.4163 159.078 82.3769 158.838 82.5002C158.764 82.5356 158.679 82.54 158.601 82.5124C158.523 82.4848 158.46 82.4274 158.425 82.3529C158.389 82.2784 158.385 82.1929 158.412 82.1152C158.44 82.0374 158.497 81.9739 158.572 81.9385C158.804 81.822 182.671 70.7313 221.08 83.151C221.157 83.179 221.221 83.2359 221.258 83.3099C221.295 83.3839 221.302 83.4692 221.278 83.5483C221.255 83.6077 221.215 83.6588 221.162 83.6943C221.11 83.7299 221.047 83.7483 220.984 83.7469Z" fill="#2F4050"/>
<path d="M150.411 251.148C156.304 244.772 155.923 234.816 149.559 228.912C143.195 223.007 133.259 223.39 127.367 229.766C121.474 236.142 121.856 246.098 128.219 252.003C134.583 257.907 144.519 257.525 150.411 251.148Z" fill="#2BC2F7"/>
<path d="M182.952 256.876C175.171 256.876 172.423 253.923 169.77 251.073C168.892 250.078 167.929 249.161 166.892 248.333C162.913 245.292 156.637 243.901 153.472 245.36C153.324 245.385 153.172 245.36 153.04 245.29C152.908 245.22 152.802 245.108 152.739 244.972C152.676 244.836 152.66 244.683 152.692 244.536C152.724 244.39 152.804 244.258 152.918 244.161C156.541 242.497 163.303 243.928 167.692 247.278C168.789 248.16 169.809 249.134 170.741 250.19C173.312 252.964 175.746 255.581 182.952 255.581C184.71 255.627 186.448 255.196 187.982 254.332C189.515 253.469 190.787 252.205 191.662 250.676C192.384 249.476 192.774 248.104 192.792 246.703C192.81 245.302 192.455 243.921 191.764 242.702C190.13 240.065 186.766 238.722 182.282 238.935C182.182 238.966 182.076 238.975 181.972 238.959C181.869 238.943 181.77 238.904 181.684 238.844C181.598 238.784 181.527 238.705 181.476 238.613C181.425 238.521 181.396 238.419 181.391 238.314C181.387 238.209 181.406 238.104 181.448 238.008C181.49 237.911 181.553 237.826 181.633 237.758C181.713 237.691 181.808 237.642 181.91 237.617C182.011 237.592 182.118 237.59 182.22 237.612C187.204 237.386 190.992 238.941 192.885 242.003C193.699 243.423 194.122 245.034 194.11 246.671C194.098 248.308 193.652 249.913 192.817 251.32C191.826 253.052 190.385 254.482 188.649 255.461C186.912 256.439 184.943 256.928 182.952 256.876Z" fill="#2BC2F7"/>
<path d="M145.521 252.478C137.246 252.394 129.271 249.364 123.021 243.929C122.94 243.803 122.903 243.655 122.914 243.505C122.926 243.356 122.986 243.215 123.085 243.103C123.184 242.991 123.317 242.915 123.464 242.886C123.61 242.857 123.762 242.877 123.896 242.943C129.366 247.834 139.128 252.465 150.019 250.821C150.115 250.779 150.22 250.759 150.325 250.764C150.429 250.769 150.532 250.798 150.623 250.848C150.715 250.899 150.794 250.97 150.854 251.056C150.914 251.143 150.953 251.242 150.969 251.345C150.985 251.449 150.977 251.555 150.945 251.656C150.913 251.756 150.859 251.847 150.786 251.923C150.714 251.999 150.624 252.057 150.526 252.092C150.427 252.128 150.322 252.141 150.218 252.129C148.663 252.362 147.093 252.479 145.521 252.478Z" fill="#2BC2F7"/>
<path d="M143.798 254.437C135.738 254.437 128.853 251.258 122.844 244.778C122.726 244.651 122.661 244.485 122.661 244.312C122.661 244.139 122.726 243.973 122.844 243.846C122.97 243.727 123.138 243.66 123.312 243.66C123.486 243.66 123.653 243.727 123.78 243.846C130.432 251.025 138.206 253.964 147.538 252.854C147.635 252.813 147.741 252.796 147.846 252.803C147.952 252.809 148.054 252.841 148.146 252.894C148.237 252.947 148.315 253.021 148.373 253.11C148.431 253.198 148.468 253.299 148.481 253.404C148.493 253.509 148.481 253.616 148.446 253.716C148.41 253.816 148.352 253.906 148.276 253.979C148.2 254.053 148.108 254.108 148.007 254.14C147.906 254.171 147.799 254.179 147.695 254.163C146.403 254.333 145.101 254.424 143.798 254.437Z" fill="#2BC2F7"/>
<path d="M131.888 255.232C131.718 255.233 131.554 255.17 131.427 255.056C131.301 254.942 131.221 254.785 131.204 254.615C130.63 246.888 133.29 234.585 140.509 224.522C140.625 224.427 140.769 224.373 140.919 224.369C141.069 224.364 141.216 224.408 141.338 224.496C141.46 224.583 141.55 224.708 141.594 224.851C141.638 224.994 141.634 225.148 141.583 225.289C134.582 235.092 131.991 247.032 132.531 254.52C132.532 254.689 132.47 254.853 132.358 254.979C132.245 255.106 132.09 255.186 131.922 255.205L131.888 255.232Z" fill="#2BC2F7"/>
<path d="M125.332 249.1C125.206 249.099 125.083 249.064 124.976 248.998C124.833 248.9 124.733 248.751 124.694 248.582C124.656 248.413 124.684 248.236 124.771 248.086C127.068 244.449 135.6 232.248 148.973 227.967C149.139 227.92 149.316 227.938 149.47 228.017C149.623 228.096 149.741 228.229 149.8 228.392C149.847 228.558 149.829 228.736 149.75 228.889C149.672 229.043 149.538 229.161 149.376 229.221C136.427 233.372 128.121 245.25 125.885 248.792C125.825 248.884 125.743 248.961 125.646 249.014C125.55 249.068 125.442 249.097 125.332 249.1Z" fill="#2BC2F7"/>
<path d="M125.332 249.101C125.248 249.101 125.164 249.085 125.086 249.053C124.928 248.983 124.802 248.856 124.733 248.697C124.665 248.538 124.659 248.359 124.717 248.196C126.739 243.215 129.797 238.723 133.687 235.019C137.577 231.315 142.21 228.483 147.278 226.714C147.427 226.703 147.576 226.742 147.702 226.824C147.827 226.907 147.922 227.028 147.971 227.17C148.021 227.311 148.023 227.466 147.977 227.608C147.93 227.751 147.839 227.875 147.715 227.96C142.821 229.665 138.345 232.396 134.587 235.97C130.829 239.545 127.874 243.881 125.92 248.69C125.869 248.806 125.788 248.906 125.684 248.979C125.58 249.051 125.458 249.093 125.332 249.101Z" fill="#2BC2F7"/>
<path d="M129.94 254.081C129.774 254.082 129.613 254.024 129.487 253.915C129.362 253.807 129.279 253.656 129.256 253.492C127.602 239.215 132.278 231.05 137.583 224.357C137.695 224.226 137.852 224.141 138.023 224.121C138.195 224.101 138.367 224.146 138.506 224.247C138.639 224.36 138.725 224.519 138.745 224.692C138.765 224.865 138.719 225.039 138.616 225.179C133.488 231.653 128.969 239.565 130.569 253.341C130.583 253.514 130.531 253.686 130.423 253.822C130.315 253.959 130.159 254.048 129.988 254.074L129.94 254.081Z" fill="#2BC2F7"/>
<path d="M128.108 252.587C127.965 252.584 127.827 252.536 127.713 252.45C127.599 252.364 127.515 252.244 127.472 252.108C125.421 244.538 126.946 232.701 135.314 224.583C135.44 224.466 135.606 224.4 135.779 224.4C135.951 224.4 136.117 224.466 136.244 224.583C136.363 224.71 136.429 224.878 136.429 225.052C136.429 225.227 136.363 225.395 136.244 225.522C128.621 232.913 126.706 244.305 128.757 251.738C128.798 251.907 128.774 252.085 128.689 252.236C128.604 252.387 128.465 252.501 128.299 252.553L128.108 252.587Z" fill="#2BC2F7"/>
<path d="M154.409 243.34C154.272 243.338 154.138 243.295 154.026 243.216C144.249 236.167 132.326 233.571 124.854 234.133C124.705 234.105 124.57 234.029 124.469 233.916C124.368 233.803 124.307 233.66 124.296 233.509C124.285 233.358 124.325 233.207 124.408 233.081C124.492 232.954 124.615 232.859 124.758 232.811C132.47 232.242 144.748 234.9 154.798 242.141C154.899 242.229 154.972 242.345 155.008 242.475C155.044 242.604 155.041 242.742 154.999 242.869C154.958 242.997 154.88 243.11 154.775 243.193C154.67 243.277 154.542 243.328 154.409 243.34Z" fill="#2BC2F7"/>
<path d="M154.545 241.511C154.453 241.513 154.362 241.494 154.278 241.456C145.514 237.558 132.251 237.044 123.431 240.25C123.346 240.312 123.247 240.353 123.143 240.369C123.039 240.386 122.932 240.379 122.831 240.348C122.731 240.317 122.638 240.262 122.562 240.19C122.486 240.117 122.427 240.027 122.391 239.928C122.355 239.829 122.342 239.722 122.354 239.617C122.365 239.512 122.401 239.412 122.458 239.323C122.515 239.234 122.592 239.159 122.683 239.105C122.773 239.051 122.875 239.019 122.98 239.01C132.087 235.695 145.767 236.229 154.812 240.25C154.967 240.326 155.088 240.458 155.15 240.619C155.212 240.781 155.211 240.96 155.147 241.12C155.092 241.235 155.007 241.332 154.901 241.401C154.795 241.47 154.672 241.508 154.545 241.511Z" fill="#2BC2F7"/>
<path d="M154.518 239.661C154.427 239.659 154.337 239.64 154.254 239.603C154.17 239.567 154.095 239.514 154.032 239.448C147.531 232.365 139.108 229.858 126.686 231.289C126.588 231.33 126.482 231.348 126.377 231.341C126.271 231.334 126.169 231.303 126.078 231.25C125.986 231.196 125.908 231.123 125.85 231.034C125.792 230.946 125.755 230.845 125.743 230.74C125.73 230.634 125.742 230.528 125.777 230.428C125.813 230.328 125.871 230.238 125.947 230.164C126.023 230.091 126.115 230.036 126.216 230.004C126.317 229.972 126.424 229.964 126.528 229.981C139.217 228.501 148.255 231.228 154.976 238.558C155.052 238.655 155.099 238.772 155.114 238.894C155.129 239.017 155.111 239.141 155.061 239.254C155.012 239.367 154.932 239.465 154.832 239.536C154.731 239.608 154.613 239.651 154.491 239.661H154.518Z" fill="#2BC2F7"/>
<path d="M154.026 236.976C153.851 236.972 153.685 236.901 153.561 236.777C145.432 228.653 133.967 227.481 128.778 229.242C128.627 229.252 128.478 229.212 128.353 229.128C128.228 229.044 128.134 228.921 128.085 228.778C128.037 228.635 128.037 228.48 128.086 228.337C128.134 228.195 128.229 228.072 128.354 227.988C133.857 226.118 145.972 227.303 154.491 235.839C154.608 235.965 154.673 236.132 154.673 236.305C154.673 236.477 154.608 236.644 154.491 236.77C154.368 236.896 154.201 236.97 154.026 236.976Z" fill="#2BC2F7"/>
<path d="M150.99 251.183C150.929 251.193 150.867 251.193 150.805 251.183C135.081 246.518 123.52 235.927 123.411 235.818C123.332 235.691 123.297 235.542 123.311 235.393C123.325 235.244 123.387 235.104 123.488 234.994C123.588 234.884 123.722 234.81 123.869 234.783C124.015 234.756 124.166 234.778 124.3 234.845C124.416 234.954 135.765 245.34 151.181 249.916C151.313 249.979 151.421 250.083 151.49 250.212C151.558 250.341 151.584 250.489 151.562 250.634C151.541 250.778 151.474 250.912 151.371 251.016C151.268 251.12 151.134 251.188 150.99 251.21V251.183Z" fill="#2BC2F7"/>
<path d="M151.304 250.779C151.215 250.778 151.127 250.759 151.044 250.724C141.53 246.467 132.414 241.366 123.807 235.482C123.707 235.447 123.617 235.389 123.543 235.313C123.469 235.237 123.414 235.145 123.382 235.044C123.349 234.943 123.341 234.836 123.357 234.731C123.373 234.626 123.413 234.527 123.475 234.44C123.536 234.353 123.616 234.282 123.709 234.232C123.802 234.182 123.906 234.154 124.012 234.151C124.118 234.147 124.223 234.169 124.319 234.213C124.415 234.258 124.5 234.324 124.566 234.407C133.098 240.238 142.133 245.294 151.564 249.512C151.686 249.584 151.782 249.693 151.839 249.824C151.897 249.954 151.912 250.098 151.883 250.238C151.855 250.377 151.784 250.504 151.68 250.601C151.576 250.698 151.445 250.76 151.304 250.779Z" fill="#2BC2F7"/>
<path d="M151.886 249.964C151.779 249.966 151.673 249.94 151.578 249.888C138.13 242.641 124.033 235.605 123.896 235.537C123.785 235.437 123.709 235.304 123.68 235.157C123.651 235.01 123.671 234.857 123.737 234.723C123.803 234.588 123.911 234.479 124.045 234.412C124.179 234.345 124.331 234.324 124.478 234.352C124.621 234.42 138.739 241.469 152.2 248.737C152.313 248.817 152.399 248.93 152.447 249.06C152.495 249.19 152.503 249.331 152.469 249.466C152.435 249.6 152.361 249.721 152.257 249.812C152.153 249.904 152.023 249.961 151.886 249.977V249.964Z" fill="#2BC2F7"/>
<path d="M152.357 249.238C152.211 249.241 152.068 249.192 151.954 249.101C139.743 239.51 124.395 235.058 124.238 235.016C124.108 234.939 124.007 234.821 123.951 234.681C123.895 234.54 123.888 234.385 123.929 234.24C123.97 234.094 124.059 233.966 124.18 233.876C124.302 233.786 124.449 233.739 124.6 233.742C124.757 233.79 140.325 238.298 152.767 248.06C152.899 248.172 152.983 248.329 153.003 248.5C153.023 248.672 152.978 248.845 152.877 248.984C152.816 249.064 152.737 249.129 152.647 249.173C152.557 249.217 152.458 249.239 152.357 249.238Z" fill="#2BC2F7"/>
<path d="M153.615 246.58C153.464 246.579 153.317 246.529 153.198 246.436C142.013 237.229 124.484 235.057 124.334 235.037C124.193 234.981 124.075 234.881 123.998 234.751C123.921 234.621 123.889 234.469 123.907 234.319C123.925 234.168 123.992 234.028 124.097 233.921C124.203 233.813 124.341 233.743 124.491 233.722C124.669 233.722 142.547 235.962 154.039 245.415C154.167 245.53 154.247 245.689 154.264 245.86C154.28 246.032 154.232 246.203 154.128 246.34C154.065 246.414 153.986 246.474 153.897 246.516C153.809 246.557 153.713 246.579 153.615 246.58Z" fill="#2BC2F7"/>
<path d="M133.003 255.766C132.871 255.752 132.746 255.7 132.644 255.617C132.541 255.533 132.465 255.421 132.424 255.295C132.384 255.169 132.381 255.034 132.415 254.906C132.45 254.778 132.521 254.663 132.62 254.574C145.083 245.539 152.2 233.003 152.268 232.879C152.294 232.777 152.343 232.683 152.412 232.603C152.48 232.523 152.566 232.46 152.663 232.418C152.759 232.377 152.864 232.358 152.969 232.364C153.074 232.37 153.176 232.4 153.267 232.452C153.359 232.504 153.437 232.576 153.496 232.663C153.555 232.75 153.594 232.85 153.608 232.954C153.623 233.058 153.613 233.165 153.58 233.264C153.547 233.364 153.491 233.455 153.417 233.53C153.349 233.653 146.088 246.443 133.392 255.643C133.278 255.723 133.142 255.766 133.003 255.766Z" fill="#2BC2F7"/>
<g opacity="0.3">
<path d="M145.521 252.477C137.246 252.393 129.271 249.363 123.021 243.928C122.94 243.802 122.903 243.654 122.914 243.504C122.926 243.355 122.986 243.214 123.085 243.102C123.184 242.99 123.317 242.914 123.464 242.885C123.61 242.856 123.762 242.876 123.896 242.942C129.366 247.833 139.128 252.464 150.019 250.82C150.115 250.778 150.22 250.758 150.325 250.763C150.429 250.768 150.532 250.797 150.623 250.847C150.715 250.898 150.794 250.969 150.854 251.056C150.914 251.142 150.953 251.241 150.969 251.344C150.985 251.448 150.977 251.554 150.945 251.655C150.913 251.755 150.859 251.846 150.786 251.922C150.714 251.998 150.624 252.056 150.526 252.091C150.427 252.127 150.322 252.14 150.218 252.128C148.663 252.361 147.093 252.478 145.521 252.477Z" fill="black"/>
<path d="M143.798 254.437C135.738 254.437 128.853 251.258 122.844 244.778C122.726 244.651 122.661 244.485 122.661 244.312C122.661 244.139 122.726 243.973 122.844 243.846C122.97 243.727 123.138 243.66 123.312 243.66C123.486 243.66 123.653 243.727 123.78 243.846C130.432 251.025 138.206 253.964 147.538 252.854C147.635 252.813 147.741 252.796 147.846 252.803C147.952 252.809 148.054 252.841 148.146 252.894C148.237 252.947 148.315 253.021 148.373 253.11C148.431 253.198 148.468 253.299 148.481 253.404C148.493 253.509 148.481 253.616 148.446 253.716C148.41 253.816 148.352 253.906 148.276 253.979C148.2 254.053 148.108 254.108 148.007 254.14C147.906 254.171 147.799 254.179 147.695 254.163C146.403 254.333 145.101 254.424 143.798 254.437Z" fill="black"/>
<path d="M131.888 255.232C131.718 255.233 131.554 255.17 131.427 255.056C131.301 254.942 131.221 254.785 131.204 254.615C130.63 246.888 133.29 234.585 140.509 224.522C140.625 224.427 140.769 224.373 140.919 224.369C141.069 224.364 141.216 224.408 141.338 224.496C141.46 224.583 141.55 224.708 141.594 224.851C141.638 224.994 141.634 225.148 141.583 225.289C134.582 235.092 131.991 247.032 132.531 254.52C132.532 254.689 132.47 254.853 132.358 254.979C132.245 255.106 132.09 255.186 131.922 255.205L131.888 255.232Z" fill="black"/>
<path d="M125.332 249.1C125.206 249.099 125.083 249.064 124.976 248.998C124.833 248.9 124.733 248.751 124.694 248.582C124.656 248.413 124.684 248.236 124.771 248.086C127.068 244.449 135.6 232.248 148.973 227.967C149.139 227.92 149.316 227.938 149.47 228.017C149.623 228.096 149.741 228.229 149.8 228.392C149.847 228.558 149.829 228.736 149.75 228.889C149.672 229.043 149.538 229.161 149.376 229.221C136.427 233.372 128.121 245.25 125.885 248.792C125.825 248.884 125.743 248.961 125.646 249.014C125.55 249.068 125.442 249.097 125.332 249.1Z" fill="black"/>
<path d="M125.332 249.101C125.248 249.101 125.164 249.085 125.086 249.053C124.928 248.983 124.802 248.856 124.733 248.697C124.665 248.538 124.659 248.359 124.717 248.196C126.739 243.215 129.797 238.723 133.687 235.019C137.577 231.315 142.21 228.483 147.278 226.714C147.427 226.703 147.576 226.742 147.702 226.824C147.827 226.907 147.922 227.028 147.971 227.17C148.021 227.311 148.023 227.466 147.977 227.608C147.93 227.751 147.839 227.875 147.715 227.96C142.821 229.665 138.345 232.396 134.587 235.97C130.829 239.545 127.874 243.881 125.92 248.69C125.869 248.806 125.788 248.906 125.684 248.979C125.58 249.051 125.458 249.093 125.332 249.101Z" fill="black"/>
<path d="M129.94 254.081C129.774 254.082 129.613 254.024 129.487 253.915C129.362 253.807 129.279 253.656 129.256 253.492C127.602 239.215 132.278 231.05 137.583 224.357C137.695 224.226 137.852 224.141 138.023 224.121C138.195 224.101 138.367 224.146 138.506 224.247C138.639 224.36 138.725 224.519 138.745 224.692C138.765 224.865 138.719 225.039 138.616 225.179C133.488 231.653 128.969 239.565 130.569 253.341C130.583 253.514 130.531 253.686 130.423 253.822C130.315 253.959 130.159 254.048 129.988 254.074L129.94 254.081Z" fill="black"/>
<path d="M128.108 252.587C127.965 252.584 127.827 252.536 127.713 252.45C127.599 252.364 127.515 252.244 127.472 252.108C125.421 244.538 126.946 232.701 135.314 224.583C135.44 224.466 135.606 224.4 135.779 224.4C135.951 224.4 136.117 224.466 136.244 224.583C136.363 224.71 136.429 224.878 136.429 225.052C136.429 225.227 136.363 225.395 136.244 225.522C128.621 232.913 126.706 244.305 128.757 251.738C128.798 251.907 128.774 252.085 128.689 252.236C128.604 252.387 128.465 252.501 128.299 252.553L128.108 252.587Z" fill="black"/>
<path d="M154.409 243.34C154.272 243.338 154.138 243.295 154.026 243.216C144.249 236.167 132.326 233.571 124.854 234.133C124.705 234.105 124.57 234.029 124.469 233.916C124.368 233.803 124.307 233.66 124.296 233.509C124.285 233.358 124.325 233.207 124.408 233.081C124.492 232.954 124.615 232.859 124.758 232.811C132.47 232.242 144.748 234.9 154.798 242.141C154.899 242.229 154.972 242.345 155.008 242.475C155.044 242.604 155.041 242.742 154.999 242.869C154.958 242.997 154.88 243.11 154.775 243.193C154.67 243.277 154.542 243.328 154.409 243.34Z" fill="black"/>
<path d="M154.545 241.511C154.453 241.513 154.362 241.494 154.278 241.456C145.514 237.558 132.251 237.044 123.431 240.25C123.346 240.312 123.247 240.353 123.143 240.369C123.039 240.386 122.932 240.379 122.831 240.348C122.731 240.317 122.638 240.262 122.562 240.19C122.486 240.117 122.427 240.027 122.391 239.928C122.355 239.829 122.342 239.722 122.354 239.617C122.365 239.512 122.401 239.412 122.458 239.323C122.515 239.234 122.592 239.159 122.683 239.105C122.773 239.051 122.875 239.019 122.98 239.01C132.087 235.695 145.767 236.229 154.812 240.25C154.967 240.326 155.088 240.458 155.15 240.619C155.212 240.781 155.211 240.96 155.147 241.12C155.092 241.235 155.007 241.332 154.901 241.401C154.795 241.47 154.672 241.508 154.545 241.511Z" fill="black"/>
<path d="M154.518 239.661C154.427 239.659 154.337 239.64 154.254 239.603C154.17 239.567 154.095 239.514 154.032 239.448C147.531 232.365 139.108 229.858 126.686 231.289C126.588 231.33 126.482 231.348 126.377 231.341C126.271 231.334 126.169 231.303 126.078 231.25C125.986 231.196 125.908 231.123 125.85 231.034C125.792 230.946 125.755 230.845 125.743 230.74C125.73 230.634 125.742 230.528 125.777 230.428C125.813 230.328 125.871 230.238 125.947 230.164C126.023 230.091 126.115 230.036 126.216 230.004C126.317 229.972 126.424 229.964 126.528 229.981C139.217 228.501 148.255 231.228 154.976 238.558C155.052 238.655 155.099 238.772 155.114 238.894C155.129 239.017 155.111 239.141 155.061 239.254C155.012 239.367 154.932 239.465 154.832 239.536C154.731 239.608 154.613 239.651 154.491 239.661H154.518Z" fill="black"/>
<path d="M154.026 236.976C153.851 236.972 153.685 236.901 153.561 236.777C145.432 228.653 133.967 227.481 128.778 229.242C128.627 229.252 128.478 229.212 128.353 229.128C128.228 229.044 128.134 228.921 128.085 228.778C128.037 228.635 128.037 228.48 128.086 228.337C128.134 228.195 128.229 228.072 128.354 227.988C133.857 226.118 145.972 227.303 154.491 235.839C154.608 235.965 154.673 236.132 154.673 236.305C154.673 236.477 154.608 236.644 154.491 236.77C154.368 236.896 154.201 236.97 154.026 236.976Z" fill="black"/>
<path d="M150.99 251.183C150.929 251.193 150.867 251.193 150.805 251.183C135.081 246.518 123.52 235.927 123.411 235.818C123.332 235.691 123.297 235.542 123.311 235.393C123.325 235.244 123.387 235.104 123.488 234.994C123.588 234.884 123.722 234.81 123.869 234.783C124.015 234.756 124.166 234.778 124.3 234.845C124.416 234.954 135.765 245.34 151.181 249.916C151.313 249.979 151.421 250.083 151.49 250.212C151.558 250.341 151.584 250.489 151.562 250.634C151.541 250.778 151.474 250.912 151.371 251.016C151.268 251.12 151.134 251.188 150.99 251.21V251.183Z" fill="black"/>
<path d="M151.304 250.779C151.215 250.778 151.127 250.759 151.044 250.724C141.53 246.467 132.414 241.366 123.807 235.482C123.707 235.447 123.617 235.389 123.543 235.313C123.469 235.237 123.414 235.145 123.382 235.044C123.349 234.943 123.341 234.836 123.357 234.731C123.373 234.626 123.413 234.527 123.475 234.44C123.536 234.353 123.616 234.282 123.709 234.232C123.802 234.182 123.906 234.154 124.012 234.151C124.118 234.147 124.223 234.169 124.319 234.213C124.415 234.258 124.5 234.324 124.566 234.407C133.098 240.238 142.133 245.294 151.564 249.512C151.686 249.584 151.782 249.693 151.839 249.824C151.897 249.954 151.912 250.098 151.883 250.238C151.855 250.377 151.784 250.504 151.68 250.601C151.576 250.698 151.445 250.76 151.304 250.779Z" fill="black"/>
<path d="M151.886 249.964C151.779 249.966 151.673 249.94 151.578 249.888C138.13 242.641 124.033 235.605 123.896 235.537C123.785 235.437 123.709 235.304 123.68 235.157C123.651 235.01 123.671 234.857 123.737 234.723C123.803 234.588 123.911 234.479 124.045 234.412C124.179 234.345 124.331 234.324 124.478 234.352C124.621 234.42 138.739 241.469 152.2 248.737C152.313 248.817 152.399 248.93 152.447 249.06C152.495 249.19 152.503 249.331 152.469 249.466C152.435 249.6 152.361 249.721 152.257 249.812C152.153 249.904 152.023 249.961 151.886 249.977V249.964Z" fill="black"/>
<path d="M152.357 249.238C152.211 249.241 152.068 249.192 151.954 249.101C139.743 239.51 124.395 235.058 124.238 235.016C124.108 234.939 124.007 234.821 123.951 234.681C123.895 234.54 123.888 234.385 123.929 234.24C123.97 234.094 124.059 233.966 124.18 233.876C124.302 233.786 124.449 233.739 124.6 233.742C124.757 233.79 140.325 238.298 152.767 248.06C152.899 248.172 152.983 248.329 153.003 248.5C153.023 248.672 152.978 248.845 152.877 248.984C152.816 249.064 152.737 249.129 152.647 249.173C152.557 249.217 152.458 249.239 152.357 249.238Z" fill="black"/>
<path d="M153.615 246.58C153.464 246.579 153.317 246.529 153.198 246.436C142.013 237.229 124.484 235.057 124.334 235.037C124.193 234.981 124.075 234.881 123.998 234.751C123.921 234.621 123.889 234.469 123.907 234.319C123.925 234.168 123.992 234.028 124.097 233.921C124.203 233.813 124.341 233.743 124.491 233.722C124.669 233.722 142.547 235.962 154.039 245.415C154.167 245.53 154.247 245.689 154.264 245.86C154.28 246.032 154.232 246.203 154.128 246.34C154.065 246.414 153.986 246.474 153.897 246.516C153.809 246.557 153.713 246.579 153.615 246.58Z" fill="black"/>
<path d="M133.003 255.766C132.871 255.752 132.746 255.7 132.644 255.617C132.541 255.533 132.465 255.421 132.424 255.295C132.384 255.169 132.381 255.034 132.415 254.906C132.45 254.778 132.521 254.663 132.62 254.574C145.083 245.539 152.2 233.003 152.268 232.879C152.294 232.777 152.343 232.683 152.412 232.603C152.48 232.523 152.566 232.46 152.663 232.418C152.759 232.377 152.864 232.358 152.969 232.364C153.074 232.37 153.176 232.4 153.267 232.452C153.359 232.504 153.437 232.576 153.496 232.663C153.555 232.75 153.594 232.85 153.608 232.954C153.623 233.058 153.613 233.165 153.58 233.264C153.547 233.364 153.491 233.455 153.417 233.53C153.349 233.653 146.088 246.443 133.392 255.643C133.278 255.723 133.142 255.766 133.003 255.766Z" fill="black"/>
</g>
</g>
</svg>
