<svg width="520" height="237" viewBox="0 0 520 237" fill="none" xmlns="http://www.w3.org/2000/svg">
<g opacity="0.1">
<path d="M187.8 363.181H-55.6398C-57.5469 363.177 -59.3748 362.433 -60.7221 361.112C-62.0694 359.79 -62.8262 357.999 -62.8262 356.131V21.0163C-62.8096 19.1595 -62.0455 17.384 -60.7 16.0756C-59.3544 14.7672 -57.5361 14.0315 -55.6398 14.0283H187.8C189.71 14.0283 191.541 14.7711 192.891 16.0931C194.241 17.4152 194.999 19.2083 194.999 21.078V356.131C194.999 358.001 194.241 359.794 192.891 361.116C191.541 362.438 189.71 363.181 187.8 363.181ZM-55.6398 14.2752C-57.4633 14.2785 -59.211 14.9902 -60.4992 16.254C-61.7875 17.5179 -62.511 19.2306 -62.511 21.0163V356.131C-62.511 357.917 -61.7875 359.629 -60.4992 360.893C-59.211 362.157 -57.4633 362.869 -55.6398 362.872H187.8C189.625 362.869 191.374 362.158 192.664 360.894C193.954 359.631 194.681 357.918 194.684 356.131V21.0163C194.681 19.2295 193.954 17.5167 192.664 16.2533C191.374 14.9898 189.625 14.2785 187.8 14.2752H-55.6398Z" fill="#EEEEEE"/>
<path d="M460.515 363.181H217.062C215.154 363.177 213.325 362.434 211.976 361.112C210.626 359.791 209.867 358 209.863 356.131V21.0163C209.883 19.1583 210.65 17.3829 211.998 16.0748C213.345 14.7668 215.165 14.0315 217.062 14.0283H460.515C462.409 14.0347 464.224 14.7719 465.567 16.0799C466.91 17.388 467.672 19.1616 467.689 21.0163V356.131C467.689 357.996 466.934 359.786 465.589 361.107C464.244 362.429 462.42 363.174 460.515 363.181ZM217.062 14.2752C215.238 14.2785 213.489 14.9898 212.198 16.2533C210.908 17.5167 210.182 19.2295 210.178 21.0163V356.131C210.182 357.918 210.908 359.631 212.198 360.894C213.489 362.158 215.238 362.869 217.062 362.872H460.515C462.34 362.869 464.089 362.158 465.379 360.894C466.669 359.631 467.395 357.918 467.399 356.131V21.0163C467.395 19.2295 466.669 17.5167 465.379 16.2533C464.089 14.9898 462.34 14.2785 460.515 14.2752H217.062Z" fill="#EEEEEE"/>
<path d="M80.1443 39.5353C79.6689 38.6486 79.0197 37.8625 78.2337 37.2218C77.4478 36.5811 76.5406 36.0984 75.564 35.8014C74.5874 35.5044 73.5605 35.3989 72.5422 35.4909C71.5239 35.5829 70.5342 35.8706 69.6295 36.3376C68.6329 34.6085 66.9873 33.328 65.0421 32.7679C63.097 32.2078 61.0054 32.4123 59.2118 33.338C57.4181 34.2636 56.0635 35.8375 55.4357 37.7254C54.8079 39.6133 54.9563 41.6666 55.8494 43.449L63.1114 56.9435L76.8537 49.8321C77.7612 49.3687 78.5665 48.7345 79.2233 47.9658C79.8801 47.1971 80.3756 46.309 80.6813 45.3525C80.987 44.3959 81.0969 43.3897 81.0047 42.3915C80.9126 41.3932 80.6202 40.4226 80.1443 39.5353Z" fill="#C4C4C4"/>
<path d="M397.086 8.89173C396.61 8.00614 395.96 7.22118 395.173 6.58173C394.387 5.94228 393.479 5.46089 392.503 5.16506C391.526 4.86924 390.5 4.76478 389.482 4.85767C388.464 4.95055 387.475 5.23896 386.571 5.7064C386.096 4.8179 385.447 4.02977 384.661 3.38698C383.875 2.74419 382.967 2.25934 381.989 1.96012C381.012 1.66089 379.984 1.55315 378.963 1.64304C377.943 1.73293 376.951 2.0187 376.044 2.48402C375.137 2.94935 374.332 3.58512 373.676 4.35503C373.019 5.12494 372.524 6.01392 372.218 6.97121C371.913 7.9285 371.803 8.93536 371.895 9.93429C371.986 10.9332 372.278 11.9047 372.753 12.7932L380.015 26.2753L393.783 19.1762C395.61 18.2376 396.983 16.6288 397.602 14.7015C398.221 12.7743 398.036 10.6854 397.086 8.89173Z" fill="#F8FAFB"/>
<path d="M447.517 232.026C447.278 230.55 446.451 229.225 445.218 228.344C443.984 227.462 442.445 227.095 440.936 227.322C440.638 225.905 439.795 224.654 438.58 223.83C437.366 223.005 435.874 222.67 434.414 222.894C432.955 223.118 431.639 223.884 430.74 225.033C429.842 226.181 429.429 227.625 429.589 229.063L431.366 240.175L442.713 238.434C444.215 238.203 445.563 237.399 446.463 236.199C447.363 234.999 447.741 233.499 447.517 232.026Z" fill="#EEEEEE"/>
<path d="M330.935 136.577C330.344 136.395 329.723 136.33 329.107 136.383C328.491 136.437 327.891 136.609 327.343 136.89C326.795 137.171 326.309 137.556 325.913 138.021C325.517 138.486 325.218 139.024 325.034 139.602C324.443 139.421 323.821 139.356 323.205 139.411C322.588 139.465 321.988 139.638 321.44 139.92C320.891 140.201 320.405 140.585 320.008 141.051C319.611 141.517 319.312 142.054 319.127 142.633C318.943 143.212 318.877 143.821 318.932 144.425C318.988 145.028 319.164 145.616 319.452 146.153C319.739 146.69 320.132 147.166 320.607 147.555C321.083 147.943 321.632 148.236 322.223 148.417L331.224 151.17L334.036 142.355C334.407 141.186 334.288 139.921 333.707 138.837C333.125 137.754 332.128 136.941 330.935 136.577Z" fill="#F8FAFB"/>
<path d="M122.128 229.988C122.12 222.635 119.32 215.548 114.273 210.104C109.226 204.659 102.293 201.247 94.8196 200.53C91.0887 192.317 85.2115 185.213 77.7812 179.935C70.3508 174.657 61.6303 171.392 52.4995 170.469C43.3688 169.546 34.151 170.998 25.7764 174.679C17.4018 178.359 10.1668 184.138 4.80136 191.431C0.353653 188.256 -4.98945 186.509 -10.4928 186.43C-15.9962 186.351 -21.3893 187.944 -25.9302 190.989C-30.4711 194.035 -33.9367 198.384 -35.85 203.438C-37.7633 208.491 -38.0305 214.002 -36.6146 219.21C-40.8212 222.679 -44.2569 226.956 -46.7095 231.776C-49.162 236.596 -50.5794 241.858 -50.8739 247.235C-51.1684 252.613 -50.3339 257.993 -48.422 263.043C-46.51 268.092 -43.5611 272.704 -39.7575 276.594C-35.9539 280.483 -31.3763 283.568 -26.3075 285.657C-21.2387 287.746 -15.7864 288.796 -10.2872 288.74C-4.78801 288.685 0.641182 287.526 5.66504 285.335C10.6889 283.145 15.2007 279.968 18.9219 276.003C23.8736 282.304 30.5592 287.091 38.1929 289.8C45.8267 292.508 54.0915 293.027 62.0159 291.295C69.9404 289.563 77.1953 285.651 82.928 280.021C88.6608 274.39 92.6331 267.274 94.3783 259.508C101.941 258.892 108.992 255.515 114.132 250.047C119.271 244.58 122.125 237.42 122.128 229.988Z" fill="#EEEEEE"/>
<path d="M326.231 91.0935C326.236 86.1097 328.133 81.3057 331.553 77.6157C334.974 73.9258 339.674 71.6138 344.739 71.1296C347.253 65.5509 351.229 60.7226 356.264 57.1346C361.299 53.5467 367.213 51.3266 373.407 50.6998C379.601 50.0729 385.854 51.0616 391.531 53.5654C397.209 56.0692 402.109 59.9991 405.735 64.9564C408.751 62.8204 412.367 61.6494 416.089 61.6036C419.811 61.5579 423.456 62.6397 426.525 64.7009C429.595 66.7621 431.939 69.7021 433.237 73.1182C434.534 76.5344 434.722 80.2598 433.774 83.7845C436.636 86.1317 438.975 89.0295 440.646 92.2983C442.318 95.5671 443.285 99.1373 443.49 102.787C443.694 106.438 443.13 110.09 441.834 113.518C440.538 116.946 438.536 120.077 435.953 122.716C433.37 125.356 430.262 127.447 426.819 128.862C423.377 130.276 419.675 130.983 415.942 130.939C412.209 130.894 408.526 130.1 405.12 128.604C401.713 127.108 398.657 124.943 396.141 122.243C392.791 126.516 388.266 129.765 383.097 131.606C377.927 133.448 372.328 133.807 366.958 132.64C361.587 131.473 356.669 128.829 352.78 125.019C348.891 121.209 346.193 116.391 345.004 111.131C339.877 110.71 335.1 108.415 331.622 104.702C328.144 100.99 326.22 96.1316 326.231 91.0935Z" fill="#EEEEEE"/>
<path d="M426.714 139.071C421.417 137.422 415.882 136.626 410.324 136.713C404.929 136.743 399.586 137.752 394.565 139.688C392.456 140.499 390.474 141.596 388.677 142.948C388.501 143.096 388.299 143.231 388.16 143.367C388.022 143.503 387.883 143.602 387.656 143.836C387.429 144.071 386.836 144.664 386.395 145.071C385.59 145.966 384.845 146.91 384.164 147.898C381.346 151.955 379.557 156.61 378.944 161.479C378.644 163.785 378.674 166.12 379.032 168.418C379.201 169.498 379.458 170.563 379.801 171.603C380.144 172.645 380.566 173.66 381.062 174.64C382.445 177.177 384.008 179.615 385.74 181.937C387.669 184.629 389.9 187.567 392.043 191.16C394.537 195.138 396.315 199.506 397.301 204.074C397.803 206.644 397.989 209.263 397.856 211.877C397.705 214.44 397.243 216.976 396.481 219.433C395.01 224.139 392.564 228.497 389.295 232.236C387.683 234.072 385.888 235.747 383.937 237.236C382.053 238.688 380.035 239.965 377.91 241.051C373.809 243.123 369.402 244.552 364.849 245.286C360.588 245.977 356.259 246.176 351.951 245.878C347.844 245.593 343.771 244.94 339.785 243.928C336.041 242.977 332.357 241.81 328.753 240.434C321.743 237.804 315.389 234.791 309.325 232.236C303.708 229.711 297.833 227.774 291.8 226.458C289.066 225.914 286.282 225.641 283.492 225.643C280.662 225.652 277.838 225.916 275.058 226.433C269.195 227.605 263.527 229.566 258.214 232.26C247.195 237.705 237.008 246.002 226.468 254.694C224.561 256.272 222.094 257.048 219.605 256.851C217.117 256.655 214.808 255.503 213.184 253.647C211.559 251.79 210.75 249.38 210.934 246.941C211.117 244.503 212.278 242.235 214.163 240.631C224.564 231.754 235.52 222.235 249.111 215.124C256.021 211.455 263.422 208.753 271.099 207.099C275.093 206.272 279.158 205.813 283.24 205.728C287.368 205.638 291.495 205.957 295.557 206.679C303.07 208.118 310.403 210.341 317.432 213.309C324.114 215.988 330.279 218.741 336.23 220.84C339.084 221.869 341.997 222.735 344.954 223.433C347.676 224.074 350.454 224.462 353.25 224.593C358.166 224.987 363.098 224.051 367.509 221.89C368.436 221.384 369.313 220.797 370.131 220.136C370.893 219.524 371.594 218.842 372.224 218.099C373.433 216.645 374.326 214.965 374.847 213.161C375.081 212.357 375.208 211.527 375.225 210.691C375.245 209.92 375.169 209.149 374.998 208.395C374.45 206.354 373.564 204.414 372.376 202.654C370.976 200.432 369.06 197.938 366.954 195.135C364.524 192.002 362.329 188.701 360.386 185.258C359.286 183.239 358.342 181.143 357.562 178.986C356.798 176.82 356.208 174.6 355.797 172.344C354.998 167.956 354.824 163.481 355.28 159.047C356.159 150.404 359.142 142.093 363.979 134.811C365.195 132.969 366.53 131.204 367.976 129.527C368.719 128.688 369.476 127.86 370.27 127.058C370.636 126.675 371.165 126.194 371.632 125.762C372.098 125.329 372.59 124.934 373.069 124.527C376.67 121.64 380.679 119.278 384.971 117.514C392.784 114.311 401.138 112.561 409.606 112.353C417.877 112.096 426.137 113.15 434.065 115.477C437.069 116.563 439.539 118.729 440.972 121.534C442.406 124.339 442.695 127.573 441.782 130.579C440.869 133.585 438.822 136.138 436.056 137.72C433.29 139.302 430.013 139.794 426.891 139.095L426.714 139.071Z" fill="#2F4050"/>
<path d="M426.411 140.071C419.636 137.822 412.456 136.981 405.331 137.602C401.893 137.908 398.507 138.621 395.245 139.725C392.545 140.628 390.021 141.972 387.781 143.701L387.062 144.306C384.687 146.442 381.541 147.567 378.319 147.433C375.096 147.299 372.06 145.916 369.878 143.59C367.696 141.263 366.548 138.183 366.685 135.027C366.822 131.872 368.234 128.898 370.609 126.762C375.026 122.531 380.236 119.178 385.953 116.885C391.099 114.784 396.489 113.312 402.002 112.502C412.82 110.946 423.851 111.636 434.379 114.527C437.873 115.463 440.844 117.721 442.639 120.802C444.433 123.884 444.904 127.538 443.948 130.96C442.991 134.381 440.686 137.291 437.539 139.048C434.392 140.806 430.661 141.267 427.167 140.33L426.499 140.133L426.411 140.071Z" fill="#2BC2F7"/>
<path d="M249.451 213.024C258.276 228.507 276.885 266.262 276.885 266.262C276.885 266.262 286.442 266.657 285.168 273.237L248.114 282.201C247.288 282.481 246.391 282.487 245.561 282.217C244.731 281.946 244.016 281.416 243.525 280.707L217.049 258.755C231.498 250.113 248.316 227.433 249.451 213.024Z" fill="#2BC2F7"/>
<path d="M222.848 168.072C233.136 169.788 275.863 164.109 279.04 163.961C279.381 161.652 280.465 155.936 283.024 156.948C285.584 157.96 286.895 162.282 286.378 164.356C292.442 163.294 300.41 175.467 291.345 185.344C278.069 199.938 229.568 202.172 229.568 202.172C229.568 202.172 203.256 170.492 222.848 168.072Z" fill="#2BC2F7"/>
<path opacity="0.1" d="M226.051 187.493C224.001 187.27 221.926 187.494 219.975 188.147C222.789 193.066 226.002 197.756 229.582 202.172C229.582 202.172 239.365 201.715 251.342 199.913C244.749 195.295 234.297 188.789 226.051 187.493Z" fill="black"/>
<path d="M286.379 164.319C292.506 161.849 296.793 160.615 298.205 162.677C299.617 164.738 297.726 169.072 291.8 170.196C286.366 166.862 286.379 164.319 286.379 164.319Z" fill="#2BC2F7"/>
<path d="M290.363 169.455C296.818 169.245 301.142 169.616 301.709 171.924C302.277 174.233 299.024 177.591 293.25 176.616C289.455 171.776 290.363 169.455 290.363 169.455Z" fill="#2BC2F7"/>
<path d="M294.436 175.912C298.583 177.801 301.13 179.456 300.374 181.443C299.617 183.431 296.024 184.962 292.809 182.369C292.771 177.406 294.436 175.912 294.436 175.912Z" fill="#2BC2F7"/>
<path d="M143.862 199.642C139.122 208.741 108.914 238.866 106.884 241.286C104.791 240.162 99.4709 237.582 98.7774 240.212C98.084 242.841 100.82 246.446 102.787 247.249C98.2984 251.373 103.455 264.892 117.033 263.731C136.915 262.027 167.741 225.322 167.741 225.322C167.741 225.322 157.541 185.703 143.862 199.642Z" fill="#2BC2F7"/>
<path opacity="0.1" d="M157.832 213.766C158.885 212.028 160.309 210.533 162.005 209.383C164.353 214.536 166.272 219.866 167.741 225.322C167.741 225.322 161.526 232.73 152.877 241.039C153.041 233.112 153.961 221.013 157.832 213.766Z" fill="black"/>
<path d="M220.819 173.751L186.223 188.258L151.641 202.765C151.641 202.765 155.322 246.545 166.669 261.545C178.016 276.546 199.928 271.928 219.28 263.805C238.633 255.681 257.103 243.347 253.901 224.951C250.699 206.555 220.819 173.751 220.819 173.751Z" fill="#2BC2F7"/>
<path opacity="0.2" d="M205.765 181.937L186.93 189.839L168.106 197.74C168.384 194.147 160.693 227.569 173.805 245.384C182.353 256.99 198.314 253.805 212.346 247.915C226.379 242.026 239.73 232.915 237.045 218.852C232.935 197.283 202.929 179.69 205.765 181.937Z" fill="white"/>
<path opacity="0.2" d="M199.777 187.147L187.169 192.406L174.625 197.678C174.713 195.085 170.363 219.123 179.668 232.359C185.757 241.001 196.486 239.075 205.841 235.149C215.196 231.223 224.021 224.939 221.84 214.666C218.575 198.925 197.785 185.431 199.777 187.147Z" fill="white"/>
<path opacity="0.2" d="M291.787 175.566C292.026 178.813 290.148 181.591 287.588 181.739C285.029 181.887 282.747 179.443 282.545 176.208C282.344 172.973 284.184 170.183 286.744 170.035C289.303 169.887 291.547 172.331 291.787 175.566Z" fill="white"/>
<path d="M110.503 94.2784C60.2362 59.4372 -16.998 80.8086 -23.0622 93.9697C-29.5047 107.983 40.4422 145.725 57.6264 182.196C82.7155 136.552 110.503 94.2784 110.503 94.2784Z" fill="#2F4050"/>
<path opacity="0.5" d="M91.9823 108.563C52.1927 81.4016 -3.91112 93.6243 -7.54211 102.884C-11.4126 112.761 43.2413 142.824 58.5091 169.863C74.0795 137.947 91.9823 108.563 91.9823 108.563Z" fill="#2BC2F7"/>
<path d="M96.9368 101.971C85.6656 102.711 76.1217 106.415 67.7124 115.107C71.5017 113.917 75.5407 113.707 79.4374 114.497C83.3341 115.286 86.9562 117.049 89.9522 119.614L96.9368 101.971Z" fill="#2F4050"/>
<path d="M170.654 69.0303C194.81 -5.61517 280.844 -5.91148 297.991 5.38535C311.014 14.0277 255.553 48.5109 270.418 98.291C220.391 81.5248 170.654 69.0303 170.654 69.0303Z" fill="#2F4050"/>
<path opacity="0.5" d="M193.385 67.4132C213.557 24.2013 260.608 6.91649 282.584 10.7809C303.361 14.4107 241.281 61.8574 253.964 103.625C223.983 83.8708 193.385 67.4132 193.385 67.4132Z" fill="#2BC2F7"/>
<path d="M192.01 60.7461C195.899 58.684 200.166 57.3964 204.565 56.9577C208.964 56.5191 213.409 56.9381 217.642 58.1905C214.531 58.8732 211.654 60.3327 209.29 62.4269C206.926 64.5212 205.156 67.1789 204.151 70.1417L192.01 60.7461Z" fill="#2F4050"/>
<path d="M193.057 57.2397C195.632 54.8824 198.657 53.047 201.959 51.8392C205.261 50.6315 208.774 50.0752 212.296 50.2023C210.038 51.345 208.119 53.0404 206.728 55.1237C205.336 57.207 204.518 59.6075 204.354 62.0918L193.057 57.2397Z" fill="#2F4050"/>
<path d="M285.294 102.106C298.002 131.144 252.161 166.306 188.341 193.085C124.521 219.865 66.9047 228.112 54.1585 199.061C41.4122 170.01 72.1117 100.155 135.931 73.3761C199.751 46.5971 272.585 73.0551 285.294 102.106Z" fill="#2BC2F7"/>
<path opacity="0.1" d="M260.104 104.871C271.88 131.799 235.973 162.664 184.458 184.27C132.944 205.876 85.3753 210.037 73.5998 183.097C61.8243 156.158 90.2923 108.316 141.782 86.7225C193.271 65.1288 248.316 77.9319 260.104 104.871Z" fill="black"/>
<path d="M156.495 144.121C155.386 141.577 158.777 138.664 163.631 136.614C168.485 134.565 172.999 134.145 174.108 136.725C175.218 139.306 173.516 146.034 168.649 148.084C163.783 150.133 157.605 146.664 156.495 144.121Z" fill="#2F4050"/>
<path opacity="0.3" d="M166.796 166.801C166.052 165.072 169.62 162.566 174.486 160.529C179.353 158.492 183.665 157.689 184.408 159.406C185.152 161.122 182.732 166.233 177.878 168.27C173.024 170.307 167.552 168.517 166.796 166.801Z" fill="black"/>
<path opacity="0.4" d="M76.7393 145.849C83.6861 126.366 99.5591 111.909 115.747 108.291C143.043 102.192 151.048 135.663 137.861 158.738C123.135 184.567 90.6077 180.628 87.4305 168.813C82.854 176.677 64.2452 180.789 76.7393 145.849Z" fill="white"/>
<path d="M137.874 123.909C137.874 123.909 136.02 147.626 123.236 156.009C110.452 164.393 91.5659 154.12 91.5659 154.12C91.5659 154.12 93.4192 130.416 106.203 122.02C118.987 113.625 137.874 123.909 137.874 123.909Z" fill="white"/>
<path d="M91.566 153.997C91.4504 148.189 92.302 142.401 94.0876 136.86C94.9652 134.025 96.1752 131.299 97.6933 128.737C99.2262 126.079 101.238 123.716 103.632 121.761C106.098 119.791 109.013 118.431 112.129 117.798C115.156 117.168 118.275 117.084 121.333 117.551C127.253 118.403 132.899 120.555 137.849 123.847C132.471 121.827 126.823 120.579 121.08 120.144C118.326 119.963 115.56 120.213 112.886 120.884C110.274 121.475 107.845 122.669 105.8 124.366C103.681 126.054 101.877 128.088 100.467 130.379L99.8871 131.231L99.3702 132.132C99.0424 132.737 98.6767 133.366 98.3615 133.947C97.769 135.181 97.1008 136.416 96.6091 137.737C94.4589 143.007 92.7718 148.446 91.566 153.997Z" fill="#2F4050"/>
<path d="M171.978 109.539C171.978 109.539 190.788 124.589 205.753 121.267C220.719 117.946 226.203 97.5133 226.203 97.5133C226.203 97.5133 207.405 82.4632 192.427 85.7843C177.449 89.1055 171.978 109.539 171.978 109.539Z" fill="white"/>
<path d="M226.202 97.5136C221.265 94.5521 216.082 92.0039 210.707 89.8959C209.447 89.3774 208.022 88.9823 206.685 88.5378C206.017 88.3279 205.324 88.1798 204.643 87.9946L203.634 87.7353L202.601 87.5625C199.935 86.987 197.19 86.8617 194.481 87.1921C191.817 87.4817 189.26 88.3827 187.018 89.8218C184.677 91.2501 182.587 93.0385 180.827 95.1184C177.185 99.4795 174.212 104.337 172.002 109.539C172.977 103.759 175.279 98.2708 178.734 93.4887C180.501 90.9998 182.713 88.8455 185.265 87.1303C187.894 85.355 190.921 84.2283 194.09 83.8462C197.183 83.4997 200.314 83.7047 203.332 84.4512C206.249 85.1436 209.075 86.1627 211.754 87.4884C217.093 90.0405 221.973 93.4265 226.202 97.5136Z" fill="#2F4050"/>
<path d="M125.856 151.726C133.183 149.981 137.678 142.749 135.896 135.574C134.114 128.398 126.729 123.996 119.402 125.741C112.075 127.487 107.579 134.718 109.362 141.894C111.144 149.069 118.528 153.471 125.856 151.726Z" fill="#2F4050"/>
<path d="M111.663 139.528C112.114 140.549 112.863 141.417 113.817 142.022C114.771 142.626 115.887 142.94 117.023 142.924C118.159 142.908 119.265 142.563 120.201 141.932C121.137 141.301 121.861 140.412 122.281 139.378C122.702 138.345 122.8 137.212 122.564 136.124C122.327 135.035 121.767 134.04 120.953 133.263C120.139 132.486 119.109 131.963 117.991 131.76C116.874 131.556 115.721 131.682 114.676 132.12C113.981 132.412 113.351 132.835 112.823 133.366C112.295 133.896 111.879 134.523 111.6 135.212C111.32 135.9 111.181 136.635 111.192 137.376C111.203 138.117 111.363 138.848 111.663 139.528Z" fill="white"/>
<path d="M205.646 114.189C208.448 107.333 205.044 99.5505 198.043 96.8069C191.042 94.0633 183.095 97.3971 180.293 104.253C177.491 111.109 180.896 118.891 187.897 121.635C194.898 124.378 202.845 121.045 205.646 114.189Z" fill="#2F4050"/>
<path d="M182 110.007C182.451 111.029 183.201 111.897 184.155 112.501C185.109 113.106 186.224 113.42 187.361 113.404C188.497 113.388 189.603 113.042 190.539 112.411C191.474 111.78 192.198 110.892 192.619 109.858C193.039 108.824 193.138 107.691 192.901 106.603C192.665 105.515 192.104 104.519 191.29 103.743C190.477 102.966 189.446 102.443 188.329 102.239C187.212 102.036 186.058 102.161 185.014 102.6C184.317 102.89 183.686 103.313 183.158 103.843C182.629 104.373 182.212 105.001 181.932 105.689C181.652 106.378 181.514 107.114 181.526 107.855C181.537 108.596 181.699 109.328 182 110.007Z" fill="white"/>
<path d="M124.636 139.553C124.817 139.96 125.117 140.305 125.498 140.545C125.88 140.785 126.325 140.909 126.778 140.901C127.232 140.893 127.672 140.754 128.045 140.502C128.418 140.249 128.706 139.894 128.872 139.481C129.039 139.069 129.077 138.617 128.982 138.183C128.887 137.749 128.663 137.352 128.338 137.043C128.013 136.733 127.601 136.525 127.156 136.445C126.71 136.364 126.25 136.414 125.833 136.59C125.274 136.828 124.835 137.274 124.61 137.829C124.386 138.384 124.395 139.004 124.636 139.553Z" fill="white"/>
<path d="M194.973 110.032C195.148 110.441 195.442 110.79 195.818 111.036C196.195 111.282 196.637 111.413 197.09 111.413C197.542 111.413 197.985 111.282 198.362 111.037C198.738 110.791 199.033 110.442 199.207 110.033C199.382 109.624 199.429 109.174 199.343 108.739C199.257 108.304 199.042 107.904 198.724 107.588C198.406 107.273 198 107.056 197.557 106.966C197.114 106.876 196.654 106.916 196.234 107.081C195.951 107.191 195.693 107.355 195.476 107.564C195.259 107.772 195.086 108.022 194.969 108.297C194.851 108.572 194.791 108.867 194.792 109.165C194.793 109.463 194.854 109.758 194.973 110.032Z" fill="white"/>
<path d="M187.649 152.146C186.956 152.578 186.262 153.022 185.544 153.381C184.825 153.739 184.031 154.084 183.236 154.368C181.614 154.924 179.912 155.22 178.193 155.245C176.426 155.221 174.682 154.851 173.062 154.158C171.396 153.443 169.917 152.366 168.738 151.01L170.793 150.146C170.976 151.921 170.752 153.713 170.137 155.393C169.532 157.018 168.602 158.508 167.401 159.776C166.202 160.978 164.809 161.979 163.279 162.739C162.523 163.095 161.748 163.412 160.959 163.69C160.152 163.924 159.345 164.122 158.551 164.307C159.269 163.887 159.988 163.504 160.694 163.072C161.4 162.64 162.056 162.245 162.686 161.751C163.934 160.843 165.057 159.781 166.027 158.591C166.936 157.413 167.627 156.088 168.07 154.677C168.288 153.98 168.44 153.265 168.523 152.541C168.605 151.852 168.605 151.156 168.523 150.467C168.494 150.177 168.58 149.887 168.763 149.657C168.946 149.427 169.212 149.275 169.507 149.232C169.707 149.207 169.911 149.232 170.098 149.306C170.286 149.379 170.451 149.498 170.578 149.652C171.037 150.182 171.548 150.666 172.104 151.096C172.702 151.524 173.335 151.904 173.995 152.232C175.346 152.881 176.8 153.299 178.294 153.467C179.847 153.604 181.412 153.537 182.946 153.269C183.741 153.171 184.51 152.924 185.304 152.776C186.098 152.627 186.855 152.368 187.649 152.146Z" fill="#2F4050"/>
<path d="M169.657 151.503C169.433 151.501 169.214 151.436 169.026 151.316C168.838 151.195 168.69 151.025 168.598 150.824L165.106 142.787C164.988 142.513 164.986 142.205 165.099 141.93C165.212 141.655 165.432 141.434 165.711 141.317C165.85 141.257 165.999 141.224 166.151 141.221C166.303 141.218 166.454 141.245 166.595 141.3C166.737 141.355 166.865 141.438 166.973 141.543C167.081 141.647 167.166 141.772 167.224 141.91L170.741 149.935C170.817 150.107 170.847 150.293 170.83 150.479C170.814 150.665 170.75 150.844 170.645 150.999C170.539 151.155 170.397 151.283 170.229 151.37C170.061 151.458 169.873 151.504 169.682 151.503H169.657Z" fill="#2F4050"/>
<path d="M55.0669 168.64C44.8422 173.344 37.4163 183.344 35.563 195.184C44.59 184.393 55.1174 187.566 55.1174 187.566L55.0669 168.64Z" fill="#2BC2F7"/>
<path d="M56.1133 197.814C54.3286 201.792 53.5623 206.136 53.8809 210.469C54.1995 214.802 55.5933 218.994 57.9414 222.68C57.8405 212.062 65.5816 208.901 65.5816 208.901L56.1133 197.814Z" fill="#2BC2F7"/>
<path d="M55.5207 181.518C45.2203 189.049 39.3199 201.852 39.9377 215.482C47.5023 201.42 59.9838 202.617 59.9838 202.617L55.5207 181.518Z" fill="#2BC2F7"/>
<path d="M262.185 81.7347C272.712 77.7345 285.193 79.4136 295.267 86.2164C281.058 85.1794 276.141 94.8588 276.141 94.8588L262.185 81.7347Z" fill="#2BC2F7"/>
<path d="M279.659 102.106C288.144 100.76 297.398 101.81 303.071 107.217C296.106 107.213 289.364 109.618 284.034 114.008L279.659 102.106Z" fill="#2BC2F7"/>
<path d="M276.822 100.896C284.525 104.6 291.409 110.773 292.796 118.416C287.14 114.43 280.227 112.532 273.279 113.058L276.822 100.896Z" fill="#2BC2F7"/>
<path d="M271.413 90.9447C284.084 88.8335 297.612 93.4881 307.269 103.291C291.661 98.9575 283.932 108.625 283.932 108.625L271.413 90.9447Z" fill="#2BC2F7"/>
<path d="M128.544 78.8827C128.065 71.8947 131.507 65.882 140.03 59.6719C138.239 69.6477 145.615 72.1416 145.615 72.1416L128.544 78.8827Z" fill="#2BC2F7"/>
<path d="M137.848 74.9939C139.538 66.87 148.035 58.9437 160.403 53.8447C151.578 63.1538 158.689 68.9319 158.689 68.9319L137.848 74.9939Z" fill="#2BC2F7"/>
<path d="M67.5105 220.89C67.3982 220.886 67.2893 220.852 67.1953 220.791C67.1328 220.75 67.0792 220.698 67.0376 220.636C66.9961 220.575 66.9675 220.506 66.9534 220.433C66.9393 220.361 66.9401 220.287 66.9556 220.215C66.9712 220.142 67.0013 220.074 67.044 220.013C100.467 171.098 161.286 151.8 161.891 151.615C162.038 151.572 162.197 151.587 162.333 151.656C162.469 151.725 162.573 151.843 162.622 151.986C162.666 152.128 162.651 152.281 162.58 152.413C162.509 152.545 162.389 152.644 162.244 152.689C161.639 152.874 101.198 172.061 67.9896 220.594C67.9454 220.682 67.8773 220.756 67.7928 220.808C67.7082 220.86 67.6105 220.889 67.5105 220.89Z" fill="#2F4050"/>
<path d="M76.7138 251.705C76.6513 251.717 76.5872 251.717 76.5247 251.705C76.3795 251.657 76.2596 251.555 76.1911 251.421C76.1226 251.287 76.1111 251.132 76.1591 250.989C99.231 184.998 159.621 156.404 160.227 156.133C160.362 156.069 160.518 156.061 160.659 156.109C160.801 156.158 160.918 156.26 160.983 156.392C161.017 156.458 161.037 156.531 161.043 156.605C161.048 156.679 161.038 156.753 161.013 156.823C160.988 156.894 160.95 156.958 160.899 157.014C160.848 157.069 160.787 157.114 160.718 157.145C160.113 157.429 100.202 185.826 77.2559 251.36C77.2095 251.462 77.1335 251.55 77.0373 251.611C76.941 251.673 76.8287 251.705 76.7138 251.705Z" fill="#2F4050"/>
<path d="M176.2 146.787C176.099 146.789 176 146.763 175.913 146.713C175.826 146.663 175.755 146.59 175.708 146.503C175.668 146.44 175.641 146.37 175.63 146.297C175.618 146.224 175.622 146.149 175.641 146.077C175.66 146.006 175.693 145.938 175.74 145.88C175.786 145.821 175.844 145.773 175.91 145.737C176.465 145.416 232.027 114.464 291.459 123.279C291.533 123.288 291.605 123.312 291.67 123.349C291.734 123.386 291.791 123.435 291.836 123.494C291.881 123.553 291.913 123.62 291.93 123.691C291.948 123.763 291.95 123.837 291.938 123.909C291.91 124.055 291.827 124.186 291.706 124.275C291.585 124.364 291.433 124.405 291.282 124.39C232.266 115.625 177.045 146.392 176.553 146.713C176.447 146.773 176.323 146.799 176.2 146.787Z" fill="#2F4050"/>
<path d="M295.443 150.936C295.385 150.949 295.324 150.949 295.266 150.936C224.916 128.713 181.281 148.467 180.84 148.689C180.703 148.753 180.545 148.761 180.402 148.711C180.259 148.661 180.142 148.558 180.077 148.423C180.012 148.289 180.004 148.135 180.055 147.995C180.105 147.855 180.211 147.74 180.348 147.676C180.777 147.467 224.79 127.478 295.619 149.862C295.762 149.912 295.88 150.015 295.948 150.148C296.016 150.281 296.03 150.435 295.985 150.578C295.943 150.685 295.869 150.777 295.772 150.841C295.675 150.905 295.56 150.938 295.443 150.936Z" fill="#2F4050"/>
</g>
</svg>
