<svg width="545" height="172" viewBox="0 0 545 172" fill="none" xmlns="http://www.w3.org/2000/svg">
<g opacity="0.1">
<path d="M630.38 116.245H0V116.553H630.38V116.245Z" fill="#EEEEEE"/>
<path d="M567.216 127.998H452.613V128.306H567.216V127.998Z" fill="#EEEEEE"/>
<path d="M417.589 124.652H386.208V124.96H417.589V124.652Z" fill="#EEEEEE"/>
<path d="M489.313 139.468H440.66V139.776H489.313V139.468Z" fill="#EEEEEE"/>
<path d="M94.6832 137.394H66.1396V137.702H94.6832V137.394Z" fill="#EEEEEE"/>
<path d="M139.806 137.394H105.904V137.702H139.806V137.394Z" fill="#EEEEEE"/>
<path d="M283.861 132.184H224.807V132.492H283.861V132.184Z" fill="#EEEEEE"/>
<path d="M298.8 61.1807H55.3602C53.4531 61.1774 51.6252 60.4333 50.2779 59.1115C48.9306 57.7898 48.1738 55.9985 48.1738 54.131V-280.984C48.1904 -282.841 48.9545 -284.616 50.3 -285.924C51.6456 -287.233 53.4639 -287.968 55.3602 -287.972H298.8C300.71 -287.972 302.541 -287.229 303.891 -285.907C305.241 -284.585 305.999 -282.792 305.999 -280.922V54.131C305.999 56.0007 305.241 57.7938 303.891 59.1159C302.541 60.438 300.71 61.1807 298.8 61.1807ZM55.3602 -287.725C53.5367 -287.721 51.789 -287.01 50.5008 -285.746C49.2125 -284.482 48.489 -282.769 48.489 -280.984V54.131C48.489 55.9167 49.2125 57.6294 50.5008 58.8933C51.789 60.1571 53.5367 60.8688 55.3602 60.872H298.8C300.625 60.8688 302.374 60.1575 303.664 58.894C304.954 57.6305 305.681 55.9178 305.684 54.131V-280.984C305.681 -282.771 304.954 -284.483 303.664 -285.747C302.374 -287.01 300.625 -287.721 298.8 -287.725H55.3602Z" fill="#EEEEEE"/>
<path d="M571.515 61.1807H328.062C326.154 61.1774 324.325 60.4337 322.976 59.1123C321.626 57.7909 320.867 55.9997 320.863 54.131V-280.984C320.883 -282.842 321.65 -284.617 322.998 -285.925C324.345 -287.233 326.165 -287.969 328.062 -287.972H571.515C573.409 -287.965 575.224 -287.228 576.567 -285.92C577.91 -284.612 578.672 -282.838 578.689 -280.984V54.131C578.689 55.9964 577.934 57.7858 576.589 59.1072C575.244 60.4285 573.42 61.1742 571.515 61.1807ZM328.062 -287.725C326.238 -287.721 324.489 -287.01 323.198 -285.747C321.908 -284.483 321.182 -282.771 321.178 -280.984V54.131C321.182 55.9178 321.908 57.6305 323.198 58.894C324.489 60.1575 326.238 60.8688 328.062 60.872H571.515C573.34 60.8688 575.089 60.1575 576.379 58.894C577.669 57.6305 578.395 55.9178 578.399 54.131V-280.984C578.395 -282.771 577.669 -284.483 576.379 -285.747C575.089 -287.01 573.34 -287.721 571.515 -287.725H328.062Z" fill="#EEEEEE"/>
<path d="M541.08 -32.2689C539.213 -32.2625 537.353 -32.026 535.545 -31.5652C533.757 -33.9477 531.492 -35.9479 528.887 -37.4437C526.283 -38.9394 523.394 -39.8992 520.398 -40.2644C517.402 -40.6296 514.361 -40.3925 511.461 -39.5675C508.562 -38.7426 505.865 -37.3472 503.535 -35.4666C499.711 -41.7929 493.939 -46.7705 487.048 -49.6853C480.156 -52.6002 472.499 -53.3024 465.174 -51.6913C457.85 -50.0801 451.235 -46.2384 446.278 -40.7174C441.321 -35.1963 438.278 -28.2797 437.584 -20.9597C433.614 -21.824 429.489 -21.735 425.562 -20.7003C421.634 -19.6655 418.021 -17.7157 415.029 -15.0173C412.038 -12.3188 409.757 -8.9518 408.382 -5.20341C407.007 -1.45504 406.578 2.56345 407.133 6.50918C407.687 10.4549 409.208 14.2108 411.565 17.4564C413.922 20.7021 417.047 23.3411 420.671 25.1484C424.295 26.9557 428.312 27.8776 432.379 27.8355C436.446 27.7934 440.442 26.7886 444.027 24.9066C445.631 30.5808 448.938 35.6527 453.519 39.4652C458.1 43.2777 463.745 45.6553 469.722 46.2898C475.7 46.9244 481.734 45.7867 487.043 43.0242C492.352 40.2617 496.692 36.0016 499.5 30.7958C504.312 34.8172 510.187 37.4224 516.448 38.31C522.708 39.1975 529.097 38.3312 534.875 35.8112C540.654 33.2913 545.585 29.2206 549.1 24.0703C552.614 18.92 554.568 12.9005 554.734 6.70823C558.407 3.93287 561.101 0.101048 562.437 -4.2496C563.773 -8.60025 563.685 -13.2514 562.184 -17.5504C560.684 -21.8493 557.847 -25.5805 554.071 -28.2201C550.295 -30.8598 545.77 -32.2757 541.131 -32.2689H541.08Z" fill="#F8FAFB"/>
<path d="M315.19 172C450.195 172 559.639 165.743 559.639 158.024C559.639 150.305 450.195 144.048 315.19 144.048C180.185 144.048 70.7412 150.305 70.7412 158.024C70.7412 165.743 180.185 172 315.19 172Z" fill="#F8FAFB"/>
<path d="M171.602 126.554H103.105C101.5 126.537 99.9677 125.902 98.8393 124.785C97.7109 123.669 97.078 122.161 97.0781 120.59V93.0705C97.0812 91.6649 97.5901 90.3053 98.5154 89.2308L175.926 -0.896949C176.499 -1.56215 177.213 -2.09684 178.019 -2.46363C178.825 -2.83042 179.702 -3.02048 180.591 -3.02051H210.257C211.872 -3.02051 213.42 -2.39224 214.562 -1.27392C215.704 -0.15559 216.346 1.36121 216.346 2.94276V86.8974C216.346 88.4789 216.988 89.9957 218.13 91.114C219.272 92.2323 220.82 92.8606 222.435 92.8606H230.265C231.88 92.8606 233.429 93.4889 234.571 94.6072C235.713 95.7255 236.354 97.2423 236.354 98.8239V120.541C236.354 122.122 235.713 123.639 234.571 124.758C233.429 125.876 231.88 126.504 230.265 126.504H222.435C220.82 126.504 219.272 127.132 218.13 128.251C216.988 129.369 216.346 130.886 216.346 132.467V149.752C216.346 151.334 215.704 152.85 214.562 153.969C213.42 155.087 211.872 155.715 210.257 155.715H183.781C182.166 155.715 180.617 155.087 179.475 153.969C178.333 152.85 177.691 151.334 177.691 149.752V132.467C177.678 130.894 177.03 129.39 175.89 128.283C174.749 127.175 173.208 126.553 171.602 126.554ZM177.691 88.7369V55.1551C177.706 54.2879 177.444 53.4378 176.942 52.723C176.44 52.0083 175.723 51.4644 174.891 51.167C174.059 50.8696 173.153 50.8334 172.299 51.0636C171.445 51.2938 170.686 51.7788 170.127 52.4513L140.99 86.0331C140.464 86.6396 140.125 87.3811 140.014 88.17C139.904 88.9589 140.026 89.7622 140.367 90.4853C140.708 91.2083 141.252 91.8207 141.937 92.2504C142.622 92.68 143.417 92.9089 144.231 92.91H173.379C173.943 92.9165 174.503 92.8134 175.026 92.6066C175.548 92.3998 176.024 92.0935 176.425 91.7053C176.826 91.3172 177.145 90.8549 177.362 90.3454C177.579 89.8359 177.691 89.2891 177.691 88.7369Z" fill="#2F4050"/>
<path d="M250.097 77.057C250.097 47.4259 255.56 26.6636 266.487 14.77C277.413 2.87647 294.026 -3.04973 316.325 -3.00858C327.05 -3.00858 335.875 -1.71223 342.801 0.880489C349.06 3.09188 354.792 6.53283 359.644 10.9921C363.736 14.8114 367.202 19.2256 369.92 24.0791C372.613 29.1596 374.642 34.5521 375.959 40.1293C378.968 52.0401 380.467 64.2686 380.422 76.5384C380.422 104.861 375.526 125.586 365.734 138.714C355.942 151.842 339.094 158.427 315.19 158.468C301.742 158.468 290.904 156.373 282.675 152.184C274.291 147.927 267.232 141.539 262.238 133.689C258.389 127.928 255.396 120.067 253.262 110.108C251.052 99.2264 249.991 88.1511 250.097 77.057ZM294.022 77.1557C294.022 97.0332 295.816 110.614 299.405 117.898C302.994 125.183 308.193 128.825 315.001 128.825C317.166 128.845 319.313 128.445 321.319 127.649C323.325 126.852 325.15 125.674 326.688 124.183C329.991 121.096 332.42 116.215 333.975 109.54C335.53 102.865 336.308 92.4692 336.308 78.3533C336.308 57.6363 334.513 43.7097 330.924 36.5735C327.335 29.4374 321.956 25.8694 314.787 25.8694C307.457 25.8694 302.166 29.5074 298.914 36.7834C295.661 44.0595 294.03 57.5169 294.022 77.1557Z" fill="#2F4050"/>
<path d="M468.612 126.554H400.127C398.512 126.554 396.963 125.925 395.821 124.807C394.679 123.689 394.038 122.172 394.038 120.59V93.0705C394.037 91.6664 394.541 90.307 395.462 89.2308L472.885 -0.896949C473.456 -1.56185 474.168 -2.09648 474.971 -2.46333C475.775 -2.83018 476.651 -3.02035 477.538 -3.02051H507.216C508.831 -3.02051 510.38 -2.39224 511.522 -1.27392C512.664 -0.15559 513.305 1.36121 513.305 2.94276V86.8973C513.299 87.6877 513.453 88.4715 513.758 89.2032C514.063 89.9348 514.514 90.5997 515.084 91.1592C515.655 91.7186 516.333 92.1615 517.079 92.4621C517.826 92.7627 518.626 92.9149 519.433 92.91H527.249C528.865 92.91 530.413 93.5382 531.555 94.6566C532.697 95.7749 533.339 97.2916 533.339 98.8732V120.59C533.339 122.172 532.697 123.689 531.555 124.807C530.413 125.925 528.865 126.554 527.249 126.554H519.433C517.818 126.554 516.269 127.182 515.127 128.3C513.985 129.418 513.343 130.935 513.343 132.517V149.802C513.343 151.383 512.702 152.9 511.56 154.018C510.418 155.137 508.869 155.765 507.254 155.765H480.778C479.163 155.765 477.614 155.137 476.472 154.018C475.33 152.9 474.688 151.383 474.688 149.802V132.517C474.688 130.937 474.049 129.422 472.909 128.305C471.77 127.187 470.224 126.557 468.612 126.554ZM474.701 88.7369V55.1551C474.7 54.3024 474.432 53.4706 473.933 52.7716C473.434 52.0726 472.729 51.54 471.912 51.2455C471.094 50.9509 470.205 50.9086 469.362 51.1242C468.52 51.3398 467.765 51.8029 467.199 52.4513L438.051 86.0331C437.525 86.638 437.187 87.3772 437.076 88.1639C436.964 88.9505 437.084 89.752 437.422 90.4741C437.759 91.1962 438.3 91.809 438.981 92.2405C439.662 92.672 440.455 92.9042 441.266 92.91H470.402C470.965 92.9149 471.523 92.8105 472.044 92.603C472.566 92.3955 473.04 92.0889 473.44 91.7009C473.839 91.3129 474.157 90.8512 474.373 90.3425C474.59 89.8338 474.701 89.2881 474.701 88.7369Z" fill="#2F4050"/>
<path d="M198.973 13.1289C197.801 15.5982 196.565 17.8205 195.367 20.1169L191.837 26.9691L188.307 33.8459C187.122 36.1547 185.899 38.4634 184.449 40.7351C184.666 38.0896 185.186 35.4763 186 32.9446C186.773 30.3947 187.773 27.916 188.988 25.5369C190.198 23.1555 191.633 20.8904 193.275 18.7712C194.897 16.6403 196.815 14.7412 198.973 13.1289Z" fill="white"/>
<path d="M203.461 18.9316C202.364 21.0675 201.23 23.08 200.12 25.1048L196.855 31.1545L193.59 37.2288C192.493 39.2659 191.371 41.3154 190.034 43.3155C190.27 40.9594 190.773 38.6363 191.534 36.3893C192.271 34.1384 193.204 31.9534 194.321 29.8581C195.435 27.7533 196.757 25.7602 198.267 23.9072C199.75 22.0168 201.499 20.3416 203.461 18.9316Z" fill="white"/>
<path d="M191.207 10.6963C190.236 12.9186 189.202 15.0051 188.194 17.104L185.231 23.3882L182.268 29.6848C181.26 31.7961 180.238 33.9196 179.003 36.0061C179.118 33.6161 179.512 31.2468 180.175 28.9441C180.807 26.6313 181.651 24.3793 182.697 22.2153C183.713 20.0511 184.933 17.9844 186.341 16.0422C187.706 14.0511 189.343 12.2525 191.207 10.6963Z" fill="white"/>
<path d="M480.349 104.528C482.507 106.155 484.424 108.067 486.048 110.208C487.723 112.328 489.192 114.597 490.435 116.986C491.643 119.367 492.638 121.845 493.411 124.393C494.222 126.926 494.747 129.539 494.974 132.184C493.511 129.912 492.301 127.603 491.103 125.295L487.573 118.418L484.043 111.566C482.795 109.22 481.61 106.948 480.349 104.528Z" fill="white"/>
<path d="M475.911 110.33C477.862 111.735 479.606 113.397 481.093 115.269C482.605 117.125 483.926 119.122 485.039 121.232C486.167 123.322 487.099 125.508 487.825 127.763C488.597 130.008 489.104 132.332 489.338 134.689C488.002 132.689 486.88 130.64 485.77 128.603L482.505 122.528L479.24 116.479C478.13 114.515 476.995 112.466 475.911 110.33Z" fill="white"/>
<path d="M488.153 102.096C490.041 103.636 491.703 105.422 493.095 107.405C494.504 109.344 495.72 111.411 496.726 113.578C497.767 115.744 498.61 117.996 499.248 120.306C499.906 122.61 500.299 124.979 500.421 127.369C499.16 125.27 498.151 123.158 497.155 121.047L494.192 114.738L491.23 108.466C490.171 106.405 489.175 104.318 488.153 102.096Z" fill="white"/>
<path d="M377.119 139.975H393.862V144.148H383.385V147.296H393.106V151.333H383.385V155.259H394.165V159.741H377.119V139.975Z" fill="#2BC2F7"/>
<path d="M394.164 162.16H377.119C376.473 162.16 375.855 161.909 375.398 161.462C374.942 161.016 374.686 160.409 374.686 159.777V140.023C374.684 139.71 374.746 139.4 374.867 139.11C374.989 138.82 375.168 138.557 375.395 138.335C375.621 138.113 375.89 137.938 376.186 137.819C376.482 137.7 376.799 137.639 377.119 137.641H393.862C394.182 137.639 394.499 137.7 394.795 137.819C395.091 137.938 395.36 138.113 395.586 138.335C395.812 138.557 395.991 138.82 396.113 139.11C396.235 139.4 396.297 139.71 396.295 140.023V144.147C395.788 144.483 395.428 144.993 395.288 145.576C395.148 146.16 395.237 146.774 395.539 147.295V151.333C395.258 151.629 395.058 151.99 394.958 152.382C394.859 152.774 394.862 153.185 394.967 153.575C395.073 153.966 395.278 154.324 395.563 154.616C395.848 154.908 396.204 155.125 396.598 155.246V159.728C396.604 160.045 396.546 160.36 396.427 160.655C396.308 160.95 396.13 161.219 395.903 161.445C395.676 161.672 395.406 161.852 395.107 161.974C394.809 162.097 394.488 162.16 394.164 162.16ZM379.552 157.395H382.238C381.852 157.19 381.531 156.887 381.309 156.517C381.087 156.147 380.972 155.725 380.977 155.296V151.382C381.323 151.165 381.608 150.867 381.805 150.514C382.003 150.162 382.106 149.766 382.106 149.363C382.106 148.961 382.003 148.565 381.805 148.213C381.608 147.86 381.323 147.561 380.977 147.345V144.147C380.977 143.795 381.057 143.447 381.212 143.128C381.367 142.81 381.592 142.53 381.872 142.308H379.577L379.552 157.395Z" fill="#2BC2F7"/>
<path d="M397.619 159.777V140.023H408.033C409.524 139.971 411.015 140.133 412.458 140.505C413.484 140.805 414.374 141.441 414.979 142.307C415.428 142.936 415.739 143.648 415.894 144.399C416.048 145.151 416.043 145.925 415.879 146.675C415.715 147.424 415.394 148.133 414.938 148.756C414.482 149.378 413.899 149.903 413.227 150.295C412.543 150.671 411.803 150.938 411.033 151.085C411.608 151.251 412.155 151.497 412.66 151.814C413.033 152.119 413.368 152.467 413.656 152.851C413.986 153.237 414.281 153.65 414.538 154.086L417.564 159.827H410.504L407.163 153.777C406.894 153.196 406.508 152.676 406.028 152.246C405.581 151.941 405.047 151.781 404.502 151.789H403.948V159.827L397.619 159.777ZM403.922 147.999H406.557C407.115 147.952 407.667 147.861 408.209 147.727C408.618 147.651 408.983 147.426 409.23 147.098C409.519 146.707 409.655 146.228 409.613 145.748C409.571 145.267 409.355 144.818 409.003 144.48C408.302 144.069 407.484 143.892 406.671 143.974H403.922V147.999Z" fill="#2BC2F7"/>
<path d="M417.513 162.16H410.453C410.016 162.16 409.586 162.046 409.209 161.829C408.832 161.612 408.522 161.3 408.31 160.925L406.331 157.32V159.789C406.327 160.42 406.07 161.024 405.614 161.47C405.159 161.917 404.542 162.169 403.897 162.172H397.593C397.274 162.172 396.958 162.11 396.662 161.991C396.367 161.871 396.099 161.695 395.873 161.474C395.647 161.253 395.468 160.99 395.345 160.701C395.223 160.412 395.16 160.102 395.16 159.789V140.035C395.159 139.722 395.22 139.411 395.342 139.121C395.464 138.832 395.643 138.568 395.869 138.347C396.095 138.125 396.364 137.95 396.66 137.83C396.956 137.711 397.273 137.651 397.593 137.652H408.007C409.756 137.594 411.503 137.798 413.189 138.257C414.698 138.728 416.003 139.68 416.896 140.961C417.831 142.305 418.312 143.903 418.27 145.529C418.297 146.946 417.936 148.345 417.223 149.579C416.791 150.306 416.237 150.957 415.585 151.505C415.984 151.98 416.335 152.493 416.631 153.036L419.644 158.74C419.837 159.103 419.931 159.508 419.917 159.917C419.903 160.326 419.782 160.724 419.566 161.074C419.349 161.424 419.044 161.713 418.68 161.914C418.317 162.115 417.906 162.221 417.488 162.221L417.513 162.16ZM411.903 157.394H413.529L412.269 155.135C412.102 154.832 411.899 154.55 411.664 154.295C411.488 154.074 411.298 153.864 411.096 153.665C410.799 153.51 410.487 153.386 410.163 153.295C409.852 153.19 409.565 153.026 409.319 152.813L411.903 157.394ZM400.052 157.394H401.464V151.739C401.464 151.378 401.548 151.021 401.709 150.696C401.871 150.371 402.106 150.086 402.397 149.863C402.107 149.642 401.871 149.36 401.71 149.037C401.548 148.713 401.464 148.358 401.464 147.998V143.974C401.464 143.375 401.694 142.798 402.107 142.356H400.052V157.394ZM407.44 150.295C407.897 150.641 408.293 151.058 408.613 151.53C408.566 151.323 408.545 151.111 408.549 150.9C408.573 150.597 408.649 150.3 408.776 150.023H408.663C408.184 150.171 407.78 150.245 407.44 150.32V150.295ZM410.251 142.455L410.541 142.665C411.027 143.066 411.413 143.571 411.671 144.139C411.929 144.708 412.051 145.327 412.029 145.949C412.036 146.881 411.725 147.789 411.147 148.529C411.417 148.458 411.676 148.35 411.916 148.208C412.386 147.941 412.78 147.564 413.063 147.11C413.335 146.604 413.465 146.038 413.441 145.467C413.475 144.818 413.299 144.174 412.937 143.628C412.639 143.188 412.193 142.864 411.676 142.714C411.21 142.587 410.733 142.5 410.251 142.455Z" fill="#2BC2F7"/>
<path d="M419.594 159.777V140.023H430.008C431.503 139.971 432.998 140.133 434.445 140.505C435.473 140.803 436.364 141.44 436.967 142.307C437.415 142.936 437.726 143.648 437.881 144.4C438.036 145.151 438.031 145.926 437.867 146.675C437.702 147.425 437.382 148.133 436.926 148.756C436.469 149.379 435.887 149.903 435.215 150.296C434.531 150.671 433.79 150.938 433.021 151.086C433.596 151.252 434.143 151.497 434.647 151.814C435.026 152.118 435.364 152.466 435.656 152.851C435.979 153.24 436.269 153.652 436.526 154.086L439.552 159.827H432.441L429.1 153.777C428.836 153.194 428.45 152.672 427.965 152.246C427.521 151.936 426.985 151.776 426.44 151.789H425.885V159.827L419.594 159.777ZM425.898 147.999H428.533C429.09 147.953 429.642 147.862 430.184 147.727C430.593 147.651 430.958 147.426 431.205 147.098C431.468 146.771 431.606 146.365 431.596 145.95C431.613 145.675 431.566 145.4 431.459 145.146C431.352 144.891 431.188 144.664 430.978 144.48C430.277 144.069 429.459 143.892 428.646 143.974H425.898V147.999Z" fill="#2BC2F7"/>
<path d="M439.488 162.16H432.44C432.003 162.161 431.574 162.046 431.197 161.829C430.82 161.612 430.509 161.3 430.297 160.925L428.318 157.32V159.789C428.318 160.421 428.061 161.027 427.605 161.474C427.149 161.921 426.53 162.172 425.885 162.172H419.581C418.936 162.169 418.319 161.917 417.864 161.471C417.408 161.025 417.151 160.42 417.147 159.789V140.035C417.147 139.403 417.404 138.797 417.86 138.35C418.316 137.904 418.935 137.653 419.581 137.653H429.995C431.743 137.594 433.491 137.798 435.176 138.258C436.691 138.724 438.001 139.677 438.896 140.961C439.741 142.239 440.217 143.718 440.273 145.24C440.328 146.762 439.961 148.27 439.211 149.604C438.779 150.328 438.229 150.978 437.584 151.53C437.98 152.008 438.33 152.521 438.631 153.061L441.631 158.765C441.824 159.128 441.918 159.533 441.904 159.942C441.891 160.351 441.77 160.749 441.553 161.099C441.336 161.449 441.031 161.738 440.668 161.939C440.304 162.14 439.893 162.246 439.476 162.246L439.488 162.16ZM433.878 157.394H435.504L434.306 155.135C434.125 154.839 433.918 154.558 433.689 154.295C433.522 154.067 433.332 153.856 433.121 153.666C432.825 153.51 432.512 153.386 432.188 153.295C431.882 153.189 431.599 153.025 431.356 152.814L433.878 157.394ZM422.027 157.394H423.439V151.74C423.439 151.378 423.523 151.021 423.684 150.696C423.846 150.371 424.081 150.086 424.372 149.863C424.081 149.643 423.846 149.36 423.684 149.037C423.523 148.714 423.439 148.359 423.439 147.999V143.974C423.439 143.373 423.673 142.794 424.094 142.356H422.027V157.394ZM429.415 150.32C429.872 150.666 430.268 151.083 430.587 151.554C430.555 151.346 430.555 151.133 430.587 150.925C430.6 150.622 430.673 150.324 430.802 150.048H430.701C430.159 150.172 429.755 150.246 429.415 150.32ZM432.239 142.48L432.516 142.69C433.002 143.091 433.388 143.595 433.646 144.164C433.903 144.733 434.026 145.352 434.004 145.974C434.01 146.906 433.7 147.814 433.121 148.554C433.395 148.482 433.658 148.374 433.903 148.233C434.369 147.966 434.759 147.588 435.038 147.134C435.309 146.629 435.44 146.063 435.416 145.492C435.45 144.842 435.273 144.199 434.912 143.653C434.614 143.213 434.168 142.889 433.651 142.739C433.19 142.604 432.717 142.509 432.239 142.455V142.48Z" fill="#2BC2F7"/>
<path d="M440.22 149.889C440.081 148.51 440.256 147.118 440.732 145.813C441.208 144.508 441.973 143.323 442.972 142.342C443.971 141.361 445.18 140.609 446.511 140.14C447.842 139.671 449.263 139.496 450.672 139.629C452.084 139.541 453.499 139.73 454.835 140.186C456.171 140.642 457.4 141.355 458.451 142.283C459.39 143.275 460.116 144.442 460.584 145.715C461.052 146.988 461.252 148.34 461.174 149.691C461.252 151.654 460.845 153.606 459.989 155.383C459.21 156.843 458.008 158.045 456.534 158.84C454.8 159.718 452.863 160.143 450.911 160.074C448.967 160.138 447.033 159.775 445.25 159.013C443.719 158.27 442.453 157.091 441.619 155.63C440.636 153.873 440.153 151.891 440.22 149.889ZM446.524 149.889C446.386 151.41 446.787 152.931 447.658 154.198C448.061 154.607 448.543 154.933 449.077 155.156C449.611 155.378 450.186 155.493 450.766 155.493C451.347 155.493 451.921 155.378 452.455 155.156C452.989 154.933 453.472 154.607 453.874 154.198C454.754 152.825 455.144 151.205 454.983 149.592C455.102 148.139 454.691 146.691 453.824 145.506C453.427 145.087 452.942 144.76 452.401 144.546C451.861 144.333 451.279 144.239 450.697 144.271C450.124 144.251 449.554 144.358 449.03 144.584C448.506 144.811 448.041 145.151 447.671 145.58C446.769 146.844 446.346 148.376 446.473 149.913L446.524 149.889Z" fill="#2BC2F7"/>
<path d="M450.912 162.494C448.6 162.558 446.303 162.111 444.192 161.185C442.227 160.244 440.601 158.742 439.527 156.876C438.31 154.745 437.708 152.329 437.787 149.888C437.878 147.389 438.696 144.968 440.144 142.908C441.593 140.848 443.611 139.236 445.963 138.261C448.314 137.286 450.901 136.989 453.419 137.404C455.937 137.819 458.282 138.929 460.178 140.604C461.355 141.816 462.268 143.25 462.862 144.819C463.456 146.387 463.718 148.057 463.633 149.728C463.711 152.079 463.205 154.414 462.158 156.531C461.166 158.399 459.63 159.937 457.745 160.951C455.641 162.034 453.287 162.566 450.912 162.494ZM452.614 142.135C453.779 142.448 454.823 143.092 455.614 143.987C456.893 145.594 457.517 147.609 457.367 149.641C457.367 152.469 456.825 154.469 455.703 155.815C454.982 156.65 454.04 157.274 452.979 157.617C453.814 157.497 454.621 157.234 455.362 156.839C456.435 156.28 457.312 155.42 457.884 154.37C458.56 152.937 458.875 151.366 458.804 149.79C458.883 148.747 458.744 147.699 458.398 146.71C458.051 145.721 457.503 144.812 456.787 144.036C455.65 142.966 454.182 142.297 452.614 142.135ZM448.718 142.135C447.208 142.314 445.799 142.973 444.709 144.012C443.981 144.803 443.425 145.731 443.074 146.739C442.723 147.747 442.584 148.814 442.666 149.876C442.595 151.464 442.961 153.042 443.725 154.444C444.312 155.509 445.218 156.371 446.323 156.913C446.967 157.211 447.65 157.423 448.352 157.543C447.349 157.185 446.458 156.576 445.768 155.778C444.644 154.02 444.047 151.987 444.047 149.913C444.047 147.839 444.644 145.807 445.768 144.049C446.535 143.146 447.557 142.485 448.705 142.147L448.718 142.135ZM450.66 146.641C450.438 146.62 450.214 146.651 450.008 146.733C449.801 146.814 449.618 146.944 449.474 147.11C448.992 147.959 448.798 148.937 448.92 149.901C448.797 150.857 448.991 151.826 449.474 152.666C449.629 152.839 449.825 152.973 450.045 153.055C450.265 153.136 450.502 153.164 450.735 153.135C451.618 153.135 451.87 152.851 451.996 152.703C452.122 152.555 452.525 152.012 452.525 149.629C452.626 148.768 452.43 147.9 451.971 147.16C451.812 146.971 451.608 146.822 451.377 146.728C451.147 146.633 450.896 146.595 450.647 146.617L450.66 146.641Z" fill="#2BC2F7"/>
<path d="M464.628 159.777V140.023H475.042C476.533 139.971 478.024 140.133 479.467 140.505C480.494 140.805 481.384 141.441 481.989 142.307C482.437 142.936 482.748 143.648 482.903 144.399C483.058 145.151 483.053 145.925 482.888 146.675C482.724 147.424 482.403 148.133 481.947 148.756C481.491 149.378 480.908 149.903 480.236 150.295C479.552 150.671 478.812 150.938 478.042 151.085C478.617 151.251 479.165 151.497 479.669 151.814C480.042 152.119 480.377 152.467 480.665 152.851C480.995 153.237 481.29 153.65 481.547 154.086L484.573 159.827H477.513L474.172 153.777C473.904 153.196 473.518 152.676 473.037 152.246C472.59 151.941 472.057 151.781 471.512 151.789H470.957V159.827L464.628 159.777ZM470.932 147.999H473.567C474.124 147.952 474.676 147.861 475.218 147.727C475.628 147.651 475.992 147.426 476.24 147.098C476.528 146.707 476.664 146.228 476.622 145.748C476.581 145.267 476.364 144.818 476.013 144.48C475.311 144.069 474.493 143.892 473.68 143.974H470.932V147.999Z" fill="#2BC2F7"/>
<path d="M484.523 162.16H477.462C477.025 162.16 476.596 162.046 476.219 161.829C475.842 161.612 475.531 161.3 475.319 160.925L473.34 157.32V159.789C473.337 160.42 473.079 161.024 472.623 161.47C472.168 161.917 471.551 162.169 470.907 162.172H464.603C463.957 162.172 463.339 161.921 462.882 161.474C462.426 161.027 462.169 160.421 462.169 159.789V140.035C462.168 139.722 462.23 139.411 462.351 139.121C462.473 138.832 462.652 138.568 462.878 138.347C463.105 138.125 463.374 137.95 463.67 137.83C463.966 137.711 464.283 137.651 464.603 137.652H475.017C476.765 137.594 478.513 137.798 480.198 138.257C481.707 138.728 483.012 139.68 483.905 140.961C484.845 142.304 485.33 143.902 485.292 145.529C485.316 146.948 484.951 148.346 484.233 149.579C483.8 150.306 483.246 150.957 482.594 151.505C482.993 151.98 483.344 152.493 483.64 153.036L486.653 158.74C486.846 159.103 486.94 159.508 486.926 159.917C486.913 160.326 486.792 160.724 486.575 161.074C486.358 161.424 486.053 161.713 485.69 161.914C485.326 162.115 484.915 162.221 484.498 162.221L484.523 162.16ZM478.912 157.394H480.526L479.341 155.135C479.159 154.838 478.953 154.557 478.723 154.295C478.547 154.074 478.358 153.864 478.156 153.665C477.859 153.51 477.546 153.386 477.223 153.295C476.912 153.19 476.625 153.026 476.378 152.813L478.912 157.394ZM467.061 157.394H468.473V151.739C468.473 151.378 468.557 151.021 468.719 150.696C468.88 150.371 469.116 150.086 469.406 149.863C469.116 149.642 468.881 149.36 468.719 149.037C468.557 148.713 468.473 148.358 468.473 147.998V143.974C468.469 143.374 468.699 142.795 469.116 142.356H467.061V157.394ZM474.449 150.295C474.907 150.641 475.303 151.058 475.622 151.53C475.59 151.321 475.59 151.109 475.622 150.9C475.635 150.597 475.708 150.299 475.836 150.023H475.723C475.193 150.171 474.79 150.245 474.449 150.32V150.295ZM477.273 142.455L477.551 142.665C478.036 143.066 478.423 143.571 478.68 144.139C478.938 144.708 479.06 145.327 479.038 145.949C479.045 146.881 478.735 147.789 478.156 148.529C478.952 148.31 479.632 147.802 480.06 147.11C480.334 146.565 480.467 145.962 480.447 145.355C480.427 144.748 480.255 144.155 479.946 143.628C479.649 143.188 479.202 142.864 478.685 142.714C478.223 142.588 477.751 142.501 477.273 142.455Z" fill="#2BC2F7"/>
<path d="M377.119 139.975H393.862V144.148H383.385V147.296H393.106V151.333H383.385V155.259H394.165V159.741H377.119V139.975Z" fill="white"/>
<path d="M397.619 159.777V140.023H408.033C409.524 139.971 411.015 140.133 412.458 140.505C413.484 140.805 414.374 141.441 414.979 142.307C415.428 142.936 415.739 143.648 415.894 144.399C416.048 145.151 416.043 145.925 415.879 146.675C415.715 147.424 415.394 148.133 414.938 148.756C414.482 149.378 413.899 149.903 413.227 150.295C412.543 150.671 411.803 150.938 411.033 151.085C411.608 151.251 412.155 151.497 412.66 151.814C413.033 152.119 413.368 152.467 413.656 152.851C413.986 153.237 414.281 153.65 414.538 154.086L417.564 159.827H410.504L407.163 153.777C406.894 153.196 406.508 152.676 406.028 152.246C405.581 151.941 405.047 151.781 404.502 151.789H403.948V159.827L397.619 159.777ZM403.922 147.999H406.557C407.115 147.952 407.667 147.861 408.209 147.727C408.618 147.651 408.983 147.426 409.23 147.098C409.519 146.707 409.655 146.228 409.613 145.748C409.571 145.267 409.355 144.818 409.003 144.48C408.302 144.069 407.484 143.892 406.671 143.974H403.922V147.999Z" fill="white"/>
<path d="M419.594 159.777V140.023H430.008C431.503 139.971 432.998 140.133 434.445 140.505C435.473 140.803 436.364 141.44 436.967 142.307C437.415 142.936 437.726 143.648 437.881 144.4C438.036 145.151 438.031 145.926 437.867 146.675C437.702 147.425 437.382 148.133 436.926 148.756C436.469 149.379 435.887 149.903 435.215 150.296C434.531 150.671 433.79 150.938 433.021 151.086C433.596 151.252 434.143 151.497 434.647 151.814C435.026 152.118 435.364 152.466 435.656 152.851C435.979 153.24 436.269 153.652 436.526 154.086L439.552 159.827H432.441L429.1 153.777C428.836 153.194 428.45 152.672 427.965 152.246C427.521 151.936 426.985 151.776 426.44 151.789H425.885V159.827L419.594 159.777ZM425.898 147.999H428.533C429.09 147.953 429.642 147.862 430.184 147.727C430.593 147.651 430.958 147.426 431.205 147.098C431.468 146.771 431.606 146.365 431.596 145.95C431.613 145.675 431.566 145.4 431.459 145.146C431.352 144.891 431.188 144.664 430.978 144.48C430.277 144.069 429.459 143.892 428.646 143.974H425.898V147.999Z" fill="white"/>
<path d="M440.22 149.889C440.081 148.51 440.256 147.118 440.732 145.813C441.208 144.508 441.973 143.323 442.972 142.342C443.971 141.361 445.18 140.609 446.511 140.14C447.842 139.671 449.263 139.496 450.672 139.629C452.084 139.541 453.499 139.73 454.835 140.186C456.171 140.642 457.4 141.355 458.451 142.283C459.39 143.275 460.116 144.442 460.584 145.715C461.052 146.988 461.252 148.34 461.174 149.691C461.252 151.654 460.845 153.606 459.989 155.383C459.21 156.843 458.008 158.045 456.534 158.84C454.8 159.718 452.863 160.143 450.911 160.074C448.967 160.138 447.033 159.775 445.25 159.013C443.719 158.27 442.453 157.091 441.619 155.63C440.636 153.873 440.153 151.891 440.22 149.889ZM446.524 149.889C446.386 151.41 446.787 152.931 447.658 154.198C448.061 154.607 448.543 154.933 449.077 155.156C449.611 155.378 450.186 155.493 450.766 155.493C451.347 155.493 451.921 155.378 452.455 155.156C452.989 154.933 453.472 154.607 453.874 154.198C454.754 152.825 455.144 151.205 454.983 149.592C455.102 148.139 454.691 146.691 453.824 145.506C453.427 145.087 452.942 144.76 452.401 144.546C451.861 144.333 451.279 144.239 450.697 144.271C450.124 144.251 449.554 144.358 449.03 144.584C448.506 144.811 448.041 145.151 447.671 145.58C446.769 146.844 446.346 148.376 446.473 149.913L446.524 149.889Z" fill="white"/>
<path d="M464.628 159.777V140.023H475.042C476.533 139.971 478.024 140.133 479.467 140.505C480.494 140.805 481.384 141.441 481.989 142.307C482.437 142.936 482.748 143.648 482.903 144.399C483.058 145.151 483.053 145.925 482.888 146.675C482.724 147.424 482.403 148.133 481.947 148.756C481.491 149.378 480.908 149.903 480.236 150.295C479.552 150.671 478.812 150.938 478.042 151.085C478.617 151.251 479.165 151.497 479.669 151.814C480.042 152.119 480.377 152.467 480.665 152.851C480.995 153.237 481.29 153.65 481.547 154.086L484.573 159.827H477.513L474.172 153.777C473.904 153.196 473.518 152.676 473.037 152.246C472.59 151.941 472.057 151.781 471.512 151.789H470.957V159.827L464.628 159.777ZM470.932 147.999H473.567C474.124 147.952 474.676 147.861 475.218 147.727C475.628 147.651 475.992 147.426 476.24 147.098C476.528 146.707 476.664 146.228 476.622 145.748C476.581 145.267 476.364 144.818 476.013 144.48C475.311 144.069 474.493 143.892 473.68 143.974H470.932V147.999Z" fill="white"/>
<path d="M302.33 -9.13206L307.008 -1.99592C302.305 0.4116 297.388 0.0535622 292.37 0.0535622C290.24 -9.60122 302.33 -9.13206 302.33 -9.13206Z" fill="#2F4050"/>
<path d="M273.825 -47.2197C279.788 -30.4165 301.902 -8.13145 301.902 -8.13145C301.902 -8.13145 292.572 -6.30421 295.106 0.00473022H308.13L336.169 -5.16836C337.105 -5.38155 337.922 -5.93524 338.456 -6.71711C338.99 -7.49897 339.2 -8.45044 339.044 -9.37844L328.693 -43.38L273.825 -47.2197Z" fill="#2BC2F7"/>
<path d="M276.3 150.64C287.167 139.148 286.464 121.205 274.728 110.563C262.993 99.9217 244.67 100.611 233.803 112.103C222.936 123.595 223.64 141.538 235.376 152.18C247.111 162.821 265.433 162.132 276.3 150.64Z" fill="#2BC2F7"/>
<path d="M336.308 160.963C321.961 160.963 316.893 155.641 312.001 150.505C310.381 148.712 308.605 147.059 306.693 145.567C299.356 140.085 287.782 137.579 281.944 140.209C281.672 140.253 281.392 140.209 281.148 140.082C280.904 139.956 280.709 139.755 280.593 139.509C280.477 139.264 280.447 138.988 280.506 138.724C280.566 138.46 280.712 138.223 280.923 138.048C287.605 135.048 300.074 137.628 308.168 143.666C310.191 145.255 312.072 147.011 313.791 148.913C318.532 153.913 323.02 158.629 336.308 158.629C339.551 158.713 342.757 157.936 345.585 156.379C348.413 154.823 350.758 152.546 352.37 149.789C353.702 147.626 354.422 145.155 354.455 142.629C354.488 140.103 353.834 137.614 352.56 135.418C349.546 130.665 343.343 128.245 335.073 128.628C334.889 128.685 334.693 128.7 334.502 128.672C334.311 128.644 334.129 128.573 333.97 128.465C333.812 128.356 333.681 128.214 333.587 128.048C333.494 127.882 333.44 127.698 333.431 127.509C333.422 127.32 333.458 127.131 333.535 126.957C333.613 126.784 333.73 126.63 333.877 126.508C334.025 126.386 334.199 126.299 334.387 126.253C334.575 126.207 334.771 126.205 334.959 126.245C344.15 125.838 351.135 128.64 354.627 134.159C356.128 136.717 356.907 139.621 356.885 142.571C356.863 145.522 356.04 148.413 354.501 150.95C352.673 154.071 350.017 156.65 346.814 158.412C343.612 160.175 339.981 161.056 336.308 160.963Z" fill="#2BC2F7"/>
<path d="M267.281 153.036C252.022 152.885 237.315 147.423 225.79 137.628C225.641 137.401 225.571 137.133 225.593 136.864C225.614 136.595 225.724 136.341 225.907 136.139C226.09 135.937 226.336 135.8 226.606 135.748C226.876 135.696 227.156 135.732 227.404 135.85C237.49 144.665 255.493 153.012 275.577 150.048C275.754 149.973 275.947 149.938 276.14 149.946C276.333 149.955 276.522 150.007 276.691 150.098C276.861 150.19 277.006 150.318 277.117 150.473C277.227 150.629 277.3 150.807 277.329 150.994C277.358 151.181 277.343 151.373 277.284 151.553C277.226 151.734 277.126 151.899 276.992 152.035C276.858 152.172 276.693 152.276 276.511 152.341C276.33 152.405 276.135 152.428 275.943 152.407C273.076 152.827 270.181 153.037 267.281 153.036Z" fill="#2BC2F7"/>
<path d="M264.105 156.567C249.24 156.567 236.544 150.838 225.462 139.159C225.246 138.93 225.126 138.631 225.126 138.319C225.126 138.008 225.246 137.708 225.462 137.48C225.696 137.264 226.005 137.145 226.326 137.145C226.647 137.145 226.956 137.264 227.19 137.48C239.457 150.419 253.792 155.715 271.001 153.715C271.181 153.641 271.376 153.609 271.57 153.622C271.765 153.634 271.954 153.691 272.122 153.787C272.291 153.883 272.434 154.016 272.542 154.175C272.649 154.335 272.717 154.517 272.74 154.706C272.763 154.896 272.741 155.088 272.676 155.268C272.61 155.448 272.503 155.61 272.363 155.743C272.222 155.875 272.053 155.974 271.867 156.031C271.681 156.089 271.484 156.103 271.291 156.073C268.908 156.379 266.508 156.544 264.105 156.567Z" fill="#2BC2F7"/>
<path d="M242.142 157.999C241.829 158.001 241.526 157.888 241.293 157.682C241.059 157.477 240.913 157.194 240.882 156.888C239.823 142.962 244.727 120.788 258.041 102.651C258.255 102.48 258.52 102.383 258.796 102.375C259.072 102.366 259.344 102.446 259.568 102.604C259.793 102.761 259.959 102.986 260.041 103.244C260.122 103.502 260.115 103.78 260.02 104.034C247.11 121.701 242.331 143.221 243.327 156.715C243.329 157.02 243.216 157.316 243.008 157.544C242.801 157.772 242.515 157.916 242.205 157.95L242.142 157.999Z" fill="#2BC2F7"/>
<path d="M230.051 146.95C229.82 146.948 229.593 146.884 229.396 146.764C229.132 146.588 228.947 146.321 228.877 146.016C228.806 145.712 228.857 145.392 229.018 145.122C233.254 138.567 248.988 116.578 273.648 108.861C273.954 108.777 274.282 108.809 274.564 108.951C274.847 109.093 275.065 109.335 275.174 109.627C275.26 109.927 275.227 110.247 275.082 110.524C274.937 110.801 274.691 111.014 274.392 111.121C250.514 118.603 235.195 140.011 231.073 146.394C230.961 146.561 230.809 146.698 230.632 146.795C230.454 146.891 230.255 146.945 230.051 146.95Z" fill="#2BC2F7"/>
<path d="M230.051 146.949C229.895 146.951 229.741 146.921 229.597 146.863C229.306 146.737 229.073 146.509 228.947 146.222C228.821 145.936 228.81 145.614 228.916 145.32C232.645 136.343 238.284 128.246 245.458 121.57C252.632 114.894 261.176 109.791 270.521 106.602C270.797 106.582 271.072 106.652 271.303 106.801C271.534 106.949 271.709 107.168 271.801 107.424C271.892 107.679 271.896 107.957 271.811 108.214C271.725 108.472 271.556 108.695 271.328 108.849C262.303 111.922 254.049 116.843 247.119 123.285C240.188 129.727 234.739 137.542 231.135 146.209C231.042 146.418 230.892 146.599 230.7 146.729C230.509 146.86 230.284 146.936 230.051 146.949Z" fill="#2BC2F7"/>
<path d="M238.549 155.925C238.243 155.928 237.946 155.822 237.714 155.627C237.482 155.432 237.331 155.16 237.288 154.864C234.237 129.134 242.86 114.417 252.644 102.355C252.85 102.118 253.14 101.966 253.455 101.929C253.771 101.893 254.089 101.974 254.346 102.157C254.591 102.36 254.749 102.646 254.786 102.958C254.824 103.27 254.738 103.584 254.548 103.837C245.092 115.504 236.758 129.764 239.709 154.592C239.734 154.904 239.638 155.215 239.439 155.46C239.24 155.705 238.953 155.867 238.637 155.913L238.549 155.925Z" fill="#2BC2F7"/>
<path d="M235.17 153.233C234.907 153.227 234.652 153.141 234.442 152.986C234.232 152.831 234.076 152.615 233.998 152.369C230.215 138.727 233.027 117.392 248.458 102.762C248.692 102.55 248.998 102.433 249.316 102.433C249.634 102.433 249.94 102.55 250.173 102.762C250.393 102.991 250.515 103.293 250.515 103.608C250.515 103.922 250.393 104.224 250.173 104.453C236.116 117.775 232.585 138.307 236.368 151.703C236.443 152.007 236.398 152.328 236.241 152.6C236.085 152.873 235.828 153.077 235.523 153.172L235.17 153.233Z" fill="#2BC2F7"/>
<path d="M283.672 136.566C283.419 136.563 283.173 136.486 282.966 136.344C264.937 123.64 242.949 118.96 229.169 119.973C228.895 119.923 228.645 119.786 228.459 119.582C228.273 119.379 228.161 119.12 228.141 118.848C228.121 118.576 228.193 118.304 228.347 118.077C228.502 117.849 228.728 117.678 228.992 117.59C243.214 116.565 265.857 121.355 284.39 134.405C284.577 134.565 284.711 134.774 284.777 135.007C284.843 135.241 284.837 135.488 284.76 135.719C284.684 135.949 284.54 136.152 284.346 136.303C284.153 136.453 283.918 136.545 283.672 136.566Z" fill="#2BC2F7"/>
<path d="M283.924 133.27C283.754 133.274 283.586 133.24 283.432 133.171C267.269 126.146 242.81 125.22 226.547 130.998C226.388 131.109 226.206 131.182 226.014 131.213C225.822 131.243 225.626 131.23 225.44 131.174C225.254 131.117 225.084 131.02 224.944 130.889C224.803 130.757 224.695 130.596 224.628 130.417C224.561 130.238 224.538 130.047 224.56 129.857C224.581 129.668 224.647 129.486 224.752 129.326C224.857 129.166 224.999 129.032 225.166 128.934C225.333 128.837 225.521 128.778 225.714 128.763C242.508 122.788 267.736 123.751 284.415 130.998C284.702 131.135 284.924 131.372 285.039 131.663C285.153 131.954 285.151 132.276 285.033 132.566C284.933 132.772 284.776 132.947 284.58 133.072C284.384 133.196 284.157 133.264 283.924 133.27Z" fill="#2BC2F7"/>
<path d="M283.873 129.936C283.706 129.934 283.54 129.899 283.386 129.833C283.233 129.767 283.094 129.672 282.978 129.553C270.988 116.787 255.456 112.269 232.548 114.849C232.368 114.923 232.173 114.955 231.978 114.942C231.784 114.93 231.595 114.873 231.426 114.777C231.258 114.681 231.114 114.548 231.007 114.389C230.9 114.229 230.832 114.047 230.809 113.858C230.786 113.668 230.807 113.476 230.873 113.296C230.938 113.116 231.045 112.954 231.186 112.821C231.326 112.689 231.496 112.59 231.682 112.533C231.868 112.475 232.065 112.461 232.258 112.491C255.658 109.824 272.325 114.738 284.718 127.948C284.857 128.124 284.946 128.334 284.973 128.555C285.001 128.776 284.967 129 284.876 129.204C284.784 129.407 284.638 129.583 284.452 129.712C284.267 129.841 284.049 129.918 283.823 129.936H283.873Z" fill="#2BC2F7"/>
<path d="M282.965 125.097C282.643 125.089 282.336 124.961 282.107 124.739C267.117 110.096 245.974 107.985 236.405 111.158C236.128 111.176 235.852 111.104 235.622 110.952C235.391 110.801 235.217 110.58 235.128 110.322C235.039 110.065 235.039 109.786 235.129 109.528C235.218 109.271 235.392 109.05 235.623 108.899C245.772 105.528 268.113 107.664 283.822 123.048C284.038 123.276 284.158 123.576 284.158 123.887C284.158 124.198 284.038 124.498 283.822 124.727C283.595 124.953 283.288 125.086 282.965 125.097Z" fill="#2BC2F7"/>
<path d="M277.367 150.703C277.254 150.721 277.139 150.721 277.026 150.703C248.029 142.295 226.709 123.208 226.508 123.01C226.363 122.782 226.298 122.513 226.324 122.245C226.349 121.977 226.464 121.724 226.649 121.526C226.835 121.327 227.082 121.194 227.352 121.145C227.622 121.097 227.901 121.136 228.147 121.257C228.361 121.455 249.29 140.172 277.72 148.419C277.963 148.533 278.162 148.72 278.288 148.953C278.414 149.186 278.461 149.452 278.422 149.713C278.382 149.974 278.259 150.216 278.069 150.403C277.879 150.59 277.633 150.712 277.367 150.752V150.703Z" fill="#2BC2F7"/>
<path d="M277.947 149.974C277.782 149.972 277.619 149.939 277.468 149.875C259.922 142.203 243.112 133.01 227.239 122.405C227.055 122.342 226.888 122.238 226.752 122.101C226.616 121.964 226.514 121.798 226.454 121.615C226.395 121.433 226.38 121.24 226.409 121.051C226.439 120.862 226.513 120.683 226.626 120.527C226.739 120.371 226.887 120.242 227.059 120.152C227.231 120.061 227.422 120.011 227.617 120.005C227.812 120 228.006 120.038 228.183 120.118C228.36 120.198 228.516 120.317 228.638 120.466C244.372 130.977 261.034 140.088 278.426 147.69C278.65 147.821 278.828 148.018 278.933 148.252C279.039 148.487 279.067 148.748 279.015 148.999C278.962 149.25 278.831 149.478 278.64 149.653C278.448 149.828 278.206 149.94 277.947 149.974Z" fill="#2BC2F7"/>
<path d="M279.019 148.505C278.821 148.509 278.626 148.462 278.452 148.369C253.653 135.307 227.656 122.628 227.404 122.504C227.197 122.325 227.057 122.084 227.004 121.819C226.951 121.554 226.988 121.279 227.11 121.037C227.231 120.795 227.431 120.598 227.677 120.477C227.924 120.356 228.204 120.318 228.475 120.368C228.74 120.492 254.775 133.196 279.599 146.295C279.807 146.439 279.966 146.642 280.055 146.876C280.143 147.111 280.157 147.366 280.094 147.608C280.031 147.85 279.895 148.068 279.703 148.232C279.511 148.397 279.272 148.501 279.019 148.53V148.505Z" fill="#2BC2F7"/>
<path d="M279.889 147.196C279.619 147.201 279.356 147.114 279.145 146.949C256.628 129.664 228.324 121.639 228.034 121.565C227.794 121.426 227.609 121.213 227.505 120.96C227.402 120.707 227.388 120.427 227.464 120.165C227.541 119.903 227.703 119.672 227.927 119.51C228.151 119.348 228.424 119.263 228.702 119.269C228.992 119.355 257.7 127.479 280.645 145.072C280.887 145.274 281.043 145.558 281.08 145.867C281.117 146.176 281.034 146.488 280.847 146.739C280.735 146.883 280.59 147 280.423 147.079C280.257 147.158 280.074 147.198 279.889 147.196Z" fill="#2BC2F7"/>
<path d="M282.209 142.406C281.93 142.405 281.66 142.314 281.44 142.147C260.814 125.554 228.488 121.64 228.21 121.603C227.952 121.502 227.734 121.321 227.592 121.087C227.449 120.853 227.39 120.579 227.423 120.308C227.456 120.038 227.58 119.785 227.775 119.591C227.969 119.396 228.225 119.27 228.5 119.232C228.828 119.232 261.797 123.27 282.99 140.308C283.226 140.514 283.374 140.801 283.405 141.109C283.435 141.418 283.346 141.727 283.154 141.974C283.037 142.108 282.892 142.216 282.729 142.291C282.566 142.365 282.389 142.405 282.209 142.406Z" fill="#2BC2F7"/>
<path d="M244.197 158.962C243.954 158.937 243.725 158.843 243.535 158.692C243.346 158.541 243.206 158.34 243.131 158.113C243.056 157.885 243.05 157.642 243.114 157.411C243.178 157.18 243.309 156.973 243.491 156.814C266.475 140.529 279.599 117.935 279.725 117.713C279.773 117.529 279.863 117.359 279.99 117.215C280.116 117.071 280.274 116.957 280.452 116.882C280.63 116.808 280.824 116.775 281.017 116.785C281.211 116.796 281.399 116.85 281.568 116.943C281.736 117.037 281.881 117.167 281.99 117.324C282.099 117.481 282.169 117.66 282.196 117.848C282.222 118.036 282.205 118.227 282.143 118.407C282.082 118.587 281.98 118.751 281.843 118.886C281.717 119.108 268.328 142.159 244.916 158.74C244.705 158.884 244.454 158.962 244.197 158.962Z" fill="#2BC2F7"/>
<g opacity="0.3">
<path d="M267.282 153.036C252.023 152.885 237.316 147.423 225.791 137.628C225.642 137.401 225.572 137.133 225.594 136.864C225.615 136.595 225.725 136.341 225.908 136.139C226.091 135.937 226.337 135.8 226.607 135.748C226.877 135.696 227.157 135.732 227.405 135.85C237.491 144.665 255.494 153.012 275.578 150.048C275.755 149.973 275.948 149.938 276.141 149.946C276.334 149.955 276.523 150.007 276.692 150.098C276.862 150.19 277.007 150.318 277.118 150.473C277.228 150.629 277.301 150.807 277.33 150.994C277.359 151.181 277.344 151.373 277.285 151.553C277.227 151.734 277.127 151.899 276.993 152.035C276.859 152.172 276.694 152.276 276.512 152.341C276.331 152.405 276.136 152.428 275.944 152.407C273.077 152.827 270.182 153.037 267.282 153.036Z" fill="black"/>
<path d="M264.105 156.568C249.24 156.568 236.544 150.839 225.462 139.16C225.246 138.931 225.126 138.632 225.126 138.32C225.126 138.009 225.246 137.709 225.462 137.481C225.696 137.265 226.005 137.146 226.326 137.146C226.647 137.146 226.956 137.265 227.19 137.481C239.457 150.42 253.792 155.716 271.001 153.716C271.181 153.642 271.376 153.61 271.57 153.623C271.765 153.635 271.954 153.692 272.122 153.788C272.291 153.884 272.434 154.017 272.542 154.176C272.649 154.336 272.717 154.518 272.74 154.707C272.763 154.897 272.741 155.089 272.676 155.269C272.61 155.449 272.503 155.611 272.363 155.744C272.222 155.876 272.053 155.975 271.867 156.032C271.681 156.09 271.484 156.104 271.291 156.074C268.908 156.38 266.508 156.545 264.105 156.568Z" fill="black"/>
<path d="M242.142 157.999C241.829 158.001 241.526 157.888 241.293 157.682C241.059 157.477 240.913 157.194 240.882 156.888C239.823 142.962 244.727 120.788 258.041 102.651C258.255 102.48 258.52 102.383 258.796 102.375C259.072 102.366 259.344 102.446 259.568 102.604C259.793 102.761 259.959 102.986 260.041 103.244C260.122 103.502 260.115 103.78 260.02 104.034C247.11 121.701 242.331 143.221 243.327 156.715C243.329 157.02 243.216 157.316 243.008 157.544C242.801 157.772 242.515 157.916 242.205 157.95L242.142 157.999Z" fill="black"/>
<path d="M230.051 146.95C229.82 146.948 229.593 146.884 229.396 146.764C229.132 146.588 228.947 146.321 228.877 146.016C228.806 145.712 228.857 145.392 229.018 145.122C233.254 138.567 248.988 116.578 273.648 108.861C273.954 108.777 274.282 108.809 274.564 108.951C274.847 109.093 275.065 109.335 275.174 109.627C275.26 109.927 275.227 110.247 275.082 110.524C274.937 110.801 274.691 111.014 274.392 111.121C250.514 118.603 235.195 140.011 231.073 146.394C230.961 146.561 230.809 146.698 230.632 146.795C230.454 146.891 230.255 146.945 230.051 146.95Z" fill="black"/>
<path d="M230.051 146.949C229.895 146.951 229.741 146.921 229.597 146.863C229.306 146.737 229.073 146.509 228.947 146.222C228.821 145.936 228.81 145.614 228.916 145.32C232.645 136.343 238.284 128.246 245.458 121.57C252.632 114.894 261.176 109.791 270.521 106.602C270.797 106.582 271.072 106.652 271.303 106.801C271.534 106.949 271.709 107.168 271.801 107.424C271.892 107.679 271.896 107.957 271.811 108.214C271.725 108.472 271.556 108.695 271.328 108.849C262.303 111.922 254.049 116.843 247.119 123.285C240.188 129.727 234.739 137.542 231.135 146.209C231.042 146.418 230.892 146.599 230.7 146.729C230.509 146.86 230.284 146.936 230.051 146.949Z" fill="black"/>
<path d="M238.549 155.925C238.243 155.928 237.946 155.822 237.714 155.627C237.482 155.432 237.331 155.16 237.288 154.864C234.237 129.134 242.86 114.417 252.644 102.355C252.85 102.118 253.14 101.966 253.455 101.929C253.771 101.893 254.089 101.974 254.346 102.157C254.591 102.36 254.749 102.646 254.786 102.958C254.824 103.27 254.738 103.584 254.548 103.837C245.092 115.504 236.758 129.764 239.709 154.592C239.734 154.904 239.638 155.215 239.439 155.46C239.24 155.705 238.953 155.867 238.637 155.913L238.549 155.925Z" fill="black"/>
<path d="M235.17 153.234C234.907 153.228 234.652 153.142 234.442 152.987C234.232 152.832 234.076 152.616 233.998 152.37C230.215 138.728 233.027 117.393 248.458 102.763C248.692 102.551 248.998 102.434 249.316 102.434C249.634 102.434 249.94 102.551 250.173 102.763C250.393 102.992 250.515 103.294 250.515 103.609C250.515 103.923 250.393 104.225 250.173 104.454C236.116 117.776 232.585 138.308 236.368 151.704C236.443 152.008 236.398 152.329 236.241 152.601C236.085 152.874 235.828 153.078 235.523 153.173L235.17 153.234Z" fill="black"/>
<path d="M283.672 136.566C283.419 136.563 283.173 136.486 282.966 136.344C264.937 123.64 242.949 118.96 229.169 119.973C228.895 119.923 228.645 119.786 228.459 119.582C228.273 119.379 228.161 119.12 228.141 118.848C228.121 118.576 228.193 118.304 228.347 118.077C228.502 117.849 228.728 117.678 228.992 117.59C243.214 116.565 265.857 121.355 284.39 134.405C284.577 134.565 284.711 134.774 284.777 135.007C284.843 135.241 284.837 135.488 284.76 135.719C284.684 135.949 284.54 136.152 284.346 136.303C284.153 136.453 283.918 136.545 283.672 136.566Z" fill="black"/>
<path d="M283.924 133.271C283.754 133.275 283.586 133.241 283.432 133.172C267.269 126.147 242.81 125.221 226.547 130.999C226.388 131.11 226.206 131.183 226.014 131.214C225.822 131.244 225.626 131.231 225.44 131.175C225.254 131.118 225.084 131.021 224.944 130.89C224.803 130.758 224.695 130.597 224.628 130.418C224.561 130.239 224.538 130.048 224.56 129.858C224.581 129.669 224.647 129.487 224.752 129.327C224.857 129.167 224.999 129.033 225.166 128.935C225.333 128.837 225.521 128.779 225.714 128.764C242.508 122.789 267.736 123.752 284.415 130.999C284.702 131.136 284.924 131.373 285.039 131.664C285.153 131.955 285.151 132.277 285.033 132.567C284.933 132.773 284.776 132.948 284.58 133.072C284.384 133.197 284.157 133.265 283.924 133.271Z" fill="black"/>
<path d="M283.874 129.936C283.707 129.934 283.541 129.899 283.387 129.833C283.234 129.767 283.095 129.672 282.979 129.553C270.989 116.787 255.457 112.269 232.549 114.849C232.369 114.923 232.174 114.955 231.979 114.942C231.785 114.93 231.596 114.873 231.427 114.777C231.259 114.681 231.115 114.548 231.008 114.389C230.901 114.229 230.833 114.047 230.81 113.858C230.787 113.668 230.808 113.476 230.874 113.296C230.939 113.116 231.046 112.954 231.187 112.821C231.327 112.689 231.497 112.59 231.683 112.533C231.869 112.475 232.066 112.461 232.259 112.491C255.658 109.824 272.326 114.738 284.719 127.948C284.858 128.124 284.947 128.334 284.974 128.555C285.002 128.776 284.968 129 284.877 129.204C284.785 129.407 284.639 129.583 284.453 129.712C284.268 129.841 284.05 129.918 283.824 129.936H283.874Z" fill="black"/>
<path d="M282.966 125.097C282.644 125.089 282.337 124.961 282.108 124.739C267.118 110.096 245.975 107.985 236.406 111.158C236.129 111.176 235.853 111.104 235.623 110.952C235.392 110.801 235.218 110.58 235.129 110.322C235.04 110.065 235.04 109.786 235.13 109.528C235.219 109.271 235.393 109.05 235.624 108.899C245.773 105.528 268.114 107.664 283.823 123.048C284.039 123.276 284.159 123.576 284.159 123.887C284.159 124.198 284.039 124.498 283.823 124.727C283.596 124.953 283.289 125.086 282.966 125.097Z" fill="black"/>
<path d="M277.367 150.703C277.254 150.721 277.139 150.721 277.026 150.703C248.029 142.295 226.709 123.208 226.508 123.01C226.363 122.782 226.298 122.513 226.324 122.245C226.349 121.977 226.464 121.724 226.649 121.526C226.835 121.327 227.082 121.194 227.352 121.145C227.622 121.097 227.901 121.136 228.147 121.257C228.361 121.455 249.29 140.172 277.72 148.419C277.963 148.533 278.162 148.72 278.288 148.953C278.414 149.186 278.461 149.452 278.422 149.713C278.382 149.974 278.259 150.216 278.069 150.403C277.879 150.59 277.633 150.712 277.367 150.752V150.703Z" fill="black"/>
<path d="M277.948 149.975C277.783 149.973 277.62 149.94 277.469 149.876C259.923 142.204 243.113 133.011 227.24 122.406C227.056 122.343 226.889 122.239 226.753 122.102C226.617 121.965 226.515 121.798 226.455 121.616C226.396 121.434 226.38 121.241 226.41 121.052C226.44 120.863 226.514 120.684 226.627 120.528C226.74 120.372 226.888 120.243 227.06 120.153C227.232 120.062 227.423 120.012 227.618 120.006C227.813 120.001 228.007 120.039 228.184 120.119C228.361 120.199 228.517 120.318 228.639 120.467C244.373 130.978 261.035 140.089 278.427 147.691C278.651 147.822 278.829 148.019 278.934 148.253C279.04 148.488 279.068 148.749 279.016 149C278.963 149.251 278.832 149.479 278.641 149.654C278.449 149.829 278.207 149.941 277.948 149.975Z" fill="black"/>
<path d="M279.02 148.505C278.822 148.509 278.627 148.462 278.453 148.369C253.654 135.307 227.657 122.628 227.405 122.504C227.198 122.325 227.058 122.084 227.005 121.819C226.952 121.554 226.989 121.279 227.111 121.037C227.232 120.795 227.432 120.598 227.678 120.477C227.925 120.356 228.205 120.318 228.476 120.368C228.741 120.492 254.776 133.196 279.6 146.295C279.808 146.439 279.967 146.642 280.056 146.876C280.144 147.111 280.157 147.366 280.095 147.608C280.032 147.85 279.895 148.068 279.704 148.232C279.512 148.397 279.273 148.501 279.02 148.53V148.505Z" fill="black"/>
<path d="M279.889 147.197C279.619 147.202 279.356 147.115 279.145 146.95C256.628 129.665 228.324 121.64 228.034 121.566C227.794 121.427 227.609 121.214 227.505 120.961C227.402 120.708 227.388 120.428 227.464 120.166C227.541 119.904 227.703 119.673 227.927 119.511C228.151 119.349 228.424 119.264 228.702 119.27C228.992 119.356 257.7 127.48 280.645 145.073C280.887 145.275 281.043 145.559 281.08 145.868C281.117 146.177 281.034 146.489 280.847 146.74C280.735 146.884 280.59 147.001 280.423 147.08C280.257 147.159 280.074 147.199 279.889 147.197Z" fill="black"/>
<path d="M282.209 142.406C281.93 142.405 281.66 142.314 281.44 142.147C260.814 125.554 228.488 121.64 228.21 121.603C227.952 121.502 227.734 121.321 227.592 121.087C227.449 120.853 227.39 120.579 227.423 120.308C227.456 120.038 227.58 119.785 227.775 119.591C227.969 119.396 228.225 119.27 228.5 119.232C228.828 119.232 261.797 123.27 282.99 140.308C283.226 140.514 283.374 140.801 283.405 141.109C283.435 141.418 283.346 141.727 283.154 141.974C283.037 142.108 282.892 142.216 282.729 142.291C282.566 142.365 282.389 142.405 282.209 142.406Z" fill="black"/>
<path d="M244.197 158.963C243.954 158.938 243.725 158.844 243.535 158.693C243.346 158.542 243.206 158.341 243.131 158.114C243.056 157.886 243.05 157.643 243.114 157.412C243.178 157.181 243.309 156.974 243.491 156.815C266.475 140.53 279.599 117.936 279.725 117.714C279.773 117.53 279.863 117.36 279.99 117.216C280.116 117.072 280.274 116.958 280.452 116.883C280.63 116.809 280.824 116.776 281.017 116.786C281.211 116.797 281.399 116.851 281.568 116.944C281.736 117.038 281.881 117.168 281.99 117.325C282.099 117.482 282.169 117.661 282.196 117.849C282.222 118.037 282.205 118.228 282.143 118.408C282.082 118.588 281.98 118.752 281.843 118.887C281.717 119.109 268.328 142.16 244.916 158.741C244.705 158.885 244.454 158.962 244.197 158.963Z" fill="black"/>
</g>
</g>
</svg>
