<svg width="555" height="219" viewBox="0 0 555 219" fill="none" xmlns="http://www.w3.org/2000/svg">
<g opacity="0.1">
<path d="M669.02 125.183H0V125.517H669.02V125.183Z" fill="#EEEEEE"/>
<path d="M601.984 137.946H480.356V138.281H601.984V137.946Z" fill="#EEEEEE"/>
<path d="M443.185 134.312H409.881V134.647H443.185V134.312Z" fill="#EEEEEE"/>
<path d="M519.306 150.401H467.671V150.736H519.306V150.401Z" fill="#EEEEEE"/>
<path d="M100.487 148.148H70.1934V148.483H100.487V148.148Z" fill="#EEEEEE"/>
<path d="M148.375 148.148H112.395V148.483H148.375V148.148Z" fill="#EEEEEE"/>
<path d="M301.26 142.491H238.586V142.826H301.26V142.491Z" fill="#EEEEEE"/>
<path d="M317.115 65.3867H58.7533C56.7293 65.3832 54.7894 64.5751 53.3595 63.1398C51.9296 61.7045 51.1265 59.7593 51.1265 57.7313V-306.178C51.1441 -308.195 51.955 -310.123 53.383 -311.543C54.811 -312.964 56.7408 -313.763 58.7533 -313.767H317.115C319.142 -313.767 321.085 -312.96 322.518 -311.524C323.951 -310.089 324.756 -308.141 324.756 -306.111V57.7313C324.756 59.7616 323.951 61.7088 322.518 63.1445C321.085 64.5802 319.142 65.3867 317.115 65.3867ZM58.7533 -313.498C56.818 -313.495 54.9632 -312.722 53.596 -311.35C52.2288 -309.977 51.461 -308.117 51.461 -306.178V57.7313C51.461 59.6704 52.2288 61.5303 53.596 62.9027C54.9632 64.2752 56.818 65.048 58.7533 65.0515H317.115C319.052 65.048 320.908 64.2756 322.277 62.9036C323.647 61.5315 324.417 59.6716 324.421 57.7313V-306.178C324.417 -308.119 323.647 -309.978 322.277 -311.35C320.908 -312.723 319.052 -313.495 317.115 -313.498H58.7533Z" fill="#EEEEEE"/>
<path d="M606.547 65.3867H348.171C346.146 65.3832 344.205 64.5755 342.773 63.1406C341.341 61.7057 340.535 59.7605 340.531 57.7313V-306.178C340.552 -308.196 341.366 -310.124 342.796 -311.544C344.227 -312.965 346.158 -313.763 348.171 -313.767H606.547C608.557 -313.76 610.483 -312.959 611.909 -311.539C613.334 -310.118 614.143 -308.192 614.16 -306.178V57.7313C614.16 59.757 613.359 61.7001 611.932 63.135C610.505 64.5699 608.569 65.3796 606.547 65.3867ZM348.171 -313.498C346.235 -313.495 344.379 -312.723 343.009 -311.35C341.64 -309.978 340.869 -308.119 340.866 -306.178V57.7313C340.869 59.6716 341.64 61.5315 343.009 62.9036C344.379 64.2756 346.235 65.048 348.171 65.0515H606.547C608.483 65.048 610.34 64.2756 611.709 62.9036C613.078 61.5315 613.849 59.6716 613.853 57.7313V-306.178C613.849 -308.119 613.078 -309.978 611.709 -311.35C610.34 -312.723 608.483 -313.495 606.547 -313.498H348.171Z" fill="#EEEEEE"/>
<path d="M574.246 -36.0918C572.264 -36.0848 570.29 -35.8281 568.372 -35.3276C566.474 -37.9148 564.07 -40.0869 561.306 -41.7112C558.542 -43.3355 555.476 -44.3778 552.296 -44.7743C549.116 -45.1709 545.889 -44.9134 542.812 -44.0176C539.734 -43.1217 536.872 -41.6064 534.399 -39.5643C530.341 -46.4341 524.216 -51.8394 516.902 -55.0047C509.587 -58.17 501.461 -58.9326 493.687 -57.183C485.914 -55.4335 478.893 -51.2617 473.633 -45.2662C468.372 -39.2708 465.142 -31.7598 464.406 -23.8109C460.193 -24.7495 455.815 -24.6528 451.647 -23.5291C447.478 -22.4055 443.643 -20.2881 440.468 -17.3578C437.294 -14.4275 434.873 -10.7712 433.414 -6.70071C431.955 -2.63025 431.5 1.73352 432.088 6.0183C432.676 10.3031 434.29 14.3817 436.792 17.9062C439.294 21.4307 442.61 24.2965 446.456 26.2591C450.303 28.2217 454.566 29.2228 458.882 29.1771C463.198 29.1314 467.439 28.0402 471.244 25.9966C472.946 32.1583 476.455 37.6659 481.318 41.8061C486.18 45.9462 492.171 48.528 498.514 49.2171C504.858 49.9062 511.262 48.6707 516.896 45.6708C522.531 42.671 527.137 38.0449 530.117 32.3917C535.224 36.7587 541.46 39.5877 548.103 40.5516C554.747 41.5154 561.528 40.5746 567.661 37.8382C573.793 35.1016 579.027 30.6812 582.757 25.0884C586.487 19.4955 588.56 12.9588 588.737 6.23445C592.635 3.22061 595.494 -0.94046 596.912 -5.66494C598.33 -10.3894 598.236 -15.4402 596.644 -20.1086C595.051 -24.7769 592.04 -28.8287 588.033 -31.6952C584.026 -34.5617 579.223 -36.0991 574.3 -36.0918H574.246Z" fill="#F8FAFB"/>
<path d="M334.51 185.729C477.791 185.729 593.943 178.934 593.943 170.552C593.943 162.17 477.791 155.375 334.51 155.375C191.229 155.375 75.0776 162.17 75.0776 170.552C75.0776 178.934 191.229 185.729 334.51 185.729Z" fill="#F8FAFB"/>
<path d="M427.903 -2.62832C444.17 -7.96167 460.303 -10.6283 476.303 -10.6283C492.57 -10.6283 506.037 -6.495 516.703 1.77167C527.637 9.77166 533.103 20.0383 533.103 32.5717C533.103 49.105 525.503 61.7717 510.303 70.5717C531.103 80.1717 541.503 94.1717 541.503 112.572C541.503 130.972 534.57 145.772 520.703 156.972C507.103 167.905 489.903 173.372 469.103 173.372C459.237 173.372 449.637 172.038 440.303 169.372C430.97 166.705 421.77 162.838 412.703 157.772L411.103 154.572L423.503 120.972L427.503 119.772L429.103 120.172C443.237 132.438 457.37 138.572 471.503 138.572C480.037 138.572 486.837 136.838 491.903 133.372C497.237 129.905 499.903 125.505 499.903 120.172C499.903 103.638 487.903 95.3717 463.903 95.3717H435.503L441.903 62.1717H460.303C479.77 62.1717 489.503 54.9717 489.503 40.5717C489.503 35.2383 487.37 31.105 483.103 28.1717C479.103 24.9717 474.037 23.3717 467.903 23.3717C455.903 23.3717 443.637 26.5717 431.103 32.9717L425.103 36.1717H423.103L419.903 33.7717L425.503 -0.228331L427.103 -2.22833L427.903 -2.62832Z" fill="#2F4050"/>
<path d="M182.121 136.378H109.425C107.723 136.36 106.096 135.67 104.898 134.457C103.701 133.245 103.029 131.608 103.029 129.902V100.018C103.033 98.4912 103.573 97.0148 104.555 95.8479L186.71 -2.02405C187.318 -2.74641 188.076 -3.32704 188.931 -3.72535C189.786 -4.12366 190.718 -4.33005 191.661 -4.33008H223.145C224.859 -4.33008 226.503 -3.64783 227.715 -2.43341C228.927 -1.21899 229.608 0.428137 229.608 2.14558V93.314C229.608 95.0314 230.289 96.6785 231.501 97.8929C232.713 99.1074 234.357 99.7896 236.071 99.7896H244.38C246.094 99.7896 247.738 100.472 248.95 101.686C250.162 102.901 250.843 104.548 250.843 106.265V129.848C250.843 131.566 250.162 133.213 248.95 134.427C247.738 135.642 246.094 136.324 244.38 136.324H236.071C234.357 136.324 232.713 137.006 231.501 138.221C230.289 139.435 229.608 141.082 229.608 142.8V161.57C229.608 163.287 228.927 164.934 227.715 166.149C226.503 167.363 224.859 168.045 223.145 168.045H195.046C193.332 168.045 191.688 167.363 190.476 166.149C189.264 164.934 188.584 163.287 188.584 161.57V142.8C188.569 141.092 187.882 139.458 186.672 138.255C185.461 137.053 183.826 136.378 182.121 136.378ZM188.584 95.3116V58.8443C188.599 57.9025 188.321 56.9794 187.788 56.2032C187.256 55.427 186.495 54.8364 185.612 54.5135C184.729 54.1905 183.768 54.1513 182.861 54.4012C181.955 54.6512 181.149 55.1779 180.555 55.9081L149.633 92.3755C149.074 93.0341 148.715 93.8393 148.597 94.696C148.48 95.5527 148.61 96.425 148.972 97.2102C149.333 97.9953 149.911 98.6604 150.638 99.127C151.364 99.5936 152.209 99.8421 153.072 99.8433H184.007C184.606 99.8503 185.2 99.7384 185.755 99.5138C186.31 99.2893 186.814 98.9566 187.24 98.5351C187.666 98.1136 188.004 97.6116 188.234 97.0583C188.465 96.505 188.584 95.9113 188.584 95.3116Z" fill="#2F4050"/>
<path d="M265.427 82.628C265.427 50.4509 271.225 27.9046 282.821 14.9891C294.417 2.07357 312.048 -4.36184 335.714 -4.31715C347.096 -4.31715 356.462 -2.90941 363.813 -0.0939178C370.456 2.30748 376.539 6.0441 381.689 10.8865C386.031 15.034 389.709 19.8275 392.594 25.0981C395.452 30.6151 397.605 36.471 399.003 42.5273C402.196 55.4616 403.787 68.7408 403.74 82.0649C403.74 112.821 398.544 135.327 388.152 149.583C377.759 163.839 359.879 170.99 334.51 171.035C320.237 171.035 308.734 168.76 300.002 164.21C291.104 159.588 283.612 152.65 278.312 144.126C274.226 137.87 271.051 129.334 268.785 118.519C266.44 106.702 265.315 94.6754 265.427 82.628ZM312.044 82.7353C312.044 104.321 313.948 119.069 317.757 126.979C321.566 134.889 327.083 138.844 334.309 138.844C336.606 138.866 338.885 138.432 341.014 137.567C343.143 136.702 345.08 135.422 346.712 133.803C350.218 130.451 352.796 125.151 354.446 117.902C356.097 110.653 356.922 99.3646 356.922 84.0358C356.922 61.5386 355.017 46.4154 351.208 38.6661C347.399 30.9168 341.69 27.0421 334.081 27.0421C326.303 27.0421 320.688 30.9927 317.235 38.894C313.783 46.7953 312.053 61.409 312.044 82.7353Z" fill="#2F4050"/>
<path d="M211.17 13.2061C209.925 15.8875 208.614 18.3008 207.343 20.7945L203.596 28.2354L199.85 35.7032C198.592 38.2103 197.294 40.7174 195.755 43.1844C195.985 40.3115 196.538 37.4736 197.401 34.7245C198.222 31.9554 199.283 29.2637 200.572 26.6802C201.856 24.0942 203.38 21.6344 205.122 19.3331C206.844 17.0191 208.879 14.9569 211.17 13.2061Z" fill="white"/>
<path d="M215.933 19.5078C214.769 21.8272 213.565 24.0126 212.387 26.2114L208.922 32.7809L205.456 39.3772C204.292 41.5893 203.101 43.8149 201.683 45.9869C201.933 43.4283 202.467 40.9056 203.275 38.4655C204.057 36.0212 205.047 33.6484 206.232 31.3731C207.415 29.0875 208.818 26.9231 210.421 24.9109C211.994 22.858 213.85 21.0389 215.933 19.5078Z" fill="white"/>
<path d="M202.927 10.5645C201.897 12.9777 200.799 15.2435 199.729 17.5228L196.585 24.347L193.44 31.1846C192.37 33.4772 191.286 35.7832 189.975 38.049C190.097 35.4537 190.515 32.8808 191.219 30.3802C191.889 27.8687 192.785 25.4231 193.895 23.0733C194.973 20.7231 196.268 18.4788 197.762 16.3697C199.211 14.2076 200.949 12.2544 202.927 10.5645Z" fill="white"/>
<path d="M505.879 104.63C508.169 106.397 510.204 108.472 511.927 110.797C513.705 113.1 515.264 115.564 516.584 118.158C517.865 120.743 518.922 123.434 519.741 126.202C520.603 128.952 521.159 131.789 521.401 134.662C519.849 132.195 518.564 129.688 517.293 127.181L513.546 119.713L509.8 112.272C508.475 109.725 507.217 107.258 505.879 104.63Z" fill="white"/>
<path d="M501.168 110.932C503.239 112.457 505.089 114.262 506.667 116.294C508.272 118.31 509.675 120.479 510.855 122.77C512.052 125.04 513.042 127.414 513.812 129.863C514.631 132.3 515.17 134.824 515.418 137.384C514 135.212 512.809 132.986 511.631 130.774L508.166 124.178L504.7 117.608C503.523 115.477 502.319 113.251 501.168 110.932Z" fill="white"/>
<path d="M514.161 101.989C516.164 103.662 517.928 105.602 519.406 107.754C520.9 109.861 522.191 112.105 523.259 114.458C524.363 116.81 525.259 119.255 525.935 121.765C526.633 124.267 527.051 126.839 527.18 129.434C525.842 127.154 524.771 124.862 523.714 122.569L520.57 115.718L517.425 108.907C516.302 106.668 515.244 104.403 514.161 101.989Z" fill="white"/>
<path d="M400.236 150.951H418.005V155.483H406.886V158.902H417.202V163.286H406.886V167.549H418.326V172.416H400.236V150.951Z" fill="#2BC2F7"/>
<path d="M418.325 175.044H400.235C399.55 175.044 398.893 174.771 398.409 174.286C397.924 173.8 397.652 173.142 397.652 172.456V151.005C397.651 150.664 397.716 150.327 397.845 150.012C397.974 149.698 398.165 149.412 398.405 149.171C398.645 148.93 398.93 148.74 399.244 148.61C399.559 148.481 399.895 148.415 400.235 148.417H418.004C418.344 148.415 418.68 148.481 418.994 148.61C419.308 148.74 419.594 148.93 419.834 149.171C420.074 149.412 420.264 149.698 420.393 150.012C420.523 150.327 420.588 150.664 420.586 151.005V155.483C420.048 155.847 419.666 156.401 419.517 157.035C419.369 157.668 419.464 158.335 419.784 158.901V163.286C419.486 163.607 419.274 163.999 419.168 164.425C419.062 164.851 419.065 165.297 419.177 165.721C419.29 166.145 419.507 166.534 419.809 166.851C420.112 167.168 420.49 167.404 420.908 167.536V172.402C420.915 172.747 420.853 173.089 420.726 173.409C420.6 173.729 420.411 174.021 420.17 174.267C419.93 174.513 419.643 174.708 419.326 174.842C419.009 174.975 418.669 175.044 418.325 175.044ZM402.817 169.868H405.667C405.258 169.646 404.918 169.317 404.682 168.915C404.446 168.514 404.324 168.055 404.329 167.589V163.339C404.697 163.104 404.999 162.78 405.208 162.397C405.418 162.014 405.528 161.584 405.528 161.147C405.528 160.71 405.418 160.28 405.208 159.897C404.999 159.514 404.697 159.19 404.329 158.955V155.483C404.329 155.1 404.415 154.722 404.579 154.376C404.743 154.031 404.983 153.726 405.279 153.485H402.844L402.817 169.868Z" fill="#2BC2F7"/>
<path d="M421.991 172.456V151.004H433.043C434.626 150.948 436.208 151.124 437.739 151.527C438.829 151.853 439.774 152.544 440.416 153.485C440.891 154.167 441.222 154.941 441.386 155.757C441.55 156.573 441.545 157.414 441.37 158.228C441.196 159.042 440.856 159.811 440.372 160.487C439.887 161.164 439.269 161.733 438.556 162.159C437.83 162.567 437.044 162.857 436.227 163.017C436.837 163.197 437.419 163.464 437.954 163.808C438.35 164.139 438.705 164.518 439.011 164.934C439.361 165.353 439.674 165.802 439.947 166.275L443.159 172.51H435.665L432.12 165.94C431.835 165.31 431.425 164.744 430.915 164.278C430.441 163.946 429.875 163.773 429.296 163.781H428.708V172.51L421.991 172.456ZM428.681 159.665H431.477C432.069 159.615 432.655 159.516 433.23 159.371C433.665 159.288 434.052 159.044 434.314 158.687C434.62 158.263 434.764 157.742 434.72 157.221C434.676 156.699 434.446 156.211 434.073 155.844C433.329 155.398 432.461 155.205 431.598 155.295H428.681V159.665Z" fill="#2BC2F7"/>
<path d="M443.105 175.044H435.612C435.148 175.044 434.692 174.92 434.292 174.684C433.892 174.449 433.563 174.11 433.338 173.703L431.237 169.788V172.469C431.233 173.155 430.96 173.811 430.477 174.295C429.993 174.78 429.338 175.053 428.654 175.057H421.964C421.625 175.057 421.289 174.99 420.976 174.86C420.663 174.73 420.378 174.539 420.138 174.299C419.898 174.059 419.708 173.774 419.578 173.46C419.449 173.146 419.382 172.809 419.382 172.469V151.018C419.38 150.678 419.446 150.34 419.575 150.026C419.704 149.711 419.894 149.425 420.134 149.184C420.374 148.944 420.66 148.753 420.974 148.624C421.288 148.494 421.625 148.429 421.964 148.43H433.016C434.872 148.367 436.727 148.589 438.516 149.087C440.117 149.599 441.502 150.633 442.45 152.024C443.442 153.483 443.952 155.218 443.908 156.984C443.937 158.523 443.554 160.042 442.798 161.382C442.338 162.171 441.75 162.878 441.058 163.473C441.482 163.989 441.854 164.546 442.169 165.136L445.367 171.33C445.571 171.724 445.671 172.164 445.656 172.608C445.642 173.052 445.513 173.485 445.283 173.865C445.053 174.245 444.73 174.559 444.344 174.777C443.958 174.995 443.522 175.11 443.079 175.111L443.105 175.044ZM437.151 169.868H438.877L437.539 167.415C437.362 167.087 437.146 166.781 436.897 166.503C436.71 166.263 436.509 166.035 436.295 165.819C435.98 165.651 435.648 165.516 435.305 165.417C434.975 165.303 434.67 165.126 434.408 164.894L437.151 169.868ZM424.573 169.868H426.072V163.728C426.072 163.335 426.161 162.948 426.333 162.595C426.504 162.242 426.754 161.932 427.062 161.69C426.754 161.451 426.504 161.144 426.333 160.793C426.161 160.442 426.072 160.056 426.072 159.666V155.295C426.072 154.645 426.316 154.018 426.754 153.539H424.573V169.868ZM432.414 162.159C432.9 162.535 433.32 162.988 433.659 163.5C433.609 163.276 433.587 163.046 433.592 162.816C433.616 162.487 433.698 162.165 433.833 161.864H433.712C433.204 162.025 432.776 162.106 432.414 162.186V162.159ZM435.398 153.646L435.706 153.874C436.221 154.31 436.631 154.857 436.905 155.475C437.178 156.093 437.308 156.765 437.285 157.44C437.292 158.452 436.962 159.438 436.348 160.242C436.635 160.164 436.91 160.047 437.164 159.894C437.663 159.604 438.082 159.193 438.382 158.7C438.671 158.152 438.809 157.537 438.783 156.917C438.82 156.211 438.632 155.512 438.248 154.92C437.932 154.442 437.459 154.09 436.91 153.927C436.416 153.789 435.91 153.695 435.398 153.646Z" fill="#2BC2F7"/>
<path d="M445.314 172.456V151.005H456.366C457.953 150.947 459.54 151.124 461.076 151.528C462.166 151.852 463.112 152.543 463.752 153.485C464.228 154.168 464.558 154.941 464.722 155.757C464.887 156.573 464.881 157.414 464.707 158.228C464.532 159.042 464.192 159.811 463.708 160.487C463.224 161.164 462.606 161.733 461.892 162.159C461.167 162.568 460.381 162.857 459.564 163.017C460.174 163.198 460.755 163.464 461.29 163.808C461.692 164.138 462.051 164.517 462.361 164.935C462.703 165.357 463.012 165.805 463.284 166.275L466.495 172.51H458.949L455.403 165.94C455.123 165.307 454.713 164.741 454.199 164.278C453.727 163.941 453.159 163.767 452.58 163.782H451.991V172.51L445.314 172.456ZM452.004 159.666H454.801C455.392 159.616 455.978 159.517 456.553 159.371C456.988 159.288 457.375 159.044 457.637 158.687C457.916 158.332 458.062 157.891 458.052 157.44C458.07 157.142 458.02 156.844 457.906 156.567C457.793 156.291 457.619 156.044 457.396 155.845C456.652 155.398 455.784 155.205 454.921 155.295H452.004V159.666Z" fill="#2BC2F7"/>
<path d="M466.427 175.044H458.948C458.484 175.045 458.028 174.921 457.628 174.685C457.228 174.449 456.898 174.11 456.673 173.703L454.572 169.788V172.47C454.572 173.156 454.3 173.814 453.816 174.299C453.332 174.785 452.675 175.057 451.99 175.057H445.3C444.616 175.054 443.961 174.78 443.478 174.295C442.994 173.811 442.721 173.155 442.717 172.47V151.018C442.717 150.332 442.989 149.674 443.474 149.189C443.958 148.703 444.615 148.431 445.3 148.431H456.352C458.208 148.367 460.062 148.588 461.851 149.088C463.459 149.595 464.849 150.629 465.798 152.024C466.696 153.412 467.201 155.017 467.26 156.67C467.319 158.323 466.929 159.96 466.133 161.409C465.674 162.195 465.091 162.901 464.407 163.5C464.826 164.02 465.198 164.576 465.517 165.163L468.702 171.357C468.906 171.751 469.006 172.191 468.992 172.635C468.977 173.079 468.849 173.512 468.619 173.892C468.389 174.272 468.065 174.586 467.679 174.804C467.293 175.022 466.857 175.137 466.414 175.138L466.427 175.044ZM460.473 169.869H462.199L460.928 167.415C460.735 167.093 460.516 166.788 460.272 166.504C460.096 166.255 459.894 166.026 459.67 165.82C459.355 165.651 459.023 165.516 458.68 165.418C458.355 165.302 458.055 165.124 457.797 164.895L460.473 169.869ZM447.895 169.869H449.394V163.728C449.394 163.336 449.483 162.948 449.655 162.595C449.826 162.242 450.076 161.933 450.384 161.69C450.076 161.451 449.826 161.144 449.655 160.793C449.483 160.442 449.394 160.057 449.394 159.666V155.295C449.394 154.642 449.643 154.014 450.09 153.539H447.895V169.869ZM455.736 162.186C456.222 162.562 456.642 163.015 456.981 163.527C456.947 163.3 456.947 163.07 456.981 162.843C456.994 162.514 457.072 162.191 457.208 161.891H457.101C456.526 162.026 456.098 162.106 455.736 162.186ZM458.734 153.673L459.028 153.901C459.543 154.337 459.953 154.884 460.227 155.502C460.5 156.12 460.63 156.792 460.607 157.467C460.614 158.479 460.284 159.465 459.67 160.269C459.961 160.191 460.24 160.073 460.5 159.921C460.995 159.63 461.409 159.22 461.704 158.727C461.993 158.179 462.131 157.564 462.105 156.944C462.142 156.238 461.954 155.539 461.57 154.947C461.254 154.469 460.781 154.117 460.232 153.954C459.743 153.808 459.241 153.705 458.734 153.646V153.673Z" fill="#2BC2F7"/>
<path d="M467.204 161.717C467.057 160.22 467.243 158.709 467.748 157.292C468.253 155.875 469.065 154.588 470.125 153.522C471.186 152.457 472.468 151.641 473.881 151.131C475.294 150.622 476.802 150.432 478.297 150.576C479.795 150.48 481.297 150.686 482.715 151.181C484.133 151.676 485.438 152.45 486.552 153.458C487.55 154.535 488.32 155.803 488.816 157.185C489.313 158.568 489.526 160.036 489.442 161.503C489.525 163.634 489.094 165.754 488.185 167.683C487.358 169.269 486.083 170.575 484.518 171.437C482.677 172.391 480.622 172.853 478.551 172.778C476.487 172.847 474.435 172.453 472.543 171.625C470.918 170.819 469.574 169.538 468.689 167.952C467.646 166.044 467.133 163.891 467.204 161.717ZM473.894 161.717C473.748 163.369 474.173 165.021 475.099 166.396C475.526 166.841 476.038 167.195 476.605 167.437C477.171 167.679 477.781 167.803 478.397 167.803C479.013 167.803 479.622 167.679 480.189 167.437C480.756 167.195 481.268 166.841 481.695 166.396C482.629 164.906 483.043 163.147 482.873 161.396C482.998 159.817 482.562 158.245 481.642 156.958C481.221 156.503 480.706 156.148 480.132 155.916C479.558 155.684 478.941 155.582 478.323 155.617C477.716 155.595 477.111 155.711 476.554 155.957C475.998 156.203 475.505 156.573 475.112 157.038C474.155 158.411 473.706 160.075 473.841 161.744L473.894 161.717Z" fill="#2BC2F7"/>
<path d="M478.551 175.406C476.097 175.475 473.659 174.989 471.419 173.984C469.334 172.963 467.608 171.331 466.468 169.305C465.176 166.991 464.538 164.367 464.622 161.717C464.718 159.003 465.586 156.374 467.123 154.137C468.66 151.9 470.803 150.15 473.298 149.091C475.794 148.032 478.539 147.709 481.212 148.16C483.884 148.61 486.373 149.816 488.385 151.635C489.634 152.951 490.603 154.508 491.233 156.212C491.864 157.915 492.142 159.728 492.051 161.543C492.134 164.096 491.597 166.631 490.486 168.93C489.433 170.959 487.803 172.629 485.803 173.73C483.57 174.906 481.072 175.484 478.551 175.406ZM480.357 153.297C481.594 153.637 482.702 154.337 483.541 155.308C484.898 157.054 485.561 159.242 485.401 161.449C485.401 164.519 484.826 166.691 483.635 168.152C482.871 169.06 481.87 169.738 480.745 170.11C481.631 169.98 482.487 169.694 483.274 169.265C484.412 168.658 485.344 167.724 485.95 166.584C486.667 165.028 487.002 163.322 486.927 161.61C487.01 160.477 486.863 159.34 486.495 158.266C486.127 157.192 485.546 156.204 484.786 155.362C483.579 154.2 482.021 153.473 480.357 153.297ZM476.222 153.297C474.62 153.491 473.125 154.207 471.967 155.335C471.195 156.195 470.605 157.202 470.232 158.297C469.86 159.391 469.713 160.55 469.8 161.704C469.724 163.428 470.113 165.141 470.924 166.664C471.546 167.82 472.508 168.757 473.68 169.346C474.365 169.669 475.089 169.899 475.834 170.029C474.769 169.64 473.824 168.979 473.091 168.112C471.898 166.203 471.266 163.996 471.266 161.744C471.266 159.491 471.898 157.284 473.091 155.375C473.906 154.395 474.99 153.677 476.209 153.311L476.222 153.297ZM478.283 158.191C478.048 158.167 477.81 158.201 477.591 158.29C477.372 158.379 477.178 158.52 477.025 158.7C476.513 159.622 476.307 160.683 476.436 161.73C476.306 162.769 476.513 163.822 477.025 164.734C477.19 164.922 477.398 165.066 477.631 165.155C477.864 165.244 478.116 165.274 478.363 165.243C479.3 165.243 479.567 164.935 479.701 164.774C479.835 164.613 480.263 164.023 480.263 161.435C480.369 160.501 480.162 159.558 479.674 158.754C479.506 158.549 479.29 158.388 479.045 158.285C478.8 158.182 478.534 158.141 478.27 158.164L478.283 158.191Z" fill="#2BC2F7"/>
<path d="M493.108 172.456V151.004H504.161C505.743 150.948 507.326 151.124 508.857 151.527C509.947 151.853 510.891 152.544 511.533 153.485C512.009 154.167 512.339 154.941 512.503 155.757C512.668 156.573 512.662 157.414 512.488 158.228C512.313 159.042 511.973 159.811 511.489 160.487C511.005 161.164 510.387 161.733 509.673 162.159C508.948 162.567 508.162 162.857 507.345 163.017C507.955 163.197 508.536 163.464 509.071 163.808C509.468 164.139 509.823 164.518 510.128 164.934C510.479 165.353 510.792 165.802 511.065 166.275L514.276 172.51H506.783L503.237 165.94C502.953 165.31 502.543 164.744 502.033 164.278C501.559 163.946 500.992 163.773 500.414 163.781H499.825V172.51L493.108 172.456ZM499.799 159.665H502.595C503.186 159.615 503.773 159.516 504.348 159.371C504.782 159.288 505.169 159.044 505.432 158.687C505.738 158.263 505.882 157.742 505.838 157.221C505.794 156.699 505.564 156.211 505.191 155.844C504.447 155.398 503.578 155.205 502.716 155.295H499.799V159.665Z" fill="#2BC2F7"/>
<path d="M514.223 175.044H506.73C506.266 175.044 505.81 174.92 505.41 174.684C505.01 174.449 504.68 174.11 504.455 173.703L502.355 169.788V172.469C502.351 173.155 502.078 173.811 501.594 174.295C501.111 174.78 500.456 175.053 499.772 175.057H493.082C492.397 175.057 491.74 174.784 491.256 174.299C490.772 173.814 490.5 173.156 490.5 172.469V151.018C490.498 150.678 490.563 150.34 490.693 150.026C490.822 149.711 491.012 149.425 491.252 149.184C491.492 148.944 491.778 148.753 492.092 148.624C492.406 148.494 492.742 148.429 493.082 148.43H504.134C505.99 148.367 507.845 148.589 509.634 149.087C511.235 149.599 512.62 150.633 513.567 152.024C514.565 153.482 515.08 155.217 515.039 156.984C515.065 158.525 514.677 160.044 513.915 161.382C513.456 162.171 512.868 162.878 512.176 163.473C512.6 163.989 512.972 164.546 513.286 165.136L516.484 171.33C516.689 171.724 516.788 172.164 516.774 172.608C516.759 173.052 516.631 173.485 516.401 173.865C516.171 174.245 515.848 174.559 515.461 174.777C515.075 174.995 514.64 175.11 514.196 175.111L514.223 175.044ZM508.269 169.868H509.981L508.724 167.415C508.531 167.093 508.312 166.788 508.068 166.503C507.881 166.263 507.68 166.035 507.466 165.819C507.151 165.651 506.819 165.516 506.476 165.417C506.146 165.303 505.841 165.126 505.579 164.894L508.269 169.868ZM495.691 169.868H497.19V163.728C497.19 163.335 497.279 162.948 497.45 162.595C497.622 162.242 497.871 161.932 498.18 161.69C497.872 161.451 497.622 161.144 497.451 160.793C497.279 160.442 497.19 160.056 497.19 159.666V155.295C497.185 154.644 497.429 154.015 497.872 153.539H495.691V169.868ZM503.532 162.159C504.017 162.535 504.438 162.988 504.776 163.5C504.743 163.273 504.743 163.043 504.776 162.816C504.79 162.487 504.867 162.164 505.004 161.864H504.883C504.321 162.025 503.893 162.106 503.532 162.186V162.159ZM506.529 153.646L506.824 153.874C507.339 154.31 507.749 154.857 508.022 155.475C508.296 156.093 508.426 156.765 508.403 157.44C508.41 158.452 508.08 159.438 507.466 160.242C508.31 160.004 509.033 159.453 509.486 158.7C509.777 158.109 509.918 157.454 509.897 156.795C509.876 156.136 509.694 155.491 509.366 154.92C509.05 154.442 508.576 154.09 508.028 153.927C507.538 153.79 507.036 153.696 506.529 153.646Z" fill="#2BC2F7"/>
<path d="M400.236 150.951H418.005V155.483H406.886V158.902H417.202V163.286H406.886V167.549H418.326V172.416H400.236V150.951Z" fill="white"/>
<path d="M421.991 172.456V151.004H433.043C434.626 150.948 436.208 151.124 437.739 151.527C438.829 151.853 439.774 152.544 440.416 153.485C440.891 154.167 441.222 154.941 441.386 155.757C441.55 156.573 441.545 157.414 441.37 158.228C441.196 159.042 440.856 159.811 440.372 160.487C439.887 161.164 439.269 161.733 438.556 162.159C437.83 162.567 437.044 162.857 436.227 163.017C436.837 163.197 437.419 163.464 437.954 163.808C438.35 164.139 438.705 164.518 439.011 164.934C439.361 165.353 439.674 165.802 439.947 166.275L443.159 172.51H435.665L432.12 165.94C431.835 165.31 431.425 164.744 430.915 164.278C430.441 163.946 429.875 163.773 429.296 163.781H428.708V172.51L421.991 172.456ZM428.681 159.665H431.477C432.069 159.615 432.655 159.516 433.23 159.371C433.665 159.288 434.052 159.044 434.314 158.687C434.62 158.263 434.764 157.742 434.72 157.221C434.676 156.699 434.446 156.211 434.073 155.844C433.329 155.398 432.461 155.205 431.598 155.295H428.681V159.665Z" fill="white"/>
<path d="M445.314 172.456V151.005H456.366C457.953 150.947 459.54 151.124 461.076 151.528C462.166 151.852 463.112 152.543 463.752 153.485C464.228 154.168 464.558 154.941 464.722 155.757C464.887 156.573 464.881 157.414 464.707 158.228C464.532 159.042 464.192 159.811 463.708 160.487C463.224 161.164 462.606 161.733 461.892 162.159C461.167 162.568 460.381 162.857 459.564 163.017C460.174 163.198 460.755 163.464 461.29 163.808C461.692 164.138 462.051 164.517 462.361 164.935C462.703 165.357 463.012 165.805 463.284 166.275L466.495 172.51H458.949L455.403 165.94C455.123 165.307 454.713 164.741 454.199 164.278C453.727 163.941 453.159 163.767 452.58 163.782H451.991V172.51L445.314 172.456ZM452.004 159.666H454.801C455.392 159.616 455.978 159.517 456.553 159.371C456.988 159.288 457.375 159.044 457.637 158.687C457.916 158.332 458.062 157.891 458.052 157.44C458.07 157.142 458.02 156.844 457.906 156.567C457.793 156.291 457.619 156.044 457.396 155.845C456.652 155.398 455.784 155.205 454.921 155.295H452.004V159.666Z" fill="white"/>
<path d="M467.204 161.717C467.057 160.22 467.243 158.709 467.748 157.292C468.253 155.875 469.065 154.588 470.125 153.522C471.186 152.457 472.468 151.641 473.881 151.131C475.294 150.622 476.802 150.432 478.297 150.576C479.795 150.48 481.297 150.686 482.715 151.181C484.133 151.676 485.438 152.45 486.552 153.458C487.55 154.535 488.32 155.803 488.816 157.185C489.313 158.568 489.526 160.036 489.442 161.503C489.525 163.634 489.094 165.754 488.185 167.683C487.358 169.269 486.083 170.575 484.518 171.437C482.677 172.391 480.622 172.853 478.551 172.778C476.487 172.847 474.435 172.453 472.543 171.625C470.918 170.819 469.574 169.538 468.689 167.952C467.646 166.044 467.133 163.891 467.204 161.717ZM473.894 161.717C473.748 163.369 474.173 165.021 475.099 166.396C475.526 166.841 476.038 167.195 476.605 167.437C477.171 167.679 477.781 167.803 478.397 167.803C479.013 167.803 479.622 167.679 480.189 167.437C480.756 167.195 481.268 166.841 481.695 166.396C482.629 164.906 483.043 163.147 482.873 161.396C482.998 159.817 482.562 158.245 481.642 156.958C481.221 156.503 480.706 156.148 480.132 155.916C479.558 155.684 478.941 155.582 478.323 155.617C477.716 155.595 477.111 155.711 476.554 155.957C475.998 156.203 475.505 156.573 475.112 157.038C474.155 158.411 473.706 160.075 473.841 161.744L473.894 161.717Z" fill="white"/>
<path d="M493.108 172.456V151.004H504.161C505.743 150.948 507.326 151.124 508.857 151.527C509.947 151.853 510.891 152.544 511.533 153.485C512.009 154.167 512.339 154.941 512.503 155.757C512.668 156.573 512.662 157.414 512.488 158.228C512.313 159.042 511.973 159.811 511.489 160.487C511.005 161.164 510.387 161.733 509.673 162.159C508.948 162.567 508.162 162.857 507.345 163.017C507.955 163.197 508.536 163.464 509.071 163.808C509.468 164.139 509.823 164.518 510.128 164.934C510.479 165.353 510.792 165.802 511.065 166.275L514.276 172.51H506.783L503.237 165.94C502.953 165.31 502.543 164.744 502.033 164.278C501.559 163.946 500.992 163.773 500.414 163.781H499.825V172.51L493.108 172.456ZM499.799 159.665H502.595C503.186 159.615 503.773 159.516 504.348 159.371C504.782 159.288 505.169 159.044 505.432 158.687C505.738 158.263 505.882 157.742 505.838 157.221C505.794 156.699 505.564 156.211 505.191 155.844C504.447 155.398 503.578 155.205 502.716 155.295H499.799V159.665Z" fill="white"/>
<path d="M293.237 162.534C304.77 150.054 304.023 130.569 291.568 119.013C279.114 107.457 259.668 108.206 248.135 120.685C236.602 133.165 237.349 152.649 249.803 164.205C262.258 175.762 281.704 175.013 293.237 162.534Z" fill="#2BC2F7"/>
<path d="M356.923 173.743C341.696 173.743 336.317 167.965 331.125 162.387C329.406 160.439 327.521 158.645 325.492 157.024C317.705 151.072 305.421 148.35 299.226 151.206C298.937 151.254 298.64 151.206 298.381 151.069C298.122 150.931 297.915 150.713 297.792 150.446C297.669 150.18 297.637 149.88 297.7 149.594C297.763 149.307 297.919 149.049 298.143 148.859C305.234 145.602 318.467 148.404 327.058 154.96C329.204 156.686 331.201 158.592 333.025 160.658C338.056 166.088 342.82 171.209 356.923 171.209C360.364 171.3 363.766 170.456 366.768 168.766C369.769 167.076 372.257 164.603 373.969 161.61C375.383 159.261 376.146 156.577 376.182 153.834C376.217 151.091 375.523 148.389 374.17 146.004C370.972 140.842 364.389 138.214 355.611 138.63C355.416 138.692 355.209 138.709 355.006 138.678C354.803 138.647 354.61 138.57 354.441 138.453C354.273 138.335 354.134 138.18 354.035 138C353.935 137.82 353.879 137.62 353.869 137.415C353.86 137.209 353.897 137.004 353.979 136.816C354.061 136.628 354.186 136.461 354.342 136.328C354.499 136.195 354.684 136.1 354.883 136.051C355.083 136.001 355.29 135.998 355.491 136.042C365.245 135.6 372.658 138.643 376.364 144.636C377.957 147.415 378.784 150.567 378.761 153.771C378.737 156.975 377.864 160.115 376.23 162.87C374.291 166.259 371.472 169.059 368.073 170.974C364.673 172.888 360.821 173.845 356.923 173.743Z" fill="#2BC2F7"/>
<path d="M283.665 165.135C267.47 164.97 251.861 159.04 239.63 148.403C239.472 148.157 239.398 147.865 239.42 147.573C239.443 147.281 239.56 147.005 239.754 146.786C239.949 146.567 240.209 146.418 240.496 146.361C240.783 146.305 241.08 146.344 241.343 146.472C252.047 156.045 271.154 165.108 292.469 161.891C292.657 161.808 292.861 161.77 293.066 161.78C293.272 161.789 293.472 161.845 293.651 161.945C293.831 162.044 293.986 162.183 294.103 162.352C294.22 162.521 294.297 162.714 294.328 162.918C294.359 163.121 294.343 163.329 294.281 163.525C294.219 163.721 294.112 163.9 293.97 164.048C293.828 164.196 293.653 164.31 293.46 164.38C293.267 164.45 293.061 164.474 292.857 164.451C289.814 164.908 286.742 165.136 283.665 165.135Z" fill="#2BC2F7"/>
<path d="M280.293 168.97C264.517 168.97 251.043 162.749 239.282 150.066C239.052 149.818 238.925 149.493 238.925 149.155C238.925 148.816 239.052 148.491 239.282 148.243C239.53 148.009 239.858 147.879 240.198 147.879C240.539 147.879 240.867 148.009 241.115 148.243C254.134 162.294 269.348 168.045 287.612 165.873C287.803 165.793 288.009 165.758 288.216 165.772C288.422 165.785 288.623 165.847 288.802 165.951C288.981 166.055 289.133 166.2 289.247 166.373C289.36 166.546 289.433 166.744 289.457 166.949C289.482 167.155 289.459 167.364 289.389 167.56C289.32 167.755 289.206 167.931 289.057 168.075C288.908 168.219 288.728 168.326 288.53 168.389C288.333 168.451 288.124 168.466 287.919 168.434C285.39 168.767 282.843 168.946 280.293 168.97Z" fill="#2BC2F7"/>
<path d="M256.984 170.525C256.651 170.527 256.33 170.404 256.082 170.181C255.835 169.958 255.679 169.65 255.646 169.318C254.522 154.195 259.727 130.116 273.857 110.421C274.084 110.236 274.366 110.13 274.659 110.121C274.952 110.111 275.24 110.199 275.478 110.369C275.717 110.54 275.893 110.784 275.98 111.065C276.066 111.345 276.058 111.647 275.957 111.922C262.256 131.108 257.185 154.477 258.242 169.131C258.244 169.462 258.123 169.783 257.903 170.03C257.683 170.278 257.38 170.435 257.051 170.471L256.984 170.525Z" fill="#2BC2F7"/>
<path d="M244.152 158.525C243.906 158.524 243.665 158.454 243.456 158.324C243.176 158.133 242.979 157.843 242.905 157.512C242.83 157.181 242.884 156.834 243.054 156.541C247.55 149.422 264.249 125.544 290.421 117.164C290.746 117.073 291.093 117.108 291.393 117.262C291.693 117.416 291.924 117.678 292.04 117.996C292.131 118.321 292.097 118.669 291.943 118.97C291.789 119.27 291.527 119.502 291.21 119.618C265.868 127.742 249.611 150.99 245.235 157.922C245.117 158.103 244.956 158.252 244.768 158.357C244.579 158.462 244.367 158.52 244.152 158.525Z" fill="#2BC2F7"/>
<path d="M244.152 158.526C243.987 158.527 243.823 158.495 243.671 158.432C243.361 158.296 243.115 158.047 242.981 157.736C242.847 157.425 242.835 157.075 242.948 156.756C246.906 147.008 252.89 138.216 260.504 130.966C268.118 123.716 277.185 118.175 287.103 114.711C287.396 114.69 287.688 114.766 287.933 114.928C288.178 115.089 288.364 115.327 288.461 115.604C288.558 115.881 288.562 116.183 288.472 116.463C288.381 116.742 288.201 116.984 287.96 117.152C278.381 120.488 269.622 125.833 262.266 132.828C254.911 139.824 249.128 148.31 245.303 157.721C245.204 157.949 245.045 158.145 244.841 158.287C244.638 158.429 244.4 158.512 244.152 158.526Z" fill="#2BC2F7"/>
<path d="M253.171 168.273C252.846 168.276 252.532 168.161 252.285 167.949C252.039 167.737 251.878 167.442 251.833 167.12C248.595 139.179 257.747 123.198 268.13 110.099C268.349 109.842 268.657 109.677 268.991 109.637C269.326 109.597 269.664 109.686 269.937 109.885C270.197 110.104 270.364 110.415 270.404 110.754C270.444 111.093 270.353 111.434 270.151 111.708C260.115 124.378 251.271 139.863 254.402 166.825C254.429 167.164 254.327 167.501 254.116 167.767C253.905 168.034 253.6 168.21 253.265 168.259L253.171 168.273Z" fill="#2BC2F7"/>
<path d="M249.586 165.35C249.307 165.343 249.036 165.249 248.813 165.08C248.59 164.912 248.425 164.678 248.341 164.411C244.327 149.596 247.311 126.429 263.689 110.541C263.936 110.311 264.261 110.184 264.599 110.184C264.936 110.184 265.261 110.311 265.508 110.541C265.742 110.79 265.872 111.118 265.872 111.46C265.872 111.801 265.742 112.129 265.508 112.378C250.589 126.844 246.843 149.14 250.857 163.687C250.937 164.017 250.889 164.366 250.723 164.662C250.556 164.958 250.284 165.18 249.96 165.283L249.586 165.35Z" fill="#2BC2F7"/>
<path d="M301.06 147.25C300.792 147.247 300.531 147.163 300.311 147.009C281.177 133.213 257.841 128.132 243.216 129.231C242.925 129.177 242.66 129.028 242.463 128.807C242.266 128.586 242.147 128.305 242.126 128.01C242.104 127.714 242.181 127.419 242.345 127.172C242.508 126.925 242.749 126.739 243.029 126.643C258.122 125.531 282.153 130.733 301.823 144.904C302.02 145.077 302.163 145.304 302.233 145.558C302.303 145.811 302.297 146.08 302.216 146.33C302.134 146.58 301.981 146.8 301.776 146.964C301.57 147.128 301.321 147.227 301.06 147.25Z" fill="#2BC2F7"/>
<path d="M301.327 143.671C301.147 143.675 300.969 143.639 300.805 143.564C283.652 135.935 257.694 134.929 240.433 141.204C240.265 141.324 240.072 141.404 239.868 141.437C239.664 141.47 239.456 141.456 239.259 141.395C239.062 141.334 238.881 141.228 238.732 141.085C238.582 140.943 238.468 140.767 238.397 140.573C238.326 140.379 238.301 140.171 238.324 139.965C238.347 139.76 238.417 139.562 238.529 139.389C238.64 139.215 238.791 139.069 238.968 138.963C239.145 138.857 239.344 138.793 239.55 138.777C257.373 132.288 284.147 133.334 301.849 141.204C302.153 141.352 302.389 141.61 302.511 141.926C302.632 142.242 302.63 142.592 302.505 142.907C302.398 143.131 302.232 143.321 302.024 143.456C301.816 143.591 301.575 143.665 301.327 143.671Z" fill="#2BC2F7"/>
<path d="M301.273 140.051C301.095 140.048 300.919 140.01 300.756 139.939C300.593 139.868 300.446 139.764 300.323 139.635C287.598 125.772 271.114 120.865 246.801 123.667C246.611 123.747 246.404 123.782 246.197 123.769C245.991 123.755 245.79 123.694 245.611 123.59C245.432 123.485 245.28 123.341 245.166 123.168C245.053 122.994 244.981 122.797 244.956 122.591C244.931 122.385 244.954 122.176 245.024 121.981C245.093 121.786 245.207 121.609 245.356 121.465C245.505 121.321 245.685 121.214 245.883 121.152C246.08 121.09 246.289 121.074 246.494 121.107C271.328 118.211 289.017 123.547 302.169 137.892C302.317 138.083 302.411 138.311 302.441 138.551C302.47 138.791 302.434 139.034 302.337 139.255C302.239 139.477 302.084 139.667 301.888 139.807C301.691 139.947 301.46 140.032 301.219 140.051H301.273Z" fill="#2BC2F7"/>
<path d="M300.31 134.795C299.968 134.786 299.642 134.647 299.4 134.406C283.49 118.505 261.052 116.212 250.896 119.658C250.602 119.677 250.31 119.599 250.065 119.435C249.82 119.271 249.636 119.03 249.541 118.75C249.446 118.471 249.447 118.168 249.542 117.888C249.637 117.609 249.821 117.368 250.066 117.204C260.837 113.544 284.547 115.864 301.219 132.569C301.449 132.817 301.576 133.143 301.576 133.481C301.576 133.819 301.449 134.144 301.219 134.392C300.979 134.639 300.653 134.783 300.31 134.795Z" fill="#2BC2F7"/>
<path d="M294.369 162.601C294.249 162.62 294.127 162.62 294.008 162.601C263.233 153.471 240.606 132.743 240.392 132.529C240.239 132.28 240.17 131.989 240.197 131.698C240.224 131.407 240.346 131.132 240.543 130.917C240.739 130.701 241.001 130.556 241.288 130.503C241.575 130.451 241.871 130.493 242.132 130.625C242.359 130.839 264.571 151.165 294.743 160.121C295.001 160.244 295.213 160.448 295.347 160.701C295.481 160.954 295.53 161.243 295.489 161.526C295.447 161.809 295.315 162.072 295.114 162.275C294.912 162.478 294.651 162.611 294.369 162.655V162.601Z" fill="#2BC2F7"/>
<path d="M294.984 161.811C294.809 161.809 294.636 161.772 294.476 161.704C275.854 153.372 258.014 143.389 241.168 131.873C240.973 131.804 240.796 131.691 240.651 131.542C240.507 131.394 240.399 131.213 240.336 131.016C240.272 130.818 240.256 130.608 240.288 130.403C240.319 130.198 240.398 130.003 240.517 129.833C240.637 129.664 240.794 129.524 240.977 129.426C241.159 129.328 241.362 129.274 241.569 129.267C241.776 129.261 241.982 129.303 242.17 129.39C242.358 129.477 242.524 129.606 242.653 129.768C259.351 141.182 277.035 151.075 295.492 159.331C295.731 159.473 295.919 159.687 296.031 159.941C296.143 160.196 296.174 160.479 296.118 160.752C296.062 161.024 295.923 161.273 295.72 161.463C295.516 161.652 295.259 161.774 294.984 161.811Z" fill="#2BC2F7"/>
<path d="M296.122 160.215C295.912 160.219 295.705 160.168 295.52 160.067C269.201 145.883 241.611 132.114 241.343 131.979C241.124 131.785 240.975 131.523 240.919 131.236C240.863 130.948 240.902 130.649 241.031 130.386C241.16 130.123 241.372 129.909 241.634 129.778C241.895 129.647 242.193 129.606 242.48 129.66C242.761 129.794 270.392 143.59 296.738 157.815C296.959 157.971 297.128 158.191 297.221 158.446C297.315 158.7 297.33 158.977 297.263 159.24C297.196 159.503 297.051 159.74 296.848 159.918C296.644 160.097 296.391 160.21 296.122 160.242V160.215Z" fill="#2BC2F7"/>
<path d="M297.045 158.794C296.758 158.799 296.479 158.704 296.255 158.526C272.358 139.756 242.319 131.041 242.011 130.961C241.757 130.81 241.56 130.579 241.45 130.304C241.341 130.028 241.326 129.725 241.407 129.44C241.488 129.155 241.66 128.905 241.898 128.729C242.136 128.553 242.425 128.461 242.72 128.467C243.028 128.561 273.495 137.383 297.848 156.488C298.104 156.707 298.269 157.015 298.309 157.351C298.348 157.686 298.26 158.025 298.062 158.298C297.943 158.454 297.789 158.581 297.612 158.667C297.435 158.753 297.241 158.797 297.045 158.794Z" fill="#2BC2F7"/>
<path d="M299.507 153.592C299.211 153.591 298.924 153.492 298.691 153.31C276.8 135.291 242.493 131.041 242.199 131.001C241.924 130.892 241.693 130.695 241.542 130.441C241.391 130.186 241.328 129.889 241.363 129.595C241.398 129.301 241.529 129.027 241.736 128.816C241.943 128.605 242.214 128.468 242.506 128.427C242.854 128.427 277.844 132.811 300.336 151.313C300.587 151.537 300.744 151.848 300.776 152.184C300.809 152.519 300.714 152.854 300.51 153.123C300.386 153.268 300.232 153.385 300.059 153.466C299.886 153.547 299.698 153.59 299.507 153.592Z" fill="#2BC2F7"/>
<path d="M259.165 171.571C258.908 171.543 258.664 171.441 258.463 171.278C258.262 171.114 258.113 170.895 258.034 170.648C257.954 170.401 257.948 170.137 258.016 169.886C258.084 169.636 258.223 169.411 258.416 169.238C282.808 151.554 296.737 127.019 296.871 126.778C296.922 126.578 297.018 126.393 297.151 126.236C297.285 126.08 297.453 125.956 297.642 125.875C297.832 125.794 298.037 125.758 298.242 125.77C298.447 125.781 298.647 125.84 298.826 125.941C299.005 126.043 299.159 126.184 299.274 126.354C299.39 126.525 299.465 126.72 299.493 126.924C299.521 127.128 299.502 127.336 299.437 127.531C299.372 127.727 299.263 127.905 299.119 128.051C298.985 128.293 284.775 153.324 259.928 171.329C259.704 171.486 259.438 171.57 259.165 171.571Z" fill="#2BC2F7"/>
<g opacity="0.3">
<path d="M283.665 165.136C267.47 164.971 251.861 159.04 239.63 148.404C239.472 148.158 239.398 147.866 239.42 147.574C239.443 147.282 239.56 147.006 239.754 146.787C239.949 146.568 240.209 146.419 240.496 146.362C240.783 146.306 241.08 146.345 241.343 146.473C252.047 156.046 271.154 165.109 292.469 161.891C292.657 161.809 292.861 161.771 293.066 161.78C293.272 161.79 293.472 161.846 293.651 161.946C293.831 162.045 293.986 162.184 294.103 162.353C294.22 162.522 294.297 162.715 294.328 162.919C294.359 163.122 294.343 163.33 294.281 163.526C294.219 163.722 294.112 163.901 293.97 164.049C293.828 164.197 293.653 164.311 293.46 164.381C293.267 164.451 293.061 164.475 292.857 164.452C289.814 164.909 286.742 165.137 283.665 165.136Z" fill="black"/>
<path d="M280.293 168.97C264.517 168.97 251.043 162.749 239.282 150.066C239.052 149.818 238.925 149.493 238.925 149.155C238.925 148.816 239.052 148.491 239.282 148.243C239.53 148.009 239.858 147.879 240.198 147.879C240.539 147.879 240.867 148.009 241.115 148.243C254.134 162.294 269.348 168.045 287.612 165.873C287.803 165.793 288.009 165.758 288.216 165.772C288.422 165.785 288.623 165.847 288.802 165.951C288.981 166.055 289.133 166.2 289.247 166.373C289.36 166.546 289.433 166.744 289.457 166.949C289.482 167.155 289.459 167.364 289.389 167.56C289.32 167.755 289.206 167.931 289.057 168.075C288.908 168.219 288.728 168.326 288.53 168.389C288.333 168.451 288.124 168.466 287.919 168.434C285.39 168.767 282.843 168.946 280.293 168.97Z" fill="black"/>
<path d="M256.984 170.525C256.651 170.527 256.33 170.404 256.082 170.181C255.835 169.958 255.679 169.65 255.646 169.318C254.522 154.195 259.727 130.116 273.857 110.421C274.084 110.236 274.366 110.13 274.659 110.121C274.952 110.111 275.24 110.199 275.478 110.369C275.717 110.54 275.893 110.784 275.98 111.065C276.066 111.345 276.058 111.647 275.957 111.922C262.256 131.108 257.185 154.477 258.242 169.131C258.244 169.462 258.123 169.783 257.903 170.03C257.683 170.278 257.38 170.435 257.051 170.471L256.984 170.525Z" fill="black"/>
<path d="M244.152 158.526C243.906 158.524 243.665 158.455 243.456 158.325C243.176 158.134 242.979 157.844 242.905 157.513C242.83 157.182 242.884 156.835 243.054 156.542C247.55 149.423 264.249 125.545 290.421 117.165C290.746 117.074 291.093 117.109 291.393 117.263C291.693 117.417 291.924 117.679 292.04 117.996C292.131 118.322 292.097 118.67 291.943 118.971C291.789 119.271 291.527 119.503 291.21 119.619C265.868 127.743 249.611 150.991 245.235 157.923C245.117 158.104 244.956 158.253 244.768 158.358C244.579 158.463 244.367 158.521 244.152 158.526Z" fill="black"/>
<path d="M244.152 158.526C243.987 158.527 243.823 158.495 243.671 158.432C243.361 158.296 243.115 158.047 242.981 157.736C242.847 157.425 242.835 157.075 242.948 156.756C246.906 147.008 252.89 138.216 260.504 130.966C268.118 123.716 277.185 118.175 287.103 114.711C287.396 114.69 287.688 114.766 287.933 114.928C288.178 115.089 288.364 115.327 288.461 115.604C288.558 115.881 288.562 116.183 288.472 116.463C288.381 116.742 288.201 116.984 287.96 117.152C278.381 120.488 269.622 125.833 262.266 132.828C254.911 139.824 249.128 148.31 245.303 157.721C245.204 157.949 245.045 158.145 244.841 158.287C244.638 158.429 244.4 158.512 244.152 158.526Z" fill="black"/>
<path d="M253.171 168.273C252.846 168.276 252.532 168.161 252.285 167.949C252.039 167.737 251.878 167.442 251.833 167.12C248.595 139.179 257.747 123.198 268.13 110.099C268.349 109.842 268.657 109.677 268.991 109.637C269.326 109.597 269.664 109.686 269.937 109.885C270.197 110.104 270.364 110.415 270.404 110.754C270.444 111.093 270.353 111.434 270.151 111.708C260.115 124.378 251.271 139.863 254.402 166.825C254.429 167.164 254.327 167.501 254.116 167.767C253.905 168.034 253.6 168.21 253.265 168.259L253.171 168.273Z" fill="black"/>
<path d="M249.586 165.351C249.307 165.344 249.036 165.25 248.813 165.081C248.59 164.913 248.425 164.679 248.341 164.412C244.327 149.597 247.311 126.43 263.689 110.542C263.936 110.312 264.261 110.185 264.599 110.185C264.936 110.185 265.261 110.312 265.508 110.542C265.742 110.791 265.872 111.119 265.872 111.461C265.872 111.802 265.742 112.13 265.508 112.379C250.589 126.845 246.843 149.141 250.857 163.688C250.937 164.018 250.889 164.367 250.723 164.663C250.556 164.959 250.284 165.181 249.96 165.283L249.586 165.351Z" fill="black"/>
<path d="M301.06 147.25C300.792 147.247 300.531 147.163 300.311 147.009C281.177 133.213 257.841 128.132 243.216 129.231C242.925 129.177 242.66 129.028 242.463 128.807C242.266 128.586 242.147 128.305 242.126 128.01C242.104 127.714 242.181 127.419 242.345 127.172C242.508 126.925 242.749 126.739 243.029 126.643C258.122 125.531 282.153 130.733 301.823 144.904C302.02 145.077 302.163 145.304 302.233 145.558C302.303 145.811 302.297 146.08 302.216 146.33C302.134 146.58 301.981 146.8 301.776 146.964C301.57 147.128 301.321 147.227 301.06 147.25Z" fill="black"/>
<path d="M301.327 143.671C301.147 143.675 300.969 143.639 300.805 143.564C283.652 135.935 257.694 134.929 240.433 141.204C240.265 141.324 240.072 141.404 239.868 141.437C239.664 141.47 239.456 141.456 239.259 141.395C239.062 141.334 238.881 141.228 238.732 141.085C238.582 140.943 238.468 140.767 238.397 140.573C238.326 140.379 238.301 140.171 238.324 139.965C238.347 139.76 238.417 139.562 238.529 139.389C238.64 139.215 238.791 139.069 238.968 138.963C239.145 138.857 239.344 138.793 239.55 138.777C257.373 132.288 284.147 133.334 301.849 141.204C302.153 141.352 302.389 141.61 302.511 141.926C302.632 142.242 302.63 142.592 302.505 142.907C302.398 143.131 302.232 143.321 302.024 143.456C301.816 143.591 301.575 143.665 301.327 143.671Z" fill="black"/>
<path d="M301.273 140.051C301.095 140.048 300.919 140.01 300.756 139.939C300.593 139.868 300.446 139.764 300.323 139.635C287.598 125.772 271.114 120.865 246.801 123.667C246.611 123.747 246.404 123.782 246.197 123.769C245.991 123.755 245.79 123.694 245.611 123.59C245.432 123.485 245.28 123.341 245.166 123.168C245.053 122.994 244.981 122.797 244.956 122.591C244.931 122.385 244.954 122.176 245.024 121.981C245.093 121.786 245.207 121.609 245.356 121.465C245.505 121.321 245.685 121.214 245.883 121.152C246.08 121.09 246.289 121.074 246.494 121.107C271.328 118.211 289.017 123.547 302.169 137.892C302.317 138.083 302.411 138.311 302.441 138.551C302.47 138.791 302.434 139.034 302.337 139.255C302.239 139.477 302.084 139.667 301.888 139.807C301.691 139.947 301.46 140.032 301.219 140.051H301.273Z" fill="black"/>
<path d="M300.31 134.796C299.968 134.787 299.642 134.648 299.4 134.407C283.49 118.506 261.052 116.213 250.896 119.659C250.602 119.678 250.31 119.6 250.065 119.436C249.82 119.272 249.636 119.031 249.541 118.751C249.446 118.472 249.447 118.169 249.542 117.889C249.637 117.609 249.821 117.369 250.066 117.205C260.837 113.545 284.547 115.865 301.219 132.57C301.449 132.818 301.576 133.144 301.576 133.482C301.576 133.82 301.449 134.145 301.219 134.393C300.979 134.64 300.653 134.784 300.31 134.796Z" fill="black"/>
<path d="M294.369 162.602C294.249 162.621 294.127 162.621 294.008 162.602C263.233 153.472 240.606 132.744 240.392 132.53C240.239 132.281 240.17 131.989 240.197 131.699C240.224 131.408 240.346 131.133 240.543 130.918C240.739 130.702 241.001 130.557 241.288 130.504C241.575 130.452 241.871 130.494 242.132 130.626C242.359 130.84 264.571 151.166 294.743 160.122C295.001 160.245 295.213 160.449 295.347 160.702C295.481 160.954 295.53 161.244 295.489 161.527C295.447 161.81 295.315 162.073 295.114 162.276C294.912 162.479 294.651 162.612 294.369 162.656V162.602Z" fill="black"/>
<path d="M294.984 161.811C294.809 161.809 294.636 161.772 294.476 161.704C275.854 153.372 258.014 143.389 241.168 131.873C240.973 131.804 240.796 131.691 240.651 131.542C240.507 131.394 240.399 131.213 240.336 131.016C240.272 130.818 240.256 130.608 240.288 130.403C240.319 130.198 240.398 130.003 240.517 129.833C240.637 129.664 240.794 129.524 240.977 129.426C241.159 129.328 241.362 129.274 241.569 129.267C241.776 129.261 241.982 129.303 242.17 129.39C242.358 129.477 242.524 129.606 242.653 129.768C259.351 141.182 277.035 151.075 295.492 159.331C295.731 159.473 295.919 159.687 296.031 159.941C296.143 160.196 296.174 160.479 296.118 160.752C296.062 161.024 295.923 161.273 295.72 161.463C295.516 161.652 295.259 161.774 294.984 161.811Z" fill="black"/>
<path d="M296.122 160.215C295.912 160.219 295.705 160.168 295.52 160.067C269.201 145.883 241.611 132.114 241.343 131.979C241.124 131.785 240.975 131.523 240.919 131.236C240.863 130.948 240.902 130.649 241.031 130.386C241.16 130.123 241.372 129.909 241.634 129.778C241.895 129.647 242.193 129.606 242.48 129.66C242.761 129.794 270.392 143.59 296.738 157.815C296.959 157.971 297.128 158.191 297.221 158.446C297.315 158.7 297.33 158.977 297.263 159.24C297.196 159.503 297.051 159.74 296.848 159.918C296.644 160.097 296.391 160.21 296.122 160.242V160.215Z" fill="black"/>
<path d="M297.045 158.794C296.758 158.799 296.479 158.704 296.255 158.526C272.358 139.756 242.319 131.041 242.011 130.961C241.757 130.81 241.56 130.579 241.45 130.304C241.341 130.028 241.326 129.725 241.407 129.44C241.488 129.155 241.66 128.905 241.898 128.729C242.136 128.553 242.425 128.461 242.72 128.467C243.028 128.561 273.495 137.383 297.848 156.488C298.104 156.707 298.269 157.015 298.309 157.351C298.348 157.686 298.26 158.025 298.062 158.298C297.943 158.454 297.789 158.581 297.612 158.667C297.435 158.753 297.241 158.797 297.045 158.794Z" fill="black"/>
<path d="M299.507 153.592C299.211 153.591 298.924 153.492 298.691 153.31C276.8 135.291 242.493 131.041 242.199 131.001C241.924 130.892 241.693 130.695 241.542 130.441C241.391 130.186 241.328 129.889 241.363 129.595C241.398 129.301 241.529 129.027 241.736 128.816C241.943 128.605 242.214 128.468 242.506 128.427C242.854 128.427 277.844 132.811 300.336 151.313C300.587 151.537 300.744 151.848 300.776 152.184C300.809 152.519 300.714 152.854 300.51 153.123C300.386 153.268 300.232 153.385 300.059 153.466C299.886 153.547 299.698 153.59 299.507 153.592Z" fill="black"/>
<path d="M259.165 171.571C258.908 171.543 258.664 171.441 258.463 171.278C258.262 171.114 258.113 170.895 258.034 170.648C257.954 170.401 257.948 170.137 258.016 169.886C258.084 169.636 258.223 169.411 258.416 169.238C282.808 151.554 296.737 127.019 296.871 126.778C296.922 126.578 297.018 126.393 297.151 126.236C297.285 126.08 297.453 125.956 297.642 125.875C297.832 125.794 298.037 125.758 298.242 125.77C298.447 125.781 298.647 125.84 298.826 125.941C299.005 126.043 299.159 126.184 299.274 126.354C299.39 126.525 299.465 126.72 299.493 126.924C299.521 127.128 299.502 127.336 299.437 127.531C299.372 127.727 299.263 127.905 299.119 128.051C298.985 128.293 284.775 153.324 259.928 171.329C259.704 171.486 259.438 171.57 259.165 171.571Z" fill="black"/>
</g>
</g>
</svg>
