<svg width="545" height="737" viewBox="0 0 545 737" fill="none" xmlns="http://www.w3.org/2000/svg">
<path opacity="0.05" d="M-110.391 330.03C-129.505 313.294 -131.433 284.232 -114.697 265.119L87.134 34.6087C103.87 15.495 132.932 13.5672 152.045 30.3029L351.788 205.195C370.902 221.931 372.83 250.993 356.094 270.107L154.263 500.616C137.527 519.73 108.465 521.658 89.3517 504.922L-110.391 330.03Z" fill="#2BC2F7"/>
<path opacity="0.05" d="M47.6085 748.03C28.4948 731.294 26.567 702.232 43.3027 683.118L245.134 452.608C261.87 433.495 290.932 431.567 310.045 448.303L509.788 623.195C528.902 639.931 530.83 668.993 514.094 688.106L312.263 918.616C295.527 937.73 266.465 939.658 247.352 922.922L47.6085 748.03Z" fill="#2BC2F7"/>
</svg>
