<svg width="10" height="10" viewBox="0 0 10 10" fill="none" xmlns="http://www.w3.org/2000/svg">
<g opacity="0.7">
<path d="M8.34937 7.02381C9.4125 6.07506 10 5.00006 10 5.00006C10 5.00006 8.125 1.56256 5 1.56256C4.39975 1.56463 3.80628 1.6897 3.25625 1.93006L3.7375 2.41193C4.14215 2.26453 4.56934 2.18861 5 2.18756C6.325 2.18756 7.42438 2.91756 8.23 3.72318C8.61772 4.11299 8.9653 4.54076 9.2675 5.00006C9.23125 5.05443 9.19125 5.11443 9.14563 5.18006C8.93625 5.48006 8.62687 5.88006 8.23 6.27693C8.12687 6.38006 8.01937 6.48193 7.90688 6.58068L8.34937 7.02381Z" fill="#434343"/>
<path d="M7.06063 5.73506C7.2001 5.34496 7.22593 4.92328 7.13511 4.51907C7.04429 4.11487 6.84055 3.74476 6.54761 3.45182C6.25467 3.15888 5.88457 2.95515 5.48036 2.86433C5.07616 2.77351 4.65447 2.79934 4.26437 2.93881L4.77875 3.45318C5.01894 3.4188 5.26384 3.44084 5.49404 3.51754C5.72425 3.59423 5.93342 3.72349 6.10499 3.89507C6.27657 4.06664 6.40582 4.27581 6.48252 4.50601C6.55922 4.73621 6.58125 4.98111 6.54688 5.22131L7.06063 5.73506ZM5.22125 6.54693L5.735 7.06068C5.3449 7.20016 4.92322 7.22598 4.51901 7.13517C4.11481 7.04435 3.7447 6.84061 3.45176 6.54767C3.15882 6.25473 2.95509 5.88463 2.86427 5.48042C2.77345 5.07622 2.79928 4.65453 2.93875 4.26443L3.45312 4.77881C3.41875 5.019 3.44078 5.2639 3.51748 5.4941C3.59418 5.7243 3.72343 5.93348 3.89501 6.10505C4.06658 6.27663 4.27575 6.40588 4.50596 6.48258C4.73616 6.55928 4.98106 6.58131 5.22125 6.54693Z" fill="#434343"/>
<path d="M2.09375 3.41881C1.98125 3.51881 1.87312 3.62006 1.77 3.72318C1.38228 4.11299 1.0347 4.54076 0.7325 5.00006L0.854375 5.18006C1.06375 5.48006 1.37313 5.88006 1.77 6.27693C2.57563 7.08256 3.67563 7.81256 5 7.81256C5.4475 7.81256 5.86875 7.72943 6.2625 7.58756L6.74375 8.07006C6.19371 8.3104 5.60025 8.43547 5 8.43756C1.875 8.43756 0 5.00006 0 5.00006C0 5.00006 0.586875 3.92443 1.65062 2.97631L2.09312 3.41943L2.09375 3.41881ZM8.52875 8.97131L1.02875 1.47131L1.47125 1.02881L8.97125 8.52881L8.52875 8.97131Z" fill="#434343"/>
</g>
</svg>
