<svg width="8" height="8" viewBox="0 0 8 8" fill="none" xmlns="http://www.w3.org/2000/svg">
<g clip-path="url(#clip0_476_2316)">
<path opacity="0.7" d="M4 0.475098L7.305 2.0001H7.75C7.8163 2.0001 7.87989 2.02644 7.92678 2.07332C7.97366 2.12021 8 2.18379 8 2.2501V3.2501C8 3.3164 7.97366 3.37999 7.92678 3.42687C7.87989 3.47376 7.8163 3.5001 7.75 3.5001H7.5V7.0001C7.55577 7.00011 7.60993 7.01877 7.65387 7.05311C7.69781 7.08745 7.729 7.13549 7.7425 7.1896L7.9925 8.1896C8.00169 8.22644 8.00237 8.2649 7.99447 8.30204C7.98658 8.33919 7.97034 8.37405 7.94696 8.40398C7.92359 8.43391 7.8937 8.45812 7.85957 8.47477C7.82545 8.49143 7.78797 8.50009 7.75 8.5001H0.25C0.212026 8.50009 0.174553 8.49143 0.140425 8.47477C0.106298 8.45812 0.076413 8.43391 0.0530389 8.40398C0.0296649 8.37405 0.0134159 8.33919 0.00552543 8.30204C-0.00236508 8.2649 -0.00168981 8.22644 0.0075 8.1896L0.2575 7.1896C0.270995 7.13549 0.302194 7.08745 0.346134 7.05311C0.390075 7.01877 0.444234 7.00011 0.5 7.0001V3.5001H0.25C0.183696 3.5001 0.120107 3.47376 0.0732233 3.42687C0.0263392 3.37999 0 3.3164 0 3.2501V2.2501C0 2.18379 0.0263392 2.12021 0.0732233 2.07332C0.120107 2.02644 0.183696 2.0001 0.25 2.0001H0.695L4 0.475098ZM1.888 2.0001H6.1115L4 1.0251L1.888 2.0001ZM1 3.5001V7.0001H1.5V3.5001H1ZM2 3.5001V7.0001H3.25V3.5001H2ZM3.75 3.5001V7.0001H4.25V3.5001H3.75ZM4.75 3.5001V7.0001H6V3.5001H4.75ZM6.5 3.5001V7.0001H7V3.5001H6.5ZM7.5 3.0001V2.5001H0.5V3.0001H7.5ZM7.305 7.5001H0.695L0.57 8.0001H7.43L7.305 7.5001Z" fill="#434343"/>
</g>
<defs>
<clipPath id="clip0_476_2316">
<rect width="8" height="8" fill="white"/>
</clipPath>
</defs>
</svg>
