<svg width="10" height="10" viewBox="0 0 10 10" fill="none" xmlns="http://www.w3.org/2000/svg">
<g clip-path="url(#clip0_476_2193)">
<path opacity="0.7" d="M4.16634 6.66667V6.25H1.25384L1.24967 7.91667C1.24967 8.37917 1.62051 8.75 2.08301 8.75H7.91634C8.37884 8.75 8.74967 8.37917 8.74967 7.91667V6.25H5.83301V6.66667H4.16634ZM8.33301 2.91667H6.66217V2.08333L5.82884 1.25H4.16217L3.32884 2.08333V2.91667H1.66634C1.20801 2.91667 0.833008 3.29167 0.833008 3.75V5C0.833008 5.4625 1.20384 5.83333 1.66634 5.83333H4.16634V5H5.83301V5.83333H8.33301C8.79134 5.83333 9.16634 5.45833 9.16634 5V3.75C9.16634 3.29167 8.79134 2.91667 8.33301 2.91667ZM5.83301 2.91667H4.16634V2.08333H5.83301V2.91667Z" fill="#434343"/>
</g>
<defs>
<clipPath id="clip0_476_2193">
<rect width="10" height="10" fill="white"/>
</clipPath>
</defs>
</svg>
