<svg width="12" height="13" viewBox="0 0 12 13" fill="none" xmlns="http://www.w3.org/2000/svg">
<g opacity="0.7">
<path d="M0 3.5C0 3.10218 0.158035 2.72064 0.43934 2.43934C0.720644 2.15804 1.10218 2 1.5 2H10.5C10.8978 2 11.2794 2.15804 11.5607 2.43934C11.842 2.72064 12 3.10218 12 3.5V9.5C12 9.89782 11.842 10.2794 11.5607 10.5607C11.2794 10.842 10.8978 11 10.5 11H1.5C1.10218 11 0.720644 10.842 0.43934 10.5607C0.158035 10.2794 0 9.89782 0 9.5V3.5ZM1.5 2.75C1.30109 2.75 1.11032 2.82902 0.96967 2.96967C0.829018 3.11032 0.75 3.30109 0.75 3.5V3.66275L6 6.81275L11.25 3.66275V3.5C11.25 3.30109 11.171 3.11032 11.0303 2.96967C10.8897 2.82902 10.6989 2.75 10.5 2.75H1.5ZM11.25 4.53725L7.719 6.656L11.25 8.82875V4.53725ZM11.2245 9.69425L6.9945 7.091L6 7.68725L5.0055 7.091L0.7755 9.6935C0.818119 9.8531 0.912237 9.99416 1.04324 10.0948C1.17425 10.1954 1.33481 10.25 1.5 10.25H10.5C10.6651 10.25 10.8256 10.1956 10.9566 10.0951C11.0876 9.9946 11.1817 9.85371 11.2245 9.69425ZM0.75 8.82875L4.281 6.656L0.75 4.53725V8.82875Z" fill="#2F4050"/>
</g>
</svg>
