<svg width="19" height="20" viewBox="0 0 19 20" fill="none" xmlns="http://www.w3.org/2000/svg">
<g opacity="0.8">
<path d="M7.125 10C8.06983 10 8.97597 9.62467 9.64407 8.95657C10.3122 8.28847 10.6875 7.38233 10.6875 6.4375C10.6875 5.49267 10.3122 4.58653 9.64407 3.91843C8.97597 3.25033 8.06983 2.875 7.125 2.875C6.18017 2.875 5.27403 3.25033 4.60593 3.91843C3.93783 4.58653 3.5625 5.49267 3.5625 6.4375C3.5625 7.38233 3.93783 8.28847 4.60593 8.95657C5.27403 9.62467 6.18017 10 7.125 10ZM9.5 6.4375C9.5 7.06739 9.24978 7.67148 8.80438 8.11688C8.35898 8.56228 7.75489 8.8125 7.125 8.8125C6.49511 8.8125 5.89102 8.56228 5.44562 8.11688C5.00022 7.67148 4.75 7.06739 4.75 6.4375C4.75 5.80761 5.00022 5.20352 5.44562 4.75812C5.89102 4.31272 6.49511 4.0625 7.125 4.0625C7.75489 4.0625 8.35898 4.31272 8.80438 4.75812C9.24978 5.20352 9.5 5.80761 9.5 6.4375ZM14.25 15.9375C14.25 17.125 13.0625 17.125 13.0625 17.125H1.1875C1.1875 17.125 0 17.125 0 15.9375C0 14.75 1.1875 11.1875 7.125 11.1875C13.0625 11.1875 14.25 14.75 14.25 15.9375ZM13.0625 15.9328C13.0613 15.6406 12.8796 14.7619 12.0745 13.9567C11.3003 13.1825 9.84319 12.375 7.125 12.375C4.40562 12.375 2.94975 13.1825 2.1755 13.9567C1.37038 14.7619 1.18988 15.6406 1.1875 15.9328H13.0625Z" fill="black"/>
<path fill-rule="evenodd" clip-rule="evenodd" d="M16.0312 6.4375C16.1887 6.4375 16.3397 6.50006 16.4511 6.61141C16.5624 6.72276 16.625 6.87378 16.625 7.03125V8.8125H18.4062C18.5637 8.8125 18.7147 8.87506 18.8261 8.98641C18.9374 9.09775 19 9.24878 19 9.40625C19 9.56372 18.9374 9.71475 18.8261 9.82609C18.7147 9.93744 18.5637 10 18.4062 10H16.625V11.7812C16.625 11.9387 16.5624 12.0897 16.4511 12.2011C16.3397 12.3124 16.1887 12.375 16.0312 12.375C15.8738 12.375 15.7228 12.3124 15.6114 12.2011C15.5001 12.0897 15.4375 11.9387 15.4375 11.7812V10H13.6562C13.4988 10 13.3478 9.93744 13.2364 9.82609C13.1251 9.71475 13.0625 9.56372 13.0625 9.40625C13.0625 9.24878 13.1251 9.09775 13.2364 8.98641C13.3478 8.87506 13.4988 8.8125 13.6562 8.8125H15.4375V7.03125C15.4375 6.87378 15.5001 6.72276 15.6114 6.61141C15.7228 6.50006 15.8738 6.4375 16.0312 6.4375Z" fill="black"/>
</g>
</svg>
