<svg width="22" height="22" viewBox="0 0 22 22" fill="none" xmlns="http://www.w3.org/2000/svg">
<path d="M11 11.4277C12.0443 11.4277 13.0458 11.0129 13.7842 10.2745C14.5227 9.53604 14.9375 8.53452 14.9375 7.49023C14.9375 6.44594 14.5227 5.44443 13.7842 4.706C13.0458 3.96758 12.0443 3.55273 11 3.55273C9.95571 3.55273 8.95419 3.96758 8.21577 4.706C7.47734 5.44443 7.0625 6.44594 7.0625 7.49023C7.0625 8.53452 7.47734 9.53604 8.21577 10.2745C8.95419 11.0129 9.95571 11.4277 11 11.4277ZM13.625 7.49023C13.625 8.18643 13.3484 8.85411 12.8562 9.34639C12.3639 9.83867 11.6962 10.1152 11 10.1152C10.3038 10.1152 9.63613 9.83867 9.14384 9.34639C8.65156 8.85411 8.375 8.18643 8.375 7.49023C8.375 6.79404 8.65156 6.12636 9.14384 5.63408C9.63613 5.1418 10.3038 4.86523 11 4.86523C11.6962 4.86523 12.3639 5.1418 12.8562 5.63408C13.3484 6.12636 13.625 6.79404 13.625 7.49023ZM18.875 17.9902C18.875 19.3027 17.5625 19.3027 17.5625 19.3027H4.4375C4.4375 19.3027 3.125 19.3027 3.125 17.9902C3.125 16.6777 4.4375 12.7402 11 12.7402C17.5625 12.7402 18.875 16.6777 18.875 17.9902ZM17.5625 17.985C17.5612 17.6621 17.3604 16.6909 16.4705 15.801C15.6147 14.9452 14.0043 14.0527 11 14.0527C7.99438 14.0527 6.38525 14.9452 5.5295 15.801C4.63963 16.6909 4.44012 17.6621 4.4375 17.985H17.5625Z" fill="white"/>
</svg>
