<svg width="20" height="20" viewBox="0 0 20 20" fill="none" xmlns="http://www.w3.org/2000/svg">
<g opacity="0.8">
<path d="M0.902345 7.71493C0.902198 7.6328 0.918241 7.55145 0.949555 7.47552C0.98087 7.39959 1.02684 7.33058 1.08484 7.27243L7.27234 1.08493C7.38955 0.967764 7.54849 0.901941 7.71422 0.901941C7.87995 0.901941 8.03889 0.967764 8.1561 1.08493C8.75609 1.68493 8.89109 2.42493 8.89109 2.96368C8.89109 3.18493 8.86859 3.38243 8.84234 3.53868L12.7598 7.45618C13.1754 7.35306 13.599 7.28614 14.0261 7.25618C14.9036 7.19868 16.1348 7.29618 16.9948 8.15618C17.112 8.27339 17.1778 8.43233 17.1778 8.59806C17.1778 8.76379 17.112 8.92273 16.9948 9.03993L13.4598 12.5762L17.4373 16.5537C17.6811 16.7974 18.5648 18.0774 18.3211 18.3212C18.0773 18.5649 16.7961 17.6812 16.5536 17.4374L12.5761 13.4599L9.03984 16.9949C8.92264 17.1121 8.7637 17.1779 8.59797 17.1779C8.43224 17.1779 8.2733 17.1121 8.1561 16.9949C7.29609 16.1349 7.19734 14.9037 7.25609 14.0262C7.28602 13.5991 7.35294 13.1754 7.45609 12.7599L3.53984 8.84243C3.34949 8.87513 3.15674 8.89186 2.96359 8.89243C2.42609 8.89243 1.68609 8.75743 1.08484 8.15618C0.968009 8.03905 0.90238 7.88037 0.902345 7.71493ZM3.54235 7.56243H3.53984H3.54235ZM3.53984 7.56243H3.54235C3.65231 7.52633 3.77013 7.52148 3.88269 7.5484C3.99525 7.57533 4.09812 7.63298 4.17984 7.71493L8.59734 12.1337C8.6791 12.2158 8.73642 12.319 8.7629 12.4318C8.78939 12.5446 8.78401 12.6625 8.74734 12.7724V12.7749L8.74234 12.7924C8.70672 12.9114 8.67504 13.0314 8.64735 13.1524C8.57399 13.4669 8.52551 13.7866 8.50235 14.1087C8.46734 14.6362 8.51234 15.1537 8.68985 15.5774L15.5761 8.68993C15.1511 8.51368 14.6348 8.46868 14.1073 8.50368C13.6608 8.53553 13.219 8.616 12.7898 8.74368L12.7736 8.74868H12.7723C12.6623 8.78559 12.5441 8.79111 12.431 8.76462C12.318 8.73812 12.2146 8.68066 12.1323 8.59868L7.71359 4.17868C7.62796 4.09357 7.56881 3.98547 7.5433 3.86746C7.51779 3.74944 7.52701 3.62657 7.56985 3.51368L7.59734 3.39368C7.61859 3.28493 7.63984 3.13368 7.63984 2.96368C7.63984 2.82118 7.62609 2.67618 7.58984 2.53493L2.53484 7.59118C2.67609 7.62743 2.82234 7.64118 2.96359 7.64118C3.15782 7.64057 3.35114 7.61452 3.53859 7.56368L3.53984 7.56243Z" fill="black"/>
</g>
</svg>
