<svg width="21" height="22" viewBox="0 0 21 22" fill="none" xmlns="http://www.w3.org/2000/svg">
<g opacity="0.8" clip-path="url(#clip0_1470_2563)">
<path d="M10.5013 6.73995C9.94182 6.73995 9.38781 6.85014 8.87092 7.06425C8.35403 7.27835 7.88437 7.59217 7.48876 7.98778C7.09314 8.38339 6.77933 8.85305 6.56522 9.36995C6.35112 9.88684 6.24092 10.4408 6.24092 11.0003C6.24092 11.5598 6.35112 12.1138 6.56522 12.6307C6.77933 13.1476 7.09314 13.6172 7.48876 14.0129C7.88437 14.4085 8.35403 14.7223 8.87092 14.9364C9.38781 15.1505 9.94182 15.2607 10.5013 15.2607C11.6312 15.2607 12.7149 14.8118 13.5138 14.0129C14.3128 13.2139 14.7617 12.1302 14.7617 11.0003C14.7617 9.8704 14.3128 8.78676 13.5138 7.98778C12.7149 7.1888 11.6312 6.73995 10.5013 6.73995ZM7.55342 11.0003C7.55342 10.2185 7.864 9.46869 8.41683 8.91586C8.96967 8.36302 9.71947 8.05245 10.5013 8.05245C11.2831 8.05245 12.0329 8.36302 12.5858 8.91586C13.1386 9.46869 13.4492 10.2185 13.4492 11.0003C13.4492 11.7821 13.1386 12.5319 12.5858 13.0848C12.0329 13.6376 11.2831 13.9482 10.5013 13.9482C9.71947 13.9482 8.96967 13.6376 8.41683 13.0848C7.864 12.5319 7.55342 11.7821 7.55342 11.0003Z" fill="black"/>
<path d="M12.8585 2.26301C12.1669 -0.0863672 8.83573 -0.0863672 8.14405 2.26301L8.02067 2.6817C7.97237 2.84569 7.88797 2.99681 7.77368 3.12395C7.65939 3.2511 7.51809 3.35106 7.36014 3.4165C7.2022 3.48194 7.03161 3.51121 6.86089 3.50216C6.69016 3.49311 6.52362 3.44597 6.37348 3.3642L5.99023 3.1542C3.83773 1.98345 1.48442 4.33807 2.65648 6.48926L2.86517 6.87251C2.94695 7.02265 2.99409 7.18918 3.00314 7.35991C3.01219 7.53064 2.98292 7.70122 2.91748 7.85917C2.85203 8.01711 2.75208 8.15841 2.62493 8.2727C2.49778 8.387 2.34667 8.47139 2.18267 8.5197L1.76398 8.64307C-0.585391 9.33476 -0.585391 12.6659 1.76398 13.3576L2.18267 13.4809C2.34667 13.5293 2.49778 13.6136 2.62493 13.7279C2.75208 13.8422 2.85203 13.9835 2.91748 14.1415C2.98292 14.2994 3.01219 14.47 3.00314 14.6407C2.99409 14.8115 2.94695 14.978 2.86517 15.1281L2.65517 15.5114C1.48442 17.6639 3.83773 20.0185 5.99023 18.8451L6.37348 18.6364C6.52362 18.5547 6.69016 18.5075 6.86089 18.4985C7.03161 18.4894 7.2022 18.5187 7.36014 18.5841C7.51809 18.6496 7.65939 18.7495 7.77368 18.8767C7.88797 19.0038 7.97237 19.1549 8.02067 19.3189L8.14405 19.7376C8.83573 22.087 12.1669 22.087 12.8585 19.7376L12.9819 19.3189C13.0302 19.1549 13.1146 19.0038 13.2289 18.8767C13.3432 18.7495 13.4845 18.6496 13.6424 18.5841C13.8004 18.5187 13.971 18.4894 14.1417 18.4985C14.3124 18.5075 14.479 18.5547 14.6291 18.6364L15.0124 18.8464C17.1649 20.0185 19.5195 17.6626 18.3461 15.5114L18.1374 15.1281C18.0556 14.978 18.0085 14.8115 17.9995 14.6407C17.9904 14.47 18.0197 14.2994 18.0851 14.1415C18.1506 13.9835 18.2505 13.8422 18.3777 13.7279C18.5048 13.6136 18.6559 13.5293 18.8199 13.4809L19.2386 13.3576C21.588 12.6659 21.588 9.33476 19.2386 8.64307L18.8199 8.5197C18.6559 8.47139 18.5048 8.387 18.3777 8.2727C18.2505 8.15841 18.1506 8.01711 18.0851 7.85917C18.0197 7.70122 17.9904 7.53064 17.9995 7.35991C18.0085 7.18918 18.0556 7.02265 18.1374 6.87251L18.3474 6.48926C19.5195 4.33676 17.1635 1.98345 15.0124 3.15551L14.6291 3.3642C14.479 3.44597 14.3124 3.49311 14.1417 3.50216C13.971 3.51121 13.8004 3.48194 13.6424 3.4165C13.4845 3.35106 13.3432 3.2511 13.2289 3.12395C13.1146 2.99681 13.0302 2.84569 12.9819 2.6817L12.8585 2.26301ZM9.40273 2.63445C9.72561 1.53851 11.277 1.53851 11.5999 2.63445L11.7232 3.05313C11.8269 3.40499 12.0081 3.72919 12.2534 4.00194C12.4987 4.27469 12.8019 4.48909 13.1408 4.62942C13.4798 4.76975 13.8458 4.83245 14.2121 4.81292C14.5784 4.79339 14.9357 4.69213 15.2578 4.51657L15.6397 4.30657C16.6425 3.76188 17.7397 4.85782 17.1937 5.86188L16.985 6.24513C16.8097 6.56726 16.7087 6.92452 16.6894 7.29074C16.6701 7.65697 16.733 8.02287 16.8734 8.36165C17.0139 8.70043 17.2283 9.00349 17.5011 9.24863C17.7738 9.49377 18.098 9.67477 18.4498 9.77838L18.8672 9.90176C19.9631 10.2246 19.9631 11.776 18.8672 12.0989L18.4485 12.2223C18.0966 12.326 17.7724 12.5071 17.4997 12.7524C17.2269 12.9977 17.0125 13.3009 16.8722 13.6399C16.7319 13.9788 16.6692 14.3448 16.6887 14.7111C16.7082 15.0774 16.8095 15.4347 16.985 15.7568L17.195 16.1388C17.7397 17.1415 16.6438 18.2388 15.6397 17.6928L15.2578 17.4841C14.9356 17.3085 14.5782 17.2073 14.2119 17.1879C13.8455 17.1684 13.4794 17.2312 13.1404 17.3717C12.8015 17.5122 12.4983 17.7267 12.2531 17.9996C12.0078 18.2725 11.8268 18.5968 11.7232 18.9488L11.5999 19.3662C11.277 20.4621 9.72561 20.4621 9.40273 19.3662L9.27936 18.9475C9.1756 18.5958 8.99448 18.2718 8.74928 17.9992C8.50408 17.7266 8.201 17.5123 7.86224 17.372C7.52348 17.2317 7.15763 17.1689 6.79147 17.1883C6.42532 17.2077 6.06815 17.3088 5.74611 17.4841L5.36286 17.6941C4.36011 18.2388 3.26286 17.1428 3.80886 16.1388L4.01755 15.7568C4.19336 15.4347 4.29481 15.0773 4.31447 14.7108C4.33412 14.3443 4.27148 13.9781 4.13114 13.639C3.99079 13.2999 3.7763 12.9966 3.50341 12.7512C3.23052 12.5058 2.90615 12.3246 2.55411 12.2209L2.13542 12.0976C1.03948 11.7747 1.03948 10.2233 2.13542 9.90044L2.55411 9.77707C2.9056 9.67326 3.22944 9.49218 3.50192 9.24707C3.7744 9.00196 3.98862 8.69902 4.12892 8.36043C4.26921 8.02184 4.33202 7.65617 4.31275 7.29017C4.29348 6.92417 4.19262 6.56712 4.01755 6.24513L3.80755 5.86188C3.26286 4.85913 4.3588 3.76188 5.36286 4.30788L5.74611 4.51657C6.06815 4.69189 6.42532 4.79295 6.79147 4.81235C7.15763 4.83174 7.52348 4.76899 7.86224 4.62868C8.201 4.48837 8.50408 4.27406 8.74928 4.00144C8.99448 3.72883 9.1756 3.40481 9.27936 3.05313L9.40273 2.63445Z" fill="black"/>
</g>
<defs>
<clipPath id="clip0_1470_2563">
<rect width="21" height="21" fill="white" transform="translate(0 0.5)"/>
</clipPath>
</defs>
</svg>
